<svg xmlns="http://www.w3.org/2000/svg" xmlns:xlink="http://www.w3.org/1999/xlink" width="124.417" height="124.418" viewBox="0 0 124.417 124.418">
  <defs>
    <clipPath id="clip-path">
      <rect id="Rectángulo_379515" data-name="Rectángulo 379515" width="115" height="115" transform="translate(389.246 2670.246)" fill="#fff" stroke="#707070" stroke-width="1"/>
    </clipPath>
    <linearGradient id="linear-gradient" x1="0.989" y1="1.001" x2="0.081" y2="0.049" gradientUnits="objectBoundingBox">
      <stop offset="0" stop-color="#8c50af"/>
      <stop offset="1" stop-color="#fbe3b1"/>
    </linearGradient>
    <clipPath id="clip-path-2">
      <rect id="Rectángulo_379517" data-name="Rectángulo 379517" width="84" height="84" transform="translate(405 1987.3)" fill="#fff" stroke="#707070" stroke-width="1"/>
    </clipPath>
    <clipPath id="clip-path-3">
      <rect id="Rectángulo_379705" data-name="Rectángulo 379705" width="79.667" height="79.368" fill="#543f5c"/>
    </clipPath>
  </defs>
  <g id="Grupo_1075465" data-name="Grupo 1075465" transform="translate(-14365 9464.301)">
    <g id="Enmascarar_grupo_1074697" data-name="Enmascarar grupo 1074697" transform="translate(13979.754 -12129.546)" clip-path="url(#clip-path)">
      <rect id="Imagen_33" data-name="Imagen 33" width="128.611" height="124.518" transform="translate(382.686 2667.283)" fill="#fff"/>
    </g>
    <path id="Sustracción_216" data-name="Sustracción 216" d="M113.2,113.2H0V0H113.2V113.2ZM6.49,6.49V106.714H106.713V6.49Z" transform="matrix(-0.995, -0.105, 0.105, -0.995, 14477.584, -9339.883)" fill="url(#linear-gradient)"/>
    <g id="Enmascarar_grupo_1074698" data-name="Enmascarar grupo 1074698" transform="translate(13980 -11430.3)" clip-path="url(#clip-path-2)">
      <g id="Grupo_1075327" data-name="Grupo 1075327" transform="translate(407 1989.3)">
        <g id="Grupo_1075326" data-name="Grupo 1075326" clip-path="url(#clip-path-3)">
          <path id="Trazado_642822" data-name="Trazado 642822" d="M63.531,117.823c-.492.235-.917.436-1.339.641-.458.223-.918.44-1.365.682a.427.427,0,0,0-.213.3,5.021,5.021,0,0,1-4.5,4.86.4.4,0,0,0-.43.4,5.418,5.418,0,0,1-1.4,3.01,5,5,0,0,1-3.3,1.55c-.231.016-.327.076-.335.331a4.642,4.642,0,0,1-2.677,4.058,4.691,4.691,0,0,1-3.067.463c-.059-.009-.118-.016-.175-.028a.563.563,0,0,0-.761.418,8.879,8.879,0,0,1-2.252,2.9c-.421.449-.879.865-1.336,1.277a5.019,5.019,0,0,1-8.123-1.9,6.684,6.684,0,0,1-.314-1.416c-.034-.208-.1-.273-.31-.286a5.02,5.02,0,0,1-4.624-4.6c-.018-.262-.111-.332-.356-.357a4.878,4.878,0,0,1-4.279-3.2A9.773,9.773,0,0,1,22,125.337c-.53-.141-1.088-.245-1.615-.436a4.658,4.658,0,0,1-3.029-6.139c.066-.215.039-.363-.173-.464-.327-.155-.652-.316-1.028-.5-.06.245-.115.422-.147.6a1.525,1.525,0,0,1-2.046,1.372c-.883-.218-1.745-.519-2.614-.791q-3.182-1-6.362-2c-1.263-.4-2.526-.8-3.78-1.219A1.6,1.6,0,0,1,0,114.119c0-.083,0-.166,0-.249q0-13.519,0-27.038a3.116,3.116,0,0,1,.043-.565A1.506,1.506,0,0,1,2.338,85.11c.925.453,1.831.943,2.746,1.416l14.854,7.681c.147.076.293.154.437.237a1.586,1.586,0,0,1,.849,2.113c-.07.249-.13.5-.212.82.3-.039.54-.051.773-.106q2.209-.526,4.414-1.07c1.216-.3,2.42-.655,3.646-.906a12.23,12.23,0,0,1,8.364,1.231.882.882,0,0,0,1.144-.084,7.652,7.652,0,0,1,5.377-1.763,18.106,18.106,0,0,1,3.026.58c3.14.747,6.274,1.522,9.412,2.284.512.124,1.027.236,1.586.365-.118-.508-.229-1-.346-1.486a1.516,1.516,0,0,1,.829-1.934c.744-.416,1.508-.794,2.264-1.186q7.786-4.036,15.573-8.071a1.979,1.979,0,0,1,1.319-.311,1.583,1.583,0,0,1,1.268,1.591c.009.118.006.237.006.355q0,13.484,0,26.967a4.52,4.52,0,0,1-.049.636,1.452,1.452,0,0,1-1.057,1.257q-2.65.854-5.305,1.693c-2.31.734-4.619,1.471-6.933,2.195a4.475,4.475,0,0,1-1.107.223,1.434,1.434,0,0,1-1.484-1.17c-.057-.251-.117-.5-.2-.844M35.953,98.881c-.021-.053-.023-.067-.03-.071-.053-.026-.106-.052-.162-.073a9.756,9.756,0,0,0-5.594-.394c-1.814.384-3.6.887-5.4,1.331-1.4.346-2.8.693-4.21,1.012a.477.477,0,0,0-.429.418q-.9,3.818-1.811,7.633-.674,2.831-1.351,5.662c-.058.24-.034.416.21.527.709.325,1.417.655,2.146.992.5-.5,1-1.013,1.507-1.5a5.1,5.1,0,0,1,4.528-1.443,4.982,4.982,0,0,1,4.035,4.067c.08.7.1.693.81.826.093.017.185.042.277.065a5.051,5.051,0,0,1,3.949,4.557c.017.232.128.265.315.28a4.89,4.89,0,0,1,3.029,1.333c.633.59,1.253,1.194,1.867,1.8q2.333,2.32,4.654,4.651a1.946,1.946,0,0,0,1.225.579,1.908,1.908,0,0,0,2.117-1.689,2.2,2.2,0,0,0-.671-1.79c-1.711-1.693-3.408-3.4-5.109-5.1-1.065-1.065-2.138-2.121-3.189-3.2a1.415,1.415,0,0,1-.031-1.969,1.393,1.393,0,0,1,1.91-.3,4.213,4.213,0,0,1,.6.493q2.106,2.094,4.2,4.2,1.836,1.836,3.675,3.669a2.244,2.244,0,0,0,1.908.745,1.951,1.951,0,0,0,1.629-2.383,3.214,3.214,0,0,0-.944-1.352q-3.011-2.974-6.02-5.951c-.665-.659-1.344-1.306-1.978-1.995a1.542,1.542,0,0,1,2.243-2.118q3.859,3.862,7.714,7.726a6.3,6.3,0,0,0,.95.851,1.96,1.96,0,0,0,3.036-1.64,2.035,2.035,0,0,0-.679-1.47q-1.551-1.665-3.121-3.313c-1.649-1.72-3.312-3.427-4.964-5.144-.624-.649-1.228-1.318-1.856-1.964a.446.446,0,0,0-.378-.113c-2.507.959-5.008,1.936-7.513,2.9a6.959,6.959,0,0,1-2.5.611,5.522,5.522,0,0,1-5.3-3.8,5.4,5.4,0,0,1,1.965-6.113c.757-.57,1.531-1.118,2.295-1.679.158-.116.3-.249.445-.365M13.345,116.421c.336-1.42.661-2.8.989-4.177q.878-3.692,1.761-7.383Q17.04,100.929,18,97a.359.359,0,0,0-.226-.491q-6.087-3.143-12.165-6.3C4.807,89.792,4,89.385,3.15,88.954V113.2l10.194,3.22M76.5,113.21V88.963c-.156.074-.273.125-.388.184Q71.622,91.474,67.13,93.8q-2.647,1.373-5.288,2.76a.411.411,0,0,0-.193.326c.345,1.485.714,2.965,1.07,4.448q.992,4.141,1.975,8.284c.355,1.483.719,2.965,1.075,4.448.185.769.361,1.54.551,2.353L76.5,113.21M34.086,105.2A2.3,2.3,0,0,0,36,107.723a2.929,2.929,0,0,0,1.633-.214q2.435-.933,4.867-1.871,2.1-.806,4.207-1.6a1.406,1.406,0,0,1,1.48.324,4.885,4.885,0,0,1,.381.372Q51.688,108,54.8,111.266c1.529,1.6,3.064,3.2,4.581,4.817a.385.385,0,0,0,.539.111c.859-.423,1.722-.84,2.592-1.24.249-.115.247-.281.2-.493q-.45-1.9-.9-3.8c-.708-2.968-1.428-5.934-2.113-8.907a.794.794,0,0,0-.692-.68c-.6-.128-1.2-.255-1.8-.4-1.732-.426-3.46-.868-5.194-1.29-1.263-.308-2.531-.6-3.8-.89-1.082-.251-2.158-.538-3.25-.738a4.517,4.517,0,0,0-3.309.768c-.865.557-1.673,1.2-2.5,1.811q-2.036,1.489-4.07,2.982a2.122,2.122,0,0,0-1,1.884m.182,20.619a1.622,1.622,0,0,0-1.282.526c-.816.791-1.629,1.585-2.406,2.414a2.048,2.048,0,0,0-.484.925,1.9,1.9,0,0,0,.916,2.095,1.814,1.814,0,0,0,2.294-.234c.869-.8,1.7-1.647,2.516-2.505a1.856,1.856,0,0,0,.3-2.123,1.8,1.8,0,0,0-1.852-1.1M22.276,122.2a1.315,1.315,0,0,0,.983-.409c.927-.88,1.849-1.768,2.74-2.685a1.676,1.676,0,0,0,.413-1.456,1.818,1.818,0,0,0-1.257-1.578,1.905,1.905,0,0,0-2.074.43c-.8.792-1.6,1.585-2.377,2.4a1.779,1.779,0,0,0-.41,2.061,1.974,1.974,0,0,0,1.983,1.24m9.11.631a1.925,1.925,0,0,0-1.149-1.773,1.844,1.844,0,0,0-2.146.326c-.879.828-1.715,1.7-2.55,2.577a1.548,1.548,0,0,0-.347.644,1.932,1.932,0,0,0,.8,2.208,2.1,2.1,0,0,0,2.444-.25c.817-.774,1.612-1.572,2.395-2.381a1.86,1.86,0,0,0,.553-1.352M37,136.93a1.818,1.818,0,0,0,1.5-.66c.563-.576,1.138-1.14,1.7-1.713.216-.219.435-.438.628-.677a1.877,1.877,0,0,0-.305-2.713,1.834,1.834,0,0,0-2.545.073c-.861.795-1.7,1.62-2.494,2.48A1.943,1.943,0,0,0,37,136.93" transform="translate(0 -60.662)" fill="#543f5c"/>
          <path id="Trazado_642823" data-name="Trazado 642823" d="M68.332,15.583c0,.662,0,1.289,0,1.916a1.6,1.6,0,0,1-.664,1.417,1.5,1.5,0,0,1-2.37-1.038c-.063-.635-.041-1.279-.057-1.918,0-.116,0-.232,0-.432-.543.038-1.061.038-1.568.115A8.99,8.99,0,0,0,56.8,20.536a9.233,9.233,0,0,0-.979,4.18c-.008.266.124.271.33.271,1.28,0,2.56,0,3.839.041a1.431,1.431,0,0,1,1.326,1.234,1.528,1.528,0,0,1-.674,1.461,2.313,2.313,0,0,1-1,.326c-1.73.025-3.461.029-5.191-.02C53.331,28,52.821,27.42,52.775,26.3c-.024-.585-.024-.578-.588-.577q-6.312.008-12.624.013a1.749,1.749,0,0,1-1.543-.637.97.97,0,0,1-.232-.5,20.64,20.64,0,0,1,.075-3.864A10.956,10.956,0,0,1,45.4,11.936c.032-.011.062-.029.126-.059-.056-.107-.1-.211-.162-.309a6.466,6.466,0,0,1-1.051-3.8A19.642,19.642,0,0,1,44.4,5.283a6.247,6.247,0,0,1,12.282-.319,11.358,11.358,0,0,1-.072,4.764,11.472,11.472,0,0,1-.794,1.849,2.728,2.728,0,0,1-.164.276,13.416,13.416,0,0,1,1.384.573c.7.385,1.386.814,2.059,1.253a.489.489,0,0,0,.565.043c.586-.274,1.195-.5,1.82-.752-.021-.035-.069-.124-.128-.206A6.69,6.69,0,0,1,60.06,8.7,21.789,21.789,0,0,1,60.2,5.481,6.727,6.727,0,0,1,73.538,6.672a27.01,27.01,0,0,1-.063,2.948A6.19,6.19,0,0,1,72.3,12.67c-.079.112-.157.226-.2.289.659.274,1.3.544,1.938.8a.415.415,0,0,0,.337,0,10.919,10.919,0,0,1,3.566-1.871c-.134-.242-.255-.467-.384-.688a6.018,6.018,0,0,1-.8-3.021,13.733,13.733,0,0,1,.181-3.4A6.322,6.322,0,0,1,82.19.063a6.239,6.239,0,0,1,6.6,3.874,5.5,5.5,0,0,1,.486,2.416,15.327,15.327,0,0,0,0,1.636,6.16,6.16,0,0,1-1.005,3.5c-.226.376-.229.369.188.53a11.174,11.174,0,0,1,7.1,7.837,11.912,11.912,0,0,1,.277,2.852c.02.556.009,1.115-.012,1.672a1.4,1.4,0,0,1-1.228,1.3,8.8,8.8,0,0,1-.993.053q-6.241,0-12.482-.013c-.092,0-.184.01-.32.018,0,.273.016.532,0,.788a1.52,1.52,0,0,1-1.437,1.495,6.711,6.711,0,0,1-.815.048c-1.588-.009-3.176-.013-4.763-.045a1.473,1.473,0,0,1-1.209-.651,1.34,1.34,0,0,1-.193-1.435,1.361,1.361,0,0,1,1.239-.914q1.919-.026,3.838-.027c.2,0,.31-.007.306-.254a8.984,8.984,0,0,0-3.419-7.192,8.8,8.8,0,0,0-5.79-1.99c-.057,0-.114.012-.229.025m8.529.1c.08.087.131.152.192.207a11.7,11.7,0,0,1,2.377,3.125,13.52,13.52,0,0,1,1.187,3.335c.048.2.105.329.367.328q5.636-.025,11.272-.027h.5a7.8,7.8,0,0,0-7.955-8.2c-.2.006-.275.066-.273.268,0,.427,0,.854-.023,1.28a1.481,1.481,0,0,1-1.883,1.306,1.592,1.592,0,0,1-1.16-1.6c-.015-.4,0-.8,0-1.211a7.494,7.494,0,0,0-4.593,1.193m-20.167,0a7.717,7.717,0,0,0-4.287-1.232c-.211.006-.259.1-.257.285,0,.367.012.736-.014,1.1a1.57,1.57,0,0,1-1.547,1.543,1.521,1.521,0,0,1-1.515-1.554c-.019-.355-.021-.711-.007-1.066.009-.216-.064-.283-.279-.3a6.113,6.113,0,0,0-3.067.6,7.761,7.761,0,0,0-4.9,7.16c-.014.353.076.435.42.435q5.615,0,11.23.029c.321,0,.454-.081.523-.4a12.035,12.035,0,0,1,2.461-5.213c.39-.472.816-.915,1.237-1.385M63.155,7.8h-.046q0,.516,0,1.032a3.681,3.681,0,1,0,7.362-.051c-.009-.58-.032-1.163,0-1.741a3.682,3.682,0,0,0-7.311-.836,12.61,12.61,0,0,0-.01,1.6m16.72-.577H79.84a13.546,13.546,0,0,0,.094,1.734,3.165,3.165,0,0,0,4.525,2.029,2.975,2.975,0,0,0,1.7-2.529c.053-.838.03-1.681.018-2.521a2.229,2.229,0,0,0-.134-.692A3.135,3.135,0,0,0,82.774,3.1,3.044,3.044,0,0,0,79.88,5.807c-.035.471-.005.947-.005,1.42M53.72,7.2h-.013c0-.4,0-.806,0-1.209a2.737,2.737,0,0,0-.933-2.072,3.215,3.215,0,0,0-2.519-.816,3.026,3.026,0,0,0-2.794,2.546,12.963,12.963,0,0,0-.023,2.979,3.168,3.168,0,0,0,4.608,2.355,2.927,2.927,0,0,0,1.676-2.858c-.012-.308,0-.616,0-.924" transform="translate(-26.961 -0.001)" fill="#543f5c"/>
          <path id="Trazado_642824" data-name="Trazado 642824" d="M137.276,89.1a1.513,1.513,0,1,1-3.025,0,1.513,1.513,0,0,1,3.025,0" transform="translate(-95.929 -62.608)" fill="#543f5c"/>
        </g>
      </g>
    </g>
  </g>
</svg>
