<svg xmlns="http://www.w3.org/2000/svg" xmlns:xlink="http://www.w3.org/1999/xlink" width="124.417" height="124.418" viewBox="0 0 124.417 124.418">
  <defs>
    <clipPath id="clip-path">
      <rect id="Rectángulo_379691" data-name="Rectángulo 379691" width="115" height="115" transform="translate(389.246 2670.246)" fill="#fff" stroke="#707070" stroke-width="1"/>
    </clipPath>
    <linearGradient id="linear-gradient" x1="0.989" y1="1.001" x2="0.081" y2="0.049" gradientUnits="objectBoundingBox">
      <stop offset="0" stop-color="#8c50af"/>
      <stop offset="1" stop-color="#fbe3b1"/>
    </linearGradient>
    <clipPath id="clip-path-2">
      <rect id="Rectángulo_379701" data-name="Rectángulo 379701" width="84" height="84" transform="translate(405 1987.3)" fill="#543f5c" stroke="#707070" stroke-width="1"/>
    </clipPath>
    <clipPath id="clip-path-3">
      <rect id="Rectángulo_379707" data-name="Rectángulo 379707" width="80.523" height="80.326" fill="#543f5c"/>
    </clipPath>
  </defs>
  <g id="Grupo_1075463" data-name="Grupo 1075463" transform="translate(-740 -2235.699)">
    <g id="Enmascarar_grupo_1074736" data-name="Enmascarar grupo 1074736" transform="translate(354.754 -429.546)" clip-path="url(#clip-path)">
      <rect id="Imagen_38" data-name="Imagen 38" width="128.611" height="124.518" transform="translate(382.686 2667.283)" fill="#fff"/>
    </g>
    <path id="Sustracción_230" data-name="Sustracción 230" d="M113.2,113.2H0V0H113.2V113.2ZM6.49,6.49V106.714H106.713V6.49Z" transform="matrix(-0.995, -0.105, 0.105, -0.995, 852.584, 2360.117)" fill="url(#linear-gradient)"/>
    <g id="Enmascarar_grupo_1074738" data-name="Enmascarar grupo 1074738" transform="translate(355 269.7)" clip-path="url(#clip-path-2)">
      <g id="Grupo_1075331" data-name="Grupo 1075331" transform="translate(407.001 1989.299)">
        <g id="Grupo_1075330" data-name="Grupo 1075330" clip-path="url(#clip-path-3)">
          <path id="Trazado_642830" data-name="Trazado 642830" d="M75.944,22.469v3.149h4.577V33.6H78.259V27.97H75.951V31.1H63.838a2.76,2.76,0,0,1-.028-.287c0-.863,0-1.727-.006-2.59,0-.081-.083-.23-.13-.231-.68-.015-1.361-.01-2.1-.01v.607q.006,9.989.013,19.977c0,.612.009.615.609.616l13.247,0h2.785V36.016h2.3V51.551H80.1c-2.5,0-4.992,0-7.488,0a.416.416,0,0,0-.472.309A34.024,34.024,0,0,1,56.782,69.771c-.112.064-.223.131-.313.184a17.692,17.692,0,0,1,.461,3.805c.015,2.064.01,4.127.012,6.191,0,.118-.01.236-.017.374H34.009V78.067H54.6c.013-.125.03-.215.031-.305,0-1.5.078-3-.008-4.5a13.871,13.871,0,0,0-7.4-11.772.546.546,0,0,0-.723.067,8.7,8.7,0,0,1-4.712,2.054A9.746,9.746,0,0,1,34.209,61.6a.562.562,0,0,0-.735-.058,14.2,14.2,0,0,0-7.215,9.245,11.133,11.133,0,0,0-.438,3.12c.042,1.234.01,2.471.01,3.707v.416H31.6v2.295H23.508c0-.231,0-.466,0-.7-.013-1.812-.046-3.623-.033-5.435a13.491,13.491,0,0,1,.564-3.935c.079-.253-.076-.314-.235-.4a35.2,35.2,0,0,1-4.669-3.1,34.356,34.356,0,0,1-8.376-9.64A30.414,30.414,0,0,1,8.2,51.654a.918.918,0,0,0-.582-.62c-.471-.175-.931-.381-1.4-.552-.185-.067-.273-.154-.259-.358.04-.61.034-1.225.114-1.83a.87.87,0,0,0-.316-.878c-.31-.263-.572-.582-.876-.853a.707.707,0,0,0-.426-.186c-.7,0-1.391.033-2.086.069a.388.388,0,0,1-.433-.282c-.611-1.5-1.225-2.992-1.851-4.481a.446.446,0,0,1,.146-.613c.491-.4.963-.83,1.424-1.268a.685.685,0,0,0,.2-.427c.02-.563.008-1.127,0-1.691a.377.377,0,0,0-.118-.238C1.2,36.961.671,36.475.128,36c-.179-.155-.14-.293-.064-.472q.882-2.1,1.752-4.212c.282-.687.275-.694,1.018-.632.5.042,1,.115,1.5.139a.725.725,0,0,0,.475-.165A12.454,12.454,0,0,0,5.876,29.59a.855.855,0,0,0,.181-.535c-.012-.647-.058-1.293-.1-1.939a.375.375,0,0,1,.278-.428c1.021-.413,2.033-.85,3.053-1.264a.943.943,0,0,0,.526-.494,33.627,33.627,0,0,1,9.28-11.358,32.414,32.414,0,0,1,7.637-4.55,1.626,1.626,0,0,0,.95-.911A13.028,13.028,0,0,1,35.519.855,13.086,13.086,0,0,1,41.493.08a13.418,13.418,0,0,1,11.1,7.68c.122.245.192.518.328.754a.9.9,0,0,0,.364.31c1.491.764,3.035,1.438,4.473,2.29A33,33,0,0,1,68.668,21.587a1.678,1.678,0,0,0,1.685.906c1.843-.077,3.692-.024,5.591-.024M53.823,11.58a13.324,13.324,0,0,1-2.705,10.406,13.336,13.336,0,0,1-9.246,5.343A12.973,12.973,0,0,1,32.2,24.794,13.72,13.72,0,0,1,26.53,11.649c-.036,0-.063-.008-.082,0a30.856,30.856,0,0,0-5.855,3.628,31.805,31.805,0,0,0-8.289,9.79c-.294.537-.263.515.131,1.014a1.047,1.047,0,0,0,.989.42c.43-.027.866.018,1.294-.019a.938.938,0,0,0,.545-.253c.437-.444.832-.929,1.265-1.378a.454.454,0,0,1,.4-.106c1.544.621,3.078,1.265,4.619,1.893a.437.437,0,0,1,.326.511c-.059.608-.106,1.219-.121,1.83a.857.857,0,0,0,.186.539,13.226,13.226,0,0,0,1.087,1.1.813.813,0,0,0,.5.2c.455,0,.91-.048,1.364-.085.909-.075.9-.073,1.248.791q.814,1.995,1.668,3.974a.364.364,0,0,1-.094.5c-.484.43-.962.868-1.425,1.321a.706.706,0,0,0-.206.428,14.517,14.517,0,0,0,.011,1.582.955.955,0,0,0,.247.557c.442.456.915.882,1.385,1.311a.35.35,0,0,1,.093.468c-.5,1.153-.985,2.313-1.478,3.47-.159.374-.309.754-.5,1.108a.514.514,0,0,1-.389.2c-.6,0-1.2-.031-1.8-.071a.882.882,0,0,0-.783.337c-.291.334-.628.628-.919.962a.709.709,0,0,0-.166.441c.014.647.053,1.294.1,1.94a.383.383,0,0,1-.291.45q-2.3.922-4.583,1.889a.363.363,0,0,1-.494-.1c-.418-.479-.835-.96-1.275-1.418a.8.8,0,0,0-.483-.243c-.539-.026-1.08-.012-1.619.01a.609.609,0,0,0-.374.168c-.52.531-1.031,1.071-1.527,1.625a.453.453,0,0,0-.081.39,31.262,31.262,0,0,0,5.057,7.99,32.627,32.627,0,0,0,8.355,6.869c.188.109.279.085.361-.1.039-.088.081-.174.121-.261a16.566,16.566,0,0,1,5.755-6.811c.47-.324.962-.616,1.462-.934-.1-.158-.189-.3-.279-.439A9.26,9.26,0,0,1,30.451,54.4c-.068-1.965-.038-3.935-.021-5.9a9.524,9.524,0,0,1,1.018-4.187,9.888,9.888,0,0,1,18.773,4.311q.02,2.591,0,5.183a9.379,9.379,0,0,1-.767,3.815c-.3.663-.653,1.3-.976,1.94a16.352,16.352,0,0,1,7.287,8.154A31.765,31.765,0,0,0,66.415,57.97,29.346,29.346,0,0,0,69.8,51.543H59.254V25.619h4.581V22.46h2.7A32.2,32.2,0,0,0,53.823,11.58M40.252,25.025A11.1,11.1,0,0,0,51.622,13.6a11.416,11.416,0,0,0-22.83-.068c.051,6.656,4.8,11.489,11.46,11.495m-15.1,16.94c-.368-.334-.749-.7-1.15-1.036a.824.824,0,0,1-.32-.684c.007-1.116-.012-2.232.012-3.347a.977.977,0,0,1,.267-.584A12.91,12.91,0,0,1,25,35.365a.282.282,0,0,0,.081-.4c-.24-.535-.476-1.074-.667-1.627a.294.294,0,0,0-.36-.238c-.467.03-.934.065-1.4.07a.692.692,0,0,1-.456-.132c-.881-.866-1.755-1.741-2.6-2.639a1.014,1.014,0,0,1-.2-.643c0-.418.078-.836.09-1.254a.4.4,0,0,0-.2-.3c-.588-.268-1.185-.518-1.786-.757a.338.338,0,0,0-.3.054c-.319.342-.605.714-.929,1.05a.759.759,0,0,1-.466.239c-1.224.019-2.448.021-3.672,0a.917.917,0,0,1-.538-.263c-.314-.294-.578-.642-.892-.937a.5.5,0,0,0-.424-.093c-.54.2-1.061.441-1.6.643a.363.363,0,0,0-.279.425c.037.49.065.982.07,1.473a.575.575,0,0,1-.152.371c-.854.86-1.713,1.714-2.589,2.551a.856.856,0,0,1-.532.2c-.442.008-.887-.031-1.329-.066a.323.323,0,0,0-.389.221q-.307.786-.651,1.558a.432.432,0,0,0,.136.568c.363.313.729.626,1.071.962a.673.673,0,0,1,.189.425c.015,1.152.019,2.3,0,3.455a.839.839,0,0,1-.244.511c-.328.332-.688.633-1.044.937a.4.4,0,0,0-.121.509q.33.777.651,1.558a.364.364,0,0,0,.415.252c.466-.034.934-.055,1.4-.056a.652.652,0,0,1,.418.138Q7.01,45.393,8.29,46.683a.776.776,0,0,1,.184.5c0,.455-.031.911-.068,1.365a.384.384,0,0,0,.279.465c.527.2,1.046.417,1.561.642a.365.365,0,0,0,.478-.094c.3-.331.582-.673.9-.976a.93.93,0,0,1,.549-.266c1.188-.024,2.376-.021,3.563,0a.727.727,0,0,1,.458.214c.333.344.629.724.953,1.077a.334.334,0,0,0,.281.1c.627-.236,1.251-.485,1.864-.755a.415.415,0,0,0,.189-.323,9.586,9.586,0,0,0-.107-1.217.74.74,0,0,1,.236-.708c.728-.714,1.486-1.4,2.149-2.175A1.412,1.412,0,0,1,23.147,44c.4.049.8.042,1.146.058l.862-2.1M47.873,52.742c0-.108,0-.216,0-.324,0-.477.147-1.042-.057-1.408-.214-.382-.767-.578-1.178-.845-1.227-.8-2.46-1.583-3.684-2.383a.755.755,0,0,0-.9-.052c-.347.211-.721.377-1.085.56q-4,2.013-7.99,4.029c-.1.05-.226.169-.23.26a9.734,9.734,0,0,0,.465,3.933A7.568,7.568,0,0,0,40.945,61.4a7.436,7.436,0,0,0,6.573-5.17,10.982,10.982,0,0,0,.355-3.489m-15.107-2.9c.091-.039.155-.063.216-.093q4.685-2.357,9.368-4.719a.523.523,0,0,1,.594.023c1.532,1.007,3.072,2,4.611,3a2.388,2.388,0,0,0,.3.132c-.027-.216-.049-.366-.064-.516a7.212,7.212,0,0,0-2.958-5.138,7.5,7.5,0,0,0-6.013-1.283,6.991,6.991,0,0,0-4.92,3.37,8.277,8.277,0,0,0-1.131,5.226M66.175,28.772H73.61V24.8H66.175Z" transform="translate(0 0)" fill="#543f5c"/>
          <path id="Trazado_642831" data-name="Trazado 642831" d="M232.7,135.7c0-.57,0-1.13,0-1.69-.007-.7-.128-.658.635-.656,1.427,0,2.854.014,4.281.008.293,0,.392.071.368.389-.038.513-.007,1.03-.008,1.546,0,.129-.012.258-.02.4Z" transform="translate(-165.456 -94.823)" fill="#543f5c"/>
          <path id="Trazado_642832" data-name="Trazado 642832" d="M232.706,118.792c0-.693-.006-1.4.011-2.1,0-.062.155-.166.244-.173.31-.024.623-.018.934-.017q1.8,0,3.6.006h.483c.012.136.026.228.026.32,0,.575,0,1.15,0,1.726,0,.167,0,.311-.233.309-1.643-.008-3.285-.01-4.928-.016a.526.526,0,0,1-.136-.055" transform="translate(-165.469 -82.84)" fill="#543f5c"/>
          <path id="Trazado_642833" data-name="Trazado 642833" d="M237.982,150.222c0,.749.008,1.44-.012,2.131,0,.073-.162.2-.25.2-1.58.01-3.161,0-4.741,0-.22,0-.3-.062-.292-.284.01-.587,0-1.173,0-1.76,0-.179.031-.3.253-.3,1.663,0,3.326,0,5.045,0" transform="translate(-165.454 -106.816)" fill="#543f5c"/>
          <path id="Trazado_642834" data-name="Trazado 642834" d="M126.827,245.238h2.388c0,.738.006,1.461-.01,2.184,0,.065-.148.18-.229.182-.633.016-1.267.017-1.9,0a.329.329,0,0,1-.237-.216c-.019-.7-.011-1.406-.011-2.149" transform="translate(-90.181 -174.38)" fill="#543f5c"/>
          <path id="Trazado_642835" data-name="Trazado 642835" d="M145.585,245.257c0,.739.008,1.443-.011,2.146,0,.075-.159.205-.248.209-.634.025-1.268.03-1.9.021a.294.294,0,0,1-.2-.208c-.015-.715-.009-1.431-.009-2.168Z" transform="translate(-101.835 -174.394)" fill="#543f5c"/>
          <path id="Trazado_642836" data-name="Trazado 642836" d="M124.8,27.268c.873-.953,1.713-1.887,2.575-2.8a1.448,1.448,0,0,0,.415-1.092c-.026-2.648-.021-5.3-.03-7.945,0-.2.031-.31.275-.3.681.015,1.363.005,2.081.005.007.151.021.3.021.454,0,2.936-.006,5.873,0,8.809a1.129,1.129,0,0,1-.324.836c-1.063,1.138-2.111,2.291-3.173,3.429a.287.287,0,0,1-.278.028c-.522-.456-1.03-.928-1.568-1.419" transform="translate(-88.742 -10.755)" fill="#543f5c"/>
          <path id="Trazado_642837" data-name="Trazado 642837" d="M33.451,124.723c-3.63-.151-6.109-2.633-6.079-6.127a5.916,5.916,0,0,1,6.253-5.97,6.051,6.051,0,0,1-.174,12.1m-3.816-6.054a3.749,3.749,0,0,0,3.685,3.738,3.648,3.648,0,0,0,3.792-3.783,3.609,3.609,0,0,0-3.766-3.684,3.707,3.707,0,0,0-3.711,3.73" transform="translate(-19.463 -80.083)" fill="#543f5c"/>
        </g>
      </g>
    </g>
  </g>
</svg>
