<svg xmlns="http://www.w3.org/2000/svg" xmlns:xlink="http://www.w3.org/1999/xlink" width="124.417" height="124.418" viewBox="0 0 124.417 124.418">
  <defs>
    <clipPath id="clip-path">
      <rect id="Rectángulo_379689" data-name="Rectángulo 379689" width="115" height="115" transform="translate(389.246 2670.246)" fill="#fff" stroke="#707070" stroke-width="1"/>
    </clipPath>
    <linearGradient id="linear-gradient" x1="0.989" y1="1.001" x2="0.081" y2="0.049" gradientUnits="objectBoundingBox">
      <stop offset="0" stop-color="#8c50af"/>
      <stop offset="1" stop-color="#fbe3b1"/>
    </linearGradient>
    <clipPath id="clip-path-2">
      <rect id="Rectángulo_379699" data-name="Rectángulo 379699" width="84" height="84" transform="translate(403 1987.3)" fill="#543f5c" stroke="#707070" stroke-width="1"/>
    </clipPath>
    <clipPath id="clip-path-3">
      <rect id="Rectángulo_379708" data-name="Rectángulo 379708" width="79.667" height="69.943" fill="#563b3b"/>
    </clipPath>
  </defs>
  <g id="Grupo_1075462" data-name="Grupo 1075462" transform="translate(-387 -2235.699)">
    <g id="Enmascarar_grupo_1074734" data-name="Enmascarar grupo 1074734" transform="translate(1.754 -429.546)" clip-path="url(#clip-path)">
      <rect id="Imagen_36" data-name="Imagen 36" width="128.611" height="124.518" transform="translate(382.686 2667.283)" fill="#fff"/>
    </g>
    <path id="Sustracción_228" data-name="Sustracción 228" d="M113.2,113.2H0V0H113.2V113.2ZM6.49,6.49V106.714H106.713V6.49Z" transform="matrix(-0.995, -0.105, 0.105, -0.995, 499.584, 2360.117)" fill="url(#linear-gradient)"/>
    <g id="Enmascarar_grupo_1074737" data-name="Enmascarar grupo 1074737" transform="translate(4 269.7)" clip-path="url(#clip-path-2)">
      <g id="Grupo_1075333" data-name="Grupo 1075333" transform="translate(405 1994.3)">
        <g id="Grupo_1075332" data-name="Grupo 1075332" clip-path="url(#clip-path-3)">
          <path id="Trazado_642838" data-name="Trazado 642838" d="M24.736,60.277v-14.3c-.37-.017-.732-.035-1.094-.05a1.121,1.121,0,0,1-1.172-1.191,1.067,1.067,0,0,1,1.169-1.1c.353-.012.707,0,1.084,0V2.392c-.618.072-1.228.114-1.827.218A17.426,17.426,0,0,0,11.809,9.274a1.264,1.264,0,0,1-1.358.623,1.061,1.061,0,0,1-.716-1.557,7.629,7.629,0,0,1,.888-1.194,20.162,20.162,0,0,1,8.037-5.7A19.951,19.951,0,0,1,25.7.084c.9-.014,1.324.422,1.324,1.333q0,4.785,0,9.57v.435h9.388v-.442c0-1.34.012-2.68,0-4.02a2.119,2.119,0,0,1,1.324-2.125,1.951,1.951,0,0,1,2.21.394c.528.494,1.052.993,1.563,1.5q4.047,4.052,8.086,8.111a3.285,3.285,0,0,1,.336.367,2.519,2.519,0,0,1-.074,3.549c-.722.859-1.562,1.621-2.36,2.416q-3.4,3.391-6.809,6.774c-.269.267-.542.531-.83.777a1.906,1.906,0,0,1-2.122.339,2.094,2.094,0,0,1-1.319-2.02c-.006-1.376,0-2.751,0-4.127V22.5H27.027v.449q0,22.787,0,45.573c0,1.055-.389,1.456-1.456,1.476-.6.011-1.209,0-1.814,0L4.441,70c-.142,0-.285,0-.426-.017a1.14,1.14,0,0,1-.973-1.8A26.032,26.032,0,0,1,6.8,62.894,25.625,25.625,0,0,1,17.955,55.75c.531-.171.5-.171.541-.713a.755.755,0,0,0-.551-.868A19.784,19.784,0,0,1,7.82,44.479,17.14,17.14,0,0,1,6.237,39.6a.646.646,0,0,0-.429-.545,9.423,9.423,0,0,1-4.121-3.27A9.775,9.775,0,0,1,.039,31.269a6.441,6.441,0,0,1,3.992-6.594,10.977,10.977,0,0,1,1.505-.4c.224-.051.3-.136.3-.379.006-1.6.008-3.2.059-4.8a18.169,18.169,0,0,1,1.114-5.729,1.14,1.14,0,1,1,2.216.535,22.6,22.6,0,0,0-.754,2.769,32.573,32.573,0,0,0-.31,3.784c-.055,1.564,0,3.131-.044,4.695-.026,1.007-.444,1.353-1.456,1.371a6.265,6.265,0,0,0-1.34.108,4.192,4.192,0,0,0-2.965,4.9,7.458,7.458,0,0,0,1.446,3.314A6.6,6.6,0,0,0,7.169,37.11a1.472,1.472,0,0,1,1.163,1.345A17.722,17.722,0,0,0,19.34,52.315c1.377.541,1.446.584,1.419,2.05a6.628,6.628,0,0,0,.738,3.428,5.322,5.322,0,0,0,3.239,2.484m13.959-33.6a.741.741,0,0,0,.129-.072q4.467-4.436,8.93-8.875c.753-.749.759-.793.007-1.543q-4.384-4.368-8.782-8.723c-.07-.07-.153-.128-.284-.236v.409q0,2.49,0,4.98a.9.9,0,0,1-.674.968,3.538,3.538,0,0,1-1.01.15c-3.142.01-6.284.005-9.426,0h-.537v6.4a2.063,2.063,0,0,0,.221.025l9.248-.009c.285,0,.57-.01.853.007a1.241,1.241,0,0,1,1.326,1.408q0,2.365,0,4.731v.371M5.961,67.664H24.732V62.579a3.31,3.31,0,0,1-.349-.089,17.469,17.469,0,0,1-1.978-.764,7.389,7.389,0,0,1-3.312-3.68c-.105-.233-.21-.269-.431-.18-.35.142-.714.252-1.067.387A23.5,23.5,0,0,0,6.906,66.31c-.315.424-.606.867-.945,1.354" transform="translate(0 -0.06)" fill="#563b3b"/>
          <path id="Trazado_642839" data-name="Trazado 642839" d="M127.631,2.316v.507q0,10.549,0,21.1a2.985,2.985,0,0,1-.047.6,1.077,1.077,0,0,1-1.27.908,1.053,1.053,0,0,1-.956-1.058c-.008-.106,0-.213,0-.32q0-11.314,0-22.628c0-1.055.43-1.456,1.484-1.42a20.18,20.18,0,0,1,18.939,14.579,21.012,21.012,0,0,1,.763,5.507c.032,1.233.019,2.467,0,3.7,0,.282.072.388.359.435a6.343,6.343,0,0,1,5.465,6.655,8.854,8.854,0,0,1-5.117,7.771A2.063,2.063,0,0,0,146,40.222a19.572,19.572,0,0,1-9.3,12.749,27.537,27.537,0,0,1-2.467,1.252.485.485,0,0,0-.344.526c.022.759.009.75.741,1a25.784,25.784,0,0,1,14.758,12.466,1.123,1.123,0,0,1-.789,1.672,3.067,3.067,0,0,1-.6.05q-10.53.006-21.059.006c-.142,0-.285,0-.426-.017a1.128,1.128,0,0,1-1.154-1.255c-.006-1.328,0-2.657,0-3.985V51.351h-1.63c-2.443,0-4.886.006-7.328-.007-.339,0-.443.092-.439.437q.028,2.134,0,4.269a2.106,2.106,0,0,1-2.655,2.035,2.58,2.58,0,0,1-.953-.592q-2.718-2.639-5.4-5.315c-1.364-1.353-2.715-2.718-4.074-4.075a3.605,3.605,0,0,1-1.038-1.71,2.633,2.633,0,0,1,.815-2.49c1.086-1.159,2.225-2.269,3.348-3.392Q109,37.519,112,34.534A2.492,2.492,0,0,1,113.8,33.6a2.143,2.143,0,0,1,2.156,2.132q.011,2.153,0,4.3c0,.238.053.327.316.327,2.881-.007,5.763,0,8.644,0h.433v-.434q0-4.981,0-9.962a1.244,1.244,0,0,1,.449-1.1,1.083,1.083,0,0,1,1.755.622,3.056,3.056,0,0,1,.073.7q.006,6.44,0,12.879v.5c.408,0,.785-.02,1.158,0a1.124,1.124,0,0,1,1.118,1.174,1.1,1.1,0,0,1-1.04,1.1c-.4.022-.8,0-1.218,0V60.2a5.256,5.256,0,0,0,3.947-5.037,13.378,13.378,0,0,0,.011-1.494,1.1,1.1,0,0,1,.769-1.148c.37-.156.752-.286,1.12-.447A17.435,17.435,0,0,0,143.188,41.8a26.527,26.527,0,0,0,.87-3.5,1.413,1.413,0,0,1,.976-1.192A6.859,6.859,0,0,0,150,31.583a4.373,4.373,0,0,0-2.108-4.706,4.2,4.2,0,0,0-2.025-.443,1.467,1.467,0,0,1-1.178-.267,1.953,1.953,0,0,1-.407-.676,1.852,1.852,0,0,1-.062-.633c0-1.66.03-3.321-.007-4.981-.148-6.714-3.2-11.75-8.889-15.23A16.7,16.7,0,0,0,130,2.637c-.76-.161-1.544-.213-2.372-.322M113.684,36.138c-.14.121-.214.178-.28.244q-4.509,4.492-9.016,8.988c-.426.425-.42.574-.018,1l.049.051q4.574,4.551,9.15,9.1c.019.019.06.015.115.027v-.4q0-2.418,0-4.837a1.122,1.122,0,0,1,1.034-1.186,7.092,7.092,0,0,1,.922-.046q4.658-.006,9.316,0c.125,0,.25-.016.373-.024V42.7a.639.639,0,0,0-.121-.028q-4.747.01-9.493.021c-.284,0-.569-.013-.852-.039a1.169,1.169,0,0,1-1.179-1.284q0-2.4,0-4.8v-.432m32.692,31.478a.576.576,0,0,0-.042-.147c-.933-1.179-1.788-2.43-2.816-3.519a22.752,22.752,0,0,0-9.1-5.879c-.31-.109-.69-.367-.919-.27-.25.105-.37.536-.532.832a7.353,7.353,0,0,1-4.739,3.736c-.192.051-.384.1-.568.146v5.1Z" transform="translate(-72.713 0)" fill="#563b3b"/>
          <path id="Trazado_642840" data-name="Trazado 642840" d="M48.6,119.654a6.848,6.848,0,0,1-4.6-1.743,1.271,1.271,0,0,1-.494-.984,1.1,1.1,0,0,1,1.73-.912c.249.181.479.389.731.565a4.153,4.153,0,0,0,5.138-.191c.12-.1.232-.2.354-.3a1.127,1.127,0,0,1,1.572.091,1.216,1.216,0,0,1-.083,1.588,5.979,5.979,0,0,1-2.868,1.629c-.561.136-1.139.2-1.476.255" transform="translate(-31.078 -82.74)" fill="#563b3b"/>
          <path id="Trazado_642841" data-name="Trazado 642841" d="M206.394,119.636a6.947,6.947,0,0,1-4.736-1.812,1.22,1.22,0,0,1-.349-1.266,1.029,1.029,0,0,1,.892-.76,1.117,1.117,0,0,1,.966.343,4.78,4.78,0,0,0,1.7,1.008,4.152,4.152,0,0,0,3.916-.73c.13-.1.251-.217.382-.319a1.109,1.109,0,0,1,1.622.074,1.153,1.153,0,0,1-.122,1.607,5.894,5.894,0,0,1-2.605,1.53c-.635.172-1.3.255-1.661.324" transform="translate(-143.796 -82.72)" fill="#563b3b"/>
          <path id="Trazado_642842" data-name="Trazado 642842" d="M252.134,105.58a5.615,5.615,0,0,1,1.56-3.517,1.112,1.112,0,1,1,1.644,1.5,3.753,3.753,0,0,0-.927,2.394,1.091,1.091,0,0,1-1.174.99,1.15,1.15,0,0,1-1.1-1.08c0-.095,0-.189,0-.284" transform="translate(-180.142 -72.651)" fill="#563b3b"/>
          <path id="Trazado_642843" data-name="Trazado 642843" d="M18.189,105.6c-.039.923-.6,1.447-1.458,1.313a1.089,1.089,0,0,1-.887-1.017,3.761,3.761,0,0,0-.9-2.3,1.118,1.118,0,1,1,1.64-1.518,4.919,4.919,0,0,1,1.237,2.088c.147.471.246.957.366,1.435" transform="translate(-10.444 -72.654)" fill="#563b3b"/>
        </g>
      </g>
    </g>
  </g>
</svg>
