<svg xmlns="http://www.w3.org/2000/svg" xmlns:xlink="http://www.w3.org/1999/xlink" width="62.504" height="62.504" viewBox="0 0 62.504 62.504">
  <defs>
    <clipPath id="clip-path">
      <rect id="Rect치ngulo_379498" data-name="Rect치ngulo 379498" width="42" height="45" transform="translate(269.204 1099.149)" fill="#fff" stroke="#707070" stroke-width="1"/>
    </clipPath>
    <clipPath id="clip-path-2">
      <rect id="Rect치ngulo_379497" data-name="Rect치ngulo 379497" width="39.112" height="38.991" fill="#12263f"/>
    </clipPath>
  </defs>
  <g id="Grupo_1075087" data-name="Grupo 1075087" transform="translate(-271 -1090)">
    <g id="Grupo_1075078" data-name="Grupo 1075078" transform="translate(-8.816 -108.717)">
      <g id="Grupo_1072053" data-name="Grupo 1072053" transform="translate(279.816 1198.717)">
        <circle id="Elipse_4742" data-name="Elipse 4742" cx="31.252" cy="31.252" r="31.252" transform="translate(0)" fill="#7edbb4"/>
      </g>
    </g>
    <g id="Enmascarar_grupo_1074691" data-name="Enmascarar grupo 1074691" transform="translate(11.796 -0.149)" clip-path="url(#clip-path)">
      <g id="Grupo_1075083" data-name="Grupo 1075083" transform="translate(270.928 1101.891)">
        <g id="Grupo_1075083-2" data-name="Grupo 1075083" clip-path="url(#clip-path-2)">
          <path id="Trazado_642259" data-name="Trazado 642259" d="M60.58,19.537V19.7c0,1.077.011,2.154,0,3.231a1.348,1.348,0,0,1-.733,1.294,1.132,1.132,0,0,1-1.057,0,1.778,1.778,0,0,1-.447-.33q-2.168-2.166-4.328-4.339a.26.26,0,0,0-.161-.078c-2.811,0-5.622.008-8.433.007a.589.589,0,0,0-.466.2c-1.037,1.054-2.085,2.1-3.131,3.143q-.549.55-1.1,1.1a1.3,1.3,0,0,1-1.1.418,1.276,1.276,0,0,1-1.072-1.09,2.105,2.105,0,0,1-.036-.381q0-1.6,0-3.2c0-.063,0-.126,0-.189a3.667,3.667,0,0,1-3.461-2.633,4.347,4.347,0,0,1-.164-1.17q-.017-5.974-.006-11.948a3.678,3.678,0,0,1,2.8-3.6A5.268,5.268,0,0,1,38.833.006Q49.58,0,60.328,0a3.711,3.711,0,0,1,3.346,1.791,3.779,3.779,0,0,1,.536,2.067q.008,5.922,0,11.843a3.669,3.669,0,0,1-2.44,3.556,11.907,11.907,0,0,1-1.19.279M47.856,9.759a2.249,2.249,0,0,0-.249.177q-1.038,1.023-2.072,2.051a1.441,1.441,0,0,0-.477,1.092,1.253,1.253,0,0,0,.895,1.111,1.3,1.3,0,0,0,1.249-.357q.552-.559,1.1-1.119c.4-.41.8-.822,1.21-1.238.068.061.108.094.144.13.39.392.775.789,1.169,1.176.423.416.838.841,1.286,1.228a1.253,1.253,0,0,0,1.351.045,1.239,1.239,0,0,0,.4-1.671,2.263,2.263,0,0,0-.376-.454q-.652-.656-1.318-1.3c-.292-.283-.593-.556-.9-.841.084-.088.122-.131.162-.171.757-.757,1.519-1.51,2.27-2.273a1.289,1.289,0,0,0,.21-1.426,1.245,1.245,0,0,0-1.946-.332q-1.009,1-2.02,2c-.131.13-.259.263-.406.412-.244-.248-.47-.481-.7-.71-.582-.579-1.166-1.155-1.747-1.734a1.33,1.33,0,0,0-1.355-.193,1.274,1.274,0,0,0-.357,1.98c.52.509,1.031,1.026,1.551,1.535.286.28.582.551.924.873" transform="translate(-29.986 0)" fill="#12263f"/>
          <path id="Trazado_642260" data-name="Trazado 642260" d="M194.649,182.167a4.868,4.868,0,0,1,6.48-7.25,4.665,4.665,0,0,1,1.8,3.54,4.845,4.845,0,0,1-1.452,3.714c.053.046.094.086.14.119a6.16,6.16,0,0,1,2.562,4.745,1.272,1.272,0,0,1-1.354,1.409q-4.758,0-9.516,0a1.241,1.241,0,0,1-1.334-1.364,6.009,6.009,0,0,1,2.4-4.679c.078-.061.156-.122.233-.184a.329.329,0,0,0,.039-.049" transform="translate(-165.065 -149.455)" fill="#12263f"/>
          <path id="Trazado_642261" data-name="Trazado 642261" d="M2.7,182.195a4.865,4.865,0,1,1,6.831.013c.053.045.1.092.158.133a5.976,5.976,0,0,1,2.272,3.238,7.309,7.309,0,0,1,.242,1.529,1.229,1.229,0,0,1-1.277,1.365c-.047,0-.093,0-.14,0-3.131,0-6.263,0-9.394-.007a1.7,1.7,0,0,1-.736-.167A1.227,1.227,0,0,1,0,187.014a6.147,6.147,0,0,1,2.477-4.632c.06-.046.121-.091.18-.138a.371.371,0,0,0,.041-.049" transform="translate(0 -149.484)" fill="#12263f"/>
        </g>
      </g>
    </g>
  </g>
</svg>
