<svg xmlns="http://www.w3.org/2000/svg" xmlns:xlink="http://www.w3.org/1999/xlink" width="62.504" height="62.504" viewBox="0 0 62.504 62.504">
  <defs>
    <clipPath id="clip-path">
      <rect id="Rect치ngulo_379503" data-name="Rect치ngulo 379503" width="42" height="45" transform="translate(268.956 1099.149)" fill="#fff" stroke="#707070" stroke-width="1"/>
    </clipPath>
    <clipPath id="clip-path-2">
      <rect id="Rect치ngulo_379502" data-name="Rect치ngulo 379502" width="40.193" height="37.36" fill="#12263f"/>
    </clipPath>
  </defs>
  <g id="Grupo_1075461" data-name="Grupo 1075461" transform="translate(-773 -1090)">
    <g id="Grupo_1075092" data-name="Grupo 1075092" transform="translate(493.184 -108.717)">
      <g id="Grupo_1072053" data-name="Grupo 1072053" transform="translate(279.816 1198.717)">
        <circle id="Elipse_4742" data-name="Elipse 4742" cx="31.252" cy="31.252" r="31.252" transform="translate(0)" fill="#7edbb4"/>
      </g>
    </g>
    <g id="Enmascarar_grupo_1074693" data-name="Enmascarar grupo 1074693" transform="translate(515.044 -0.149)" clip-path="url(#clip-path)">
      <g id="Grupo_1075091" data-name="Grupo 1075091" transform="translate(269.956 1103.149)">
        <g id="Grupo_1075090" data-name="Grupo 1075090" clip-path="url(#clip-path-2)">
          <path id="Trazado_642272" data-name="Trazado 642272" d="M63.655,18.72v.158c0,1.032.011,2.064,0,3.1a1.291,1.291,0,0,1-.7,1.24,1.084,1.084,0,0,1-1.013,0,1.7,1.7,0,0,1-.428-.316q-2.077-2.075-4.147-4.158a.249.249,0,0,0-.155-.074c-2.693,0-5.387.008-8.08.007a.565.565,0,0,0-.446.191c-.994,1.01-2,2.009-3,3.011q-.526.527-1.057,1.049a1.242,1.242,0,0,1-1.055.4,1.223,1.223,0,0,1-1.027-1.045,2.017,2.017,0,0,1-.034-.365q0-1.532,0-3.063v-.181a3.514,3.514,0,0,1-3.316-2.523,4.165,4.165,0,0,1-.157-1.121Q39.016,9.3,39.027,3.578A3.524,3.524,0,0,1,41.708.126a5.048,5.048,0,0,1,1.11-.12q10.3-.01,20.6,0A3.556,3.556,0,0,1,66.62,1.718a3.621,3.621,0,0,1,.513,1.98q.007,5.674,0,11.348A3.515,3.515,0,0,1,64.8,18.452a11.408,11.408,0,0,1-1.14.267M51.464,9.351a2.155,2.155,0,0,0-.238.17q-.995.981-1.985,1.965a1.381,1.381,0,0,0-.457,1.047A1.2,1.2,0,0,0,49.64,13.6a1.243,1.243,0,0,0,1.2-.342q.529-.535,1.056-1.072c.386-.393.77-.787,1.16-1.186.065.059.1.09.138.124.373.376.742.756,1.12,1.127.405.4.8.806,1.232,1.177a1.2,1.2,0,0,0,1.295.043,1.188,1.188,0,0,0,.38-1.6,2.168,2.168,0,0,0-.36-.435q-.625-.629-1.263-1.244c-.28-.271-.568-.533-.86-.806.08-.085.117-.125.156-.164.726-.725,1.456-1.446,2.175-2.178a1.235,1.235,0,0,0,.2-1.366A1.193,1.193,0,0,0,55.4,5.357q-.967.961-1.936,1.921c-.126.125-.248.252-.389.395-.234-.238-.45-.461-.67-.68-.557-.555-1.117-1.106-1.674-1.661a1.275,1.275,0,0,0-1.3-.185,1.22,1.22,0,0,0-.342,1.9c.5.487.988.983,1.486,1.471.274.268.557.528.885.837" transform="translate(-33.783 0)" fill="#12263f"/>
          <path id="Trazado_642273" data-name="Trazado 642273" d="M191.353,187.423a4.393,4.393,0,0,1,5.848-6.543,4.209,4.209,0,0,1,1.622,3.194,4.372,4.372,0,0,1-1.31,3.352c.048.041.085.077.126.107a5.559,5.559,0,0,1,2.312,4.282,1.148,1.148,0,0,1-1.222,1.271q-4.294,0-8.587,0a1.12,1.12,0,0,1-1.2-1.231,5.423,5.423,0,0,1,2.17-4.223c.07-.055.141-.11.21-.166a.3.3,0,0,0,.035-.044" transform="translate(-163.564 -155.728)" fill="#12263f"/>
          <path id="Trazado_642274" data-name="Trazado 642274" d="M166.16,188.276a4.854,4.854,0,0,1,.316-6.506,5.234,5.234,0,0,1,.512-.451,3.75,3.75,0,0,0-4.259,6.048.256.256,0,0,1-.03.038l-.179.141a4.626,4.626,0,0,0-1.851,3.6.956.956,0,0,0,1.027,1.05h2.31a5.862,5.862,0,0,1,2.155-3.923" transform="translate(-139.091 -156.639)" fill="#12263f"/>
          <path id="Trazado_642275" data-name="Trazado 642275" d="M250.221,181.97a5.184,5.184,0,0,0-1.728-2.129c-.038-.028-.073-.062-.118-.1A4.1,4.1,0,0,0,249.6,176.6a3.945,3.945,0,0,0-1.52-2.994,4.052,4.052,0,0,0-4.966-.157,5.042,5.042,0,0,1,1.381.794,4.7,4.7,0,0,1,1.81,3.563,4.8,4.8,0,0,1-1.087,3.311,6.05,6.05,0,0,1,2.172,3.928h2.122a1.076,1.076,0,0,0,1.145-1.192,5.174,5.174,0,0,0-.439-1.885" transform="translate(-210.468 -149.487)" fill="#12263f"/>
          <path id="Trazado_642276" data-name="Trazado 642276" d="M36.928,187.423a4.393,4.393,0,0,0-5.848-6.543,4.209,4.209,0,0,0-1.622,3.194,4.372,4.372,0,0,0,1.31,3.352c-.048.041-.085.077-.126.107a5.559,5.559,0,0,0-2.312,4.282,1.148,1.148,0,0,0,1.222,1.271q4.294,0,8.587,0a1.12,1.12,0,0,0,1.2-1.231,5.423,5.423,0,0,0-2.17-4.223c-.07-.055-.141-.11-.21-.166a.3.3,0,0,1-.035-.044" transform="translate(-24.525 -155.728)" fill="#12263f"/>
          <path id="Trazado_642277" data-name="Trazado 642277" d="M92.388,188.276a4.854,4.854,0,0,0-.316-6.506,5.236,5.236,0,0,0-.512-.451,3.75,3.75,0,0,1,4.259,6.048.255.255,0,0,0,.03.038l.179.141a4.626,4.626,0,0,1,1.851,3.6.956.956,0,0,1-1.027,1.05h-2.31a5.862,5.862,0,0,0-2.155-3.923" transform="translate(-79.264 -156.639)" fill="#12263f"/>
          <path id="Trazado_642278" data-name="Trazado 642278" d="M.44,181.97a5.184,5.184,0,0,1,1.728-2.129c.038-.028.073-.062.118-.1A4.1,4.1,0,0,1,1.058,176.6a3.945,3.945,0,0,1,1.52-2.994,4.052,4.052,0,0,1,4.966-.157,5.042,5.042,0,0,0-1.381.794,4.7,4.7,0,0,0-1.81,3.563,4.8,4.8,0,0,0,1.087,3.311,6.05,6.05,0,0,0-2.172,3.928H1.147A1.076,1.076,0,0,1,0,183.855,5.174,5.174,0,0,1,.44,181.97" transform="translate(0 -149.487)" fill="#12263f"/>
        </g>
      </g>
    </g>
  </g>
</svg>
