<svg xmlns="http://www.w3.org/2000/svg" xmlns:xlink="http://www.w3.org/1999/xlink" width="62.504" height="62.504" viewBox="0 0 62.504 62.504">
  <defs>
    <clipPath id="clip-path">
      <rect id="Rect치ngulo_379505" data-name="Rect치ngulo 379505" width="42" height="45" transform="translate(268.956 1099.149)" fill="#fff" stroke="#707070" stroke-width="1"/>
    </clipPath>
    <clipPath id="clip-path-2">
      <rect id="Rect치ngulo_379506" data-name="Rect치ngulo 379506" width="40" height="38.777" fill="#12263f"/>
    </clipPath>
  </defs>
  <g id="Grupo_1075462" data-name="Grupo 1075462" transform="translate(-1017 -1090)">
    <g id="Grupo_1075081" data-name="Grupo 1075081" transform="translate(737.184 -108.717)">
      <g id="Grupo_1072053" data-name="Grupo 1072053" transform="translate(279.816 1198.717)">
        <circle id="Elipse_4742" data-name="Elipse 4742" cx="31.252" cy="31.252" r="31.252" transform="translate(0)" fill="#7edbb4"/>
      </g>
    </g>
    <g id="Enmascarar_grupo_1074694" data-name="Enmascarar grupo 1074694" transform="translate(758.044 -0.149)" clip-path="url(#clip-path)">
      <g id="Grupo_1075094" data-name="Grupo 1075094" transform="translate(269.956 1102.15)">
        <g id="Grupo_1075093" data-name="Grupo 1075093" clip-path="url(#clip-path-2)">
          <path id="Trazado_642279" data-name="Trazado 642279" d="M139.158,127.278a5.887,5.887,0,0,1,7.835-8.767,5.64,5.64,0,0,1,2.173,4.28,5.858,5.858,0,0,1-1.756,4.491c.065.055.114.1.169.144a7.449,7.449,0,0,1,3.1,5.738,1.538,1.538,0,0,1-1.637,1.7q-5.753,0-11.507,0a1.5,1.5,0,0,1-1.613-1.65,7.266,7.266,0,0,1,2.908-5.658c.094-.074.189-.147.282-.222a.4.4,0,0,0,.047-.06" transform="translate(-111.462 -96.093)" fill="#12263f"/>
          <path id="Trazado_642280" data-name="Trazado 642280" d="M24.169,127.278a5.887,5.887,0,0,0-7.835-8.767,5.64,5.64,0,0,0-2.174,4.28,5.858,5.858,0,0,0,1.756,4.491c-.065.055-.114.1-.169.144a7.449,7.449,0,0,0-3.1,5.738,1.538,1.538,0,0,0,1.637,1.7q5.753,0,11.507,0a1.5,1.5,0,0,0,1.613-1.65,7.266,7.266,0,0,0-2.908-5.658c-.094-.074-.189-.147-.282-.222a.4.4,0,0,1-.047-.06" transform="translate(-10.371 -96.093)" fill="#12263f"/>
          <path id="Trazado_642281" data-name="Trazado 642281" d="M117.451,9.472a9.415,9.415,0,0,1,2.154-5.781A9.64,9.64,0,0,1,124.5.425a8.061,8.061,0,0,1,2.158-.341,9.519,9.519,0,0,1,7.5,3.468,8.835,8.835,0,0,1,2.019,4.424,9.26,9.26,0,0,1-.739,5.46,1.389,1.389,0,0,0-.1.668c.049.5.153,1,.221,1.5.084.62.164,1.24.228,1.862a.715.715,0,0,1-.815.865c-.534-.033-1.064-.129-1.6-.2-.658-.088-1.315-.189-1.975-.262a1.027,1.027,0,0,0-.492.084,8.413,8.413,0,0,1-3.226.827,14.431,14.431,0,0,1-2.3-.067,9.048,9.048,0,0,1-3.162-1.136,9.623,9.623,0,0,1-4.394-5.661,9.363,9.363,0,0,1-.386-2.448m7.176.817a.141.141,0,0,1,.052-.012h5.848c.232,0,.464,0,.695-.01a.785.785,0,0,0,.78-.812.831.831,0,0,0-.822-.767c-2.121.023-4.243.01-6.364.01h-.229l-.029-.07a2.713,2.713,0,0,0,.241-.2.908.908,0,0,0,.331-.685.811.811,0,0,0-.514-.728.725.725,0,0,0-.826.167c-.593.568-1.18,1.143-1.75,1.735A.7.7,0,0,0,122,9.979a2.718,2.718,0,0,0,.265.3c.472.468.952.927,1.418,1.4a.892.892,0,0,0,.638.271.714.714,0,0,0,.739-.967,4,4,0,0,0-.43-.7" transform="translate(-96.317 -0.069)" fill="#12263f"/>
          <path id="Trazado_642282" data-name="Trazado 642282" d="M18.847,9.338A9.8,9.8,0,0,1,15.2,16.7a9.016,9.016,0,0,1-3.46,1.813A8.358,8.358,0,0,1,7.93,18.7a8.779,8.779,0,0,1-2.271-.721,1.917,1.917,0,0,0-1.212-.14c-.913.147-1.828.288-2.744.414-.346.048-.719.1-.975-.228a.712.712,0,0,1-.173-.436c.038-.519.116-1.034.184-1.551.093-.71.206-1.418.276-2.129a1.29,1.29,0,0,0-.135-.616,9.934,9.934,0,0,1-.774-2.608A8.7,8.7,0,0,1,1.69,4.156,9.721,9.721,0,0,1,7.4.28,8.171,8.171,0,0,1,10.285.04a8.966,8.966,0,0,1,2.859.771,9.7,9.7,0,0,1,5.19,5.531,9.123,9.123,0,0,1,.512,3M11.8,8.631H5.095a.77.77,0,0,0-.781.659.756.756,0,0,0,.546.861,2.8,2.8,0,0,0,.687.065q3,0,6.006-.008c.06,0,.12.01.18.015l.049.084a2.556,2.556,0,0,0-.377.312.834.834,0,0,0,.073,1.119.857.857,0,0,0,1.055-.026q.877-.865,1.738-1.748A.716.716,0,0,0,14.3,8.854c-.569-.6-1.169-1.175-1.768-1.747a.69.69,0,0,0-.618-.2.792.792,0,0,0-.493,1.317c.1.128.223.238.38.4" transform="translate(0 0)" fill="#12263f"/>
        </g>
      </g>
    </g>
  </g>
</svg>
