<svg xmlns="http://www.w3.org/2000/svg" xmlns:xlink="http://www.w3.org/1999/xlink" width="62.504" height="62.504" viewBox="0 0 62.504 62.504">
  <defs>
    <clipPath id="clip-path">
      <rect id="Rect치ngulo_379508" data-name="Rect치ngulo 379508" width="42" height="45" transform="translate(268.956 1098.149)" fill="#fff" stroke="#707070" stroke-width="1"/>
    </clipPath>
    <clipPath id="clip-path-2">
      <rect id="Rect치ngulo_379509" data-name="Rect치ngulo 379509" width="37.334" height="44.954" fill="#12263f"/>
    </clipPath>
  </defs>
  <g id="Grupo_1075463" data-name="Grupo 1075463" transform="translate(-1265 -1090)">
    <g id="Grupo_1075082" data-name="Grupo 1075082" transform="translate(985.184 -108.717)">
      <g id="Grupo_1072053" data-name="Grupo 1072053" transform="translate(279.816 1198.717)">
        <circle id="Elipse_4742" data-name="Elipse 4742" cx="31.252" cy="31.252" r="31.252" transform="translate(0)" fill="#7edbb4"/>
      </g>
    </g>
    <g id="Enmascarar_grupo_1074695" data-name="Enmascarar grupo 1074695" transform="translate(1006.044 0.851)" clip-path="url(#clip-path)">
      <g id="Grupo_1075096" data-name="Grupo 1075096" transform="translate(270.956 1098.149)">
        <g id="Grupo_1075095" data-name="Grupo 1075095" clip-path="url(#clip-path-2)">
          <path id="Trazado_642283" data-name="Trazado 642283" d="M112.544,144.19A6.349,6.349,0,0,1,121,134.733a6.084,6.084,0,0,1,2.344,4.617,6.319,6.319,0,0,1-1.894,4.844c.07.06.123.112.182.155a8.035,8.035,0,0,1,3.342,6.189,1.659,1.659,0,0,1-1.766,1.838q-6.206.005-12.411,0a1.619,1.619,0,0,1-1.74-1.78,7.838,7.838,0,0,1,3.137-6.1c.1-.079.2-.159.3-.24a.431.431,0,0,0,.051-.064" transform="translate(-87.884 -107.424)" fill="#12263f"/>
          <path id="Trazado_642284" data-name="Trazado 642284" d="M12.428,144.19a6.349,6.349,0,0,0-8.452-9.457,6.084,6.084,0,0,0-2.344,4.617,6.319,6.319,0,0,0,1.894,4.844c-.069.06-.123.112-.182.155A8.036,8.036,0,0,0,0,150.539a1.66,1.66,0,0,0,1.766,1.838q6.206.005,12.411,0a1.619,1.619,0,0,0,1.74-1.78,7.837,7.837,0,0,0-3.137-6.1c-.1-.079-.2-.159-.3-.24a.42.42,0,0,1-.051-.064" transform="translate(0 -107.424)" fill="#12263f"/>
          <path id="Trazado_642285" data-name="Trazado 642285" d="M11.327,3.327c.331-.33.627-.657.955-.948a9.189,9.189,0,0,1,13.171.862A9.018,9.018,0,0,1,26.942,5.6a.244.244,0,0,1-.093.356,8.124,8.124,0,0,0-2.717,3.535,1.422,1.422,0,0,0-.114.985,1.287,1.287,0,0,0,1.153.875,1.124,1.124,0,0,0,1.282-.759,6.259,6.259,0,0,1,2.323-2.865,5.359,5.359,0,0,1,3.394-.995,5.884,5.884,0,0,1,2.259,11.25,6.4,6.4,0,0,1-2.745.511Q19.912,18.47,8.14,18.481c-.25,0-.5-.013-.749,0a5.827,5.827,0,0,1-3.348-.912A6.482,6.482,0,0,1,.794,12.828,6.635,6.635,0,0,1,4.451,5.781a6.492,6.492,0,0,1,4.993-.417,6.635,6.635,0,0,1,3.5,2.521c.1.137.193.279.3.406a1.183,1.183,0,0,0,1.844.094,1.216,1.216,0,0,0,.2-1.636,9.166,9.166,0,0,0-3.779-3.322c-.048-.024-.1-.05-.19-.1" transform="translate(-0.574 0)" fill="#12263f"/>
          <path id="Trazado_642286" data-name="Trazado 642286" d="M73.608,110.192H71.024a1.441,1.441,0,0,1-.217-.008c-.341-.053-.472-.264-.346-.581.32-.807.649-1.611.971-2.416.364-.91.722-1.823,1.094-2.73a.362.362,0,0,1,.239-.177,2.885,2.885,0,0,1,.53-.022l5.39.027h.377l-1.254,2.5c.128.01.25.027.373.027q2.1,0,4.206,0a.907.907,0,0,1,.335.01.868.868,0,0,1,.382.276c.037.057-.061.256-.149.334-.767.677-1.544,1.342-2.321,2.007q-3.737,3.2-7.477,6.389a4.792,4.792,0,0,1-.527.423.443.443,0,0,1-.35.053c-.064-.027-.113-.21-.092-.307.141-.652.3-1.3.457-1.948.3-1.208.608-2.414.912-3.621.017-.068.03-.138.051-.235" transform="translate(-56.747 -84.02)" fill="#12263f"/>
        </g>
      </g>
    </g>
  </g>
</svg>
