<svg xmlns="http://www.w3.org/2000/svg" xmlns:xlink="http://www.w3.org/1999/xlink" width="124.417" height="124.418" viewBox="0 0 124.417 124.418">
  <defs>
    <clipPath id="clip-path">
      <rect id="Rectángulo_379514" data-name="Rectángulo 379514" width="115" height="115" transform="translate(389.246 2670.246)" fill="#fff" stroke="#707070" stroke-width="1"/>
    </clipPath>
    <linearGradient id="linear-gradient" x1="0.989" y1="1.001" x2="0.081" y2="0.049" gradientUnits="objectBoundingBox">
      <stop offset="0" stop-color="#8c50af"/>
      <stop offset="1" stop-color="#fbe3b1"/>
    </linearGradient>
    <clipPath id="clip-path-2">
      <rect id="Rectángulo_379519" data-name="Rectángulo 379519" width="84" height="84" transform="translate(405 1987)" fill="#fff" stroke="#707070" stroke-width="1"/>
    </clipPath>
    <clipPath id="clip-path-3">
      <rect id="Rectángulo_379529" data-name="Rectángulo 379529" width="79.298" height="78.667" fill="#543f5c"/>
    </clipPath>
  </defs>
  <g id="Grupo_1075446" data-name="Grupo 1075446" transform="translate(-4922.11 9734.001)">
    <g id="Enmascarar_grupo_1074696" data-name="Enmascarar grupo 1074696" transform="translate(4537.535 -12399.246)" clip-path="url(#clip-path)">
      <rect id="Imagen_32" data-name="Imagen 32" width="128.611" height="124.518" transform="translate(382.686 2667.283)" fill="#fff"/>
    </g>
    <path id="Sustracción_215" data-name="Sustracción 215" d="M113.2,113.2H0V0H113.2V113.2ZM6.49,6.49V106.714H106.713V6.49Z" transform="matrix(-0.995, -0.105, 0.105, -0.995, 5034.693, -9609.583)" fill="url(#linear-gradient)"/>
    <g id="Enmascarar_grupo_1074699" data-name="Enmascarar grupo 1074699" transform="translate(4537.781 -11700)" clip-path="url(#clip-path-2)">
      <g id="Grupo_1075112" data-name="Grupo 1075112" transform="translate(407 1990)">
        <g id="Grupo_1075111" data-name="Grupo 1075111" clip-path="url(#clip-path-3)">
          <path id="Trazado_642322" data-name="Trazado 642322" d="M30.215,65.68c.011-.156.027-.278.028-.4,0-.941.027-1.883,0-2.823a1.892,1.892,0,0,0-.254-.873c-.872-1.465-1.779-2.908-2.658-4.369-.168-.279-.307-.361-.62-.2a16.589,16.589,0,0,1-4.92,1.688,17.512,17.512,0,0,1-5.568.192,19.16,19.16,0,0,1-7.228-2.477A18.058,18.058,0,0,1,.639,45.452,18.349,18.349,0,0,1,0,40.7a17.715,17.715,0,0,1,1.617-7.546,18.177,18.177,0,0,1,7.039-8.032,18.237,18.237,0,0,1,7.515-2.687,17.4,17.4,0,0,1,8.5,1.016c.091.035.185.063.322.108.008-.159.019-.289.019-.419q0-2.428,0-4.857a5.216,5.216,0,0,1,7.829-4.46c0-.593-.022-1.15.005-1.706a6.678,6.678,0,0,1,.578-2.586,5.2,5.2,0,0,1,7.086-2.38c.065.034.136.057.28.116,0-.193.008-.345,0-.5A7.741,7.741,0,0,1,41.2,3.291,4.975,4.975,0,0,1,45.018.1a5.138,5.138,0,0,1,6.14,3.988A13.779,13.779,0,0,1,51.249,6.9c0,.111-.013.223-.024.384a2.066,2.066,0,0,0,.289-.1,5.272,5.272,0,0,1,7.743,4.763c.026.815,0,1.631,0,2.447q-.006,12.99-.012,25.981V41c.167-.175.253-.257.328-.347q3.461-4.147,6.917-8.3a8.435,8.435,0,0,1,2.8-2.412,6.266,6.266,0,0,1,6.336.389c.661.407,1.293.862,1.944,1.287a3.974,3.974,0,0,1,.842,5.8c-4.423,5.6-8.773,11.261-13.153,16.9q-2.887,3.715-5.771,7.43a1.106,1.106,0,0,0-.243.6c-.015,1.041.006,2.083.018,3.124a1.183,1.183,0,0,0,.037.2c.426,0,.838-.019,1.247,0a1.2,1.2,0,0,1,1.281,1.2c.162,1.205.339,2.408.5,3.613.2,1.528.395,3.057.589,4.586.092.72.176,1.442.267,2.162a1.3,1.3,0,0,1-1.241,1.43q-13.324,0-26.648,0-3.858,0-7.716,0a1.317,1.317,0,0,1-1.256-1.519c.235-1.738.43-3.481.658-5.219s.464-3.478.721-5.214a1.1,1.1,0,0,1,1.148-1.028c.436-.027.876-.005,1.369-.005M56.635,43.32v-.5q0-15.38,0-30.76a3.981,3.981,0,0,0-.095-.93,2.649,2.649,0,0,0-5.1-.182,7.353,7.353,0,0,0-.177,2.462q0,12.085,0,24.171a3.372,3.372,0,0,1-.046.4H48.8c-.01-.164-.027-.31-.027-.457q-.007-3.538-.009-7.078.01-12.312.023-24.623a5.965,5.965,0,0,0-.061-.9,2.692,2.692,0,0,0-2.278-2.326,2.648,2.648,0,0,0-3.06,2.751q0,16.077,0,32.154v.48H40.814c-.008-.114-.019-.211-.02-.308q-.009-5.271-.016-10.542c0-5.12-.015-10.241.017-15.361a2.626,2.626,0,0,0-5.25-.156c.032,7.3.011,14.608.021,21.913a3.347,3.347,0,0,0,.174,1.026,16.443,16.443,0,0,1,1.029,6,20.961,20.961,0,0,1-.043,2.33,20.449,20.449,0,0,1-1.592,5.428A18.123,18.123,0,0,1,29.9,54.956c-.671.526-.658.53-.2,1.262.966,1.554,1.937,3.106,2.876,4.676a2.044,2.044,0,0,1,.266.956c.031,1.141.012,2.284.012,3.426v.407H56.635v-.377c0-1.079.017-2.159-.007-3.238a2.208,2.208,0,0,1,.51-1.487c1.476-1.871,2.936-3.755,4.4-5.637q5.146-6.628,10.289-13.258c1.531-1.972,3.074-3.933,4.594-5.913a1.283,1.283,0,0,0-.321-2.061,18.543,18.543,0,0,0-2.051-1.325,4.562,4.562,0,0,0-1.6-.482,3.843,3.843,0,0,0-3.506,1.5q-3.749,4.494-7.505,8.981c-.781.934-1.568,1.862-2.336,2.805a1.621,1.621,0,0,1-1.421.673c-1.09-.045-2.182-.039-3.274-.027a5.913,5.913,0,0,0-3.578,1.063,5.236,5.236,0,0,0-2.087,3.406c-.052.291.063.724-.1.856-.19.159-.59.077-.9.082-.546.008-1.092,0-1.648,0a7.236,7.236,0,0,1,.4-2.533,7.833,7.833,0,0,1,5.291-5.082A11.811,11.811,0,0,1,55.4,43.32h1.234M18.2,56.371c8.327.431,16.206-6.766,16.021-16.02a15.83,15.83,0,0,0-31.656.36A15.674,15.674,0,0,0,18.2,56.371M29.1,76.1c.2.01.362.026.52.026l29.428.007c.338,0,.677.007,1.015.023.286.014.362-.087.316-.379-.135-.866-.238-1.738-.352-2.607-.2-1.539-.4-3.077-.594-4.618-.035-.287-.15-.359-.434-.358q-8.448.022-16.9.022-5.833,0-11.666-.018c-.215,0-.326.049-.357.27-.049.347-.128.69-.17,1.038-.18,1.517-.346,3.035-.527,4.552-.08.668-.185,1.333-.284,2.043m3.81-47.03-.078.115a1.289,1.289,0,0,0,.015-.14q0-5.514,0-11.029a2.027,2.027,0,0,0-.5-1.308,2.666,2.666,0,0,0-3.014-.847,2.549,2.549,0,0,0-1.7,2.527c0,2.045-.012,4.09,0,6.135a.656.656,0,0,0,.249.439c.9.683,1.831,1.315,2.7,2.025.806.655,1.55,1.386,2.321,2.083" transform="translate(0 0)" fill="#543f5c"/>
          <path id="Trazado_642323" data-name="Trazado 642323" d="M34.355,100.736c1.133-1.147,2.276-2.29,3.4-3.45a1.49,1.49,0,0,1,1.454-.578,1.2,1.2,0,0,1,.562.253c1.895,1.864,3.772,3.746,5.665,5.612a1.36,1.36,0,0,1-.031,1.857c-1.161,1.108-2.284,2.256-3.422,3.389-.087.086-.169.178-.332.351.336.3.665.569.968.865.905.885,1.789,1.793,2.7,2.668a1.466,1.466,0,0,1-.03,2.153c-1.683,1.615-3.311,3.287-4.959,4.938-1.112,1.114-1.642,1.11-2.752-.014-1.075-1.088-2.155-2.171-3.266-3.289-.5.494-.982.964-1.457,1.439-.7.7-1.393,1.41-2.1,2.107a1.351,1.351,0,0,1-2.194.041c-1.835-1.8-3.647-3.626-5.458-5.451a1.4,1.4,0,0,1,.125-1.905c.686-.714,1.409-1.393,2.092-2.111.492-.518.944-1.073,1.414-1.612l.212.038a7.173,7.173,0,0,1-.584-.47c-1.054-1.04-2.076-2.112-3.158-3.121a1.43,1.43,0,0,1-.01-1.92c1.416-1.367,2.8-2.772,4.192-4.161.454-.451.907-.9,1.367-1.347A1.317,1.317,0,0,1,30.53,97c.969.927,1.914,1.882,2.871,2.822.294.289.6.57.955.91m8.452,12.124c-1.235-1.238-2.337-2.334-3.426-3.444a6.9,6.9,0,0,1-.681-.847.758.758,0,0,1,.035-.975,9.987,9.987,0,0,1,.739-.85c.991-1,1.987-1.987,3-2.963.228-.221.231-.356.007-.577q-1.647-1.626-3.268-3.279c-.182-.185-.29-.192-.481,0-.992,1.013-2,2.012-3,3.009a6.091,6.091,0,0,1-.733.644,1.03,1.03,0,0,1-1.382,0,5.927,5.927,0,0,1-.708-.616c-.979-.972-1.958-1.945-2.92-2.934-.248-.256-.39-.31-.673-.015-1,1.042-2.03,2.05-3.051,3.069-.4.394-.4.4.005.807,1.021,1.019,2.069,2.012,3.068,3.051.942.98,1.026,1.3-.017,2.378-1.116,1.153-2.263,2.275-3.429,3.443.155.167.31.344.477.509,1.005,1,2.024,1.985,3.011,3,.231.238.335.193.532,0q1.674-1.679,3.368-3.338a1.265,1.265,0,0,1,2.08.015c1.133,1.12,2.267,2.239,3.389,3.369.166.167.258.171.422.006q1.38-1.387,2.781-2.753c.259-.251.558-.461.862-.709" transform="translate(-15.906 -67.457)" fill="#543f5c"/>
        </g>
      </g>
    </g>
  </g>
</svg>
