<svg xmlns="http://www.w3.org/2000/svg" xmlns:xlink="http://www.w3.org/1999/xlink" width="124.417" height="124.418" viewBox="0 0 124.417 124.418">
  <defs>
    <clipPath id="clip-path">
      <rect id="Rectángulo_379520" data-name="Rectángulo 379520" width="115" height="115" transform="translate(389.246 2670.246)" fill="#fff" stroke="#707070" stroke-width="1"/>
    </clipPath>
    <linearGradient id="linear-gradient" x1="0.989" y1="1.001" x2="0.081" y2="0.049" gradientUnits="objectBoundingBox">
      <stop offset="0" stop-color="#8c50af"/>
      <stop offset="1" stop-color="#fbe3b1"/>
    </linearGradient>
    <clipPath id="clip-path-2">
      <rect id="Rectángulo_379524" data-name="Rectángulo 379524" width="84" height="84" transform="translate(420 1987)" fill="#fff" stroke="#707070" stroke-width="1"/>
    </clipPath>
    <clipPath id="clip-path-3">
      <rect id="Rectángulo_379530" data-name="Rectángulo 379530" width="76.276" height="76" fill="#543f5c"/>
    </clipPath>
  </defs>
  <g id="Grupo_1075447" data-name="Grupo 1075447" transform="translate(-5285.11 9734.001)">
    <g id="Enmascarar_grupo_1074700" data-name="Enmascarar grupo 1074700" transform="translate(4900.535 -12399.246)" clip-path="url(#clip-path)">
      <rect id="Imagen_34" data-name="Imagen 34" width="128.611" height="124.518" transform="translate(382.686 2667.283)" fill="#fff"/>
    </g>
    <path id="Sustracción_217" data-name="Sustracción 217" d="M113.2,113.2H0V0H113.2V113.2ZM6.49,6.49V106.714H106.713V6.49Z" transform="matrix(-0.995, -0.105, 0.105, -0.995, 5397.693, -9609.583)" fill="url(#linear-gradient)"/>
    <g id="Enmascarar_grupo_1074701" data-name="Enmascarar grupo 1074701" transform="translate(4885.781 -11700)" clip-path="url(#clip-path-2)">
      <g id="Grupo_1075114" data-name="Grupo 1075114" transform="translate(424 1991)">
        <g id="Grupo_1075113" data-name="Grupo 1075113" clip-path="url(#clip-path-3)">
          <path id="Trazado_642324" data-name="Trazado 642324" d="M25.96,27.2a16.006,16.006,0,0,1-4-13.291A15.919,15.919,0,0,1,27.813,3.7a16.263,16.263,0,0,1,21.026.311,15.853,15.853,0,0,1,5.642,11.25,16.087,16.087,0,0,1-4.126,11.921c.139.088.257.168.379.24,2.355,1.388,4.714,2.767,7.06,4.169a1.472,1.472,0,0,0,.97.2c.53-.059,1.06-.121,1.587-.2a.381.381,0,0,0,.259-.206A4.727,4.727,0,0,1,64.929,27.9q1.96-.223,3.929-.377a4.515,4.515,0,0,1,3.766,1.474,4.41,4.41,0,0,1,1.239,2.764c.121,1.5.336,2.995.493,4.494.2,1.952.383,3.906.585,5.858.157,1.522.345,3.041.5,4.563.066.653.052,1.314.117,1.967.226,2.279.494,4.554.7,6.835a4.691,4.691,0,0,1-3.342,4.946,10.465,10.465,0,0,1-1.912.3,35.089,35.089,0,0,1-3.525.3,4.5,4.5,0,0,1-4.1-2.469.481.481,0,0,0-.558-.3c-.707.1-1.413.222-2.123.286-.5.045-1.011.009-1.6.009.109.165.149.241.2.306,2.238,2.724,1.037,5.759-1.288,7.227a5.556,5.556,0,0,1-3.313.951c-.272-.015-.383.076-.484.333a4.868,4.868,0,0,1-6.2,3.023,5.45,5.45,0,0,1-4.368,3.16A4.749,4.749,0,0,1,41,73.054c-.289-.118-.6-.374-.854-.328s-.428.4-.645.617c-.526.518-1.026,1.066-1.588,1.541a4.643,4.643,0,0,1-7.456-2.207c-.073-.229-.191-.2-.356-.178a4.7,4.7,0,0,1-5.234-2.975,3.633,3.633,0,0,1-.114-.47A4.827,4.827,0,0,1,19.012,65.7c-.382,0-.8-.013-1.218,0a4.667,4.667,0,0,1-4.548-5.257,6.26,6.26,0,0,1,.771-2.091,1.024,1.024,0,0,0-.1-.043.9.9,0,0,0-1.164.485,4.519,4.519,0,0,1-4.641,2.186c-1.319-.145-2.64-.276-3.958-.423A4.486,4.486,0,0,1,.485,57.918a4.911,4.911,0,0,1-.406-3.052c.072-.447.1-.9.168-1.35a1.516,1.516,0,0,1,1.547-1.334,1.5,1.5,0,0,1,1.37,1.653c-.045.736-.139,1.47-.161,2.207a1.568,1.568,0,0,0,1.279,1.585,5.726,5.726,0,0,0,.7.12c1.164.1,2.332.169,3.493.3,1.45.163,2.03-.751,2.139-1.918q.362-3.862.73-7.724.214-2.252.432-4.5c.2-2.086.4-4.172.615-6.257.159-1.569.336-3.135.5-4.7a1.773,1.773,0,0,0-1.681-2.123c-1.454-.136-2.913-.22-4.372-.3a1.507,1.507,0,0,0-1.462,1.3c-.122,1.162-.221,2.326-.347,3.487-.189,1.759-.376,3.519-.6,5.274A1.437,1.437,0,0,1,2.92,41.8a1.538,1.538,0,0,1-1.376-1.588c.058-.769.152-1.535.227-2.3.158-1.614.268-3.234.488-4.839a8.7,8.7,0,0,1,.531-2.757A4.491,4.491,0,0,1,7.1,27.535c1.447.02,2.892.231,4.337.366a4.918,4.918,0,0,1,2.061.649,4.5,4.5,0,0,1,2.115,2.645c.08.268.173.42.495.433a12.714,12.714,0,0,1,1.451.178,1.369,1.369,0,0,0,.962-.225q3.21-1.924,6.436-3.82c.321-.189.652-.361,1.005-.555m10.09,37.249c.109-.013.232-.021.353-.042a4.4,4.4,0,0,1,2.718.35,4.76,4.76,0,0,1,2.652,5.229.32.32,0,0,0,.116.266,2.366,2.366,0,0,0,3.4-1,3.382,3.382,0,0,0,.248-1.144,1.406,1.406,0,0,1,.857-1.287,1.454,1.454,0,0,1,1.541.184,4.241,4.241,0,0,0,.869.529,1.8,1.8,0,0,0,1.874-.142,1.987,1.987,0,0,0,.844-2.052,1.545,1.545,0,0,1,.708-1.579,1.273,1.273,0,0,1,1.546-.014,2.286,2.286,0,0,0,2.371.053c1.087-.595,1.594-1.345,1.248-2.452a3.388,3.388,0,0,0-.891-1.214Q50.051,53.564,43.57,47.017a.732.732,0,0,0-.371-.212A12.532,12.532,0,0,1,38.538,45.1c-.3-.183-.588-.376-.885-.567-.533.616-1.053,1.216-1.57,1.818a8.428,8.428,0,0,1-4.091,2.809,17.7,17.7,0,0,1-5.422.611,3.653,3.653,0,0,1-2.058-.725,3.176,3.176,0,0,1-1.377-2.287,4.447,4.447,0,0,1,.716-2.874q2.511-4.166,4.992-8.351c.811-1.364,1.6-2.74,2.4-4.11.085-.146.158-.253-.073-.371-.654-.337-1.287-.714-1.936-1.061a2.022,2.022,0,0,0-.569-.195,3.141,3.141,0,0,0-2.276.463c-2.3,1.386-4.622,2.744-6.921,4.136a2.612,2.612,0,0,1-1.721.368c-.673-.076-1.35-.119-2.049-.178L13.631,55.308c.887.114,1.73.221,2.573.333a.85.85,0,0,0,.757-.28,4.259,4.259,0,0,1,3.328-1.3,4.564,4.564,0,0,1,4.281,3.277c.07.2.162.246.366.241a7.971,7.971,0,0,1,1.857.031,4.515,4.515,0,0,1,3.442,3.067c.1.28.207.367.51.3a4.1,4.1,0,0,1,2.277.2,4.726,4.726,0,0,1,3.029,3.273m26.61-9.109c0-.242.016-.412,0-.578-.2-1.826-.418-3.65-.6-5.478-.159-1.568-.266-3.141-.424-4.709s-.361-3.129-.522-4.7q-.257-2.486-.466-4.978c-.024-.279-.119-.343-.376-.313-.608.071-1.22.118-1.829.182a2.278,2.278,0,0,1-1.5-.316c-1.256-.771-2.53-1.515-3.8-2.267-1.16-.688-2.31-1.4-3.489-2.053a2.7,2.7,0,0,0-2.987.073,11.49,11.49,0,0,1-1.274.715,17.531,17.531,0,0,1-5.782,1.654,16.114,16.114,0,0,1-5.4-.439.464.464,0,0,0-.048.068q-3.561,6-7.12,11.993c-.289.488-.591.969-.855,1.47-.391.742-.133,1.183.687,1.153.963-.034,1.925-.1,2.885-.177a5.62,5.62,0,0,0,4.1-2.148c.156-.2.325-.38.485-.571.643-.764,1.28-1.534,1.93-2.292a1.407,1.407,0,0,1,2.268-.18c.312.264.615.541.945.78a9.014,9.014,0,0,0,5.169,1.743,7.852,7.852,0,0,0,3.022-.326,1.194,1.194,0,0,1,1.052.073,1.493,1.493,0,0,1,.847,1.535,1.516,1.516,0,0,1-1.262,1.26c-.28.068-.556.148-.892.239.2.217.349.387.506.546q2.3,2.323,4.6,4.643c1.208,1.216,2.431,2.418,3.618,3.655a.9.9,0,0,0,.854.309c.889-.111,1.78-.206,2.671-.3.989-.1,1.979-.184,2.981-.276m-11.161-39C51.864,9.609,45.955,3.087,38.444,2.96A13.506,13.506,0,0,0,24.768,15.239,13.453,13.453,0,0,0,38.212,29.713c7.907-.068,13.643-6.79,13.288-13.371M68.8,30.508l0-.036c-1.307.127-2.618.223-3.919.391a1.713,1.713,0,0,0-1.5,1.911c.036.486.1.97.153,1.454.146,1.353.31,2.7.436,4.058.137,1.466.223,2.936.363,4.4.132,1.375.313,2.745.458,4.119q.31,2.943.6,5.889c.1,1.049.177,2.1.3,3.148a4.77,4.77,0,0,0,.3,1.277,1.412,1.412,0,0,0,1.322.915,13.289,13.289,0,0,0,1.458-.074c.961-.082,1.921-.167,2.879-.272a1.668,1.668,0,0,0,1.643-1.93q-.215-2.848-.489-5.692c-.151-1.555-.359-3.105-.519-4.66-.142-1.375-.242-2.754-.379-4.13-.182-1.827-.383-3.653-.573-5.479-.136-1.308-.253-2.617-.4-3.923a1.531,1.531,0,0,0-1.61-1.37c-.17,0-.34,0-.511,0M21.927,58.732a3.63,3.63,0,0,0-.189-.71,1.706,1.706,0,0,0-2.8-.537c-.792.746-1.561,1.518-2.313,2.3a1.842,1.842,0,0,0,0,2.5,1.77,1.77,0,0,0,2.512-.017c.771-.752,1.519-1.526,2.269-2.3a1.736,1.736,0,0,0,.522-1.24M33.255,65.6a1.7,1.7,0,0,0-.97-1.57,1.566,1.566,0,0,0-1.893.234c-.841.774-1.644,1.594-2.426,2.428a1.752,1.752,0,0,0,2.485,2.47c.792-.746,1.549-1.529,2.308-2.308a1.781,1.781,0,0,0,.5-1.255m1.653,7.433a1.409,1.409,0,0,0,1.121-.362c.806-.8,1.616-1.591,2.4-2.41a1.641,1.641,0,0,0,.547-1.21,1.756,1.756,0,0,0-1.028-1.6,1.6,1.6,0,0,0-1.821.206c-.881.831-1.745,1.687-2.552,2.589a1.683,1.683,0,0,0-.167,1.922,1.466,1.466,0,0,0,1.5.868M25.8,60.5a1.429,1.429,0,0,0-1.334.54q-.78.783-1.553,1.574c-.239.243-.493.473-.706.737a1.725,1.725,0,0,0,.152,2.4,1.7,1.7,0,0,0,2.343-.019c.809-.763,1.591-1.555,2.377-2.341a1.669,1.669,0,0,0,.3-1.93A1.388,1.388,0,0,0,25.8,60.5" transform="translate(0 0)" fill="#543f5c"/>
          <path id="Trazado_642325" data-name="Trazado 642325" d="M6.113,168a1.452,1.452,0,0,1-1.478,1.412,1.566,1.566,0,0,1-1.469-1.464,1.641,1.641,0,0,1,1.518-1.476A1.545,1.545,0,0,1,6.113,168" transform="translate(-2.301 -120.976)" fill="#543f5c"/>
          <path id="Trazado_642326" data-name="Trazado 642326" d="M192.956,145.849a1.422,1.422,0,0,1-1.446,1.443,1.45,1.45,0,1,1,.044-2.9,1.446,1.446,0,0,1,1.4,1.456" transform="translate(-138.12 -104.928)" fill="#543f5c"/>
          <path id="Trazado_642327" data-name="Trazado 642327" d="M107.095,33.654a4.6,4.6,0,0,1,3.439,1.375c.206.206.443.532.662.529s.433-.347.64-.551c1.205-1.186,2.385-2.4,3.618-3.556a4.223,4.223,0,0,1,3.868-1.112,4.387,4.387,0,0,1,2.81,6.785,15.083,15.083,0,0,1-1.79,1.951q-2.891,2.911-5.808,5.8a4.552,4.552,0,0,1-2.412,1.382,4.345,4.345,0,0,1-4.038-1.19c-1.32-1.312-2.647-2.618-3.948-3.949a4.165,4.165,0,0,1-.874-4.773,4.335,4.335,0,0,1,3.834-2.689m-1.29,4.409a1.53,1.53,0,0,0,.584,1.222q1.9,1.882,3.815,3.741a1.427,1.427,0,0,0,.611.334,1.555,1.555,0,0,0,1.563-.508c2.268-2.256,4.549-4.5,6.82-6.752a4.678,4.678,0,0,0,.6-.732,1.242,1.242,0,0,0,.05-1.295,1.518,1.518,0,0,0-2.591-.341c-1.634,1.622-3.28,3.234-4.878,4.891a1.6,1.6,0,0,1-2.294.059c-.229-.251-.478-.484-.723-.72a14.822,14.822,0,0,0-1.164-1.094,1.392,1.392,0,0,0-1.6-.1,1.481,1.481,0,0,0-.793,1.294" transform="translate(-74.748 -21.98)" fill="#543f5c"/>
        </g>
      </g>
    </g>
  </g>
</svg>
