<svg xmlns="http://www.w3.org/2000/svg" xmlns:xlink="http://www.w3.org/1999/xlink" width="124.417" height="124.418" viewBox="0 0 124.417 124.418">
  <defs>
    <clipPath id="clip-path">
      <rect id="Rectángulo_379515" data-name="Rectángulo 379515" width="115" height="115" transform="translate(389.246 2670.246)" fill="#fff" stroke="#707070" stroke-width="1"/>
    </clipPath>
    <linearGradient id="linear-gradient" x1="0.989" y1="1.001" x2="0.081" y2="0.049" gradientUnits="objectBoundingBox">
      <stop offset="0" stop-color="#8c50af"/>
      <stop offset="1" stop-color="#fbe3b1"/>
    </linearGradient>
    <clipPath id="clip-path-2">
      <rect id="Rectángulo_379517" data-name="Rectángulo 379517" width="84" height="84" transform="translate(405 1987)" fill="#fff" stroke="#707070" stroke-width="1"/>
    </clipPath>
    <clipPath id="clip-path-3">
      <rect id="Rectángulo_379528" data-name="Rectángulo 379528" width="76.291" height="77" fill="#543f5c"/>
    </clipPath>
  </defs>
  <g id="Grupo_1075445" data-name="Grupo 1075445" transform="translate(-4570.879 9734.001)">
    <g id="Enmascarar_grupo_1074697" data-name="Enmascarar grupo 1074697" transform="translate(4186.535 -12399.246)" clip-path="url(#clip-path)">
      <rect id="Imagen_33" data-name="Imagen 33" width="128.611" height="124.518" transform="translate(382.686 2667.283)" fill="#fff"/>
    </g>
    <path id="Sustracción_216" data-name="Sustracción 216" d="M113.2,113.2H0V0H113.2V113.2ZM6.49,6.49V106.714H106.713V6.49Z" transform="matrix(-0.995, -0.105, 0.105, -0.995, 4683.463, -9609.583)" fill="url(#linear-gradient)"/>
    <g id="Enmascarar_grupo_1074698" data-name="Enmascarar grupo 1074698" transform="translate(4186.781 -11700)" clip-path="url(#clip-path-2)">
      <g id="Grupo_1075110" data-name="Grupo 1075110" transform="translate(409 1991)">
        <g id="Grupo_1075109" data-name="Grupo 1075109" clip-path="url(#clip-path-3)">
          <path id="Trazado_642315" data-name="Trazado 642315" d="M48.215,58.249a9.32,9.32,0,0,1-1.426-3.156,3.762,3.762,0,0,1-.09-.368c-.07-.476-.074-.49-.5-.3a4.657,4.657,0,0,0-1.58.925,5.075,5.075,0,0,1-1.534.888q-4.709,2.122-9.434,4.208a1.218,1.218,0,0,1-1.676-1.62,5.023,5.023,0,0,0,.318-3.107,4.748,4.748,0,0,0-9.205-.216,4.146,4.146,0,0,0,.738,3.941c.6.675,1.306,1.254,1.971,1.87.16.148.351.261.512.407a1.233,1.233,0,0,1-.152,2.025,16.929,16.929,0,0,1-1.8.861q-5.138,2.3-10.281,4.59c-.49.219-.509.207-.734-.293q-3.253-7.242-6.509-14.483-3.054-6.8-6.1-13.609Q.574,40.461.41,40.12a3.686,3.686,0,0,1,2.072-5.171c.708-.278.73-.164.463-1.007-.569-1.795-.54-1.093-.054-2.957.7-2.664,1.384-5.331,2.157-7.973a13.32,13.32,0,0,1,1.14-2.342c.1-.2.159-.313-.039-.488a1.579,1.579,0,0,1-.544-1.221c-.009-1.484-.026-2.968-.039-4.451,0-.124,0-.248,0-.413-.4,0-.777,0-1.153,0a.74.74,0,0,1-.778-.779Q3.531,6.882,3.423.447C3.417.1,3.492-.023,3.855,0c.466.035.936.009,1.437.009,0,.169,0,.3,0,.439q.011,5.5.024,11.01c0,.138.006.276.014.414.028.5.029.5.514.492,4.415-.053,8.831-.114,13.246-.155,3.277-.03,6.554-.035,9.831-.052H29.3c0-.162,0-.3,0-.43Q29.211,6.053,29.111.378c-.005-.288.064-.384.356-.37.481.022.963.006,1.494.006,0,.15,0,.282,0,.415,0,2.922,0,5.845.017,8.767.006,1.116.071,2.231.089,3.346.018,1.137-.254,1.4-1.4,1.391a1.147,1.147,0,0,1-.172,0c-.224-.035-.3.039-.292.282.045,1.379.065,2.76.107,4.139a2.176,2.176,0,0,1-.874,1.89c-.045.035-.092.068-.09.066.386.787.757,1.532,1.115,2.283.115.242.267.23.475.143,1.2-.5,2.395-1,3.592-1.495q4.1-1.707,8.2-3.413c.187-.078.381-.138.63-.226a2,2,0,0,0-.232-.189,6.33,6.33,0,0,1-2.741-3.214,5.75,5.75,0,0,1-.343-3.45A6.5,6.5,0,0,1,51.309,9.131a7.419,7.419,0,0,1,.582,4.01c-.017.134-.021.269-.036.463.138-.049.229-.078.317-.114q5.609-2.336,11.215-4.679c.232-.1.332-.073.434.172q2.071,4.976,4.16,9.943,2.161,5.162,4.319,10.325c1.241,2.964,2.517,5.915,3.715,8.9a3.538,3.538,0,0,1-1.852,4.6c-.248.119-.5.243-.752.341-.221.084-.261.2-.185.421.238.7.443,1.4.679,2.1a2.078,2.078,0,0,1,.025,1.251c-.81,2.992-1.576,6-2.436,8.972a17.787,17.787,0,0,1-1.16,2.519l-.1-.03c.06.067.119.135.179.2a2,2,0,0,1,.576,1.429c-.016,1.541-.006,3.083-.006,4.682.336,0,.664,0,.992,0,.671.01.955.3.967.976q.095,5.417.192,10.834c.008.46.009.461-.436.463-.356,0-.714-.017-1.069,0-.268.016-.362-.06-.361-.343.006-1.829,0-3.659-.009-5.488,0-1.484-.01-2.968-.006-4.452,0-.207-.017-.305-.274-.3q-7.174.1-14.348.183c-2.978.032-5.956.04-8.934.058h-.415a1.015,1.015,0,0,0-.028.163q.088,4.692.182,9.384c.017.785.029.785-.736.783-.264,0-.53-.013-.793,0-.229.014-.3-.071-.3-.3,0-1.012-.016-2.024-.021-3.036q-.02-3.814-.034-7.627c0-.884.261-1.15,1.145-1.174.773-.021.655.085.644-.7-.02-1.392-.022-2.784-.029-4.176a1.646,1.646,0,0,1,.454-1.089c.141-.166.275-.34.446-.551M34,58.412c1.735-.778,3.44-1.544,5.145-2.307,1.268-.567,2.538-1.129,3.805-1.7a1.143,1.143,0,0,0,.722-1.557,4.489,4.489,0,0,0-.243-.643q-1.976-4.38-3.955-8.758a3.45,3.45,0,0,1-.208-.619,1.264,1.264,0,0,1,1.319-1.671c.874,0,1.749-.027,2.622.013a3.5,3.5,0,0,0,1.939-.5,4.609,4.609,0,0,0-2.824-8.549,4.613,4.613,0,0,0-4.1,3.114,2.837,2.837,0,0,1-.307.613,1.159,1.159,0,0,1-1.822.065,3.659,3.659,0,0,1-.457-.8q-2.182-4.966-4.353-9.938a2.344,2.344,0,0,0-.3-.5.571.571,0,0,0-.781-.2c-.234.12-.489.2-.729.307q-7.231,3.23-14.458,6.469a1.2,1.2,0,0,0-.425.375,8.691,8.691,0,0,1-2.5,2.3.471.471,0,0,0-.193.368c.052.548.133,1.094.223,1.638.226,1.371.411,2.751.708,4.107a7.1,7.1,0,0,1-.549,4.73,3.5,3.5,0,0,1-2.9,2A2.558,2.558,0,0,1,8,46.64a2.766,2.766,0,0,1-1.6-1.862c-.807-2.585-1.64-5.162-2.463-7.743-.24-.752-.248-.743-.954-.433a1.976,1.976,0,0,0-1.065,2.676c.1.179.161.38.245.569Q6.051,48.5,9.941,57.158,12.114,62,14.284,66.837c.045.1.1.193.163.3L24.591,62.6c-.469-.415-.89-.768-1.289-1.144a6.033,6.033,0,0,1-1.848-6.576,6.474,6.474,0,0,1,11.034-2.4A6,6,0,0,1,34.008,58a2.047,2.047,0,0,0,0,.412M36.971,33.6c.236-.337.422-.611.617-.88a6.5,6.5,0,0,1,11.245,6.311,6.151,6.151,0,0,1-3.689,3.819,8.406,8.406,0,0,1-3.5.4c-.1-.006-.206,0-.334,0l4.216,9.562a.425.425,0,0,0,.094.008c4.6-1.92,9.2-3.82,13.781-5.773a33.21,33.21,0,0,0,4.987-2.233.455.455,0,0,0,.27-.489c-.072-.511-.151-1.022-.235-1.531-.233-1.428-.441-2.861-.715-4.282a6.968,6.968,0,0,1,.336-4.121,3.94,3.94,0,0,1,2.521-2.327,2.668,2.668,0,0,1,3.575,1.79c.7,2.34,1.481,4.658,2.231,6.984.076.236.181.463.277.7.3-.135.564-.243.82-.373a1.908,1.908,0,0,0,.95-2.365c-.066-.184-.139-.365-.215-.545q-1.569-3.73-3.138-7.46-4.021-9.592-8.037-19.186c-.287-.686-.284-.68-.97-.394-3.378,1.41-6.771,2.786-10.13,4.242a1.384,1.384,0,0,1-1.95-1.391,13.613,13.613,0,0,0,.106-1.928,5.359,5.359,0,0,0-.4-2.462,4.751,4.751,0,0,0-5.648-2.35,4.644,4.644,0,0,0-3.382,4.575,4.293,4.293,0,0,0,1.735,3.6,8.8,8.8,0,0,0,1.68.92,1.225,1.225,0,0,1,.725,1.651,1.535,1.535,0,0,1-.882.724q-3.5,1.435-7,2.882c-1.5.618-3,1.234-4.466,1.835L36.971,33.6M61.318,48.147c-.166.057-.25.081-.33.115q-2.735,1.13-5.47,2.262c-2.321.962-4.64,1.929-6.965,2.88-.253.1-.252.261-.218.462a7.8,7.8,0,0,0,1.657,3.875,1.135,1.135,0,0,0,.968.442c3.805-.021,7.61-.022,11.415-.026,1.679,0,3.358-.031,5.035.027a1.265,1.265,0,0,0,1.346-.709,10.856,10.856,0,0,0,1.25-2.7c.373-1.526.826-3.032,1.237-4.549q.5-1.843.973-3.694a1.069,1.069,0,0,0,0-.56q-1.467-4.59-2.955-9.173c-.275-.852-.535-1.709-.829-2.554-.182-.522-.386-.646-.938-.61a1.89,1.89,0,0,0-1.618.961A4.342,4.342,0,0,0,65.3,37.38c.21,1.466.451,2.928.69,4.389.191,1.165.4,2.327.6,3.491.045.261-.014.44-.318.5a1.845,1.845,0,0,0-.473.2,6.651,6.651,0,0,0-3,3.081c-.233.468-.479.93-.731,1.419l-1.324-.625c-.185-.087-.211-.207-.112-.387.22-.4.426-.809.681-1.3M9.947,33.044a5.449,5.449,0,0,0,.575-.189,6.442,6.442,0,0,0,2.746-2.34,2.087,2.087,0,0,1,.949-.806q4.772-2.11,9.537-4.234,2-.889,3.993-1.784c.121-.055.333-.076.22-.3-.327-.644-.654-1.288-1-1.923a1.476,1.476,0,0,0-1.525-.806c-5.531.069-11.063.072-16.595.076a1.021,1.021,0,0,0-1.049.549,9.547,9.547,0,0,0-1.113,2.2c-.771,2.871-1.547,5.74-2.307,8.614a1.35,1.35,0,0,0,.012.7c.34,1.119.712,2.228,1.07,3.342Q6.245,38.574,7.02,41c.349,1.093.688,2.19,1.041,3.282.18.556.48.824.947.795a1.914,1.914,0,0,0,1.6-.819,4.129,4.129,0,0,0,.694-2.721c-.13-1.15-.375-2.288-.564-3.432q-.317-1.921-.62-3.843c-.064-.405-.112-.813-.166-1.219m7.5-14.015v-.152h9.589c.462,0,.479-.023.463-.494-.044-1.253-.089-2.505-.121-3.758-.016-.6,0-.6-.619-.6q-9.486.037-18.972.067c-.33,0-.451.095-.444.421.032,1.414.054,2.829.075,4.244,0,.189.076.274.268.264.114-.006.23.009.345.009h9.417M49.179,64.636h.365q8.931,0,17.861-.009c.413,0,.827-.013,1.24-.032.592-.027.646-.079.634-.675-.024-1.207-.07-2.414-.082-3.621,0-.283-.091-.343-.354-.343q-9.689.016-19.378.012c-.286,0-.376.063-.366.359.04,1.229.055,2.459.078,3.689,0,.193,0,.385,0,.62" transform="translate(0 0)" fill="#543f5c"/>
          <path id="Trazado_642316" data-name="Trazado 642316" d="M46.193,264.035c0-.655,0-1.309,0-1.964,0-.236.087-.324.331-.3.389.035.78.045,1.17.052.189,0,.264.069.261.265-.019,1.311-.031,2.621-.043,3.932,0,.161-.041.259-.235.251-.471-.019-.942-.029-1.413-.027-.209,0-.252-.1-.241-.277.038-.643.068-1.285.1-1.928h.071" transform="translate(-33.275 -189.269)" fill="#543f5c"/>
          <path id="Trazado_642317" data-name="Trazado 642317" d="M229.609,5.317c0-1.475,0-2.876.01-4.276a.311.311,0,0,1,.215-.217,12.985,12.985,0,0,1,1.342.022.345.345,0,0,1,.214.259q-.034,1.981-.111,3.961a.337.337,0,0,1-.225.24c-.49.023-.981.011-1.445.011" transform="translate(-166.018 -0.591)" fill="#543f5c"/>
          <path id="Trazado_642318" data-name="Trazado 642318" d="M23.793,253.546l-1.366,2.642c-.174.336-.358.667-.517,1.009-.1.22-.216.253-.425.133-.317-.182-.65-.338-.976-.5-.19-.1-.263-.2-.141-.432.6-1.134,1.186-2.275,1.766-3.42.1-.192.185-.215.368-.112.408.23.828.44,1.293.685" transform="translate(-14.683 -182.787)" fill="#543f5c"/>
          <path id="Trazado_642319" data-name="Trazado 642319" d="M251.488,14.446c-.465-.236-.87-.45-1.283-.649-.2-.1-.232-.21-.129-.408.589-1.129,1.168-2.264,1.749-3.4a.253.253,0,0,1,.392-.131c.326.168.651.341.988.486.259.112.274.256.154.485-.422.8-.832,1.611-1.249,2.417-.2.4-.411.789-.623,1.2" transform="translate(-180.775 -7.096)" fill="#543f5c"/>
          <path id="Trazado_642320" data-name="Trazado 642320" d="M66.725,253.164l1.493-.766,2.045,3.911c-.347.184-.685.364-1.023.543-.565.3-.458.351-.766-.234-.546-1.036-1.077-2.08-1.611-3.121-.051-.1-.085-.206-.136-.332" transform="translate(-48.245 -182.495)" fill="#543f5c"/>
          <path id="Trazado_642321" data-name="Trazado 642321" d="M205.045,9.3l2.034,3.957c-.445.219-.838.4-1.22.6-.249.132-.375.037-.488-.183-.479-.928-.965-1.851-1.448-2.776-.016-.03-.032-.061-.048-.091-.364-.726-.364-.726.377-1.106l.793-.405" transform="translate(-147.239 -6.724)" fill="#543f5c"/>
        </g>
      </g>
    </g>
  </g>
</svg>
