<svg xmlns="http://www.w3.org/2000/svg" xmlns:xlink="http://www.w3.org/1999/xlink" width="124.417" height="124.418" viewBox="0 0 124.417 124.418">
  <defs>
    <clipPath id="clip-path">
      <rect id="Rectángulo_379463" data-name="Rectángulo 379463" width="115" height="115" transform="translate(389.246 2670.246)" fill="#fff" stroke="#707070" stroke-width="1"/>
    </clipPath>
    <linearGradient id="linear-gradient" x1="0.989" y1="1.001" x2="0.081" y2="0.049" gradientUnits="objectBoundingBox">
      <stop offset="0" stop-color="#8c50af"/>
      <stop offset="1" stop-color="#fbe3b1"/>
    </linearGradient>
    <clipPath id="clip-path-2">
      <rect id="Rectángulo_379483" data-name="Rectángulo 379483" width="84" height="84" transform="translate(405 1986)" fill="#fff" stroke="#707070" stroke-width="1"/>
    </clipPath>
    <clipPath id="clip-path-3">
      <rect id="Rectángulo_379527" data-name="Rectángulo 379527" width="77.523" height="78.902" fill="#543f5c"/>
    </clipPath>
  </defs>
  <g id="Grupo_1075444" data-name="Grupo 1075444" transform="translate(-1090.328 -1889.999)">
    <g id="Enmascarar_grupo_1074682" data-name="Enmascarar grupo 1074682" transform="translate(705.754 -775.246)" clip-path="url(#clip-path)">
      <rect id="Imagen_27" data-name="Imagen 27" width="128.611" height="124.518" transform="translate(382.686 2667.283)" fill="#fff"/>
    </g>
    <path id="Sustracción_211" data-name="Sustracción 211" d="M113.2,113.2H0V0H113.2V113.2ZM6.49,6.49V106.714H106.713V6.49Z" transform="matrix(-0.995, -0.105, 0.105, -0.995, 1202.912, 2014.417)" fill="url(#linear-gradient)"/>
    <g id="Enmascarar_grupo_1074688" data-name="Enmascarar grupo 1074688" transform="translate(706 -76)" clip-path="url(#clip-path-2)">
      <g id="Grupo_1075108" data-name="Grupo 1075108" transform="translate(408 1989)">
        <g id="Grupo_1075107" data-name="Grupo 1075107" clip-path="url(#clip-path-3)">
          <path id="Trazado_642314" data-name="Trazado 642314" d="M63.142,6.521h-2.1l-14.955.005c-.525,0-1.051.013-1.576,0a.4.4,0,0,0-.482.353,5.442,5.442,0,0,1-1.76,2.767.545.545,0,0,0-.173.363c0,2.846.015,5.692.019,8.537q.007,4.324,0,8.648c0,.256.089.318.319.3a5.478,5.478,0,0,1,.659.01,1.021,1.021,0,0,1,1.037.9,3.313,3.313,0,0,1,.054.655q0,11.176,0,22.353a.547.547,0,0,0,.3.558c.96.533,1.908,1.087,2.862,1.632a2.679,2.679,0,0,0,2.5.1c.734-.31.734-.31.662-1.1a2.743,2.743,0,0,1,1.807-2.63c.922-.3,1.891-.463,2.835-.7a3.049,3.049,0,0,1,1.765,0,2.635,2.635,0,0,1,1.856,1.862c.4,1.519.728,3.058,1.084,4.59q.835,3.6,1.666,7.193.33,1.423.663,2.846a2.815,2.815,0,0,1-1.511,3.374,10.216,10.216,0,0,1-1.685.475c-.591.149-1.183.294-1.78.413a2.739,2.739,0,0,1-2.449-.781.412.412,0,0,0-.545-.09c-.368.188-.763.323-1.132.51a.409.409,0,0,0-.194.313,3.273,3.273,0,0,1-2.446,3.675c-.408.126-.511.287-.547.712a3.051,3.051,0,0,1-1.914,2.605,3.225,3.225,0,0,1-3.329-.287,3.5,3.5,0,0,1-3.005,2.016,4.007,4.007,0,0,1-3.248-1.77c-.169.222-.329.445-.5.656a3.279,3.279,0,0,1-4.917.393c-1.428-1.315-2.8-2.7-4.181-4.057q-2.677-2.633-5.34-5.281a.909.909,0,0,0-.129-.088c-.13.168-.244.338-.38.489a2.8,2.8,0,0,1-2.8.95c-.859-.178-1.706-.413-2.565-.594a2.889,2.889,0,0,1-2.219-3.708c.557-2.321,1.087-4.648,1.624-6.974.565-2.445,1.1-4.9,1.694-7.335a2.788,2.788,0,0,1,3.405-2.165c.9.174,1.79.375,2.677.593a2.907,2.907,0,0,1,2.116,1.9.328.328,0,0,0,.365.259c1.882-.01,3.763-.017,5.645-.008.341,0,.453-.087.453-.45q-.011-11.286,0-22.573c0-1.046.387-1.422,1.443-1.438.623-.009.623-.009.624-.648,0-5.338-.012-10.676.018-16.013a1.954,1.954,0,0,0-.641-1.681,4.364,4.364,0,0,1-1.3-2.329c-.06-.253-.213-.279-.431-.279q-5.095,0-10.189-.012L15.021,6.52H14.39c.069.23.106.394.165.549q2.209,5.79,4.421,11.578,1.7,4.457,3.392,8.917c.951,2.493,1.88,5,2.881,7.469a5.056,5.056,0,0,1,.218,2.875,13.085,13.085,0,0,1-2.019,5.177A12.789,12.789,0,0,1,.485,39.59a18.322,18.322,0,0,1-.424-1.963,6.508,6.508,0,0,1,.6-3.511c1.613-4.145,3.174-8.311,4.763-12.466Q8.154,14.514,10.9,7.382c.1-.266.171-.545.266-.852H8.944q-3.72,0-7.44,0A4.1,4.1,0,0,1,.957,6.5a.947.947,0,0,1-.94-1.04A.992.992,0,0,1,.963,4.4a3.805,3.805,0,0,1,.511-.033q15.285,0,30.569,0,.531,0,1.063.017c.228.007.336-.069.4-.315a5.473,5.473,0,0,1,6.6-3.887,5.366,5.366,0,0,1,3.916,3.889c.064.224.156.3.37.3.415-.007.831,0,1.246,0q15.212,0,30.423,0a3.134,3.134,0,0,1,.619.049A1.028,1.028,0,0,1,77.522,5.5a.94.94,0,0,1-.877.99,4.85,4.85,0,0,1-.765.052q-4.655-.014-9.309-.035c-.048,0-.1.01-.207.023.109.324.2.634.314.934q1.887,4.954,3.781,9.9,1.712,4.472,3.431,8.942c1.079,2.823,2.112,5.664,3.239,8.467a6.285,6.285,0,0,1,.2,3.692,12.562,12.562,0,0,1-3.762,6.848,12.784,12.784,0,0,1-21.309-6.56,7.157,7.157,0,0,1-.214-2.9,5.54,5.54,0,0,1,.3-.9q2.2-5.775,4.4-11.547Q59.865,15.235,63,7.06a5.192,5.192,0,0,0,.139-.539M74.791,34.894c-.17-.838-9.857-25.949-10.1-26.172L54.7,34.894ZM12.843,8.7l-.126,0-10,26.185H22.835L12.843,8.7M33.656,54.245c-.256-.02-.433-.046-.61-.046-2-.006-4.006,0-6.009-.02-.306,0-.375.14-.428.37Q25.872,57.773,25.134,61c-.3,1.318-.551,2.651-.915,3.952a1.555,1.555,0,0,0,.4,1.808c2.958,2.843,5.862,5.741,8.787,8.619.366.359.727.725,1.116,1.058a1.168,1.168,0,0,0,1.508-.027,1.037,1.037,0,0,0,.16-1.582,9.078,9.078,0,0,0-.694-.754c-.647-.648-1.3-1.286-1.95-1.935a1.181,1.181,0,0,1-.262-1.317.981.981,0,0,1,1.081-.575,1.815,1.815,0,0,1,.8.454c1.226,1.191,2.427,2.408,3.641,3.612.65.644,1.277,1.318,1.975,1.907a1.136,1.136,0,0,0,1.909-.783,1.237,1.237,0,0,0-.419-1.049q-1.32-1.323-2.644-2.642c-.794-.795-1.6-1.578-2.375-2.392a1.056,1.056,0,0,1,.022-1.592,1.084,1.084,0,0,1,1.54.1c.358.35.695.721,1.05,1.073q2.573,2.555,5.151,5.105c.26.257.5.536.786.766a1.2,1.2,0,0,0,1.893-.454,1.143,1.143,0,0,0-.35-1.356c-.939-.96-1.9-1.9-2.846-2.853-1.262-1.26-2.531-2.512-3.783-3.782a1.012,1.012,0,0,1-.055-1.5,1.058,1.058,0,0,1,1.564-.073c.141.117.275.242.4.371q2.58,2.576,5.157,5.155c.328.328.632.681.974.993a1.239,1.239,0,0,0,1.4.137,1.063,1.063,0,0,0,.541-1.179,1.714,1.714,0,0,0-.416-.748c-.69-.725-1.415-1.417-2.122-2.126q-3-3.007-6-6.016a2.885,2.885,0,0,0-1.485-.886,3,3,0,0,0-2.3.49c-.746.485-1.5.96-2.278,1.39a6.682,6.682,0,0,1-2.954.9,5.4,5.4,0,0,1-4.579-2.391.926.926,0,0,1,.224-1.394,49.387,49.387,0,0,0,4.549-4.867l.311-.362M23.285,37.281h-21a10.572,10.572,0,0,0,21,0m30.981,0a10.562,10.562,0,0,0,20.984,0Zm-18.7,14.789a8.12,8.12,0,0,1,3-1.737,6.186,6.186,0,0,1,3.42.289c0-.122,0-.182,0-.243q-.016-5.586-.031-11.173-.008-4.524,0-9.048c0-.523,0-.523-.516-.523h-5.87ZM51.1,55.518c-.163.069-.272.117-.383.162a5.046,5.046,0,0,1-2.6.42,6.954,6.954,0,0,1-2.5-.983c-1.48-.823-2.946-1.679-4.468-2.417a2.951,2.951,0,0,0-3.361.4,20.729,20.729,0,0,0-1.9,1.871C34.3,56.7,32.75,58.458,31.188,60.2a1.307,1.307,0,0,0-.116.184,2.99,2.99,0,0,0,1.742.629,4.336,4.336,0,0,0,2.275-.582c.845-.486,1.67-1.007,2.5-1.512a4.641,4.641,0,0,1,2.727-.678,4.9,4.9,0,0,1,3.239,1.441q4.017,3.987,8.03,7.976c.077.076.24.155.319.124.576-.232,1.145-.485,1.706-.751a.318.318,0,0,0,.135-.27c-.234-1.007-.5-2.007-.73-3.014-.582-2.528-1.151-5.06-1.729-7.589-.045-.2-.119-.392-.2-.644m5.027-4.23c-.856.185-1.715.362-2.569.558-.818.188-.94.393-.764,1.209.005.024.014.047.02.071q.476,2.045.951,4.09.882,3.826,1.76,7.654c.18.784.343,1.571.54,2.351.125.5.369.71.748.631q1.43-.3,2.847-.661a.633.633,0,0,0,.414-.841c-.089-.316-.156-.638-.23-.958q-1.207-5.253-2.416-10.5c-.244-1.055-.515-2.1-.781-3.154-.064-.254-.185-.464-.519-.444m-34.659-.013a.5.5,0,0,0-.572.43c-.146.54-.3,1.079-.427,1.624q-1.031,4.434-2.051,8.87c-.316,1.365-.621,2.733-.953,4.1a.669.669,0,0,0,.457.911c.92.24,1.848.449,2.776.655a.544.544,0,0,0,.656-.341A2.919,2.919,0,0,0,21.531,67c.475-2.066.941-4.134,1.418-6.2s.964-4.13,1.44-6.2c.148-.641.281-1.285.407-1.93a.542.542,0,0,0-.419-.7c-.968-.241-1.941-.467-2.912-.7M37.629,27.47h2.29V10.879h-2.29ZM38.71,8.711a3.225,3.225,0,0,0,3.344-3.2,3.29,3.29,0,0,0-6.578-.141A3.23,3.23,0,0,0,38.71,8.711" transform="translate(0 0)" fill="#543f5c"/>
        </g>
      </g>
    </g>
  </g>
</svg>
