<svg xmlns="http://www.w3.org/2000/svg" xmlns:xlink="http://www.w3.org/1999/xlink" width="190" height="190" viewBox="0 0 190 190">
  <defs>
    <clipPath id="clip-path">
      <rect id="Rect치ngulo_379631" data-name="Rect치ngulo 379631" width="190" height="190" transform="translate(1125 1096)" fill="#fff" stroke="#707070" stroke-width="1"/>
    </clipPath>
    <clipPath id="clip-path-2">
      <rect id="Rect치ngulo_379636" data-name="Rect치ngulo 379636" width="147.239" height="168.887" fill="#543f5c"/>
    </clipPath>
  </defs>
  <g id="Enmascarar_grupo_1074723" data-name="Enmascarar grupo 1074723" transform="translate(-1125 -1096)" clip-path="url(#clip-path)">
    <g id="Grupo_1075199" data-name="Grupo 1075199" transform="translate(1146 1107)">
      <g id="Grupo_1075198" data-name="Grupo 1075198" clip-path="url(#clip-path-2)">
        <path id="Trazado_642463" data-name="Trazado 642463" d="M69.23,87.152c-1.025,0-1.93.008-2.835,0-2.226-.024-3.118-.659-3.89-2.754a16.113,16.113,0,0,0-.67-1.765,18.613,18.613,0,0,1-1.79-9.76c.134-2.392.007-4.8.04-7.194a2.519,2.519,0,0,1,1.739-2.571,2.42,2.42,0,0,1,3.1,2.36c.022,2.878.006,5.757.007,8.635v.876h2.993c0-.28,0-.569,0-.86-.012-4.771-.009-9.542-.047-14.314a2.9,2.9,0,0,1,1.242-2.526A1.946,1.946,0,0,1,71.5,57.2a2.861,2.861,0,0,1,1.347,2.531c-.066,4.241-.035,8.483-.04,12.725,0,.423,0,.846,0,1.312h6.924c.013-.269.036-.511.036-.754,0-5.908.01-11.815-.013-17.723a2.025,2.025,0,0,0-.381-1.175c-2.572-3.236-5.178-6.445-7.843-9.747-1.563,1.575-3.011,3.238-4.672,4.65a4.852,4.852,0,0,0-1.942,4.833,8.159,8.159,0,0,1,.011,1.437,2.413,2.413,0,0,1-4.821.22,55.868,55.868,0,0,1,.008-5.752,2.935,2.935,0,0,1,.848-1.707c2.9-2.953,5.854-5.858,8.806-8.76a9.569,9.569,0,0,1,1.246-.877,4.482,4.482,0,0,0-.351-.575,14.927,14.927,0,0,1-3.466-9.4c-.028-1.161.041-2.326-.04-3.482a6.728,6.728,0,0,0-.477-2.174,26.887,26.887,0,0,1-2.255-8.12,6.93,6.93,0,0,1,5.636-7.629,2.509,2.509,0,0,0,1.7-1.053,9.652,9.652,0,0,1,6.9-3.932,30.761,30.761,0,0,1,4.5.143c2.974.1,5.951.268,8.922.21a7.444,7.444,0,0,0,2.683-1.075A6.9,6.9,0,0,0,95.731.6c1.453-1.038,3.066-.732,3.763.916a32.41,32.41,0,0,1,1.269,4.412,13.112,13.112,0,0,1-1.013,9.338,26.12,26.12,0,0,1-2.305,3.249,1.769,1.769,0,0,0-.38.9c-.029,2.777-.087,5.557,0,8.332A15.2,15.2,0,0,1,93.7,37.7c-.534.7-.526.683.27,1.009a2.369,2.369,0,0,1,.732.522c2.809,2.8,5.582,5.628,8.429,8.386a3.978,3.978,0,0,1,1.261,3.142q-.067,12.611-.01,25.222a10.742,10.742,0,0,1-.923,4.765,26.286,26.286,0,0,0-1.429,3.74,3.489,3.489,0,0,1-3.674,2.639c-.757.021-1.516.025-2.271-.02-.557-.033-.8.121-.873.721q-.629,4.874-1.345,9.736c-.352,2.363-.8,4.712-1.149,7.076a1.558,1.558,0,0,0,.39,1.063q3.542,4.2,7.137,8.344c2.159,2.5,4.341,4.989,6.494,7.5a18.666,18.666,0,0,1,1.547,2.049,2.043,2.043,0,0,1-.459,2.61,2.09,2.09,0,0,1-2.663.5,10.17,10.17,0,0,1-1.843-1.659q-6.98-8.031-13.908-16.105a1.52,1.52,0,0,0-1.294-.588c-3.938.027-7.877.007-11.815.046a1.606,1.606,0,0,0-1.071.493q-13.9,16.064-27.759,32.161a20.252,20.252,0,0,0-1.879,2.361,10.625,10.625,0,0,0,1.156-.273q7.762-2.755,15.517-5.527a6.407,6.407,0,0,0,.859-.284c1.479-.785,2.632-.184,3.757.785,3.5,3.017,7.018,6.008,10.529,9.011,1.457,1.247,2.92,2.488,4.362,3.753a.635.635,0,0,0,.98.006q7.185-6.164,14.38-12.313a.643.643,0,0,0,.057-.05c1.409-1.53,2.933-1.766,4.945-.991,5.31,2.043,10.706,3.865,16.068,5.772a1.339,1.339,0,0,0,.81.062c-.313-.4-.611-.812-.942-1.2-2.292-2.656-4.6-5.3-6.885-7.962a14.094,14.094,0,0,1-1.47-1.917,2.3,2.3,0,0,1,.594-3.05,2.169,2.169,0,0,1,3.025.1c.894.848,1.686,1.806,2.494,2.741q11.014,12.751,22.017,25.512c1.93,2.236,3.881,4.454,5.775,6.718a5.073,5.073,0,0,1,.985,1.82,2.026,2.026,0,0,1-.937,2.3,2.229,2.229,0,0,1-2.631.042,5.09,5.09,0,0,1-1.006-.906q-6.906-7.994-13.8-15.995a2.114,2.114,0,0,0-.862-.565c-5.246-1.862-10.5-3.7-15.749-5.555q-4.168-1.473-8.32-2.99a1.294,1.294,0,0,0-1.487.253c-4.994,4.3-10.016,8.562-15.025,12.842-2.185,1.868-2.851,1.839-5.041-.041-5.018-4.308-10.064-8.582-15.092-12.878a1.12,1.12,0,0,0-1.242-.218q-8.965,3.2-17.943,6.374c-1.9.672-3.828,1.268-5.7,2.012a5.208,5.208,0,0,0-1.938,1.356c-4.277,4.911-8.5,9.866-12.751,14.8a12.29,12.29,0,0,1-1.141,1.211,2.334,2.334,0,0,1-3.113.16,2.195,2.195,0,0,1-.579-3.038,31.743,31.743,0,0,1,2.607-3.232q10.305-11.962,20.627-23.91,9.872-11.436,19.75-22.866c2.739-3.171,5.493-6.329,8.209-9.519a1.533,1.533,0,0,0,.271-1.084c-.5-3.645-1.051-7.283-1.573-10.925-.314-2.19-.6-4.384-.91-6.615M91.616,73.785c.016-.311.043-.583.041-.855-.019-3.784-.052-7.568-.055-11.352a20.84,20.84,0,0,1,.162-2.641,2.413,2.413,0,0,1,2.251-2.085A2.337,2.337,0,0,1,96.444,58.7a8.393,8.393,0,0,1,.231,1.869c.016,4.517,0,9.034,0,13.55v.85h2.792c0-7.96,0-15.857-.011-23.755a.915.915,0,0,0-.255-.576C97.388,48.81,95.556,47,93.746,45.174a6.772,6.772,0,0,1-.661-.951c-.365.481-.542.725-.731.96-2.388,2.967-4.788,5.924-7.153,8.91a2.144,2.144,0,0,0-.436,1.226c-.028,5.93-.02,11.86-.018,17.79,0,.216.03.433.049.676Zm.4-51.954c-.217.043-.457.09-.7.14-1.281.266-2.551.621-3.845.783A22.089,22.089,0,0,1,77.23,21.341c-.515-.184-.731-.053-1.046.346-.7.885-1.33,2.023-2.27,2.479-1.711.83-1.891,2.08-1.716,3.649a4.79,4.79,0,0,1,0,.983,7.276,7.276,0,0,0,1.084,4.177c1.993,3.659,5.1,5.337,9.311,5.278a9.662,9.662,0,0,0,9.377-8.526c.245-2.569.044-5.181.044-7.9M70.953,20.184l.244.081c.329-.523.7-1.026.975-1.573s.447-1.122.683-1.679a2.156,2.156,0,0,1,2.363-1.5,8.253,8.253,0,0,1,2.213.685,18.307,18.307,0,0,0,13.348.77,7.191,7.191,0,0,0,4.81-4.276,10.249,10.249,0,0,0,.418-5.586,5.513,5.513,0,0,0-.168-.575c-1.127.276-2.165.6-3.227.778a36.106,36.106,0,0,1-9.875-.189,16.185,16.185,0,0,0-4.35.037,4.948,4.948,0,0,0-3.475,3c-.843,1.66-1.42,1.933-3.191,1.758-.151-.015-.3-.03-.453-.034a1.747,1.747,0,0,0-1.93,1.764,16.764,16.764,0,0,0,1.615,6.535m16.992,83.294c1.195-8.221,2.387-16.431,3.6-24.747-2.123,0-4.062.027-6-.015-.664-.014-.789.229-.788.835q.019,11.663,0,23.327a5.259,5.259,0,0,0,.07.6Zm-8.3.024c.021-.374.055-.7.055-1.016q0-11.507.01-23.013c0-.514-.1-.713-.657-.71-1.741.008-3.481-.044-5.222-.067-.264,0-.529.021-.8.033.2,1.513.364,2.934.567,4.349q1.425,9.941,2.886,19.878a.786.786,0,0,0,.537.521c.851.057,1.709.024,2.628.024m5.132-56.716,2.766-3.436H84.782Zm-5.191-.2.174-.089c0-.923.014-1.846-.016-2.767a.516.516,0,0,0-.334-.374c-.738-.035-1.479-.017-2.416-.017l2.592,3.248M66.085,80.11c.157.408.258.687.372.962a3.809,3.809,0,0,0,.319.683c.38.561.949.4,1.437.252.14-.044.245-.513.208-.763-.183-1.222-.2-1.22-1.458-1.18-.246.008-.491.025-.878.046m31.265-.053c-1.03-.007-1.03-.007-1.145,1.042a.418.418,0,0,0-.015.15c.086.275.1.7.284.788a.839.839,0,0,0,1.235-.311c.174-.334.356-.665.535-1,.267-.5.1-.7-.441-.675-.15.008-.3,0-.453,0" transform="translate(-7.794 0)" fill="#543f5c"/>
        <path id="Trazado_642464" data-name="Trazado 642464" d="M198.342,86.843c-2.52-.076-5.056.01-7.555-.26A15.234,15.234,0,0,1,177.974,77.6a13.955,13.955,0,0,1-1.039-9.308A14.948,14.948,0,0,1,184.915,57.9a15.153,15.153,0,0,1,19.07,4.22,2.142,2.142,0,0,0,1.684,1.045A11.915,11.915,0,0,1,216.193,72.1a11.732,11.732,0,0,1-9.4,14.329,19.283,19.283,0,0,1-3.226.323c-1.739.052-3.481.014-5.222.014v.074m-.086-5.081v.049c1.64,0,3.279.024,4.919-.009a18.32,18.32,0,0,0,2.93-.215,6.622,6.622,0,0,0,5.393-5.529,6.738,6.738,0,0,0-3.14-7A7.862,7.862,0,0,0,203.415,68a2.078,2.078,0,0,1-1.993-.978c-.192-.265-.364-.545-.537-.823a10.387,10.387,0,0,0-19.105,7.452,10.406,10.406,0,0,0,9.969,8.1c2.167.075,4.338.013,6.507.013" transform="translate(-69.258 -22.036)" fill="#543f5c"/>
        <path id="Trazado_642465" data-name="Trazado 642465" d="M21.4,127.827c-2.195,0-4.389-.016-6.584,0a14.179,14.179,0,0,1-10.489-4.616A14.382,14.382,0,0,1,.26,110.074,15.1,15.1,0,0,1,13.02,97.688c6.148-.9,11.05,1.36,14.79,6.276a1.517,1.517,0,0,0,.97.512,11.5,11.5,0,0,1,10.363,7.616,11.641,11.641,0,0,1-8.975,15.632,26.107,26.107,0,0,1-3.776.159c-1.665.024-3.33.006-5,.006v-.062m.292-4.86c2.245,0,4.491.01,6.736,0a6.782,6.782,0,0,0,6.605-6.476c.15-3.346-2.582-7.469-7.227-7.006a3.372,3.372,0,0,1-3.553-2,10.459,10.459,0,0,0-11.858-4.692,10.345,10.345,0,0,0-7.248,11.886,10.1,10.1,0,0,0,9.886,8.287c2.22.013,4.44,0,6.66,0" transform="translate(0 -38.242)" fill="#543f5c"/>
      </g>
    </g>
  </g>
</svg>
