<svg xmlns="http://www.w3.org/2000/svg" xmlns:xlink="http://www.w3.org/1999/xlink" width="190" height="190" viewBox="0 0 190 190">
  <defs>
    <clipPath id="clip-path">
      <rect id="Rect치ngulo_379614" data-name="Rect치ngulo 379614" width="190" height="190" transform="translate(1125 1096)" fill="#fff" stroke="#707070" stroke-width="1"/>
    </clipPath>
    <clipPath id="clip-path-2">
      <rect id="Rect치ngulo_379613" data-name="Rect치ngulo 379613" width="154.849" height="154.408" fill="#543f5c"/>
    </clipPath>
  </defs>
  <g id="Enmascarar_grupo_1074721" data-name="Enmascarar grupo 1074721" transform="translate(-1125 -1096)" clip-path="url(#clip-path)">
    <g id="Grupo_1075185" data-name="Grupo 1075185" transform="translate(1142.818 1113.796)">
      <g id="Grupo_1075184" data-name="Grupo 1075184" clip-path="url(#clip-path-2)">
        <path id="Trazado_642445" data-name="Trazado 642445" d="M6.77,92.789C2.633,91.389.278,88.659.016,84.4A8.659,8.659,0,0,1,5.5,75.907,6.5,6.5,0,0,1,7,75.419c.614-.085.7-.392.691-.925-.026-2.144.049-4.29-.028-6.432A26,26,0,0,1,8.3,62.377c1.656-8.933,6.583-15.444,15.035-18.717,9.991-3.868,19.436-2.5,27.711,4.584,4.072,3.484,6.342,8.09,7.562,13.283a34.437,34.437,0,0,1,.592,7.349c.036,1.958,0,3.918-.032,5.877-.008.468.281.516.6.594A9.213,9.213,0,0,1,65.184,78.8a8.849,8.849,0,0,1-4.664,13.847c-.082.024-.164.053-.315.1.129.231.229.43.347.618a23.691,23.691,0,0,1,3.9,11.725,16.042,16.042,0,0,1-3.323,10.592,1.039,1.039,0,0,0-.083,1.4,22.687,22.687,0,0,1,3.428,12.341c.007,11.6-.011,23.194.012,34.791.006,3.146-1.007,5.724-3.74,7.476a8.241,8.241,0,0,1-4.55,1.191q-22.715.027-45.429,0c-3.863,0-6.952-2.189-7.836-5.573a14.064,14.064,0,0,1-.4-3.485q-.042-16.185-.016-32.37a27.109,27.109,0,0,1,1.052-9.086A41.363,41.363,0,0,1,5.945,117.1a1.127,1.127,0,0,0-.091-1.434A16.286,16.286,0,0,1,2.6,104.234a22.809,22.809,0,0,1,3.214-9.757c.326-.548.63-1.109.96-1.688M54.316,72.236l-.162-.009c0-1.314-.017-2.629,0-3.943a23.163,23.163,0,0,0-.948-7.013c-2.3-7.764-7.234-12.588-15.325-14.13a23.732,23.732,0,0,0-10.4.335C18.646,49.713,14.072,56.737,13.1,64.72a71.364,71.364,0,0,0-.12,14.366c.278,3.464.647,6.923,1.088,10.369a3.793,3.793,0,0,1-.7,2.841c-1.1,1.566-2.256,3.1-3.227,4.739-2.276,3.846-3.239,7.933-1.925,12.36a10.485,10.485,0,0,0,5.724,6.753c5.542,2.612,11.257,4.66,17.509,4.775a43.423,43.423,0,0,0,10.093-.685,53.68,53.68,0,0,0,11.554-4.082,10.694,10.694,0,0,0,4.563-4.21c2.141-3.5,2.029-7.256.985-11.02-.885-3.186-2.863-5.807-4.856-8.377A3.5,3.5,0,0,1,53,89.927c.256-2.655.554-5.308.748-7.968.235-3.237.382-6.481.568-9.722M12.842,167.788v-.971q0-14.354,0-28.707c0-.6.04-1.2.093-1.793a2.513,2.513,0,0,1,3.59-1.7,3.391,3.391,0,0,1,1.5,3.2q.008,14.63.019,29.261c0,.245.022.49.032.724H49.015c.013-.2.027-.341.027-.478q.017-13.9.034-27.807c0-.968.022-1.936.023-2.9a2.468,2.468,0,0,1,3.729-1.91,2.908,2.908,0,0,1,1.331,2.568q-.006,14.8,0,29.606v.966a19.373,19.373,0,0,0,2.7-.022,2.5,2.5,0,0,0,2.433-2.738c.022-.414.028-.83.028-1.244,0-7.033.016-14.065-.017-21.1-.025-5.485-.05-10.972-.2-16.454a13.13,13.13,0,0,0-2.3-6.448c-.765.413-1.467.851-2.214,1.187a61.4,61.4,0,0,1-14.553,4.627,41.787,41.787,0,0,1-20.548-1.864,52.682,52.682,0,0,1-8.907-3.709.678.678,0,0,0-.637.184,15.32,15.32,0,0,0-2.233,7.526C7.659,140.194,7.686,152.6,7.684,165a2.479,2.479,0,0,0,2.291,2.76,20.641,20.641,0,0,0,2.867.024M8.723,87.87c-.249-2.533-.5-5.061-.751-7.644a4.265,4.265,0,0,0-2.89,4.427A3.657,3.657,0,0,0,8.723,87.87m49.555-.029A3.432,3.432,0,0,0,61.792,85a3.84,3.84,0,0,0-2.686-4.648c-.277,2.507-.552,5-.827,7.491" transform="translate(0 -18.485)" fill="#543f5c"/>
        <path id="Trazado_642446" data-name="Trazado 642446" d="M130.274,64.3q0-25.141-.017-50.281a13.821,13.821,0,0,1,1.928-7.849A12.746,12.746,0,0,1,141.86.144,27.563,27.563,0,0,1,144.9.007q27.038-.012,54.077,0a13.707,13.707,0,0,1,7.769,2.045,12.607,12.607,0,0,1,5.931,9.727c.1,1.076.131,2.162.132,3.244q.009,49.973.006,99.946a13.215,13.215,0,0,1-5,10.9,13.532,13.532,0,0,1-7.944,2.787c-.758.046-1.52.037-2.281.037q-25.93,0-51.86-.016a26.733,26.733,0,0,1-5.287-.416c-4.541-.929-7.573-3.732-9.369-7.973a13.371,13.371,0,0,1-.785-5.355q-.01-25.314,0-50.627Zm5.083.043q0,25.8.006,51.6a7.41,7.41,0,0,0,4.028,6.7,9.463,9.463,0,0,0,5.024.919q27.765-.022,55.531-.013a7.658,7.658,0,0,0,7.51-5.868,20.324,20.324,0,0,0,.276-5.363q0-35.414,0-70.828c0-9.291.063-18.582.065-27.873,0-5.238-3.512-8.634-8.712-8.625q-26.553.048-53.107.042c-1.173,0-2.354-.022-3.519.088a7.6,7.6,0,0,0-7.106,7.824q0,25.7,0,51.395" transform="translate(-57.962 0)" fill="#543f5c"/>
        <path id="Trazado_642447" data-name="Trazado 642447" d="M179.552,126.69a40.72,40.72,0,0,1-13.589-2.256c-6.036-2.15-11-5.754-14.228-11.435a22.571,22.571,0,0,1-2.7-8,26.974,26.974,0,0,1-.49-3.552,34.082,34.082,0,0,1,.36-4.253,29.9,29.9,0,0,1,2.283-8.432,13.925,13.925,0,0,1,.97-1.98,2.586,2.586,0,0,0,.186-2.293,20.885,20.885,0,0,1-1.092-6.853c.29-5.166,1.991-9.717,6.074-13.135.421-.352.355-.616.279-1.1-.183-1.139-.909-1.351-1.871-1.6a8.969,8.969,0,0,1-6.988-8.122,8.055,8.055,0,0,1,1.855-5.58,9,9,0,0,1,5.155-3.377c.591-.147.7-.419.688-1.013-.073-6.135.955-11.981,4.753-17.035a19.263,19.263,0,0,1,9.959-6.854,28.6,28.6,0,0,1,12.29-1.057,22.277,22.277,0,0,1,11.542,4.537c3.774,3.058,5.842,7.111,7.034,11.752a38.18,38.18,0,0,1,.724,8.647c.014.52.142.719.638.841a9.112,9.112,0,0,1,5.944,4.279,8.816,8.816,0,0,1-5.156,12.957,3,3,0,0,1-.669.163c-1.031.051-1.434.632-1.578,1.605a1.309,1.309,0,0,0,.466,1.371A16.51,16.51,0,0,1,207.8,75.5a20.386,20.386,0,0,1-.844,8.874,3.529,3.529,0,0,0,.259,2.75,45.238,45.238,0,0,1,2.534,6.765,26.593,26.593,0,0,1,.2,12.73,23.63,23.63,0,0,1-12.407,15.938,31.65,31.65,0,0,1-11.676,3.553c-2.1.234-4.21.388-6.316.578m-12.52-48.367c-.5.319-.889.562-1.274.81a25.34,25.34,0,0,0-11.447,16.506,25.721,25.721,0,0,0-.346,8.937,17.3,17.3,0,0,0,7.232,11.883,3.465,3.465,0,0,0,.485.246c0-3.454,0-6.817,0-10.18,0-1.128.007-2.258.058-3.384a2.061,2.061,0,0,1,1.037-1.769,2.4,2.4,0,0,1,2.61-.1,2.494,2.494,0,0,1,1.34,2.324c0,4.979.012,9.959-.021,14.938a.961.961,0,0,0,.819,1.105,40.914,40.914,0,0,0,9.547,1.694,41.371,41.371,0,0,0,14.324-1.582c1.265-.385,1.279-.387,1.278-1.7q-.008-6.776-.034-13.552a12.036,12.036,0,0,1,.04-1.38,2.4,2.4,0,0,1,3.617-1.839,2.685,2.685,0,0,1,1.412,2.513q0,5.983,0,11.964v.8c.124-.007.177,0,.21-.015.137-.084.271-.174.4-.27a17.951,17.951,0,0,0,5.592-6.911c1.97-4.175,1.892-8.6,1.158-12.951a24.876,24.876,0,0,0-11.01-16.876c-.632-.432-1.3-.811-2.011-1.249-.088.3-.143.492-.2.685a12.762,12.762,0,0,1-24.029,1.035c-.229-.544-.5-1.072-.784-1.686M179.623,37.17a17.051,17.051,0,0,1-5.4,4.143c-3.76,1.869-7.827,2.464-11.931,2.882-.627.063-.748.249-.737.82.08,4.078.18,8.158.169,12.236a17.4,17.4,0,0,0,1.022,5.886,10.178,10.178,0,0,0,3.78,5.476,23.945,23.945,0,0,0,12.55,3.953,22.979,22.979,0,0,0,11.083-2.429,13.34,13.34,0,0,0,4.127-2.842,13.716,13.716,0,0,0,3.422-9.52c.028-4.265,0-8.53-.006-12.795,0-.243,0-.487,0-.535-2.884-.526-5.671-.9-8.384-1.564A18.408,18.408,0,0,1,180.7,38.3c-.36-.349-.7-.724-1.079-1.126m17.8,2,.21-.208c-.349-1.493-.618-3.01-1.062-4.473a13.857,13.857,0,0,0-7.443-8.887c-4.748-2.273-9.747-2.294-14.792-1.368a14.827,14.827,0,0,0-8.2,4.395c-2.621,2.742-3.754,6.165-4.371,9.808a3.147,3.147,0,0,0,.037.653c4.515-.341,8.861-.982,12.565-3.76a7.355,7.355,0,0,0,2.851-4.436,2.455,2.455,0,0,1,2.414-2.043,2.352,2.352,0,0,1,2.428,1.944,8.145,8.145,0,0,0,4.318,5.525,18.512,18.512,0,0,0,6.488,2.223c1.515.243,3.04.421,4.561.628M187.315,76.734c-1.727.276-3.4.65-5.082.781a31.911,31.911,0,0,1-5.1-.019c-1.7-.142-3.372-.523-5.089-.8a7.8,7.8,0,0,0,7.471,6.237,8,8,0,0,0,7.8-6.194M199.359,68.9a15.555,15.555,0,0,1-5.187,4.864,33.369,33.369,0,0,1,8.47,6.619A12.948,12.948,0,0,0,199.359,68.9m-34.3,4.9a15.546,15.546,0,0,1-5.024-4.929c-2.766,2.306-4.707,8.91-3.333,11.2a32.87,32.87,0,0,1,8.357-6.267M202.8,49.643v7.332a3.694,3.694,0,0,0,2.631-3.912,3.592,3.592,0,0,0-2.631-3.419m-46.367.235a3.449,3.449,0,0,0-2.632,3.275,3.383,3.383,0,0,0,2.632,3.563Z" transform="translate(-66.098 -8.245)" fill="#543f5c"/>
        <path id="Trazado_642448" data-name="Trazado 642448" d="M206,95.411a2.444,2.444,0,0,1-4.7,1.314,7.681,7.681,0,0,1-.28-1.275,2.448,2.448,0,0,0-2.094-2.166,2.578,2.578,0,0,0-2.8,1.317,7.7,7.7,0,0,0-.2.933,6.956,6.956,0,0,1-.8,1.939,2.152,2.152,0,0,1-2.434.892,2.49,2.49,0,0,1-1.871-2.324,7.122,7.122,0,0,1,.4-2.689,7.635,7.635,0,0,1,14.321-.4,14.4,14.4,0,0,1,.638,2.427l-.18.033" transform="translate(-84.909 -39.229)" fill="#543f5c"/>
        <path id="Trazado_642449" data-name="Trazado 642449" d="M191.129,73.538c0,.981.139,1.972-.61,2.816a2.664,2.664,0,0,1-2.74.838,2.332,2.332,0,0,1-1.767-2.141,21.257,21.257,0,0,1,.016-2.967,2.488,2.488,0,0,1,2.88-2.285,2.583,2.583,0,0,1,2.22,2.565c0,.391,0,.783,0,1.174" transform="translate(-82.753 -31.057)" fill="#543f5c"/>
        <path id="Trazado_642450" data-name="Trazado 642450" d="M219.085,73.343c0,.484.024.97,0,1.452a2.556,2.556,0,0,1-2.349,2.47,2.308,2.308,0,0,1-2.642-2.143,13.4,13.4,0,0,1,.053-3.5c.213-1.378,1.4-2.005,3.011-1.827a2.523,2.523,0,0,1,1.94,2.44c0,.369,0,.738,0,1.107Z" transform="translate(-95.226 -31.045)" fill="#543f5c"/>
      </g>
    </g>
  </g>
</svg>
