<svg xmlns="http://www.w3.org/2000/svg" xmlns:xlink="http://www.w3.org/1999/xlink" width="190" height="190" viewBox="0 0 190 190">
  <defs>
    <clipPath id="clip-path">
      <rect id="Rect치ngulo_379623" data-name="Rect치ngulo 379623" width="190" height="190" transform="translate(1125 1096)" fill="#fff" stroke="#707070" stroke-width="1"/>
    </clipPath>
    <clipPath id="clip-path-2">
      <rect id="Rect치ngulo_379628" data-name="Rect치ngulo 379628" width="148.09" height="154.667" fill="#543f5c"/>
    </clipPath>
  </defs>
  <g id="Enmascarar_grupo_1074722" data-name="Enmascarar grupo 1074722" transform="translate(-1125 -1096)" clip-path="url(#clip-path)">
    <g id="Grupo_1075194" data-name="Grupo 1075194" transform="translate(1146 1114)">
      <g id="Grupo_1075193" data-name="Grupo 1075193" clip-path="url(#clip-path-2)">
        <path id="Trazado_642457" data-name="Trazado 642457" d="M118.943,49.433c.119,1.159.208,2.3.359,3.441a55.679,55.679,0,0,1-.691,18.119A59.705,59.705,0,0,1,83.361,114.5c-1.483.632-3.021,1.136-4.5,1.772a7.117,7.117,0,0,0-4.3,7.678c.352,2.441.756,4.874,1.067,7.319.285,2.238.568,4.482.689,6.732a15.162,15.162,0,0,1-4.364,11.377,15.953,15.953,0,0,1-10.347,5.194,16.439,16.439,0,0,1-17.275-10.948c-.162-.481-.3-.969-.482-1.443a2.36,2.36,0,0,1,1.678-2.9,2.268,2.268,0,0,1,2.512,1.468c.174.45.266.932.436,1.384A12.077,12.077,0,0,0,71.6,141.059a18.665,18.665,0,0,0-.095-6.951c-.512-3.492-1.074-6.983-1.4-10.494a11.506,11.506,0,0,1,7.77-11.7,55.767,55.767,0,0,0,15.068-7.927,55.142,55.142,0,0,0,17.736-22.29,55.732,55.732,0,0,0,3.781-12.482,61.315,61.315,0,0,0,.723-11.1,59.5,59.5,0,0,0-1.337-11.036,4.728,4.728,0,0,0-1.506-2.5q-6.69-6.64-13.352-13.308a15.564,15.564,0,0,1-4.313-7.53,16.26,16.26,0,0,1-.19-6.468,1.079,1.079,0,0,0-.266-.874A54.258,54.258,0,0,0,74.053,6.343,56.973,56.973,0,0,0,59.2,4.475c-1.54.012-3.076.3-4.618.388A45.11,45.11,0,0,0,42.547,7.24Q18.792,15.362,8.751,38.4A47.336,47.336,0,0,0,5.062,52.19c-.291,2.677-.27,5.388-.374,8.085-.019.506.044,1.015.052,1.523.207,13.229,5.1,24.612,13.705,34.484a53.771,53.771,0,0,0,23.031,15.446,11.692,11.692,0,0,1,8.064,9.057,17.015,17.015,0,0,1,.066,4.763c-.146,1.834-.485,3.656-.791,5.475-.227,1.351-.866,2-1.936,2.108a2.231,2.231,0,0,1-2.575-2.6c.2-1.649.462-3.291.708-4.934a10.919,10.919,0,0,0,.024-4.672,7.392,7.392,0,0,0-5.079-5.046A59.811,59.811,0,0,1,2.684,77.094,57.152,57.152,0,0,1,.231,54.8,59.77,59.77,0,0,1,42.546,2.618,58.3,58.3,0,0,1,64.359.194a60.526,60.526,0,0,1,29.583,10.5c.381.261.763.521,1.133.8s.724.57,1.1.87c2.665-4.369,6.405-7.245,11.524-8.013a15.5,15.5,0,0,1,13.383,4.142c.79-.6,1.532-1.215,2.331-1.751a14.917,14.917,0,0,1,10.41-2.458c6.443.781,10.829,4.318,13.217,10.263a14.99,14.99,0,0,1,.016,10.969c-.384,1.059-1,1.957-2.306,1.975a2.128,2.128,0,0,1-2.143-2.413,6.837,6.837,0,0,1,.261-1.142c2.16-6.829-1.2-12.336-6.324-14.472a11.629,11.629,0,0,0-12.533,2.367c-.462.453-.9.929-1.388,1.355a2.129,2.129,0,0,1-2.957.036,16.279,16.279,0,0,1-1.241-1.206c-5.5-5.67-16.054-4.307-19.027,4.071-1.685,4.75-.506,8.982,3.1,12.543q7.465,7.38,14.876,14.815c1.543,1.55,3.29,2.233,5.385,1.46a5.852,5.852,0,0,0,1.971-1.351c3.668-3.617,7.294-7.275,10.942-10.912a7.95,7.95,0,0,1,1.2-1.032,1.983,1.983,0,0,1,2.653.191,2.186,2.186,0,0,1,.355,2.733,4.8,4.8,0,0,1-.749.9c-3.758,3.757-7.54,7.489-11.278,11.266a9.22,9.22,0,0,1-7.538,2.942c-.432-.032-.859-.126-1.375-.2" transform="translate(0 0)" fill="#543f5c"/>
        <path id="Trazado_642458" data-name="Trazado 642458" d="M24.313,70.514a46.341,46.341,0,1,1,48.352,46.093A46.28,46.28,0,0,1,24.313,70.514M44.742,37.692c-.158.112-.275.185-.38.271A41.34,41.34,0,0,0,31.38,56.085a42.245,42.245,0,0,0-2.551,13.806A39.492,39.492,0,0,0,31.835,86.1a41.311,41.311,0,0,0,25.811,24.029A38.91,38.91,0,0,0,66.7,112c.487.044.669-.112.656-.6-.021-.831-.007-1.664.009-2.495a2.552,2.552,0,0,1,2.008-2.847A35.7,35.7,0,0,0,89.611,87.771a29.907,29.907,0,0,0,3.021-9.939,3.225,3.225,0,0,1,2.462-3.04,13.871,13.871,0,0,0,9.877-13.68,8.47,8.47,0,0,0-9.694-8.083c-2.674.359-5.344.79-8.031.99a62.048,62.048,0,0,1-17.433-.979c-1.755-.368-3.491-.844-5.208-1.359a2.007,2.007,0,0,1-1.463-2.3c.179-1.443,1.4-2.2,2.993-1.776a42.512,42.512,0,0,0,7.646,1.548c1.493.112,2.977.4,4.47.439,2.585.074,5.177.1,7.76,0,2.363-.1,4.717-.4,7.111-.612.013-.167.035-.324.035-.479,0-3.489.027-6.977-.008-10.465A12.106,12.106,0,0,0,92.8,35.5a1.47,1.47,0,0,0-.656-.878c-1.814-.954-3.619-1.947-5.5-2.743a38.079,38.079,0,0,0-12.655-2.933,47.7,47.7,0,0,0-11.3.58,40.278,40.278,0,0,0-13.034,4.825c-.433.249-.845.534-1.285.813.232.335.413.6.6.86.107.151.22.3.332.444A29.3,29.3,0,0,0,56.786,43.3a2.231,2.231,0,0,1,1.023,2.319,2.018,2.018,0,0,1-1.446,1.693,2.318,2.318,0,0,1-2.262-.5,33.974,33.974,0,0,1-9.358-9.124m53.054.937-.173.12c0,.18,0,.36,0,.541.007,2.518.032,5.036.015,7.554-.012,1.753-.041,1.776,1.719,2.079,5.036.865,9.512,5.944,9.948,10.767A18.408,18.408,0,0,1,97.748,78.547a1.115,1.115,0,0,0-.751.879c-.348,1.479-.7,2.958-1.134,4.415a39.344,39.344,0,0,1-7.989,14.578A39.782,39.782,0,0,1,73.56,109.094c-1.131.5-2,.884-1.758,2.356.088.531.17.719.722.68a46.578,46.578,0,0,0,10.743-1.859,41.965,41.965,0,0,0,25.959-23.433,42.82,42.82,0,0,0,3.3-13.729,39.119,39.119,0,0,0-1.052-12.022A41.366,41.366,0,0,0,99.593,40.215c-.574-.555-1.2-1.058-1.8-1.586" transform="translate(-10.79 -10.782)" fill="#543f5c"/>
        <path id="Trazado_642459" data-name="Trazado 642459" d="M44.747,94.751a13.248,13.248,0,0,1,8.111,3.738,2.115,2.115,0,0,1,.737,2.239,2.169,2.169,0,0,1-1.737,1.6,2.376,2.376,0,0,1-2.184-.791,8.72,8.72,0,0,0-11.009-.641c-.461.347-.9.731-1.369,1.058a2.139,2.139,0,0,1-2.888-.263,2.1,2.1,0,0,1-.039-2.84A10.947,10.947,0,0,1,38.7,95.837a13.85,13.85,0,0,1,6.046-1.086" transform="translate(-15.016 -42.048)" fill="#543f5c"/>
        <path id="Trazado_642460" data-name="Trazado 642460" d="M106.688,94.666A13.758,13.758,0,0,1,115.5,98.4a2.153,2.153,0,0,1,.784,2.352,2.206,2.206,0,0,1-1.794,1.544,2.36,2.36,0,0,1-2.115-.786,8.294,8.294,0,0,0-4.733-2.228,8.482,8.482,0,0,0-6.769,1.933c-.3.25-.591.52-.914.739a2.166,2.166,0,0,1-2.877-.391,1.927,1.927,0,0,1,.031-2.8,13.392,13.392,0,0,1,9.579-4.093" transform="translate(-42.821 -42.011)" fill="#543f5c"/>
        <path id="Trazado_642461" data-name="Trazado 642461" d="M74.809,135.18a13.9,13.9,0,0,1,8.928,3.263,5.071,5.071,0,0,1,.752.811,2.025,2.025,0,0,1-.26,2.915,2.132,2.132,0,0,1-2.9-.024,8.622,8.622,0,0,0-4.628-2.326,8.08,8.08,0,0,0-6.908,2.095,2.3,2.3,0,0,1-2.385.7,2.137,2.137,0,0,1-.962-3.588,11.463,11.463,0,0,1,4.826-3.017c1.352-.429,2.705-.986,3.534-.832" transform="translate(-29.206 -59.979)" fill="#543f5c"/>
        <path id="Trazado_642462" data-name="Trazado 642462" d="M152.1,96.27a2.123,2.123,0,0,1-2.3-2.283,10.831,10.831,0,0,1,3.143-7.529,2.039,2.039,0,0,1,3.121-.077,1.992,1.992,0,0,1,.32,2.688c-.308.459-.664.886-.969,1.347a6.043,6.043,0,0,0-1.169,3.681A2.018,2.018,0,0,1,152.1,96.27" transform="translate(-66.478 -38.029)" fill="#543f5c"/>
      </g>
    </g>
  </g>
</svg>
