<svg xmlns="http://www.w3.org/2000/svg" xmlns:xlink="http://www.w3.org/1999/xlink" width="70" height="70" viewBox="0 0 70 70">
  <defs>
    <clipPath id="clip-path">
      <rect id="Rect치ngulo_379650" data-name="Rect치ngulo 379650" width="49" height="49" transform="translate(254 968)" fill="#543f5c" stroke="#707070" stroke-width="1"/>
    </clipPath>
    <clipPath id="clip-path-2">
      <rect id="Rect치ngulo_379657" data-name="Rect치ngulo 379657" width="46.561" height="40.385" fill="#543f5c"/>
    </clipPath>
  </defs>
  <g id="Grupo_1075459" data-name="Grupo 1075459" transform="translate(-610 -2402)">
    <g id="Grupo_1075231" data-name="Grupo 1075231" transform="translate(341 1444)">
      <circle id="Elipse_5614" data-name="Elipse 5614" cx="35" cy="35" r="35" transform="translate(269 958)" fill="#fff"/>
    </g>
    <g id="Enmascarar_grupo_1074725" data-name="Enmascarar grupo 1074725" transform="translate(367 1445)" clip-path="url(#clip-path)">
      <g id="Grupo_1075245" data-name="Grupo 1075245" transform="translate(255 972)">
        <g id="Grupo_1075244" data-name="Grupo 1075244" clip-path="url(#clip-path-2)">
          <path id="Trazado_642620" data-name="Trazado 642620" d="M50.363,25.668a74.729,74.729,0,0,1-6.416,5.124c.022-.205.041-.377.058-.55a3.515,3.515,0,0,0-1.125-3.077,3.658,3.658,0,0,0-3.393-.886,13.316,13.316,0,0,0-3.124,1.027.45.45,0,0,1-.48-.026q-2.783-1.7-5.575-3.379c-1.965-1.19-3.933-2.376-5.893-3.575a11.558,11.558,0,0,1-4.075-4.262A11.111,11.111,0,0,1,19.246,13.3a9.575,9.575,0,0,1-.317-2.917,11.422,11.422,0,0,1,.335-2.146A10.946,10.946,0,0,1,26.394.57,10.226,10.226,0,0,1,29.881,0a10.96,10.96,0,0,1,7.1,2.711c.042.036.083.074.122.113.009.008.01.024.019.048a.393.393,0,0,1-.086.075,3.3,3.3,0,0,0-1.413,1.278c-.1.159-.173.149-.324.06A6.556,6.556,0,0,0,33.482,3.4a3.677,3.677,0,0,0-3.759,1.115,4.146,4.146,0,0,0-.714,1.107c-.63,1.391-1.216,2.8-1.834,4.2a3.69,3.69,0,0,0-.249,2.095A3.458,3.458,0,0,0,28.5,14.4c.914.573,1.862,1.091,2.793,1.637a11.32,11.32,0,0,0,2.752,1.246c.652.176,1.321.289,1.987.41.3.054.606.047.906.092a1.519,1.519,0,0,1,.545.162q4.179,2.5,8.348,5.01,2.073,1.246,4.143,2.5c.111.067.228.125.385.211" transform="translate(-15.76 0)" fill="#543f5c"/>
          <path id="Trazado_642621" data-name="Trazado 642621" d="M114.224,43.266c.07.084.131.146.179.218a8.778,8.778,0,0,1,1.527,5.251,4.841,4.841,0,0,1-.885,2.787,3.516,3.516,0,0,1-3.2,1.442,5.339,5.339,0,0,1-2.484-.863q-4.136-2.487-8.273-4.972-4.651-2.8-9.3-5.6a.7.7,0,0,0-.368-.1,8.777,8.777,0,0,1-4.878-1.241q-1.336-.777-2.679-1.545a1.036,1.036,0,0,1-.593-.993,1.477,1.477,0,0,1,.121-.5c.58-1.345,1.175-2.684,1.752-4.031a1.1,1.1,0,0,1,1.6-.532c1.039.634,2.106,1.222,3.161,1.831.23.132.244.137.383-.1.36-.615.713-1.234,1.069-1.85.062-.108.128-.214.193-.32a.887.887,0,0,1,.863-.47.861.861,0,0,1,.777.6c.167.474.3.962.426,1.45a9.9,9.9,0,0,1,.225,2.8.255.255,0,0,0,.162.272Q98.039,38.9,102.08,41q4.327,2.249,8.65,4.5c.564.294,1.131.583,1.691.884.126.068.171.018.222-.082q.747-1.447,1.5-2.891c.021-.041.045-.081.083-.149" transform="translate(-69.374 -26.394)" fill="#543f5c"/>
          <path id="Trazado_642622" data-name="Trazado 642622" d="M1.433,95.012a9.764,9.764,0,0,0,.963,1.96A15.249,15.249,0,0,0,7.929,102.3c2.845,1.673,5.653,3.408,8.476,5.117q1.883,1.139,3.767,2.274a.269.269,0,0,0,.233,0,11.45,11.45,0,0,1,3.784-1.54,1.011,1.011,0,0,1,1.016.169.85.85,0,0,1,.217,1.1c-.438.753-.869,1.51-1.3,2.266-.034.059-.066.118-.111.2.563.324,1.114.639,1.664.956.587.339,1.177.673,1.76,1.02a1.045,1.045,0,0,1,.574.9,1.226,1.226,0,0,1-.3.778c-.357.476-.716.951-1.072,1.428q-.7.932-1.389,1.866c-.07.094-.142.188-.218.278a.985.985,0,0,1-1.384.258c-.909-.514-1.806-1.051-2.718-1.56A8.714,8.714,0,0,1,18,115.187c-.195-.277-.347-.583-.542-.859a1.363,1.363,0,0,0-.412-.417c-1.968-1.086-3.944-2.158-5.917-3.235-2.137-1.167-4.28-2.323-6.408-3.505a8.931,8.931,0,0,1-4.063-4.61,8.53,8.53,0,0,1-.647-3.588,7.386,7.386,0,0,1,1.369-3.924c.011-.015.033-.022.056-.037" transform="translate(0 -79.163)" fill="#543f5c"/>
          <path id="Trazado_642623" data-name="Trazado 642623" d="M168.253,10.8a12.838,12.838,0,0,1-.913,4.506c-.124.315-.264.623-.4.933-.047.109-.111.129-.228.068q-3.586-1.873-7.177-3.737-3.609-1.875-7.222-3.742A.532.532,0,0,1,152,8.382c-.116-.772-.214-1.55-.4-2.306a4.549,4.549,0,0,0-1.293-2.525,3.321,3.321,0,0,0-.368-.3c-.157-.1-.13-.17-.01-.281a10.925,10.925,0,0,1,2.4-1.691A10.552,10.552,0,0,1,157.343.033a10.75,10.75,0,0,1,7.882,3.4,10.478,10.478,0,0,1,2.694,4.929,12.6,12.6,0,0,1,.333,2.44" transform="translate(-124.839 -0.027)" fill="#543f5c"/>
        </g>
      </g>
    </g>
  </g>
</svg>
