<svg xmlns="http://www.w3.org/2000/svg" xmlns:xlink="http://www.w3.org/1999/xlink" width="1030" height="507.678" viewBox="0 0 1030 507.678">
  <defs>
    <linearGradient id="linear-gradient" x1="0.5" x2="0.5" y2="1" gradientUnits="objectBoundingBox">
      <stop offset="0" stop-color="#fff4d6"/>
      <stop offset="1" stop-color="#fce5e5"/>
    </linearGradient>
    <clipPath id="clip-path">
      <rect id="Rectángulo_379765" data-name="Rectángulo 379765" width="840" height="437" transform="translate(265 1029.975)" fill="#fff" stroke="#707070" stroke-width="1"/>
    </clipPath>
    <clipPath id="clip-path-2">
      <rect id="Rectángulo_379762" data-name="Rectángulo 379762" width="821.21" height="571.422" fill="none"/>
    </clipPath>
    <clipPath id="clip-path-3">
      <rect id="Rectángulo_379763" data-name="Rectángulo 379763" width="626.629" height="205.634" fill="none"/>
    </clipPath>
  </defs>
  <g id="Grupo_1075465" data-name="Grupo 1075465" transform="translate(-285 -988.322)">
    <g id="Grupo_1072716" data-name="Grupo 1072716" transform="translate(0 -4626.678)">
      <path id="Trazado_608309" data-name="Trazado 608309" d="M0,0H1030V507.678H0Z" transform="translate(285 5615)" fill="url(#linear-gradient)"/>
    </g>
    <g id="Enmascarar_grupo_1074756" data-name="Enmascarar grupo 1074756" transform="translate(145 -6.976)" clip-path="url(#clip-path)">
      <g id="Grupo_1075415" data-name="Grupo 1075415" transform="translate(265 1049.985)">
        <g id="Grupo_1075410" data-name="Grupo 1075410" transform="translate(0 0)">
          <g id="Grupo_1075409" data-name="Grupo 1075409" clip-path="url(#clip-path-2)">
            <path id="Trazado_643131" data-name="Trazado 643131" d="M679.485,79.572a183.85,183.85,0,0,0-49.971,6.884A222.921,222.921,0,0,0,453.053,0C346.611,0,257.581,74.467,235.19,174.142A44.016,44.016,0,0,0,183.023,226a112.119,112.119,0,0,0-68.267,165.97H810.113a183.508,183.508,0,0,0-130.628-312.4" transform="translate(-71.545 0.003)" fill="#f9f2fc"/>
            <path id="Trazado_643132" data-name="Trazado 643132" d="M1508.738,1345a26.774,26.774,0,0,1-4.549,15.418c-2.81,3.946-6.692,6.387-10.979,6.387H1029.088a11.266,11.266,0,0,1-2.293-.237c-7.49-1.555-13.235-10.621-13.235-21.568a26.774,26.774,0,0,1,4.549-15.418c2.81-3.946,6.692-6.387,10.979-6.387H1493.21c8.575,0,15.528,9.762,15.528,21.805" transform="translate(-732.916 -956.817)" fill="#fff4d6"/>
            <path id="Trazado_643133" data-name="Trazado 643133" d="M585.989,1345a26.774,26.774,0,0,1-4.549,15.418c-2.81,3.946-6.692,6.387-10.979,6.387H106.34a11.266,11.266,0,0,1-2.293-.237c-7.49-1.555-13.235-10.621-13.235-21.568a26.774,26.774,0,0,1,4.549-15.418c2.81-3.946,6.692-6.387,10.979-6.387H570.462c8.575,0,15.528,9.762,15.528,21.805" transform="translate(-65.668 -956.817)" fill="#fff4d6"/>
            <path id="Trazado_643134" data-name="Trazado 643134" d="M701.431,220.261a34.909,34.909,0,0,1,33.557,25.3H667.874a34.909,34.909,0,0,1,33.557-25.3" transform="translate(-482.947 -159.272)" fill="#fff"/>
            <path id="Trazado_643135" data-name="Trazado 643135" d="M69.252,177.037A51.423,51.423,0,0,1,118.685,214.3H19.82a51.423,51.423,0,0,1,49.432-37.267" transform="translate(-14.332 -128.017)" fill="#fff"/>
            <path id="Trazado_643136" data-name="Trazado 643136" d="M368.385,191.967c-7.58-26.229-37.618-45.819-73.523-45.819s-65.942,19.591-73.522,45.819Z" transform="translate(-160.053 -105.68)" fill="#fff"/>
            <path id="Trazado_643137" data-name="Trazado 643137" d="M469.871,271.031A25.519,25.519,0,0,1,494.4,289.524H445.34a25.518,25.518,0,0,1,24.531-18.493" transform="translate(-322.03 -195.985)" fill="#afbfc9"/>
            <path id="Trazado_643138" data-name="Trazado 643138" d="M593.4,291.729a17.61,17.61,0,0,1,16.928,12.762H576.475A17.61,17.61,0,0,1,593.4,291.729" transform="translate(-416.855 -210.952)" fill="#afbfc9"/>
            <path id="Trazado_643139" data-name="Trazado 643139" d="M338.908,285.805c-3.3-11.4-16.352-19.917-31.959-19.917s-28.664,8.516-31.959,19.917Z" transform="translate(-198.848 -192.266)" fill="#afbfc9"/>
            <path id="Trazado_643140" data-name="Trazado 643140" d="M2459,592.967a11.491,11.491,0,0,1,11.045,8.327h-22.091A11.49,11.49,0,0,1,2459,592.967" transform="translate(-1770.145 -428.78)" fill="#bab1ac"/>
            <path id="Trazado_643141" data-name="Trazado 643141" d="M2514.625,602.287a7.929,7.929,0,0,1,7.623,5.746H2507a7.929,7.929,0,0,1,7.622-5.746" transform="translate(-1812.841 -435.519)" fill="#bab1ac"/>
            <path id="Trazado_643142" data-name="Trazado 643142" d="M2400.034,599.62c-1.484-5.133-7.363-8.968-14.39-8.968s-12.906,3.834-14.39,8.968Z" transform="translate(-1714.679 -427.106)" fill="#bab1ac"/>
            <path id="Trazado_643143" data-name="Trazado 643143" d="M2750.427,506.179a24.018,24.018,0,0,1,23.088,17.406h-46.176a24.018,24.018,0,0,1,23.088-17.406" transform="translate(-1972.168 -366.023)" fill="#bfd3db"/>
            <path id="Trazado_643144" data-name="Trazado 643144" d="M2866.693,525.66a16.574,16.574,0,0,1,15.933,12.011H2850.76a16.574,16.574,0,0,1,15.933-12.011" transform="translate(-2061.416 -380.11)" fill="#bfd3db"/>
            <path id="Trazado_643145" data-name="Trazado 643145" d="M2627.167,520.085c-3.1-10.731-15.39-18.746-30.079-18.746s-26.979,8.015-30.08,18.746Z" transform="translate(-1856.231 -362.523)" fill="#bfd3db"/>
            <path id="Trazado_643146" data-name="Trazado 643146" d="M61.674,451.382a8.076,8.076,0,0,1,7.763,5.853H53.911a8.076,8.076,0,0,1,7.763-5.853" transform="translate(-38.984 -326.398)" fill="#fff"/>
            <path id="Trazado_643147" data-name="Trazado 643147" d="M100.768,457.933a5.573,5.573,0,0,1,5.357,4.039H95.411a5.573,5.573,0,0,1,5.357-4.039" transform="translate(-68.993 -331.136)" fill="#fff"/>
            <path id="Trazado_643148" data-name="Trazado 643148" d="M20.228,456.058c-1.043-3.608-5.175-6.3-10.114-6.3S1.043,452.45,0,456.058Z" transform="translate(0 -325.222)" fill="#fff"/>
            <path id="Trazado_643149" data-name="Trazado 643149" d="M1114.336,266.7H1216.2a34.794,34.794,0,0,0,11.856-26.692c0-27.3-35.225-49.426-68.431-49.426s-60.124,22.129-60.124,49.426c0,11.045,5.768,19.974,14.835,26.692" transform="translate(-795.061 -137.81)" fill="#febeb5"/>
            <path id="Trazado_643150" data-name="Trazado 643150" d="M1065.019,398.214A18.284,18.284,0,1,1,1083.3,416.5a18.284,18.284,0,0,1-18.284-18.284" transform="translate(-770.127 -274.731)" fill="#febeb5"/>
            <path id="Trazado_643151" data-name="Trazado 643151" d="M1059.323,315.2a14.209,14.209,0,1,1,14.209,14.209,14.209,14.209,0,0,1-14.209-14.209" transform="translate(-766.008 -217.651)" fill="#febeb5"/>
            <path id="Trazado_643152" data-name="Trazado 643152" d="M1161.959,445.63a14.209,14.209,0,1,1,14.209,14.209,14.209,14.209,0,0,1-14.209-14.209" transform="translate(-840.225 -311.964)" fill="#febeb5"/>
            <path id="Trazado_643153" data-name="Trazado 643153" d="M1099.5,236.9a14.209,14.209,0,1,1,14.209,14.21A14.209,14.209,0,0,1,1099.5,236.9" transform="translate(-795.061 -161.029)" fill="#febeb5"/>
            <path id="Trazado_643154" data-name="Trazado 643154" d="M1171.369,183.4a14.209,14.209,0,1,1,14.209,14.209,14.209,14.209,0,0,1-14.209-14.209" transform="translate(-847.03 -122.34)" fill="#febeb5"/>
            <path id="Trazado_643155" data-name="Trazado 643155" d="M1258.959,163.2a14.209,14.209,0,1,1,14.209,14.209,14.209,14.209,0,0,1-14.209-14.209" transform="translate(-910.367 -107.734)" fill="#febeb5"/>
            <path id="Trazado_643156" data-name="Trazado 643156" d="M1352.121,175.035a14.209,14.209,0,1,1,14.209,14.21,14.209,14.209,0,0,1-14.209-14.21" transform="translate(-977.734 -116.294)" fill="#febeb5"/>
            <path id="Trazado_643157" data-name="Trazado 643157" d="M1441.29,213.541a14.21,14.21,0,1,1,14.209,14.209,14.209,14.209,0,0,1-14.209-14.209" transform="translate(-1042.212 -144.138)" fill="#febeb5"/>
            <path id="Trazado_643158" data-name="Trazado 643158" d="M1485.954,294.578a14.209,14.209,0,1,1,14.209,14.209,14.209,14.209,0,0,1-14.209-14.209" transform="translate(-1074.51 -202.737)" fill="#febeb5"/>
            <path id="Trazado_643159" data-name="Trazado 643159" d="M1478.114,377.058a14.209,14.209,0,1,1,14.209,14.209,14.209,14.209,0,0,1-14.209-14.209" transform="translate(-1068.84 -262.379)" fill="#febeb5"/>
            <path id="Trazado_643160" data-name="Trazado 643160" d="M1179.472,360.583l.186.053.149.045.223.071.221.071.193.066c.256.089.519.179.75.268l.711.271.684.277c.458.185.886.382,1.33.574s.859.4,1.288.6c1.694.824,3.314,1.729,4.893,2.688a59.146,59.146,0,0,1,21.806,23.873,69.159,69.159,0,0,1,3.939,9.877c.258.84.471,1.689.706,2.532l.343,1.266c.109.422.188.85.283,1.274l.542,2.548c.162.85.278,1.7.417,2.556a89.829,89.829,0,0,1,.7,20.271l-11.345-.4a77.657,77.657,0,0,0-2.007-17.444c-.174-.7-.324-1.4-.515-2.088l-.616-2.045c-.105-.339-.2-.684-.312-1.018l-.363-.995c-.246-.661-.468-1.331-.728-1.982a55.106,55.106,0,0,0-3.7-7.441,44.442,44.442,0,0,0-10.712-12.006,43.677,43.677,0,0,0-6.711-4.249c-1.177-.583-2.367-1.124-3.558-1.585l-.889-.329c-.292-.1-.59-.207-.875-.292l-.427-.133-.408-.115c-.141-.042-.256-.067-.376-.1l-.09-.022-.062-.012-.062-.012-.015,0,.021.008.043.014Z" transform="translate(-849.704 -260.741)" fill="#febeb5"/>
            <path id="Trazado_643161" data-name="Trazado 643161" d="M1362.346,448.559a30.559,30.559,0,1,0,39.2-18.2,30.559,30.559,0,0,0-39.2,18.2m43.906,16.062a16.192,16.192,0,1,1-9.644-20.77,16.192,16.192,0,0,1,9.644,20.77" transform="translate(-983.776 -309.845)" fill="#b7c6ce"/>
            <path id="Trazado_643162" data-name="Trazado 643162" d="M1359.357,480.967l-4.227,11.554-9.234-4.629a33.315,33.315,0,0,1,3.42-9.348Z" transform="translate(-973.232 -346.04)" fill="#b7c6ce"/>
            <path id="Trazado_643163" data-name="Trazado 643163" d="M1353.071,532.387l2.116,12.12-10.312.608a33.32,33.32,0,0,1-1.712-9.805Z" transform="translate(-971.256 -384.974)" fill="#b7c6ce"/>
            <path id="Trazado_643164" data-name="Trazado 643164" d="M1369.421,579.222l7.893,9.438-8.626,5.682a33.312,33.312,0,0,1-6.385-7.635Z" transform="translate(-985.096 -418.841)" fill="#b7c6ce"/>
            <path id="Trazado_643165" data-name="Trazado 643165" d="M1412.955,615.249l11.554,4.227-4.629,9.234a33.311,33.311,0,0,1-9.348-3.42Z" transform="translate(-1019.971 -444.892)" fill="#b7c6ce"/>
            <path id="Trazado_643166" data-name="Trazado 643166" d="M1464.375,625.287l12.12-2.116.608,10.311a33.317,33.317,0,0,1-9.805,1.712Z" transform="translate(-1058.905 -450.621)" fill="#b7c6ce"/>
            <path id="Trazado_643167" data-name="Trazado 643167" d="M1511.209,601.136l9.438-7.893,5.682,8.626a33.311,33.311,0,0,1-7.635,6.385Z" transform="translate(-1092.772 -428.98)" fill="#b7c6ce"/>
            <path id="Trazado_643168" data-name="Trazado 643168" d="M1547.236,560.3l4.227-11.554,9.234,4.629a33.3,33.3,0,0,1-3.42,9.348Z" transform="translate(-1118.823 -396.806)" fill="#b7c6ce"/>
            <path id="Trazado_643169" data-name="Trazado 643169" d="M1557.274,512.146l-2.116-12.12,10.312-.608a33.33,33.33,0,0,1,1.712,9.805Z" transform="translate(-1124.552 -361.134)" fill="#b7c6ce"/>
            <path id="Trazado_643170" data-name="Trazado 643170" d="M1533.123,459.063l-7.893-9.438,8.626-5.682a33.329,33.329,0,0,1,6.385,7.635Z" transform="translate(-1102.911 -321.019)" fill="#b7c6ce"/>
            <path id="Trazado_643171" data-name="Trazado 643171" d="M1492.291,427.369l-11.554-4.227,4.629-9.234a33.331,33.331,0,0,1,9.348,3.42Z" transform="translate(-1070.737 -299.301)" fill="#b7c6ce"/>
            <path id="Trazado_643172" data-name="Trazado 643172" d="M1444.134,421.084l-12.12,2.117-.608-10.312a33.31,33.31,0,0,1,9.805-1.712Z" transform="translate(-1035.065 -297.326)" fill="#b7c6ce"/>
            <path id="Trazado_643173" data-name="Trazado 643173" d="M1391.051,437.434l-9.437,7.893-5.682-8.626a33.3,33.3,0,0,1,7.635-6.385Z" transform="translate(-994.951 -311.165)" fill="#b7c6ce"/>
            <path id="Trazado_643174" data-name="Trazado 643174" d="M1591.372,402.232a15.161,15.161,0,1,0,19.446-9.029,15.161,15.161,0,0,0-19.446,9.029m21.782,7.968a8.033,8.033,0,1,1-4.784-10.3,8.033,8.033,0,0,1,4.784,10.3" transform="translate(-1150.068 -283.658)" fill="#b7c6ce"/>
            <path id="Trazado_643175" data-name="Trazado 643175" d="M1589.89,418.311l-2.1,5.732-4.581-2.3a16.53,16.53,0,0,1,1.7-4.637Z" transform="translate(-1144.838 -301.615)" fill="#b7c6ce"/>
            <path id="Trazado_643176" data-name="Trazado 643176" d="M1586.772,443.82l1.05,6.013-5.116.3a16.51,16.51,0,0,1-.849-4.864Z" transform="translate(-1143.858 -320.93)" fill="#b7c6ce"/>
            <path id="Trazado_643177" data-name="Trazado 643177" d="M1594.884,467.054l3.916,4.682-4.279,2.819a16.532,16.532,0,0,1-3.168-3.788Z" transform="translate(-1150.724 -337.731)" fill="#b7c6ce"/>
            <path id="Trazado_643178" data-name="Trazado 643178" d="M1616.48,484.927l5.732,2.1-2.3,4.581a16.532,16.532,0,0,1-4.637-1.7Z" transform="translate(-1168.025 -350.655)" fill="#b7c6ce"/>
            <path id="Trazado_643179" data-name="Trazado 643179" d="M1641.989,489.907l6.012-1.05.3,5.116a16.543,16.543,0,0,1-4.864.849Z" transform="translate(-1187.34 -353.497)" fill="#b7c6ce"/>
            <path id="Trazado_643180" data-name="Trazado 643180" d="M1665.224,477.925l4.682-3.915,2.819,4.279a16.515,16.515,0,0,1-3.788,3.168Z" transform="translate(-1204.142 -342.761)" fill="#b7c6ce"/>
            <path id="Trazado_643181" data-name="Trazado 643181" d="M1683.1,457.669l2.1-5.732,4.581,2.3a16.537,16.537,0,0,1-1.7,4.637Z" transform="translate(-1217.066 -326.8)" fill="#b7c6ce"/>
            <path id="Trazado_643182" data-name="Trazado 643182" d="M1688.077,433.778l-1.05-6.013,5.116-.3a16.526,16.526,0,0,1,.849,4.864Z" transform="translate(-1219.907 -309.103)" fill="#b7c6ce"/>
            <path id="Trazado_643183" data-name="Trazado 643183" d="M1676.1,407.443l-3.916-4.682,4.279-2.819a16.529,16.529,0,0,1,3.168,3.788Z" transform="translate(-1209.171 -289.202)" fill="#b7c6ce"/>
            <path id="Trazado_643184" data-name="Trazado 643184" d="M1655.838,391.72l-5.732-2.1,2.3-4.581a16.538,16.538,0,0,1,4.637,1.7Z" transform="translate(-1193.209 -278.427)" fill="#b7c6ce"/>
            <path id="Trazado_643185" data-name="Trazado 643185" d="M1631.947,388.6l-6.013,1.05-.3-5.116a16.523,16.523,0,0,1,4.865-.849Z" transform="translate(-1175.513 -277.447)" fill="#b7c6ce"/>
            <path id="Trazado_643186" data-name="Trazado 643186" d="M1605.613,396.714l-4.682,3.915-2.819-4.279a16.51,16.51,0,0,1,3.788-3.168Z" transform="translate(-1155.612 -284.313)" fill="#b7c6ce"/>
            <path id="Trazado_643187" data-name="Trazado 643187" d="M1097.455,505.247a10.156,10.156,0,0,1-3.007,5.706,8.7,8.7,0,0,1,1.257-11.914,10.158,10.158,0,0,1,1.75,6.208" transform="translate(-790.114 -360.86)" fill="#543f5c"/>
            <path id="Trazado_643188" data-name="Trazado 643188" d="M1134.891,543.261a10.159,10.159,0,0,1-3.911,5.129,8.7,8.7,0,0,1,3.215-11.541,10.156,10.156,0,0,1,.7,6.412" transform="translate(-817.125 -388.201)" fill="#543f5c"/>
            <path id="Trazado_643189" data-name="Trazado 643189" d="M1038.188,501.216a10.155,10.155,0,0,1,4.057,5.014,8.7,8.7,0,0,1-10.452-5.855,10.159,10.159,0,0,1,6.4.841" transform="translate(-746.101 -361.691)" fill="#543f5c"/>
            <path id="Trazado_643190" data-name="Trazado 643190" d="M1063.3,539.477a10.157,10.157,0,0,1,6.421.612,8.7,8.7,0,0,1-11.5,3.366,10.157,10.157,0,0,1,5.077-3.979" transform="translate(-765.215 -389.885)" fill="#543f5c"/>
            <path id="Trazado_643191" data-name="Trazado 643191" d="M1096.881,575.309a10.157,10.157,0,0,1,6.421.612,8.7,8.7,0,0,1-11.5,3.366,10.156,10.156,0,0,1,5.077-3.978" transform="translate(-789.495 -415.796)" fill="#543f5c"/>
            <path id="Trazado_643192" data-name="Trazado 643192" d="M1094.668,556.826l-.636.223a91.361,91.361,0,0,0-8.01-16.054,77.681,77.681,0,0,0-10.271-13.237,50.528,50.528,0,0,0-14.658-10.65l.284-.611a51.2,51.2,0,0,1,14.862,10.8,78.409,78.409,0,0,1,10.363,13.359,92.029,92.029,0,0,1,8.066,16.174" transform="translate(-767.288 -373.484)" fill="#543f5c"/>
            <path id="Trazado_643193" data-name="Trazado 643193" d="M1673.411,503.5a12.192,12.192,0,0,0,1.364,7.622,10.441,10.441,0,0,0,2.9-14.087,12.192,12.192,0,0,0-4.26,6.465" transform="translate(-1209.934 -359.413)" fill="#543f5c"/>
            <path id="Trazado_643194" data-name="Trazado 643194" d="M1616.763,532.288a12.191,12.191,0,0,0,2.608,7.29,10.44,10.44,0,0,0,.521-14.372,12.194,12.194,0,0,0-3.13,7.082" transform="translate(-1169.095 -379.781)" fill="#543f5c"/>
            <path id="Trazado_643195" data-name="Trazado 643195" d="M1726.4,519.882a12.2,12.2,0,0,0-6.466,4.26,10.442,10.442,0,0,0,14.087-2.895,12.194,12.194,0,0,0-7.621-1.365" transform="translate(-1243.704 -375.803)" fill="#543f5c"/>
            <path id="Trazado_643196" data-name="Trazado 643196" d="M1685.5,549.6a12.192,12.192,0,0,0-7.568-1.636,10.44,10.44,0,0,0,11.927,8.035,12.192,12.192,0,0,0-4.36-6.4" transform="translate(-1213.331 -396.185)" fill="#543f5c"/>
            <path id="Trazado_643197" data-name="Trazado 643197" d="M1634.051,578.367a12.193,12.193,0,0,0-7.568-1.636,10.441,10.441,0,0,0,11.928,8.034,12.193,12.193,0,0,0-4.36-6.4" transform="translate(-1176.128 -416.989)" fill="#543f5c"/>
            <path id="Trazado_643198" data-name="Trazado 643198" d="M1539.892,566.147l.646.487a109.686,109.686,0,0,1,15.005-15.45,93.281,93.281,0,0,1,16.566-11.406,60.664,60.664,0,0,1,20.644-6.85l-.1-.8a61.462,61.462,0,0,0-20.93,6.943A94.118,94.118,0,0,0,1555,550.58a110.522,110.522,0,0,0-15.112,15.567" transform="translate(-1113.512 -384.785)" fill="#2d334a"/>
          </g>
        </g>
        <g id="Grupo_1075412" data-name="Grupo 1075412" transform="translate(43.599 164.248)">
          <g id="Grupo_1075411" data-name="Grupo 1075411" clip-path="url(#clip-path-3)">
            <path id="Trazado_643199" data-name="Trazado 643199" d="M631.016,495.148s77.289.526,79.406,80.2c.992,37.326,40.943,43.714,84.067,40.466,66.845-5.035,160.281,55.5,90.8,155.662s28.929,118.849,28.929,118.849H359.4s-33.532-71.714,7.124-105.291c34.848-28.781,80.759-47.143,71.609-99.258s20.334-106.047,65.944-117.662,79.619-61.476,79.619-61.476Z" transform="translate(-294.084 -522.294)" fill="#543f5c"/>
            <path id="Trazado_643200" data-name="Trazado 643200" d="M1078.029,1235.87s-14.041,10.914-17.236,28.725,8.865,21.086,8.618,55.88,28.07-52.237,28.07-52.237Z" transform="translate(-810.28 -1057.918)" fill="#ccb67b"/>
            <path id="Trazado_643201" data-name="Trazado 643201" d="M894.532,1249.618q1.372-3.3,2.694-6.556,1.728-4.194,3.371-8.284c3.948-9.792,7.573-19.195,10.944-28.241,1.9-5.116,3.727-10.1,5.472-14.993,2.88-8.115,5.557-15.958,8.013-23.446,1.694-5.371,3.338-10.521,4.879-15.569q1.6-5.337,3.049-10.437c15.755-55.466,18.042-92.16,14.2-117.894a64.7,64.7,0,0,1,24.362-61.243l7.335-5.625c33.984-26.106,83.724-7.454,91.89,34.645a350.738,350.738,0,0,1,5.743,48.35,629.291,629.291,0,0,1-2.287,96.938c-.508,5.167-1.135,10.317-1.8,15.569q-2.313,18.22-5.862,37.118c-.966,5.1-1.982,10.267-3.066,15.433-2.321,10.91-4.964,21.939-8,33.239q-1.982,7.446-4.2,15.111c-.119.417-.245.838-.366,1.256H892.313c.753-1.806,1.5-3.6,2.219-5.373" transform="translate(-688.84 -847.816)" fill="#ccb67b"/>
            <path id="Trazado_643202" data-name="Trazado 643202" d="M1411.573,1020.267c-15.5-13.408-27.362-17.149-36.821-1.938-4.216,6.781-4.944,23.976,10.21,41.223l123.624,160.868c1.859,2.979,6.855-.016,9.9-1.772a6.478,6.478,0,0,0,2.364-2.361c5.4-6.229,6.165-17.1,3.147-24.96-15.714-40.925-86.216-148.389-112.419-171.061" transform="translate(-1035.803 -893.476)" fill="#ccb67b"/>
            <path id="Trazado_643203" data-name="Trazado 643203" d="M1177.3,552.243s48.378-8.462,59.952-53.577c15.541-60.576-41.339-101.586-78.574-87.218-34.282,13.229-33.592,40.7-31.083,47.881s49.7,92.914,49.7,92.914" transform="translate(-858.222 -459.687)" fill="#543f5c"/>
            <path id="Trazado_643204" data-name="Trazado 643204" d="M1176.468,519.829s38.133-6.088,45.792-17.5-10.963-13.368-10.963-13.368a47.874,47.874,0,0,0-34.829,30.871" transform="translate(-894.316 -517.818)" fill="#2d334a"/>
            <path id="Trazado_643205" data-name="Trazado 643205" d="M1179,607.9c-14.312,29.89-46.735,44.151-65,35.4s-15.458-37.188-1.146-67.077,36.4-38.011,54.669-29.264S1193.316,578.007,1179,607.9" transform="translate(-839.893 -557.359)" fill="#ebc2ab"/>
            <path id="Trazado_643206" data-name="Trazado 643206" d="M1277.629,724.442l-35.672-6.581c-.887,5.583-8.485,58.825-8.1,79.123.875,6.306,9.638,9.8,19.571,7.8,8.929-1.8,15.707-7.42,16.361-13.12l.043-.007c-.229-12.171,4.718-47.7,7.8-67.214" transform="translate(-935.803 -683.34)" fill="#ebc2ab"/>
            <path id="Trazado_643207" data-name="Trazado 643207" d="M1224.488,508.722s5.677,44,45.2,61.083c20.36,8.8,29-23.624,29-23.624l-18.778-32.29s-16.014-14.186-28.86-13.55c-1.1.055-26.567,8.381-26.567,8.381" transform="translate(-929.04 -526.033)" fill="#543f5c"/>
            <path id="Trazado_643208" data-name="Trazado 643208" d="M1367,753.719c-3.93,7.232-16.137,12.578-21.373,9.732s-3.361-9.42.569-16.652,11.852-11.69,17.089-8.844,7.645,8.532,3.715,15.763" transform="translate(-1014.312 -697.242)" fill="#ebc2ab"/>
            <path id="Trazado_643209" data-name="Trazado 643209" d="M1275.61,554.951c-.121.417-.237.755-.362,1.125s-.254.718-.385,1.074c-.268.708-.545,1.41-.842,2.1q-.883,2.08-1.933,4.077t-2.259,3.9c-.807,1.269-1.682,2.5-2.6,3.687a44.956,44.956,0,0,1-2.96,3.414c-.54.528-1.059,1.075-1.628,1.572-.281.251-.553.513-.843.755l-.872.723c-.285.247-.6.464-.9.693s-.6.461-.914.669c-.629.419-1.245.855-1.9,1.228a31.134,31.134,0,0,1-4.039,2.039l-1.059.4-.529.2c-.177.063-.36.113-.539.17l-2.123.649-2.073.63c-.349.1-.687.224-1.025.351l-1.016.376-1.018.376c-.169.065-.341.122-.507.192l-.5.218-1.989.87c-.336.136-.65.316-.975.475l-.968.491-.968.494-.94.545a46.226,46.226,0,0,0-7.133,4.971c-.539.486-1.1.953-1.622,1.457s-1.053,1-1.545,1.541a27.271,27.271,0,0,0-2.773,3.36l-.2-.121a27.488,27.488,0,0,1,2.658-3.524c.474-.564.988-1.091,1.494-1.626s1.053-1.029,1.578-1.547a47.021,47.021,0,0,1,7.027-5.366l.935-.6.964-.547.967-.544c.325-.177.639-.375.975-.529l1.993-.978.5-.244c.167-.079.34-.146.51-.219l1.024-.43,1.025-.431c.341-.145.683-.291,1.034-.405l2.1-.738,2.046-.724c.167-.061.336-.115.5-.181l.49-.21.979-.418a29.239,29.239,0,0,0,3.7-2.078c.6-.374,1.162-.81,1.733-1.227.287-.207.552-.445.828-.665s.554-.441.811-.686l.788-.713c.262-.238.506-.5.76-.743.513-.488.979-1.027,1.464-1.543a42.581,42.581,0,0,0,2.647-3.336c.819-1.162,1.594-2.355,2.306-3.588s1.37-2.5,1.977-3.785,1.161-2.6,1.659-3.932c.252-.664.482-1.335.7-2.006.107-.336.214-.672.312-1.008s.2-.687.269-.977Z" transform="translate(-928.449 -564.931)" fill="#543f5c"/>
            <path id="Trazado_643210" data-name="Trazado 643210" d="M1221.74,608.87c-.074.8-.169,1.535-.276,2.294s-.225,1.5-.36,2.252q-.4,2.244-.929,4.458t-1.213,4.39q-.69,2.173-1.543,4.294a39.443,39.443,0,0,1-4.342,8.056,25.986,25.986,0,0,1-2.994,3.51,19.814,19.814,0,0,1-3.648,2.852,22.757,22.757,0,0,1-4.151,1.984,24.4,24.4,0,0,1-4.433,1.163,37.15,37.15,0,0,1-9.057.175c-1.495-.114-2.981-.255-4.464-.336a26.615,26.615,0,0,0-4.431.067,13.74,13.74,0,0,0-4.237,1.159,13.11,13.11,0,0,0-3.617,2.529l-.165-.165a13.408,13.408,0,0,1,3.619-2.7,14.179,14.179,0,0,1,4.335-1.33,27.188,27.188,0,0,1,4.521-.208c1.5.035,3,.132,4.487.2a36.245,36.245,0,0,0,8.823-.435,23.272,23.272,0,0,0,4.191-1.238,21.5,21.5,0,0,0,3.867-2,18.421,18.421,0,0,0,3.316-2.762,24.427,24.427,0,0,0,2.715-3.389,37.741,37.741,0,0,0,3.908-7.822q.76-2.064,1.361-4.188t1.043-4.287q.452-2.161.767-4.347c.108-.727.2-1.457.281-2.186s.151-1.47.194-2.164Z" transform="translate(-890.999 -604.406)" fill="#543f5c"/>
          </g>
        </g>
        <g id="Grupo_1075414" data-name="Grupo 1075414" transform="translate(0 0)">
          <g id="Grupo_1075413" data-name="Grupo 1075413" clip-path="url(#clip-path-2)">
            <path id="Trazado_643211" data-name="Trazado 643211" d="M353.793,1268.326A29.914,29.914,0,0,0,325.037,1290h57.512a29.914,29.914,0,0,0-28.756-21.678" transform="translate(-235.038 -917.14)" fill="#869ead"/>
            <path id="Trazado_643212" data-name="Trazado 643212" d="M824.468,1231.286a44.066,44.066,0,0,0-42.36,31.934h84.72a44.066,44.066,0,0,0-42.36-31.934" transform="translate(-565.551 -890.355)" fill="#869ead"/>
            <path id="Trazado_643213" data-name="Trazado 643213" d="M460.31,1244.08c6.5-22.476,32.235-39.264,63-39.264s56.508,16.787,63,39.264Z" transform="translate(-332.855 -871.215)" fill="#869ead"/>
            <path id="Trazado_643214" data-name="Trazado 643214" d="M528.1,1320.97a12.111,12.111,0,0,0-11.642,8.777h23.285a12.111,12.111,0,0,0-11.642-8.777" transform="translate(-373.453 -955.207)" fill="#b7aea9"/>
            <path id="Trazado_643215" data-name="Trazado 643215" d="M718.658,1305.974a17.841,17.841,0,0,0-17.15,12.929h34.3a17.841,17.841,0,0,0-17.15-12.929" transform="translate(-507.268 -944.363)" fill="#b7aea9"/>
            <path id="Trazado_643216" data-name="Trazado 643216" d="M571.222,1311.154c2.63-9.1,13.051-15.9,25.508-15.9s22.878,6.8,25.508,15.9Z" transform="translate(-413.057 -936.614)" fill="#b7aea9"/>
            <path id="Trazado_643217" data-name="Trazado 643217" d="M521.106,1030.571c-1.41,5.086-6.23,8.189-6.23,8.189s-2.534-5.143-1.123-10.229,6.23-8.189,6.23-8.189,2.533,5.143,1.123,10.229" transform="translate(-371.191 -737.819)" fill="#869ead"/>
            <path id="Trazado_643218" data-name="Trazado 643218" d="M569.434,1101c-2.234,4.782-7.5,7.043-7.5,7.043s-1.646-5.491.588-10.273,7.5-7.043,7.5-7.043,1.646,5.491-.588,10.273" transform="translate(-405.917 -788.715)" fill="#869ead"/>
            <path id="Trazado_643219" data-name="Trazado 643219" d="M433.642,1007.318c4.117,3.3,5.068,8.956,5.068,8.956s-5.725.3-9.842-3-5.067-8.956-5.067-8.956,5.725-.3,9.842,3" transform="translate(-306.454 -726.226)" fill="#869ead"/>
            <path id="Trazado_643220" data-name="Trazado 643220" d="M460.311,1077.874c5.24-.629,9.943,2.649,9.943,2.649s-3.793,4.3-9.034,4.927-9.943-2.65-9.943-2.65,3.793-4.3,9.034-4.927" transform="translate(-326.323 -779.364)" fill="#869ead"/>
            <path id="Trazado_643221" data-name="Trazado 643221" d="M503.739,1143.076c5.24-.629,9.943,2.65,9.943,2.65s-3.793,4.3-9.034,4.927-9.943-2.65-9.943-2.65,3.793-4.3,9.034-4.927" transform="translate(-357.727 -826.512)" fill="#869ead"/>
            <path id="Trazado_643222" data-name="Trazado 643222" d="M507.625,1109.109l-1.059.184a145.77,145.77,0,0,0-8.389-27.366,123.954,123.954,0,0,0-12.686-23.528,80.612,80.612,0,0,0-20.27-20.609l.607-.887A81.685,81.685,0,0,1,486.38,1057.8a125.069,125.069,0,0,1,12.8,23.743,146.864,146.864,0,0,1,8.445,27.57" transform="translate(-336.406 -749.796)" fill="#869ead"/>
            <path id="Trazado_643223" data-name="Trazado 643223" d="M710.891,943.031c-2.921,5.811-9.49,8.41-9.49,8.41s-1.833-6.823,1.088-12.634,9.49-8.411,9.49-8.411,1.833,6.823-1.088,12.634" transform="translate(-506.78 -672.779)" fill="#869ead"/>
            <path id="Trazado_643224" data-name="Trazado 643224" d="M751.476,1040.985c-3.844,5.246-10.753,6.721-10.753,6.721s-.677-7.032,3.168-12.278,10.753-6.721,10.753-6.721.676,7.032-3.168,12.278" transform="translate(-535.592 -743.868)" fill="#869ead"/>
            <path id="Trazado_643225" data-name="Trazado 643225" d="M618.8,889.875c4.188,4.977,3.985,12.038,3.985,12.038s-6.992-1.007-11.18-5.983-3.985-12.038-3.985-12.038,6.992,1.007,11.18,5.984" transform="translate(-439.373 -639.15)" fill="#869ead"/>
            <path id="Trazado_643226" data-name="Trazado 643226" d="M631.049,987.314c6.485.493,11.386,5.58,11.386,5.58s-5.613,4.289-12.1,3.8-11.387-5.58-11.387-5.58,5.614-4.289,12.1-3.8" transform="translate(-447.57 -713.908)" fill="#869ead"/>
            <path id="Trazado_643227" data-name="Trazado 643227" d="M667.96,1076.52c6.485.493,11.387,5.58,11.387,5.58s-5.613,4.289-12.1,3.8-11.386-5.58-11.386-5.58,5.613-4.289,12.1-3.8" transform="translate(-474.26 -778.414)" fill="#869ead"/>
            <path id="Trazado_643228" data-name="Trazado 643228" d="M683.351,1030.974l-1.325-.03a179.573,179.573,0,0,0-3.6-35.088,152.762,152.762,0,0,0-9.711-31.475,99.345,99.345,0,0,0-19.576-29.76l.946-.927a100.659,100.659,0,0,1,19.85,30.171,154.1,154.1,0,0,1,9.8,31.763,180.994,180.994,0,0,1,3.618,35.348" transform="translate(-469.401 -675.163)" fill="#869ead"/>
            <path id="Trazado_643229" data-name="Trazado 643229" d="M1772.393,902.859a52.713,52.713,0,0,1,16.276,6.09c.029-.221.058-.441.088-.663.758-5.674,1.772-12.06,3.118-18.933a52.718,52.718,0,0,1-17.191-4.492,51.979,51.979,0,0,1-15.531-11.31,51.981,51.981,0,0,1,18.659,4.58,52.726,52.726,0,0,1,14.3,10.029c1.138-5.694,2.508-11.71,4.153-17.93a52.748,52.748,0,0,1-15.357-8.7,51.983,51.983,0,0,1-12.123-14.906,51.983,51.983,0,0,1,16.867,9.2,52.68,52.68,0,0,1,11,12.924c1.675-6.2,3.629-12.591,5.9-19.053a52.755,52.755,0,0,1-13.866-10.946,51.978,51.978,0,0,1-9.707-16.58,51.983,51.983,0,0,1,15.266,11.664,52.679,52.679,0,0,1,8.853,14.325c1.559-4.347,3.264-8.721,5.13-13.089a52.736,52.736,0,0,1-8.672-15.341,51.979,51.979,0,0,1-2.72-19.019,49.562,49.562,0,0,1,12.481,31.856q2.017-4.567,4.275-9.1a49.566,49.566,0,0,1,16-30.266,49.558,49.558,0,0,1-13.658,31.276q-2.342,4.682-4.415,9.414a52.657,52.657,0,0,1,15.835-5.564,51.984,51.984,0,0,1,19.206.507,51.984,51.984,0,0,1-17.966,6.809,52.718,52.718,0,0,1-17.755-.2c-1.887,4.381-3.607,8.77-5.182,13.134a52.717,52.717,0,0,1,17.459-.9,51.983,51.983,0,0,1,18.241,6.033,51.98,51.98,0,0,1-19.167,1.33,52.726,52.726,0,0,1-16.944-5.325c-2.356,6.629-4.37,13.187-6.093,19.547a52.725,52.725,0,0,1,17.223-2.412,51.98,51.98,0,0,1,18.7,4.4,51.981,51.981,0,0,1-18.974,3.017,52.729,52.729,0,0,1-17.277-3.779c-1.67,6.279-3.057,12.353-4.208,18.1a52.721,52.721,0,0,1,17.035-3,51.982,51.982,0,0,1,18.849,3.721,51.985,51.985,0,0,1-18.853,3.7,52.734,52.734,0,0,1-17.29-3.112c-1.327,6.78-2.327,13.081-3.077,18.682-.038.28-.074.559-.111.837a52.511,52.511,0,0,1,18.651-1.19,51.976,51.976,0,0,1,18.241,6.033,49.768,49.768,0,0,1-36.944-4.439,277.077,277.077,0,0,0-2.546,39.256l-2.55.076a278.382,278.382,0,0,1,2.466-38.882,52.711,52.711,0,0,1-17.452-.1,51.987,51.987,0,0,1-17.866-7.067,51.983,51.983,0,0,1,19.211-.231" transform="translate(-1267.745 -573.573)" fill="#b7aea9"/>
            <path id="Trazado_643230" data-name="Trazado 643230" d="M2105.323,1164.43a19.723,19.723,0,0,1,5.268,3.8l.1-.23c.834-1.971,1.831-4.174,3-6.519a19.711,19.711,0,0,1-5.756-3.319,19.436,19.436,0,0,1-4.483-5.613,19.437,19.437,0,0,1,6.277,3.5,19.724,19.724,0,0,1,4.166,5.03c.973-1.941,2.062-3.975,3.269-6.056a19.721,19.721,0,0,1-4.678-4.654,19.45,19.45,0,0,1-2.9-6.573,19.43,19.43,0,0,1,5.174,4.984,19.709,19.709,0,0,1,2.692,5.748c1.217-2.07,2.553-4.182,4.01-6.288a19.728,19.728,0,0,1-3.918-5.318,19.435,19.435,0,0,1-1.862-6.939,19.448,19.448,0,0,1,4.353,5.715,19.717,19.717,0,0,1,1.777,6.041c.992-1.413,2.039-2.823,3.144-4.213a19.706,19.706,0,0,1-1.611-6.39,19.434,19.434,0,0,1,.9-7.127,18.533,18.533,0,0,1,1.353,12.721q1.179-1.447,2.441-2.859a18.532,18.532,0,0,1,8.762-9.333,18.523,18.523,0,0,1-8.016,9.929q-1.307,1.457-2.523,2.959a19.686,19.686,0,0,1,6.26-.442,19.437,19.437,0,0,1,6.876,2.081,19.436,19.436,0,0,1-7.152.68,19.715,19.715,0,0,1-6.383-1.828c-1.113,1.393-2.168,2.806-3.167,4.224a19.715,19.715,0,0,1,6.385,1.4,19.441,19.441,0,0,1,5.982,3.978,19.436,19.436,0,0,1-7.044-1.414,19.712,19.712,0,0,1-5.584-3.595c-1.5,2.158-2.879,4.324-4.128,6.447a19.706,19.706,0,0,1,6.449.832,19.434,19.434,0,0,1,6.31,3.435,19.439,19.439,0,0,1-7.14-.787,19.713,19.713,0,0,1-5.857-3.07c-1.223,2.1-2.323,4.153-3.306,6.111a19.711,19.711,0,0,1,6.439.6,19.43,19.43,0,0,1,6.43,3.2,19.439,19.439,0,0,1-7.165-.529,19.722,19.722,0,0,1-5.927-2.831c-1.148,2.314-2.132,4.487-2.956,6.433l-.122.291a18.609,18.609,0,0,1,12.825,5.392,19.435,19.435,0,0,1-7.043-1.414,19.642,19.642,0,0,1-5.841-3.837,103.625,103.625,0,0,0-4.8,13.9l-.927-.225a104.158,104.158,0,0,1,4.732-13.778,19.7,19.7,0,0,1-6.283-1.761,19.442,19.442,0,0,1-5.745-4.314,19.43,19.43,0,0,1,6.951,1.815" transform="translate(-1517.356 -817.122)" fill="#b7aea9"/>
            <path id="Trazado_643231" data-name="Trazado 643231" d="M2009.96,1239.113a45.034,45.034,0,0,1,43.29,32.636H1966.67a45.034,45.034,0,0,1,43.29-32.636" transform="translate(-1422.12 -896.015)" fill="#b7aea9"/>
            <path id="Trazado_643232" data-name="Trazado 643232" d="M2227.964,1275.64a31.078,31.078,0,0,1,29.874,22.522h-59.749a31.078,31.078,0,0,1,29.875-22.522" transform="translate(-1589.462 -922.428)" fill="#b7aea9"/>
            <path id="Trazado_643233" data-name="Trazado 643233" d="M1778.844,1265.187c-5.815-20.12-28.857-35.149-56.4-35.149s-50.586,15.028-56.4,35.149Z" transform="translate(-1204.735 -889.453)" fill="#b7aea9"/>
            <path id="Trazado_643234" data-name="Trazado 643234" d="M2021.157,1320.506a19.9,19.9,0,0,1,19.132,14.424h-38.264a19.9,19.9,0,0,1,19.132-14.424" transform="translate(-1447.686 -954.871)" fill="#d3cecb"/>
            <path id="Trazado_643235" data-name="Trazado 643235" d="M2117.5,1336.65a13.735,13.735,0,0,1,13.2,9.953H2104.3a13.735,13.735,0,0,1,13.2-9.953" transform="translate(-1521.643 -966.545)" fill="#d3cecb"/>
            <path id="Trazado_643236" data-name="Trazado 643236" d="M1919.015,1332.03c-2.57-8.892-12.753-15.534-24.926-15.534s-22.356,6.642-24.926,15.534Z" transform="translate(-1351.612 -951.972)" fill="#d3cecb"/>
            <path id="Trazado_643237" data-name="Trazado 643237" d="M1455.693,805.321s4.447-5.484-.405-9.7-10.737-.808-11.268,3.471c-.589,4.751,2.244,6.952,4.365,7.788a7.582,7.582,0,0,0,7.308-1.561" transform="translate(-1044.129 -573.93)" fill="#765f62"/>
            <path id="Trazado_643238" data-name="Trazado 643238" d="M1483.287,972.183c-4.125-2.227-4.18-4.8-3.647-6.406a2.469,2.469,0,0,1,3.09-2.22l37.941,9.726a1.144,1.144,0,0,1,.564,1.878,3.969,3.969,0,0,1-3.621,1.889c-7.7-.461-28.965-1.971-34.328-4.867" transform="translate(-1069.773 -696.7)" fill="#f5d1bc"/>
            <path id="Trazado_643239" data-name="Trazado 643239" d="M1557.62,999.834c1.391-.642,2.425-.692,3.424.107a2.483,2.483,0,0,1,.333,3.555l-25.146,29.959c-.4.469-1.457.307-1.94-.079a1.146,1.146,0,0,1-.2-1.58l1.012-1.357c15.023-22.292,17.81-28.011,22.519-30.606" transform="translate(-1109.152 -722.638)" fill="#f5d1bc"/>
            <path id="Trazado_643240" data-name="Trazado 643240" d="M1562.166,1056.5c.049-1.531.468-2.478,1.629-3.013a2.483,2.483,0,0,1,3.328,1.294l15.524,35.9c.239.57-.378,1.44-.939,1.7a1.146,1.146,0,0,1-1.5-.526l-.76-1.512c-13.2-23.417-17.067-28.47-17.278-33.842" transform="translate(-1129.619 -761.621)" fill="#f5d1bc"/>
            <path id="Trazado_643241" data-name="Trazado 643241" d="M1453.935,971.123c-2.727-3.812-1.649-6.146-.463-7.357a2.469,2.469,0,0,1,3.751-.637l29.814,25.4a1.145,1.145,0,0,1-.318,1.936,3.97,3.97,0,0,1-4.083.107c-6.713-3.795-25.156-14.493-28.7-19.45" transform="translate(-1050.121 -696.019)" fill="#f5d1bc"/>
            <path id="Trazado_643242" data-name="Trazado 643242" d="M1625.625,1188.212a4.771,4.771,0,0,1-2.309.372,6.787,6.787,0,0,1-1.467-.2.552.552,0,0,0-.686.41c-.228,1.043-.483,2.647.085,2.734.844.128,13.035.943,13.127.38.243-1.486-5.616-3.106-8.749-3.692" transform="translate(-1172.093 -859.208)" fill="#5f6475"/>
            <path id="Trazado_643243" data-name="Trazado 643243" d="M1533.734,1110.047a4.785,4.785,0,0,1-1.028-2.1,6.821,6.821,0,0,1-.232-1.462.552.552,0,0,0-.591-.538c-1.063.085-2.669.308-2.587.875.123.845,2.892,12.745,3.457,12.669,1.49-.2,1.332-6.276.98-9.443" transform="translate(-1105.849 -799.719)" fill="#5f6475"/>
            <path id="Trazado_643244" data-name="Trazado 643244" d="M1491.208,969.106s29.835,5.962,32.3,8.1.653,4.748-.828,6.533S1502.5,1007.6,1502.5,1007.6l-3.391-2.534s11.75-20.38,16.033-23.595c0,0-28.556-1.157-31.638-3.852s-1.228-8.342-1.228-8.342Z" transform="translate(-1071.447 -700.77)" fill="#658497"/>
            <path id="Trazado_643245" data-name="Trazado 643245" d="M1450.175,962.339a9.993,9.993,0,0,0,1.845,11.035c4.822,5.233,27.165,17.123,27.165,17.123s-.428,4.7,15.948,30.948l4.446-2.02s-10.521-28.5-13.9-31.287-25.235-22.942-25.235-22.942Z" transform="translate(-1047.98 -695.877)" fill="#658497"/>
            <path id="Trazado_643246" data-name="Trazado 643246" d="M1502.677,824.015s1.6,2.8,2.409,9.42-1.032,20.135.473,24.789a16.69,16.69,0,0,1-5.065,1.647l-.763-22.443Z" transform="translate(-1084.472 -595.853)" fill="#ccb67b"/>
            <path id="Trazado_643247" data-name="Trazado 643247" d="M1572.3,784.748a2.781,2.781,0,0,0,.914-2.3c-.181-2.224-.666-6.408-1.778-7.216-1.53-1.111-2.011,6.063.5,9.846Z" transform="translate(-1135.407 -560.495)" fill="#f5d1bc"/>
            <path id="Trazado_643248" data-name="Trazado 643248" d="M1561.4,804.654c-1.756,4.859-3.983,15.966-3.878,19.239.087,2.715,1.734,2.622,1.8,2.64a2.22,2.22,0,0,0,2.262-1.666l2.239-19.737Z" transform="translate(-1126.259 -581.853)" fill="#ccb67b"/>
            <path id="Trazado_643249" data-name="Trazado 643249" d="M1489.973,812.183c-2.654-1.467-3.613.946-3.667,1-.641.644-.259,2.378.586,3.094l19.678,15.013c.293.272.753-.205,1.035-.488a.739.739,0,0,0,.189-.33,2.989,2.989,0,0,0-.395-2.835c-2.941-4.03-13.976-13.548-17.427-15.456" transform="translate(-1074.531 -586.956)" fill="#ccb67b"/>
            <path id="Trazado_643250" data-name="Trazado 643250" d="M1451.313,857.789c-.464.108.553-9.182,2.019-15.275.087-5.352,2.434-18,4-21.777,1.969-4.747,4.768-7.245,9.038-5.044,1.344.693,2.433,4.341,2.781,8.173s1.215,3.118-1.4,8.548c-.931,1.93.271,15.452,1.057,19.055.226,1.036.432,4.522.916,5.629a10.222,10.222,0,0,1-2.521,1.061c-6.182,1.657-9.712-1.811-15.889-.371" transform="translate(-1049.379 -589.251)" fill="#9faeb3"/>
            <path id="Trazado_643251" data-name="Trazado 643251" d="M1440.829,833.079a2.448,2.448,0,0,0-1.152-3.536c-.649-.636-2.285-.336-2.925.444L1423.46,848.2c-.245.269.236.726.522,1.005a.794.794,0,0,0,.325.193,2.768,2.768,0,0,0,2.688-.272c3.693-2.656,12.2-12.831,13.835-16.053" transform="translate(-1029.271 -599.601)" fill="#ccb67b"/>
            <path id="Trazado_643252" data-name="Trazado 643252" d="M1480.073,773.873a1.855,1.855,0,0,1-2.19,1.229c-1.518-.363-4.781-1.936-5.9-4.358a6.155,6.155,0,0,1,6.927-8.826c3.39.768,3.823,3.209,3.713,3.92-.082.528-1.713,5.508-2.547,8.036" transform="translate(-1063.907 -550.835)" fill="#765f62"/>
            <path id="Trazado_643253" data-name="Trazado 643253" d="M1489.1,790.31l4.484-.38a71.544,71.544,0,0,1,.192,8.656c-.173.676-1.293.972-2.5.663-1.087-.278-1.869-.951-1.891-1.576h-.005a59.306,59.306,0,0,0-.277-7.362" transform="translate(-1076.788 -571.206)" fill="#f5d1bc"/>
            <path id="Trazado_643254" data-name="Trazado 643254" d="M1489.8,777.12c1.931,3.047,5.619,4.171,7.481,2.991s1.193-4.218-.739-7.265-4.423-3.641-6.285-2.46-2.389,3.687-.457,6.734" transform="translate(-1076.409 -556.664)" fill="#f5d1bc"/>
            <path id="Trazado_643255" data-name="Trazado 643255" d="M1486.207,767.151s.9,4.745-2.616,7.847c-1.81,1.6-3.8-1.466-3.8-1.466l.853-3.975s1.178-2.009,2.529-2.377c.116-.031,3.032-.03,3.032-.03" transform="translate(-1070.054 -554.734)" fill="#765f62"/>
            <path id="Trazado_643256" data-name="Trazado 643256" d="M1497.445,767.362s-4.2.1-5.247-.969.91-1.648.91-1.648a5.211,5.211,0,0,1,4.338,2.617" transform="translate(-1078.802 -552.994)" fill="#765f62"/>
            <path id="Trazado_643257" data-name="Trazado 643257" d="M1487.009,796.981a2.243,2.243,0,0,0,2.488.585c.5-.415.159-1.077-.414-1.765s-1.514-1-2.012-.581a1.155,1.155,0,0,0-.062,1.762" transform="translate(-1075.002 -574.895)" fill="#f5d1bc"/>
            <path id="Trazado_643258" data-name="Trazado 643258" d="M1460.324,814.523s-1.127,1.533.376,3.671a10.956,10.956,0,0,0,2.357,2.694s-3.214,8.978-2.54,13.439,1.241,16.633.4,21.646c0,0-11.262,2.375-11.943,1.571,0,0,3.75-24.455,3.713-26.428s1.833-14.957,7.633-16.593" transform="translate(-1047.772 -588.99)" fill="#ccb67b"/>
            <path id="Trazado_643259" data-name="Trazado 643259" d="M1398.162,958.244a2.783,2.783,0,0,1,1.215,2.155c.119,2.229.2,6.44-.79,7.39-1.366,1.307-2.809-5.737-.834-9.823Z" transform="translate(-1010.03 -692.715)" fill="#f5d1bc"/>
            <path id="Trazado_643260" data-name="Trazado 643260" d="M1400.363,910.245c3.089-4.142,8.438-14.127,9.286-17.29.7-2.624-.9-3.012-.961-3.049a2.22,2.22,0,0,0-2.647.94l-7.861,18.242Z" transform="translate(-1011.038 -643.383)" fill="#ccb67b"/>
            <path id="Trazado_643261" data-name="Trazado 643261" d="M1510.136,705.424c5.8,0,10.93,6.984,10.93,6.984s5.127-6.986,10.93-6.984c3.744,0,8.879,2.092,8.951,8.929.074,7.005-9.671,8.492-13.81,8.773s-6.071,5.591-6.071,5.591-1.931-5.31-6.071-5.591-13.884-1.768-13.81-8.773c.072-6.837,5.207-8.928,8.951-8.929" transform="translate(-1085.523 -510.099)" fill="#f8535b"/>
            <path id="Trazado_643262" data-name="Trazado 643262" d="M972.39,908.967a8.287,8.287,0,0,0,8.287-8.287,8.287,8.287,0,0,0,8.287,8.287,8.287,8.287,0,0,0-8.287,8.287,8.287,8.287,0,0,0-8.287-8.287" transform="translate(-703.146 -651.291)" fill="#fff"/>
            <path id="Trazado_643263" data-name="Trazado 643263" d="M1628.664,910.593a4.6,4.6,0,0,1,9.2,0,4.6,4.6,0,0,1-9.2,0" transform="translate(-1177.704 -655.133)" fill="#fff"/>
            <path id="Trazado_643264" data-name="Trazado 643264" d="M915.95,1028.352a4.6,4.6,0,0,1,9.2,0,4.6,4.6,0,1,1-9.2,0" transform="translate(-662.333 -740.285)" fill="#fff"/>
            <path id="Trazado_643265" data-name="Trazado 643265" d="M1326.109,387.111a4.6,4.6,0,1,1,9.2,0,4.6,4.6,0,1,1-9.2,0" transform="translate(-958.924 -276.597)" fill="#fff"/>
            <path id="Trazado_643266" data-name="Trazado 643266" d="M1414.245,253.283a8.287,8.287,0,0,0,8.287-8.287,8.287,8.287,0,0,0,8.287,8.287,8.287,8.287,0,0,0-8.287,8.287,8.287,8.287,0,0,0-8.287-8.287" transform="translate(-1022.656 -177.158)" fill="#fff"/>
            <path id="Trazado_643267" data-name="Trazado 643267" d="M1166,255.752a18.539,18.539,0,1,0-18.365,18.712A18.539,18.539,0,0,0,1166,255.752m-28.361.265a9.823,9.823,0,1,1,9.915,9.731,9.823,9.823,0,0,1-9.915-9.731" transform="translate(-816.338 -171.656)" fill="#feddd8"/>
            <path id="Trazado_643268" data-name="Trazado 643268" d="M1250.081,297.82l-.07-7.464,6.233.655a20.251,20.251,0,0,1,.056,6.038Z" transform="translate(-903.897 -209.959)" fill="#feddd8"/>
            <path id="Trazado_643269" data-name="Trazado 643269" d="M1239.559,264.935l-3.793-6.428,5.724-2.549a20.182,20.182,0,0,1,3.068,5.2Z" transform="translate(-893.596 -185.084)" fill="#feddd8"/>
            <path id="Trazado_643270" data-name="Trazado 643270" d="M1217.333,240.9l-6.5-3.671,3.683-5.07a20.227,20.227,0,0,1,5.258,2.97Z" transform="translate(-875.567 -167.875)" fill="#feddd8"/>
            <path id="Trazado_643271" data-name="Trazado 643271" d="M1189.359,233.2l-7.464.07.655-6.232a20.212,20.212,0,0,1,6.038-.056Z" transform="translate(-854.641 -163.985)" fill="#feddd8"/>
            <path id="Trazado_643272" data-name="Trazado 643272" d="M1156.475,237.7l-6.429,3.792-2.549-5.724a20.2,20.2,0,0,1,5.2-3.068Z" transform="translate(-829.767 -168.268)" fill="#feddd8"/>
            <path id="Trazado_643273" data-name="Trazado 643273" d="M1132.439,259.54l-3.671,6.5-5.07-3.683a20.225,20.225,0,0,1,2.97-5.258Z" transform="translate(-812.558 -185.91)" fill="#feddd8"/>
            <path id="Trazado_643274" data-name="Trazado 643274" d="M1124.735,291.371l.07,7.464-6.232-.655a20.2,20.2,0,0,1-.057-6.038Z" transform="translate(-808.667 -210.693)" fill="#feddd8"/>
            <path id="Trazado_643275" data-name="Trazado 643275" d="M1129.239,320.3l3.792,6.429-5.724,2.549a20.208,20.208,0,0,1-3.068-5.2Z" transform="translate(-812.949 -231.612)" fill="#feddd8"/>
            <path id="Trazado_643276" data-name="Trazado 643276" d="M1151.079,344.953l6.5,3.671-3.683,5.07a20.231,20.231,0,0,1-5.258-2.97Z" transform="translate(-830.592 -249.438)" fill="#feddd8"/>
            <path id="Trazado_643277" data-name="Trazado 643277" d="M1182.911,358.542l7.463-.07-.655,6.232a20.2,20.2,0,0,1-6.038.057Z" transform="translate(-855.376 -259.214)" fill="#feddd8"/>
            <path id="Trazado_643278" data-name="Trazado 643278" d="M1211.84,348.019l6.429-3.792,2.549,5.724a20.2,20.2,0,0,1-5.2,3.068Z" transform="translate(-876.295 -248.913)" fill="#feddd8"/>
            <path id="Trazado_643279" data-name="Trazado 643279" d="M1236.493,325.794l3.671-6.5,5.07,3.683a20.225,20.225,0,0,1-2.97,5.258Z" transform="translate(-894.122 -230.885)" fill="#feddd8"/>
            <path id="Trazado_643280" data-name="Trazado 643280" d="M1150.544,397.812a10.522,10.522,0,1,0-10.424,10.62,10.523,10.523,0,0,0,10.424-10.62m-16.1.151a5.576,5.576,0,1,1,5.627,5.523,5.576,5.576,0,0,1-5.627-5.523" transform="translate(-816.753 -280.124)" fill="#feddd8"/>
            <path id="Trazado_643281" data-name="Trazado 643281" d="M1198.265,421.689l-.04-4.236,3.537.371a11.472,11.472,0,0,1,.032,3.427Z" transform="translate(-866.449 -301.864)" fill="#feddd8"/>
            <path id="Trazado_643282" data-name="Trazado 643282" d="M1192.293,403.025l-2.152-3.649,3.249-1.447a11.463,11.463,0,0,1,1.741,2.952Z" transform="translate(-860.604 -287.746)" fill="#feddd8"/>
            <path id="Trazado_643283" data-name="Trazado 643283" d="M1179.677,389.383l-3.688-2.084,2.09-2.878a11.464,11.464,0,0,1,2.984,1.686Z" transform="translate(-850.37 -277.979)" fill="#feddd8"/>
            <path id="Trazado_643284" data-name="Trazado 643284" d="M1163.8,385.01l-4.236.04.371-3.537a11.465,11.465,0,0,1,3.427-.032Z" transform="translate(-838.493 -275.77)" fill="#feddd8"/>
            <path id="Trazado_643285" data-name="Trazado 643285" d="M1145.136,387.566l-3.649,2.152-1.447-3.249a11.464,11.464,0,0,1,2.952-1.741Z" transform="translate(-824.375 -278.2)" fill="#feddd8"/>
            <path id="Trazado_643286" data-name="Trazado 643286" d="M1131.494,399.963l-2.083,3.688-2.878-2.091a11.462,11.462,0,0,1,1.686-2.984Z" transform="translate(-814.608 -288.215)" fill="#feddd8"/>
            <path id="Trazado_643287" data-name="Trazado 643287" d="M1127.121,418.029l.039,4.236-3.537-.371a11.477,11.477,0,0,1-.032-3.427Z" transform="translate(-812.399 -302.281)" fill="#feddd8"/>
            <path id="Trazado_643288" data-name="Trazado 643288" d="M1129.678,434.449l2.152,3.649-3.249,1.447a11.468,11.468,0,0,1-1.741-2.952Z" transform="translate(-814.83 -314.154)" fill="#feddd8"/>
            <path id="Trazado_643289" data-name="Trazado 643289" d="M1142.074,448.441l3.688,2.084-2.09,2.878a11.448,11.448,0,0,1-2.984-1.686Z" transform="translate(-824.844 -324.272)" fill="#feddd8"/>
            <path id="Trazado_643290" data-name="Trazado 643290" d="M1160.14,456.154l4.236-.04-.371,3.537a11.49,11.49,0,0,1-3.427.032Z" transform="translate(-838.91 -329.82)" fill="#feddd8"/>
            <path id="Trazado_643291" data-name="Trazado 643291" d="M1176.56,450.182l3.649-2.152,1.447,3.249a11.464,11.464,0,0,1-2.952,1.741Z" transform="translate(-850.783 -323.975)" fill="#feddd8"/>
            <path id="Trazado_643292" data-name="Trazado 643292" d="M1190.552,437.566l2.084-3.688,2.878,2.09a11.494,11.494,0,0,1-1.686,2.984Z" transform="translate(-860.901 -313.741)" fill="#feddd8"/>
            <path id="Trazado_643293" data-name="Trazado 643293" d="M1305.252,235.556a12.272,12.272,0,1,0-12.156,12.386,12.271,12.271,0,0,0,12.156-12.386m-18.773.176a6.5,6.5,0,1,1,6.563,6.441,6.5,6.5,0,0,1-6.563-6.441" transform="translate(-926.095 -161.541)" fill="#feddd8"/>
            <path id="Trazado_643294" data-name="Trazado 643294" d="M1360.906,263.4l-.046-4.94,4.125.433a13.38,13.38,0,0,1,.037,4Z" transform="translate(-984.053 -186.896)" fill="#feddd8"/>
            <path id="Trazado_643295" data-name="Trazado 643295" d="M1353.941,241.635l-2.51-4.255,3.789-1.687a13.392,13.392,0,0,1,2.031,3.443Z" transform="translate(-977.234 -170.431)" fill="#feddd8"/>
            <path id="Trazado_643296" data-name="Trazado 643296" d="M1339.229,225.725l-4.3-2.43,2.438-3.356a13.363,13.363,0,0,1,3.48,1.966Z" transform="translate(-965.301 -159.039)" fill="#feddd8"/>
            <path id="Trazado_643297" data-name="Trazado 643297" d="M1320.712,220.626l-4.94.047.433-4.125a13.393,13.393,0,0,1,4-.037Z" transform="translate(-951.449 -156.464)" fill="#feddd8"/>
            <path id="Trazado_643298" data-name="Trazado 643298" d="M1298.945,223.607l-4.255,2.51L1293,222.328a13.384,13.384,0,0,1,3.443-2.031Z" transform="translate(-934.984 -159.298)" fill="#feddd8"/>
            <path id="Trazado_643299" data-name="Trazado 643299" d="M1283.035,238.064l-2.43,4.3-3.356-2.438a13.364,13.364,0,0,1,1.966-3.48Z" transform="translate(-923.593 -170.977)" fill="#feddd8"/>
            <path id="Trazado_643300" data-name="Trazado 643300" d="M1277.936,259.133l.046,4.94-4.125-.433a13.413,13.413,0,0,1-.037-4Z" transform="translate(-921.018 -187.381)" fill="#feddd8"/>
            <path id="Trazado_643301" data-name="Trazado 643301" d="M1280.918,278.283l2.51,4.255-3.789,1.688a13.369,13.369,0,0,1-2.031-3.443Z" transform="translate(-923.852 -201.229)" fill="#feddd8"/>
            <path id="Trazado_643302" data-name="Trazado 643302" d="M1295.374,294.6l4.3,2.43-2.438,3.356a13.381,13.381,0,0,1-3.48-1.966Z" transform="translate(-935.53 -213.028)" fill="#feddd8"/>
            <path id="Trazado_643303" data-name="Trazado 643303" d="M1316.444,303.6l4.94-.046-.433,4.125a13.4,13.4,0,0,1-4,.037Z" transform="translate(-951.935 -219.499)" fill="#feddd8"/>
            <path id="Trazado_643304" data-name="Trazado 643304" d="M1335.593,296.63l4.255-2.51,1.688,3.789a13.4,13.4,0,0,1-3.443,2.031Z" transform="translate(-965.782 -212.681)" fill="#feddd8"/>
            <path id="Trazado_643305" data-name="Trazado 643305" d="M1351.912,281.919l2.43-4.3,3.356,2.438a13.385,13.385,0,0,1-1.966,3.48Z" transform="translate(-977.582 -200.748)" fill="#feddd8"/>
            <path id="Trazado_643306" data-name="Trazado 643306" d="M1250.815,531.078a1.318,1.318,0,0,1,1.641,1.743,37.955,37.955,0,0,1,3.1,3.392,20.55,20.55,0,0,1-.237-4.889,1.324,1.324,0,1,1,.706.1,21.732,21.732,0,0,0,.492,6.016,57.167,57.167,0,0,1,7.74,14.284l-.673.23a53.337,53.337,0,0,0-2.99-6.706c-.6-1.138-1.326-2.435-2.182-3.8a14.025,14.025,0,0,0-4.917-.162,1.317,1.317,0,1,1-.17-.695,15.386,15.386,0,0,1,4.554.026,42.347,42.347,0,0,0-5.862-7.227,1.319,1.319,0,1,1-1.2-2.31" transform="translate(-903.827 -382.378)" fill="#2d334a"/>
            <path id="Trazado_643307" data-name="Trazado 643307" d="M1292.138,538.134a14.02,14.02,0,0,0-4.544-1.884,1.317,1.317,0,1,1,.085-.71,15.373,15.373,0,0,1,4.253,1.628,42.335,42.335,0,0,0-2.94-8.828,1.319,1.319,0,1,1,.956-1.219,1.313,1.313,0,0,1-.347.842,37.926,37.926,0,0,1,1.708,4.267,20.553,20.553,0,0,1,1.5-4.659,1.317,1.317,0,1,1,.87.374,1.338,1.338,0,0,1-.244-.033,21.71,21.71,0,0,0-1.659,5.8,57.154,57.154,0,0,1,2.213,16.095l-.711-.022a53.384,53.384,0,0,0-.436-7.329c-.158-1.275-.383-2.746-.7-4.326" transform="translate(-929.239 -379.855)" fill="#2d334a"/>
          </g>
        </g>
      </g>
    </g>
    <path id="Trazado_643422" data-name="Trazado 643422" d="M5.576-14.219,8.75-4.326l3.164-9.893h4.512V0H12.988V-3.32l.332-6.8L9.883,0H7.617L4.17-10.127,4.5-3.32V0H1.074V-14.219ZM24.4,0a3.716,3.716,0,0,1-.312-.947A3.06,3.06,0,0,1,21.553.2a3.749,3.749,0,0,1-2.539-.9,2.875,2.875,0,0,1-1.045-2.271,2.955,2.955,0,0,1,1.27-2.6,6.468,6.468,0,0,1,3.691-.879h1.016v-.559q0-1.462-1.26-1.462a1.03,1.03,0,0,0-1.172,1.158H18.223a2.95,2.95,0,0,1,1.3-2.487,5.479,5.479,0,0,1,3.325-.956,4.8,4.8,0,0,1,3.193.986,3.429,3.429,0,0,1,1.2,2.705v4.678A4.79,4.79,0,0,0,27.7-.166V0ZM22.344-2.148a1.836,1.836,0,0,0,1.021-.264,1.653,1.653,0,0,0,.581-.6V-4.7h-.957q-1.719,0-1.719,1.543a.942.942,0,0,0,.3.728A1.1,1.1,0,0,0,22.344-2.148Zm6.309-3.213a6.455,6.455,0,0,1,1.084-3.955,3.568,3.568,0,0,1,3.027-1.445,3.035,3.035,0,0,1,2.383,1.113V-15h3.3V0H35.488l-.166-1.133A3.116,3.116,0,0,1,32.744.2,3.562,3.562,0,0,1,29.756-1.25,6.659,6.659,0,0,1,28.652-5.361Zm3.291.205q0,2.813,1.641,2.813a1.62,1.62,0,0,0,1.563-.918V-7.285A1.576,1.576,0,0,0,33.6-8.223q-1.523,0-1.65,2.461ZM46.611-1.143A3.393,3.393,0,0,1,43.789.2,3.328,3.328,0,0,1,41.157-.815a4.251,4.251,0,0,1-.894-2.905v-6.846h3.291V-3.7a1.183,1.183,0,0,0,1.318,1.357,1.72,1.72,0,0,0,1.611-.811v-7.412h3.311V0H46.709ZM57.988-7.588,56.9-7.666a1.947,1.947,0,0,0-1.992.977V0H51.621V-10.566h3.086l.107,1.357a2.548,2.548,0,0,1,2.314-1.553,3.209,3.209,0,0,1,.918.117ZM64.1.2a5.432,5.432,0,0,1-3.936-1.45,5.008,5.008,0,0,1-1.5-3.774V-5.3a6.489,6.489,0,0,1,.6-2.861,4.395,4.395,0,0,1,1.753-1.919,5.292,5.292,0,0,1,2.734-.679A4.574,4.574,0,0,1,67.266-9.38a5.43,5.43,0,0,1,1.289,3.853v1.279H62.012a2.372,2.372,0,0,0,.771,1.4,2.3,2.3,0,0,0,1.543.508,2.958,2.958,0,0,0,2.441-1.094l1.5,1.777A4.2,4.2,0,0,1,66.528-.308,5.891,5.891,0,0,1,64.1.2ZM63.73-8.223q-1.445,0-1.719,1.914h3.32v-.254a1.63,1.63,0,0,0-.4-1.226A1.593,1.593,0,0,0,63.73-8.223ZM73.76-2.539h4.814V0H69.6V-1.836l4.688-6.191H69.8v-2.539h8.662v1.777ZM90.264.2a5.432,5.432,0,0,1-3.936-1.45,5.008,5.008,0,0,1-1.5-3.774V-5.3a6.489,6.489,0,0,1,.6-2.861,4.395,4.395,0,0,1,1.753-1.919,5.292,5.292,0,0,1,2.734-.679A4.574,4.574,0,0,1,93.428-9.38a5.43,5.43,0,0,1,1.289,3.853v1.279H88.174a2.372,2.372,0,0,0,.771,1.4,2.3,2.3,0,0,0,1.543.508A2.958,2.958,0,0,0,92.93-3.437l1.5,1.777A4.2,4.2,0,0,1,92.69-.308,5.891,5.891,0,0,1,90.264.2Zm-.371-8.418q-1.445,0-1.719,1.914h3.32v-.254a1.63,1.63,0,0,0-.4-1.226A1.593,1.593,0,0,0,89.893-8.223Zm9.258-2.344.107,1.24a3.633,3.633,0,0,1,3.018-1.436A2.675,2.675,0,0,1,104.98-9.17a3.517,3.517,0,0,1,3.105-1.592q3.213,0,3.3,3.887V0h-3.3V-6.67a2.014,2.014,0,0,0-.273-1.182,1.164,1.164,0,0,0-1-.371,1.559,1.559,0,0,0-1.455.869l.01.137V0h-3.3V-6.65a2.117,2.117,0,0,0-.264-1.2,1.161,1.161,0,0,0-1.006-.371,1.578,1.578,0,0,0-1.445.869V0H96.064V-10.566Zm13.7,5.186a6.236,6.236,0,0,1,.615-2.817,4.4,4.4,0,0,1,1.768-1.9,5.323,5.323,0,0,1,2.705-.664,4.858,4.858,0,0,1,3.74,1.47,5.64,5.64,0,0,1,1.367,4v.117a5.472,5.472,0,0,1-1.372,3.921A4.871,4.871,0,0,1,117.959.2a4.927,4.927,0,0,1-3.623-1.353,5.29,5.29,0,0,1-1.475-3.667Zm3.291.205a3.932,3.932,0,0,0,.459,2.148,1.529,1.529,0,0,0,1.357.684q1.758,0,1.8-2.705v-.332q0-2.842-1.816-2.842-1.65,0-1.787,2.451Zm12.822,2.832a1.464,1.464,0,0,0,1.074-.376,1.379,1.379,0,0,0,.371-1.05H133.5a3.653,3.653,0,0,1-1.245,2.852A4.631,4.631,0,0,1,129.043.2,4.689,4.689,0,0,1,125.41-1.25a5.7,5.7,0,0,1-1.328-4v-.137a6.436,6.436,0,0,1,.591-2.827,4.3,4.3,0,0,1,1.7-1.885,5.081,5.081,0,0,1,2.637-.659,4.573,4.573,0,0,1,3.271,1.143,4.053,4.053,0,0,1,1.211,3.1H130.41a1.807,1.807,0,0,0-.4-1.26,1.382,1.382,0,0,0-1.074-.439q-1.279,0-1.494,1.631a11.508,11.508,0,0,0-.068,1.426,4.52,4.52,0,0,0,.381,2.207A1.319,1.319,0,0,0,128.965-2.344ZM138.359,0h-3.3V-10.566h3.3Zm-3.5-13.291a1.469,1.469,0,0,1,.508-1.152,1.916,1.916,0,0,1,1.318-.449,1.916,1.916,0,0,1,1.318.449,1.469,1.469,0,0,1,.508,1.152,1.469,1.469,0,0,1-.508,1.152,1.916,1.916,0,0,1-1.318.449,1.916,1.916,0,0,1-1.318-.449A1.469,1.469,0,0,1,134.863-13.291Zm5.107,7.91a6.236,6.236,0,0,1,.615-2.817,4.4,4.4,0,0,1,1.768-1.9,5.323,5.323,0,0,1,2.705-.664,4.858,4.858,0,0,1,3.74,1.47,5.64,5.64,0,0,1,1.367,4v.117a5.472,5.472,0,0,1-1.372,3.921A4.871,4.871,0,0,1,145.078.2a4.927,4.927,0,0,1-3.623-1.353,5.29,5.29,0,0,1-1.475-3.667Zm3.291.205a3.932,3.932,0,0,0,.459,2.148,1.529,1.529,0,0,0,1.357.684q1.758,0,1.8-2.705v-.332q0-2.842-1.816-2.842-1.65,0-1.787,2.451Zm11.377-5.391.107,1.24a3.583,3.583,0,0,1,3.018-1.436,3.015,3.015,0,0,1,2.466.986,4.7,4.7,0,0,1,.845,2.969V0h-3.3V-6.67a1.783,1.783,0,0,0-.322-1.177,1.491,1.491,0,0,0-1.172-.376,1.569,1.569,0,0,0-1.436.762V0h-3.291V-10.566ZM168.848,0a3.716,3.716,0,0,1-.312-.947A3.06,3.06,0,0,1,166,.2a3.749,3.749,0,0,1-2.539-.9,2.875,2.875,0,0,1-1.045-2.271,2.955,2.955,0,0,1,1.27-2.6,6.468,6.468,0,0,1,3.691-.879h1.016v-.559q0-1.462-1.26-1.462a1.03,1.03,0,0,0-1.172,1.158h-3.291a2.95,2.95,0,0,1,1.3-2.487,5.479,5.479,0,0,1,3.325-.956,4.8,4.8,0,0,1,3.193.986,3.429,3.429,0,0,1,1.2,2.705v4.678a4.79,4.79,0,0,0,.449,2.227V0Zm-2.061-2.148a1.836,1.836,0,0,0,1.021-.264,1.652,1.652,0,0,0,.581-.6V-4.7h-.957q-1.719,0-1.719,1.543a.942.942,0,0,0,.3.728A1.1,1.1,0,0,0,166.787-2.148ZM176.982,0h-3.3V-15h3.3Z" transform="translate(705 1443.272)" fill="#12263f"/>
    <rect id="Rectángulo_379766" data-name="Rectángulo 379766" width="240" height="40" rx="20" transform="translate(370 1145)" fill="#d29de5"/>
    <rect id="Rectángulo_379767" data-name="Rectángulo 379767" width="274" height="40" rx="20" transform="translate(658 1004)" fill="#d29de5"/>
    <rect id="Rectángulo_379768" data-name="Rectángulo 379768" width="240" height="40" rx="20" transform="translate(990 1145)" fill="#d29de5"/>
    <rect id="Rectángulo_379769" data-name="Rectángulo 379769" width="240" height="40" rx="20" transform="translate(326 1315)" fill="#d29de5"/>
    <rect id="Rectángulo_379770" data-name="Rectángulo 379770" width="240" height="40" rx="20" transform="translate(990 1315)" fill="#d29de5"/>
    <path id="Trazado_643418" data-name="Trazado 643418" d="M7.438-2.344H3.328L2.547,0H.055L4.289-11.375H6.461L10.719,0H8.227Zm-3.477-1.9H6.8L5.375-8.5Zm7.32-.047a5.094,5.094,0,0,1,.887-3.148,2.877,2.877,0,0,1,2.426-1.172,2.589,2.589,0,0,1,2.039.922V-12H18.9V0H16.859L16.75-.9A2.657,2.657,0,0,1,14.578.156,2.869,2.869,0,0,1,12.184-1.02,5.258,5.258,0,0,1,11.281-4.289Zm2.258.168A3.337,3.337,0,0,0,13.953-2.3a1.349,1.349,0,0,0,1.2.634,1.511,1.511,0,0,0,1.477-.884V-5.889a1.489,1.489,0,0,0-1.461-.884Q13.539-6.773,13.539-4.121ZM25.547,0a2.507,2.507,0,0,1-.227-.758,2.732,2.732,0,0,1-2.133.914,3,3,0,0,1-2.059-.719,2.312,2.312,0,0,1-.816-1.812,2.389,2.389,0,0,1,1-2.062,4.915,4.915,0,0,1,2.879-.727h1.039v-.484a1.393,1.393,0,0,0-.3-.937,1.183,1.183,0,0,0-.949-.352,1.345,1.345,0,0,0-.895.273.929.929,0,0,0-.324.75H20.5a2.268,2.268,0,0,1,.453-1.359,3,3,0,0,1,1.281-.98,4.669,4.669,0,0,1,1.859-.355,3.689,3.689,0,0,1,2.48.785,2.747,2.747,0,0,1,.918,2.207v3.664a4.041,4.041,0,0,0,.336,1.82V0ZM23.68-1.57a1.945,1.945,0,0,0,.922-.223,1.462,1.462,0,0,0,.625-.6V-3.844h-.844q-1.7,0-1.8,1.172l-.008.133a.9.9,0,0,0,.3.7A1.153,1.153,0,0,0,23.68-1.57ZM36.836-4.148a5.07,5.07,0,0,1-.887,3.129A2.843,2.843,0,0,1,33.555.156a2.633,2.633,0,0,1-2.07-.891V3.25H29.227v-11.7H31.32l.078.828a2.654,2.654,0,0,1,2.141-.984,2.862,2.862,0,0,1,2.43,1.156,5.207,5.207,0,0,1,.867,3.188Zm-2.258-.164a3.327,3.327,0,0,0-.418-1.82,1.361,1.361,0,0,0-1.215-.641,1.479,1.479,0,0,0-1.461.813V-2.5a1.5,1.5,0,0,0,1.477.836Q34.578-1.664,34.578-4.312Zm6.359-6.219v2.078h1.445V-6.8H40.938v4.219a1.007,1.007,0,0,0,.18.672.9.9,0,0,0,.688.2,3.6,3.6,0,0,0,.664-.055V-.047a4.648,4.648,0,0,1-1.367.2,2.156,2.156,0,0,1-2.422-2.4V-6.8H37.445V-8.453H38.68v-2.078ZM48.539,0a2.507,2.507,0,0,1-.227-.758A2.732,2.732,0,0,1,46.18.156a3,3,0,0,1-2.059-.719A2.312,2.312,0,0,1,43.3-2.375a2.389,2.389,0,0,1,1-2.062,4.915,4.915,0,0,1,2.879-.727h1.039v-.484a1.393,1.393,0,0,0-.3-.937,1.183,1.183,0,0,0-.949-.352,1.345,1.345,0,0,0-.895.273.929.929,0,0,0-.324.75H43.492a2.268,2.268,0,0,1,.453-1.359,3,3,0,0,1,1.281-.98,4.669,4.669,0,0,1,1.859-.355,3.689,3.689,0,0,1,2.48.785,2.747,2.747,0,0,1,.918,2.207v3.664a4.041,4.041,0,0,0,.336,1.82V0ZM46.672-1.57a1.945,1.945,0,0,0,.922-.223,1.462,1.462,0,0,0,.625-.6V-3.844h-.844q-1.7,0-1.8,1.172l-.008.133a.9.9,0,0,0,.3.7A1.153,1.153,0,0,0,46.672-1.57ZM59.836-4.148A5.119,5.119,0,0,1,58.969-.98,2.872,2.872,0,0,1,56.547.156,2.639,2.639,0,0,1,54.352-.9l-.1.9H52.219V-12h2.258v4.3a2.571,2.571,0,0,1,2.055-.914,2.9,2.9,0,0,1,2.426,1.137,5.126,5.126,0,0,1,.879,3.2Zm-2.258-.164a3.363,3.363,0,0,0-.406-1.871,1.374,1.374,0,0,0-1.211-.59,1.489,1.489,0,0,0-1.484.883v3.336a1.509,1.509,0,0,0,1.5.891,1.394,1.394,0,0,0,1.438-1.078A5.562,5.562,0,0,0,57.578-4.312ZM63.609,0H61.344V-8.453h2.266Zm-2.4-10.641a1.112,1.112,0,0,1,.34-.836,1.277,1.277,0,0,1,.926-.328,1.28,1.28,0,0,1,.922.328,1.105,1.105,0,0,1,.344.836,1.108,1.108,0,0,1-.348.844,1.283,1.283,0,0,1-.918.328,1.283,1.283,0,0,1-.918-.328A1.108,1.108,0,0,1,61.211-10.641ZM67.852,0H65.586V-12h2.266Zm4.242,0H69.828V-8.453h2.266ZM69.7-10.641a1.112,1.112,0,0,1,.34-.836,1.277,1.277,0,0,1,.926-.328,1.28,1.28,0,0,1,.922.328,1.105,1.105,0,0,1,.344.836,1.108,1.108,0,0,1-.348.844,1.283,1.283,0,0,1-.918.328,1.283,1.283,0,0,1-.918-.328A1.108,1.108,0,0,1,69.7-10.641ZM73.6-4.289a5.094,5.094,0,0,1,.887-3.148,2.877,2.877,0,0,1,2.426-1.172,2.589,2.589,0,0,1,2.039.922V-12h2.266V0H79.18L79.07-.9A2.657,2.657,0,0,1,76.9.156,2.869,2.869,0,0,1,74.5-1.02,5.258,5.258,0,0,1,73.6-4.289Zm2.258.168A3.337,3.337,0,0,0,76.273-2.3a1.349,1.349,0,0,0,1.2.634,1.511,1.511,0,0,0,1.477-.884V-5.889a1.489,1.489,0,0,0-1.461-.884Q75.859-6.773,75.859-4.121ZM87.867,0a2.507,2.507,0,0,1-.227-.758,2.732,2.732,0,0,1-2.133.914,3,3,0,0,1-2.059-.719,2.312,2.312,0,0,1-.816-1.812,2.389,2.389,0,0,1,1-2.062,4.915,4.915,0,0,1,2.879-.727h1.039v-.484a1.393,1.393,0,0,0-.3-.937,1.183,1.183,0,0,0-.949-.352,1.345,1.345,0,0,0-.895.273.929.929,0,0,0-.324.75H82.82a2.268,2.268,0,0,1,.453-1.359,3,3,0,0,1,1.281-.98,4.669,4.669,0,0,1,1.859-.355,3.689,3.689,0,0,1,2.48.785,2.747,2.747,0,0,1,.918,2.207v3.664a4.041,4.041,0,0,0,.336,1.82V0ZM86-1.57a1.945,1.945,0,0,0,.922-.223,1.462,1.462,0,0,0,.625-.6V-3.844H86.7q-1.7,0-1.8,1.172l-.008.133a.9.9,0,0,0,.3.7A1.153,1.153,0,0,0,86-1.57Zm5.2-2.719a5.094,5.094,0,0,1,.887-3.148,2.877,2.877,0,0,1,2.426-1.172,2.589,2.589,0,0,1,2.039.922V-12h2.266V0H96.773l-.109-.9A2.657,2.657,0,0,1,94.492.156,2.869,2.869,0,0,1,92.1-1.02,5.258,5.258,0,0,1,91.2-4.289Zm2.258.168A3.337,3.337,0,0,0,93.867-2.3a1.349,1.349,0,0,0,1.2.634,1.511,1.511,0,0,0,1.477-.884V-5.889a1.489,1.489,0,0,0-1.461-.884Q93.453-6.773,93.453-4.121Z" transform="translate(440 1171)" fill="#12263f"/>
    <path id="Trazado_643417" data-name="Trazado 643417" d="M5.227-4.164H3.359V0H1.016V-11.375H5.242a4.778,4.778,0,0,1,3.109.9A3.1,3.1,0,0,1,9.445-7.937,3.5,3.5,0,0,1,8.941-6,3.437,3.437,0,0,1,7.414-4.758L9.875-.109V0H7.359Zm-1.867-1.9H5.25a1.936,1.936,0,0,0,1.367-.449A1.606,1.606,0,0,0,7.1-7.75a1.719,1.719,0,0,0-.457-1.266,1.9,1.9,0,0,0-1.4-.461H3.359ZM14.969.156A4.15,4.15,0,0,1,11.941-.984a4.054,4.054,0,0,1-1.168-3.039v-.219a5.106,5.106,0,0,1,.492-2.277A3.612,3.612,0,0,1,12.66-8.066a3.914,3.914,0,0,1,2.059-.543,3.508,3.508,0,0,1,2.73,1.094,4.444,4.444,0,0,1,1,3.1v.922H13.063a2.1,2.1,0,0,0,.66,1.328,2,2,0,0,0,1.395.5,2.437,2.437,0,0,0,2.039-.945l1.109,1.242A3.389,3.389,0,0,1,16.891-.246,4.511,4.511,0,0,1,14.969.156Zm-.258-6.945a1.411,1.411,0,0,0-1.09.455,2.357,2.357,0,0,0-.535,1.3h3.141v-.181a1.681,1.681,0,0,0-.406-1.165A1.456,1.456,0,0,0,14.711-6.789ZM24.3-2.336a.727.727,0,0,0-.41-.652,4.659,4.659,0,0,0-1.316-.426q-3.016-.633-3.016-2.562A2.323,2.323,0,0,1,20.5-7.855a3.766,3.766,0,0,1,2.441-.754,4.053,4.053,0,0,1,2.574.758,2.388,2.388,0,0,1,.965,1.969H24.219a1.092,1.092,0,0,0-.312-.8A1.322,1.322,0,0,0,22.93-7a1.351,1.351,0,0,0-.883.258.814.814,0,0,0-.312.656.7.7,0,0,0,.355.605,3.657,3.657,0,0,0,1.2.4,9.8,9.8,0,0,1,1.422.379A2.336,2.336,0,0,1,26.5-2.43a2.2,2.2,0,0,1-.992,1.871,4.28,4.28,0,0,1-2.562.715,4.47,4.47,0,0,1-1.887-.379,3.166,3.166,0,0,1-1.293-1.039A2.414,2.414,0,0,1,19.3-2.687h2.141a1.179,1.179,0,0,0,.445.922,1.766,1.766,0,0,0,1.109.32,1.635,1.635,0,0,0,.98-.246A.766.766,0,0,0,24.3-2.336ZM35.563-4.148a5.07,5.07,0,0,1-.887,3.129A2.843,2.843,0,0,1,32.281.156a2.633,2.633,0,0,1-2.07-.891V3.25H27.953v-11.7h2.094l.078.828a2.654,2.654,0,0,1,2.141-.984A2.862,2.862,0,0,1,34.7-7.453a5.207,5.207,0,0,1,.867,3.188ZM33.3-4.312a3.327,3.327,0,0,0-.418-1.82,1.361,1.361,0,0,0-1.215-.641,1.478,1.478,0,0,0-1.461.813V-2.5a1.5,1.5,0,0,0,1.477.836Q33.3-1.664,33.3-4.312Zm3.3.008a5.013,5.013,0,0,1,.484-2.242A3.546,3.546,0,0,1,38.488-8.07,4.069,4.069,0,0,1,40.6-8.609a3.849,3.849,0,0,1,2.793,1.047A4.2,4.2,0,0,1,44.6-4.719l.016.578A4.418,4.418,0,0,1,43.531-1.02,3.775,3.775,0,0,1,40.617.156,3.793,3.793,0,0,1,37.7-1.016,4.5,4.5,0,0,1,36.609-4.2Zm2.258.16A3.16,3.16,0,0,0,39.32-2.3a1.5,1.5,0,0,0,1.3.638,1.5,1.5,0,0,0,1.281-.63,3.457,3.457,0,0,0,.461-2.015A3.128,3.128,0,0,0,41.9-6.14a1.5,1.5,0,0,0-1.3-.649,1.474,1.474,0,0,0-1.281.646A3.516,3.516,0,0,0,38.867-4.144Zm9.219-4.309.07.977a2.951,2.951,0,0,1,2.43-1.133,2.453,2.453,0,0,1,2,.789,3.682,3.682,0,0,1,.672,2.359V0H51V-5.406a1.465,1.465,0,0,0-.312-1.043,1.4,1.4,0,0,0-1.039-.324,1.553,1.553,0,0,0-1.43.813V0H45.961V-8.453ZM59.547-2.336a.727.727,0,0,0-.41-.652,4.659,4.659,0,0,0-1.316-.426Q54.8-4.047,54.8-5.977a2.323,2.323,0,0,1,.934-1.879,3.766,3.766,0,0,1,2.441-.754,4.053,4.053,0,0,1,2.574.758,2.388,2.388,0,0,1,.965,1.969H59.461a1.092,1.092,0,0,0-.312-.8A1.322,1.322,0,0,0,58.172-7a1.351,1.351,0,0,0-.883.258.814.814,0,0,0-.312.656.7.7,0,0,0,.355.605,3.657,3.657,0,0,0,1.2.4,9.8,9.8,0,0,1,1.422.379A2.336,2.336,0,0,1,61.742-2.43,2.2,2.2,0,0,1,60.75-.559a4.28,4.28,0,0,1-2.562.715A4.47,4.47,0,0,1,56.3-.223a3.166,3.166,0,0,1-1.293-1.039,2.414,2.414,0,0,1-.469-1.426H56.68a1.179,1.179,0,0,0,.445.922,1.766,1.766,0,0,0,1.109.32,1.635,1.635,0,0,0,.98-.246A.766.766,0,0,0,59.547-2.336ZM68.094,0a2.507,2.507,0,0,1-.227-.758,2.732,2.732,0,0,1-2.133.914,3,3,0,0,1-2.059-.719,2.312,2.312,0,0,1-.816-1.812,2.389,2.389,0,0,1,1-2.062,4.915,4.915,0,0,1,2.879-.727h1.039v-.484a1.393,1.393,0,0,0-.3-.937,1.183,1.183,0,0,0-.949-.352,1.345,1.345,0,0,0-.895.273.929.929,0,0,0-.324.75H63.047A2.268,2.268,0,0,1,63.5-7.273a3,3,0,0,1,1.281-.98,4.669,4.669,0,0,1,1.859-.355,3.689,3.689,0,0,1,2.48.785,2.747,2.747,0,0,1,.918,2.207v3.664a4.041,4.041,0,0,0,.336,1.82V0ZM66.227-1.57a1.945,1.945,0,0,0,.922-.223,1.462,1.462,0,0,0,.625-.6V-3.844H66.93q-1.7,0-1.8,1.172l-.008.133a.9.9,0,0,0,.3.7A1.153,1.153,0,0,0,66.227-1.57ZM79.391-4.148A5.119,5.119,0,0,1,78.523-.98,2.872,2.872,0,0,1,76.1.156,2.639,2.639,0,0,1,73.906-.9l-.1.9H71.773V-12h2.258v4.3a2.571,2.571,0,0,1,2.055-.914,2.9,2.9,0,0,1,2.426,1.137,5.126,5.126,0,0,1,.879,3.2Zm-2.258-.164a3.363,3.363,0,0,0-.406-1.871,1.374,1.374,0,0,0-1.211-.59,1.489,1.489,0,0,0-1.484.883v3.336a1.509,1.509,0,0,0,1.5.891,1.394,1.394,0,0,0,1.438-1.078A5.562,5.562,0,0,0,77.133-4.312ZM83.164,0H80.9V-8.453h2.266Zm-2.4-10.641a1.112,1.112,0,0,1,.34-.836,1.277,1.277,0,0,1,.926-.328,1.28,1.28,0,0,1,.922.328,1.105,1.105,0,0,1,.344.836,1.108,1.108,0,0,1-.348.844,1.283,1.283,0,0,1-.918.328,1.283,1.283,0,0,1-.918-.328A1.108,1.108,0,0,1,80.766-10.641ZM87.406,0H85.141V-12h2.266Zm4.242,0H89.383V-8.453h2.266Zm-2.4-10.641a1.112,1.112,0,0,1,.34-.836,1.277,1.277,0,0,1,.926-.328,1.28,1.28,0,0,1,.922.328,1.105,1.105,0,0,1,.344.836,1.108,1.108,0,0,1-.348.844,1.283,1.283,0,0,1-.918.328A1.283,1.283,0,0,1,89.6-9.8,1.108,1.108,0,0,1,89.25-10.641Zm3.906,6.352a5.094,5.094,0,0,1,.887-3.148,2.877,2.877,0,0,1,2.426-1.172,2.589,2.589,0,0,1,2.039.922V-12h2.266V0H98.734l-.109-.9A2.657,2.657,0,0,1,96.453.156,2.869,2.869,0,0,1,94.059-1.02,5.258,5.258,0,0,1,93.156-4.289Zm2.258.168A3.337,3.337,0,0,0,95.828-2.3a1.349,1.349,0,0,0,1.2.634,1.511,1.511,0,0,0,1.477-.884V-5.889a1.489,1.489,0,0,0-1.461-.884Q95.414-6.773,95.414-4.121ZM107.422,0a2.507,2.507,0,0,1-.227-.758,2.732,2.732,0,0,1-2.133.914A3,3,0,0,1,103-.562a2.312,2.312,0,0,1-.816-1.812,2.389,2.389,0,0,1,1-2.062,4.915,4.915,0,0,1,2.879-.727H107.1v-.484a1.393,1.393,0,0,0-.3-.937,1.183,1.183,0,0,0-.949-.352,1.345,1.345,0,0,0-.895.273.929.929,0,0,0-.324.75h-2.258a2.268,2.268,0,0,1,.453-1.359,3,3,0,0,1,1.281-.98,4.669,4.669,0,0,1,1.859-.355,3.689,3.689,0,0,1,2.48.785,2.747,2.747,0,0,1,.918,2.207v3.664a4.041,4.041,0,0,0,.336,1.82V0Zm-1.867-1.57a1.945,1.945,0,0,0,.922-.223,1.462,1.462,0,0,0,.625-.6V-3.844h-.844q-1.7,0-1.8,1.172l-.008.133a.9.9,0,0,0,.3.7A1.153,1.153,0,0,0,105.555-1.57Zm5.2-2.719a5.094,5.094,0,0,1,.887-3.148,2.877,2.877,0,0,1,2.426-1.172,2.589,2.589,0,0,1,2.039.922V-12h2.266V0h-2.039l-.109-.9A2.657,2.657,0,0,1,114.047.156a2.869,2.869,0,0,1-2.395-1.176A5.258,5.258,0,0,1,110.75-4.289Zm2.258.168a3.337,3.337,0,0,0,.414,1.823,1.349,1.349,0,0,0,1.2.634,1.511,1.511,0,0,0,1.477-.884V-5.889a1.489,1.489,0,0,0-1.461-.884Q113.008-6.773,113.008-4.121ZM127.992.156a4.15,4.15,0,0,1-3.027-1.141A4.054,4.054,0,0,1,123.8-4.023v-.219a5.106,5.106,0,0,1,.492-2.277,3.612,3.612,0,0,1,1.395-1.547,3.914,3.914,0,0,1,2.059-.543,3.508,3.508,0,0,1,2.73,1.094,4.444,4.444,0,0,1,1,3.1v.922h-5.383a2.1,2.1,0,0,0,.66,1.328,2,2,0,0,0,1.395.5,2.437,2.437,0,0,0,2.039-.945l1.109,1.242a3.389,3.389,0,0,1-1.375,1.121A4.511,4.511,0,0,1,127.992.156Zm-.258-6.945a1.411,1.411,0,0,0-1.09.455,2.357,2.357,0,0,0-.535,1.3h3.141v-.181a1.681,1.681,0,0,0-.406-1.165A1.456,1.456,0,0,0,127.734-6.789Zm7.133-1.664.07.945a2.971,2.971,0,0,1,2.43-1.1,2.255,2.255,0,0,1,2.242,1.289,2.9,2.9,0,0,1,2.539-1.289,2.521,2.521,0,0,1,2.047.8,3.681,3.681,0,0,1,.672,2.41V0H142.6V-5.391a1.61,1.61,0,0,0-.281-1.051,1.246,1.246,0,0,0-.992-.332,1.409,1.409,0,0,0-1.406.969L139.93,0h-2.258V-5.383a1.59,1.59,0,0,0-.289-1.062,1.259,1.259,0,0,0-.984-.328,1.463,1.463,0,0,0-1.391.8V0H132.75V-8.453ZM146.25-4.3a5.013,5.013,0,0,1,.484-2.242,3.546,3.546,0,0,1,1.395-1.523,4.069,4.069,0,0,1,2.113-.539,3.849,3.849,0,0,1,2.793,1.047,4.2,4.2,0,0,1,1.207,2.844l.016.578a4.418,4.418,0,0,1-1.086,3.121A3.775,3.775,0,0,1,150.258.156a3.793,3.793,0,0,1-2.918-1.172A4.5,4.5,0,0,1,146.25-4.2Zm2.258.16a3.16,3.16,0,0,0,.453,1.843,1.5,1.5,0,0,0,1.3.638,1.5,1.5,0,0,0,1.281-.63A3.457,3.457,0,0,0,152-4.309a3.128,3.128,0,0,0-.461-1.831,1.5,1.5,0,0,0-1.3-.649,1.474,1.474,0,0,0-1.281.646A3.516,3.516,0,0,0,148.508-4.144Zm10.656,2.48a1.481,1.481,0,0,0,1.016-.344,1.2,1.2,0,0,0,.406-.914H162.7a2.9,2.9,0,0,1-.469,1.574,3.093,3.093,0,0,1-1.262,1.109,3.949,3.949,0,0,1-1.77.395A3.67,3.67,0,0,1,156.344-1,4.56,4.56,0,0,1,155.3-4.18v-.148a4.508,4.508,0,0,1,1.039-3.117,3.627,3.627,0,0,1,2.852-1.164,3.555,3.555,0,0,1,2.543.9,3.2,3.2,0,0,1,.973,2.4h-2.117a1.551,1.551,0,0,0-.406-1.072,1.355,1.355,0,0,0-1.031-.412,1.36,1.36,0,0,0-1.191.575,3.333,3.333,0,0,0-.4,1.866v.235a3.375,3.375,0,0,0,.4,1.878A1.377,1.377,0,0,0,159.164-1.664ZM166.375,0h-2.266V-8.453h2.266Zm-2.4-10.641a1.112,1.112,0,0,1,.34-.836,1.277,1.277,0,0,1,.926-.328,1.28,1.28,0,0,1,.922.328,1.105,1.105,0,0,1,.344.836,1.109,1.109,0,0,1-.348.844,1.283,1.283,0,0,1-.918.328,1.283,1.283,0,0,1-.918-.328A1.109,1.109,0,0,1,163.977-10.641ZM167.883-4.3a5.013,5.013,0,0,1,.484-2.242,3.546,3.546,0,0,1,1.395-1.523,4.069,4.069,0,0,1,2.113-.539,3.849,3.849,0,0,1,2.793,1.047,4.2,4.2,0,0,1,1.207,2.844l.016.578A4.418,4.418,0,0,1,174.8-1.02,3.775,3.775,0,0,1,171.891.156a3.793,3.793,0,0,1-2.918-1.172,4.5,4.5,0,0,1-1.09-3.187Zm2.258.16a3.16,3.16,0,0,0,.453,1.843,1.5,1.5,0,0,0,1.3.638,1.5,1.5,0,0,0,1.281-.63,3.457,3.457,0,0,0,.461-2.015,3.128,3.128,0,0,0-.461-1.831,1.5,1.5,0,0,0-1.3-.649,1.474,1.474,0,0,0-1.281.646A3.516,3.516,0,0,0,170.141-4.144Zm9.219-4.309.07.977a2.951,2.951,0,0,1,2.43-1.133,2.453,2.453,0,0,1,2,.789,3.682,3.682,0,0,1,.672,2.359V0h-2.258V-5.406a1.465,1.465,0,0,0-.312-1.043,1.4,1.4,0,0,0-1.039-.324,1.553,1.553,0,0,0-1.43.813V0h-2.258V-8.453ZM191.141,0a2.507,2.507,0,0,1-.227-.758,2.732,2.732,0,0,1-2.133.914,3,3,0,0,1-2.059-.719,2.312,2.312,0,0,1-.816-1.812,2.389,2.389,0,0,1,1-2.062,4.915,4.915,0,0,1,2.879-.727h1.039v-.484a1.393,1.393,0,0,0-.3-.937,1.183,1.183,0,0,0-.949-.352,1.345,1.345,0,0,0-.895.273.929.929,0,0,0-.324.75h-2.258a2.268,2.268,0,0,1,.453-1.359,3,3,0,0,1,1.281-.98,4.669,4.669,0,0,1,1.859-.355,3.689,3.689,0,0,1,2.48.785,2.747,2.747,0,0,1,.918,2.207v3.664a4.041,4.041,0,0,0,.336,1.82V0Zm-1.867-1.57a1.945,1.945,0,0,0,.922-.223,1.462,1.462,0,0,0,.625-.6V-3.844h-.844q-1.7,0-1.8,1.172l-.008.133a.9.9,0,0,0,.3.7A1.153,1.153,0,0,0,189.273-1.57ZM197.2,0h-2.266V-12H197.2Z" transform="translate(708 1028.5)" fill="#12263f"/>
    <path id="Trazado_643421" data-name="Trazado 643421" d="M7.438-2.344H3.328L2.547,0H.055L4.289-11.375H6.461L10.719,0H8.227Zm-3.477-1.9H6.8L5.375-8.5ZM16.609-.859A2.831,2.831,0,0,1,14.3.156a2.67,2.67,0,0,1-2.074-.781,3.335,3.335,0,0,1-.73-2.289V-8.453H13.75v5.467q0,1.322,1.2,1.322a1.63,1.63,0,0,0,1.578-.8V-8.453H18.8V0H16.672ZM23.2-10.531v2.078h1.445V-6.8H23.2v4.219a1.007,1.007,0,0,0,.18.672.9.9,0,0,0,.688.2,3.6,3.6,0,0,0,.664-.055V-.047a4.648,4.648,0,0,1-1.367.2,2.156,2.156,0,0,1-2.422-2.4V-6.8H19.711V-8.453h1.234v-2.078ZM25.32-4.3A5.013,5.013,0,0,1,25.8-6.547,3.546,3.546,0,0,1,27.2-8.07a4.069,4.069,0,0,1,2.113-.539,3.849,3.849,0,0,1,2.793,1.047,4.2,4.2,0,0,1,1.207,2.844l.016.578A4.418,4.418,0,0,1,32.242-1.02,3.775,3.775,0,0,1,29.328.156,3.793,3.793,0,0,1,26.41-1.016,4.5,4.5,0,0,1,25.32-4.2Zm2.258.16A3.16,3.16,0,0,0,28.031-2.3a1.5,1.5,0,0,0,1.3.638,1.5,1.5,0,0,0,1.281-.63,3.457,3.457,0,0,0,.461-2.015,3.128,3.128,0,0,0-.461-1.831,1.5,1.5,0,0,0-1.3-.649,1.474,1.474,0,0,0-1.281.646A3.516,3.516,0,0,0,27.578-4.144Zm10.656,2.48a1.481,1.481,0,0,0,1.016-.344,1.2,1.2,0,0,0,.406-.914h2.117A2.9,2.9,0,0,1,41.3-1.348,3.093,3.093,0,0,1,40.043-.238a3.949,3.949,0,0,1-1.77.395A3.67,3.67,0,0,1,35.414-1,4.56,4.56,0,0,1,34.367-4.18v-.148a4.508,4.508,0,0,1,1.039-3.117,3.627,3.627,0,0,1,2.852-1.164,3.555,3.555,0,0,1,2.543.9,3.2,3.2,0,0,1,.973,2.4H39.656a1.551,1.551,0,0,0-.406-1.072,1.354,1.354,0,0,0-1.031-.412,1.36,1.36,0,0,0-1.191.575,3.333,3.333,0,0,0-.4,1.866v.235a3.375,3.375,0,0,0,.4,1.878A1.377,1.377,0,0,0,38.234-1.664ZM42.711-4.3A5.013,5.013,0,0,1,43.2-6.547,3.546,3.546,0,0,1,44.59-8.07,4.069,4.069,0,0,1,46.7-8.609,3.849,3.849,0,0,1,49.5-7.562,4.2,4.2,0,0,1,50.7-4.719l.016.578A4.418,4.418,0,0,1,49.633-1.02,3.775,3.775,0,0,1,46.719.156,3.793,3.793,0,0,1,43.8-1.016,4.5,4.5,0,0,1,42.711-4.2Zm2.258.16A3.16,3.16,0,0,0,45.422-2.3a1.5,1.5,0,0,0,1.3.638A1.5,1.5,0,0,0,48-2.294a3.457,3.457,0,0,0,.461-2.015A3.128,3.128,0,0,0,48-6.14a1.5,1.5,0,0,0-1.3-.649,1.474,1.474,0,0,0-1.281.646A3.516,3.516,0,0,0,44.969-4.144Zm9.219-4.309.07.977a2.951,2.951,0,0,1,2.43-1.133,2.453,2.453,0,0,1,2,.789,3.682,3.682,0,0,1,.672,2.359V0H57.1V-5.406a1.465,1.465,0,0,0-.312-1.043,1.4,1.4,0,0,0-1.039-.324,1.553,1.553,0,0,0-1.43.813V0H52.063V-8.453Zm10.4,6.789A1.481,1.481,0,0,0,65.6-2.008a1.2,1.2,0,0,0,.406-.914h2.117a2.9,2.9,0,0,1-.469,1.574A3.093,3.093,0,0,1,66.395-.238a3.949,3.949,0,0,1-1.77.395A3.67,3.67,0,0,1,61.766-1,4.56,4.56,0,0,1,60.719-4.18v-.148a4.508,4.508,0,0,1,1.039-3.117,3.627,3.627,0,0,1,2.852-1.164,3.555,3.555,0,0,1,2.543.9,3.2,3.2,0,0,1,.973,2.4H66.008A1.551,1.551,0,0,0,65.6-6.377a1.354,1.354,0,0,0-1.031-.412,1.36,1.36,0,0,0-1.191.575,3.333,3.333,0,0,0-.4,1.866v.235a3.375,3.375,0,0,0,.4,1.878A1.377,1.377,0,0,0,64.586-1.664ZM71.8,0H69.531V-8.453H71.8ZM69.4-10.641a1.112,1.112,0,0,1,.34-.836,1.277,1.277,0,0,1,.926-.328,1.28,1.28,0,0,1,.922.328,1.105,1.105,0,0,1,.344.836,1.108,1.108,0,0,1-.348.844,1.283,1.283,0,0,1-.918.328,1.283,1.283,0,0,1-.918-.328A1.108,1.108,0,0,1,69.4-10.641ZM77.547.156A4.15,4.15,0,0,1,74.52-.984a4.054,4.054,0,0,1-1.168-3.039v-.219a5.106,5.106,0,0,1,.492-2.277,3.612,3.612,0,0,1,1.395-1.547A3.914,3.914,0,0,1,77.3-8.609a3.508,3.508,0,0,1,2.73,1.094,4.444,4.444,0,0,1,1,3.1v.922H75.641a2.1,2.1,0,0,0,.66,1.328,2,2,0,0,0,1.395.5,2.437,2.437,0,0,0,2.039-.945l1.109,1.242A3.389,3.389,0,0,1,79.469-.246,4.511,4.511,0,0,1,77.547.156Zm-.258-6.945a1.411,1.411,0,0,0-1.09.455,2.357,2.357,0,0,0-.535,1.3H78.8v-.181A1.681,1.681,0,0,0,78.4-6.377,1.456,1.456,0,0,0,77.289-6.789Zm7.094-1.664.07.977a2.951,2.951,0,0,1,2.43-1.133,2.453,2.453,0,0,1,2,.789,3.682,3.682,0,0,1,.672,2.359V0H87.3V-5.406a1.465,1.465,0,0,0-.312-1.043,1.4,1.4,0,0,0-1.039-.324,1.553,1.553,0,0,0-1.43.813V0H82.258V-8.453Zm10.4,6.789A1.481,1.481,0,0,0,95.8-2.008a1.2,1.2,0,0,0,.406-.914H98.32a2.9,2.9,0,0,1-.469,1.574A3.093,3.093,0,0,1,96.59-.238a3.949,3.949,0,0,1-1.77.395A3.67,3.67,0,0,1,91.961-1,4.56,4.56,0,0,1,90.914-4.18v-.148a4.508,4.508,0,0,1,1.039-3.117A3.627,3.627,0,0,1,94.8-8.609a3.555,3.555,0,0,1,2.543.9,3.2,3.2,0,0,1,.973,2.4H96.2A1.551,1.551,0,0,0,95.8-6.377a1.354,1.354,0,0,0-1.031-.412,1.36,1.36,0,0,0-1.191.575,3.333,3.333,0,0,0-.4,1.866v.235a3.375,3.375,0,0,0,.4,1.878A1.377,1.377,0,0,0,94.781-1.664ZM101.992,0H99.727V-8.453h2.266Zm-2.4-10.641a1.112,1.112,0,0,1,.34-.836,1.277,1.277,0,0,1,.926-.328,1.28,1.28,0,0,1,.922.328,1.105,1.105,0,0,1,.344.836,1.108,1.108,0,0,1-.348.844,1.283,1.283,0,0,1-.918.328,1.283,1.283,0,0,1-.918-.328A1.108,1.108,0,0,1,99.594-10.641ZM108.75,0a2.507,2.507,0,0,1-.227-.758,2.732,2.732,0,0,1-2.133.914,3,3,0,0,1-2.059-.719,2.312,2.312,0,0,1-.816-1.812,2.389,2.389,0,0,1,1-2.062,4.915,4.915,0,0,1,2.879-.727h1.039v-.484a1.393,1.393,0,0,0-.3-.937,1.183,1.183,0,0,0-.949-.352,1.345,1.345,0,0,0-.895.273.929.929,0,0,0-.324.75H103.7a2.268,2.268,0,0,1,.453-1.359,3,3,0,0,1,1.281-.98,4.669,4.669,0,0,1,1.859-.355,3.689,3.689,0,0,1,2.48.785,2.747,2.747,0,0,1,.918,2.207v3.664a4.041,4.041,0,0,0,.336,1.82V0Zm-1.867-1.57a1.945,1.945,0,0,0,.922-.223,1.462,1.462,0,0,0,.625-.6V-3.844h-.844q-1.7,0-1.8,1.172l-.008.133a.9.9,0,0,0,.3.7A1.153,1.153,0,0,0,106.883-1.57Z" transform="translate(1054 1171)" fill="#12263f"/>
    <path id="Trazado_643419" data-name="Trazado 643419" d="M7.438-2.344H3.328L2.547,0H.055L4.289-11.375H6.461L10.719,0H8.227Zm-3.477-1.9H6.8L5.375-8.5ZM16.609-.859A2.831,2.831,0,0,1,14.3.156a2.67,2.67,0,0,1-2.074-.781,3.335,3.335,0,0,1-.73-2.289V-8.453H13.75v5.467q0,1.322,1.2,1.322a1.63,1.63,0,0,0,1.578-.8V-8.453H18.8V0H16.672ZM23.2-10.531v2.078h1.445V-6.8H23.2v4.219a1.007,1.007,0,0,0,.18.672.9.9,0,0,0,.688.2,3.6,3.6,0,0,0,.664-.055V-.047a4.648,4.648,0,0,1-1.367.2,2.156,2.156,0,0,1-2.422-2.4V-6.8H19.711V-8.453h1.234v-2.078ZM25.32-4.3A5.013,5.013,0,0,1,25.8-6.547,3.546,3.546,0,0,1,27.2-8.07a4.069,4.069,0,0,1,2.113-.539,3.849,3.849,0,0,1,2.793,1.047,4.2,4.2,0,0,1,1.207,2.844l.016.578A4.418,4.418,0,0,1,32.242-1.02,3.775,3.775,0,0,1,29.328.156,3.793,3.793,0,0,1,26.41-1.016,4.5,4.5,0,0,1,25.32-4.2Zm2.258.16A3.16,3.16,0,0,0,28.031-2.3a1.5,1.5,0,0,0,1.3.638,1.5,1.5,0,0,0,1.281-.63,3.457,3.457,0,0,0,.461-2.015,3.128,3.128,0,0,0-.461-1.831,1.5,1.5,0,0,0-1.3-.649,1.474,1.474,0,0,0-1.281.646A3.516,3.516,0,0,0,27.578-4.144Zm10.656,2.48a1.481,1.481,0,0,0,1.016-.344,1.2,1.2,0,0,0,.406-.914h2.117A2.9,2.9,0,0,1,41.3-1.348,3.093,3.093,0,0,1,40.043-.238a3.949,3.949,0,0,1-1.77.395A3.67,3.67,0,0,1,35.414-1,4.56,4.56,0,0,1,34.367-4.18v-.148a4.508,4.508,0,0,1,1.039-3.117,3.627,3.627,0,0,1,2.852-1.164,3.555,3.555,0,0,1,2.543.9,3.2,3.2,0,0,1,.973,2.4H39.656a1.551,1.551,0,0,0-.406-1.072,1.354,1.354,0,0,0-1.031-.412,1.36,1.36,0,0,0-1.191.575,3.333,3.333,0,0,0-.4,1.866v.235a3.375,3.375,0,0,0,.4,1.878A1.377,1.377,0,0,0,38.234-1.664ZM42.711-4.3A5.013,5.013,0,0,1,43.2-6.547,3.546,3.546,0,0,1,44.59-8.07,4.069,4.069,0,0,1,46.7-8.609,3.849,3.849,0,0,1,49.5-7.562,4.2,4.2,0,0,1,50.7-4.719l.016.578A4.418,4.418,0,0,1,49.633-1.02,3.775,3.775,0,0,1,46.719.156,3.793,3.793,0,0,1,43.8-1.016,4.5,4.5,0,0,1,42.711-4.2Zm2.258.16A3.16,3.16,0,0,0,45.422-2.3a1.5,1.5,0,0,0,1.3.638A1.5,1.5,0,0,0,48-2.294a3.457,3.457,0,0,0,.461-2.015A3.128,3.128,0,0,0,48-6.14a1.5,1.5,0,0,0-1.3-.649,1.474,1.474,0,0,0-1.281.646A3.516,3.516,0,0,0,44.969-4.144Zm9.219-4.309.07.977a2.951,2.951,0,0,1,2.43-1.133,2.453,2.453,0,0,1,2,.789,3.682,3.682,0,0,1,.672,2.359V0H57.1V-5.406a1.465,1.465,0,0,0-.312-1.043,1.4,1.4,0,0,0-1.039-.324,1.553,1.553,0,0,0-1.43.813V0H52.063V-8.453Zm9.586-2.078v2.078h1.445V-6.8H63.773v4.219a1.007,1.007,0,0,0,.18.672.9.9,0,0,0,.688.2,3.6,3.6,0,0,0,.664-.055V-.047a4.648,4.648,0,0,1-1.367.2,2.156,2.156,0,0,1-2.422-2.4V-6.8H60.281V-8.453h1.234v-2.078Zm7.453,4.2a6.134,6.134,0,0,0-.812-.062,1.654,1.654,0,0,0-1.68.867V0H66.477V-8.453h2.133l.063,1.008a2.092,2.092,0,0,1,1.883-1.164,2.366,2.366,0,0,1,.7.1ZM71.68-4.3a5.013,5.013,0,0,1,.484-2.242A3.546,3.546,0,0,1,73.559-8.07a4.069,4.069,0,0,1,2.113-.539,3.849,3.849,0,0,1,2.793,1.047,4.2,4.2,0,0,1,1.207,2.844l.016.578A4.418,4.418,0,0,1,78.6-1.02,3.775,3.775,0,0,1,75.688.156,3.793,3.793,0,0,1,72.77-1.016,4.5,4.5,0,0,1,71.68-4.2Zm2.258.16A3.16,3.16,0,0,0,74.391-2.3a1.5,1.5,0,0,0,1.3.638,1.5,1.5,0,0,0,1.281-.63,3.457,3.457,0,0,0,.461-2.015,3.128,3.128,0,0,0-.461-1.831,1.5,1.5,0,0,0-1.3-.649,1.474,1.474,0,0,0-1.281.646A3.516,3.516,0,0,0,73.938-4.144ZM83.461,0H81.2V-12h2.266Z" transform="translate(404 1341)" fill="#12263f"/>
    <path id="Trazado_643420" data-name="Trazado 643420" d="M7.859-4.93h-4.5v3.047H8.641V0H1.016V-11.375H8.625v1.9H3.359v2.711h4.5Zm4.125-3.523.07.945a2.971,2.971,0,0,1,2.43-1.1A2.255,2.255,0,0,1,16.727-7.32a2.9,2.9,0,0,1,2.539-1.289,2.521,2.521,0,0,1,2.047.8,3.681,3.681,0,0,1,.672,2.41V0H19.719V-5.391a1.61,1.61,0,0,0-.281-1.051,1.246,1.246,0,0,0-.992-.332,1.409,1.409,0,0,0-1.406.969L17.047,0H14.789V-5.383A1.59,1.59,0,0,0,14.5-6.445a1.259,1.259,0,0,0-.984-.328,1.463,1.463,0,0,0-1.391.8V0H9.867V-8.453Zm19.344,4.3a5.07,5.07,0,0,1-.887,3.129A2.843,2.843,0,0,1,28.047.156a2.633,2.633,0,0,1-2.07-.891V3.25H23.719v-11.7h2.094l.078.828a2.654,2.654,0,0,1,2.141-.984,2.862,2.862,0,0,1,2.43,1.156,5.207,5.207,0,0,1,.867,3.188ZM29.07-4.312a3.327,3.327,0,0,0-.418-1.82,1.361,1.361,0,0,0-1.215-.641,1.478,1.478,0,0,0-1.461.813V-2.5a1.5,1.5,0,0,0,1.477.836Q29.07-1.664,29.07-4.312ZM37.625,0A2.507,2.507,0,0,1,37.4-.758a2.732,2.732,0,0,1-2.133.914,3,3,0,0,1-2.059-.719,2.312,2.312,0,0,1-.816-1.812,2.389,2.389,0,0,1,1-2.062,4.915,4.915,0,0,1,2.879-.727H37.3v-.484a1.393,1.393,0,0,0-.3-.937,1.183,1.183,0,0,0-.949-.352,1.345,1.345,0,0,0-.895.273.929.929,0,0,0-.324.75H32.578a2.268,2.268,0,0,1,.453-1.359,3,3,0,0,1,1.281-.98,4.669,4.669,0,0,1,1.859-.355,3.689,3.689,0,0,1,2.48.785,2.747,2.747,0,0,1,.918,2.207v3.664a4.041,4.041,0,0,0,.336,1.82V0ZM35.758-1.57a1.945,1.945,0,0,0,.922-.223,1.462,1.462,0,0,0,.625-.6V-3.844h-.844q-1.7,0-1.8,1.172l-.008.133a.9.9,0,0,0,.3.7A1.153,1.153,0,0,0,35.758-1.57Zm8.25-8.961v2.078h1.445V-6.8H44.008v4.219a1.007,1.007,0,0,0,.18.672.9.9,0,0,0,.688.2,3.6,3.6,0,0,0,.664-.055V-.047a4.648,4.648,0,0,1-1.367.2,2.156,2.156,0,0,1-2.422-2.4V-6.8H40.516V-8.453H41.75v-2.078ZM49.094,0H46.828V-8.453h2.266ZM46.7-10.641a1.112,1.112,0,0,1,.34-.836,1.277,1.277,0,0,1,.926-.328,1.28,1.28,0,0,1,.922.328,1.105,1.105,0,0,1,.344.836,1.108,1.108,0,0,1-.348.844,1.283,1.283,0,0,1-.918.328,1.283,1.283,0,0,1-.918-.328A1.108,1.108,0,0,1,46.7-10.641ZM55.852,0a2.507,2.507,0,0,1-.227-.758,2.732,2.732,0,0,1-2.133.914,3,3,0,0,1-2.059-.719,2.312,2.312,0,0,1-.816-1.812,2.389,2.389,0,0,1,1-2.062,4.915,4.915,0,0,1,2.879-.727h1.039v-.484a1.393,1.393,0,0,0-.3-.937,1.183,1.183,0,0,0-.949-.352,1.345,1.345,0,0,0-.895.273.929.929,0,0,0-.324.75H50.8a2.268,2.268,0,0,1,.453-1.359,3,3,0,0,1,1.281-.98A4.669,4.669,0,0,1,54.4-8.609a3.689,3.689,0,0,1,2.48.785A2.747,2.747,0,0,1,57.8-5.617v3.664a4.041,4.041,0,0,0,.336,1.82V0ZM53.984-1.57a1.945,1.945,0,0,0,.922-.223,1.462,1.462,0,0,0,.625-.6V-3.844h-.844q-1.7,0-1.8,1.172l-.008.133a.9.9,0,0,0,.3.7A1.153,1.153,0,0,0,53.984-1.57Z" transform="translate(1081 1341)" fill="#12263f"/>
    <circle id="Elipse_5921" data-name="Elipse 5921" cx="11.5" cy="11.5" r="11.5" transform="translate(534 1324)" fill="#fff"/>
    <circle id="Elipse_5923" data-name="Elipse 5923" cx="11.5" cy="11.5" r="11.5" transform="matrix(0.719, 0.695, -0.695, 0.719, 586.637, 1146.508)" fill="#fff"/>
    <circle id="Elipse_5926" data-name="Elipse 5926" cx="11.5" cy="11.5" r="11.5" transform="matrix(0.719, 0.695, -0.695, 0.719, 683.455, 1007.739)" fill="#fff"/>
    <ellipse id="Elipse_5924" data-name="Elipse 5924" cx="11.5" cy="11.5" rx="11.5" ry="11.5" transform="matrix(-0.719, 0.695, -0.695, -0.719, 1023.336, 1166.053)" fill="#fff"/>
    <ellipse id="Elipse_5925" data-name="Elipse 5925" cx="11.5" cy="11.5" rx="11.5" ry="11.5" transform="matrix(-0.719, 0.695, -0.695, -0.719, 1026.336, 1336.99)" fill="#fff"/>
    <circle id="Elipse_5922" data-name="Elipse 5922" cx="6" cy="6" r="6" transform="translate(778 1169)" fill="#fff"/>
    <path id="Trazado_643308" data-name="Trazado 643308" d="M21541.5-10365l235.5-159" transform="translate(-20996 11700)" fill="none" stroke="#fff" stroke-width="3"/>
    <path id="Trazado_643309" data-name="Trazado 643309" d="M21541.5-10365l150.264-127.6" transform="matrix(0.719, 0.695, -0.695, 0.719, -22108.525, -6345.617)" fill="none" stroke="#fff" stroke-width="3"/>
    <path id="Trazado_643312" data-name="Trazado 643312" d="M21543.049-10485.76l172.637,36.25" transform="matrix(0.719, 0.695, -0.695, 0.719, -22095.793, -6393.234)" fill="none" stroke="#fff" stroke-width="3"/>
    <path id="Trazado_643310" data-name="Trazado 643310" d="M0,0,165.443,146.433" transform="matrix(-0.719, 0.695, -0.695, -0.719, 1006.73, 1165.408)" fill="none" stroke="#fff" stroke-width="3"/>
    <path id="Trazado_643311" data-name="Trazado 643311" d="M0,0l50.27,271.454" transform="matrix(-0.719, 0.695, -0.695, -0.719, 1009.73, 1336.346)" fill="none" stroke="#fff" stroke-width="3"/>
  </g>
</svg>
