<svg xmlns="http://www.w3.org/2000/svg" xmlns:xlink="http://www.w3.org/1999/xlink" width="398.443" height="444" viewBox="0 0 398.443 444">
  <defs>
    <linearGradient id="linear-gradient" x1="0.5" x2="0.5" y2="1" gradientUnits="objectBoundingBox">
      <stop offset="0" stop-color="#fff4d6"/>
      <stop offset="1" stop-color="#fce5e5"/>
    </linearGradient>
    <clipPath id="clip-path">
      <rect id="Rectángulo_379765" data-name="Rectángulo 379765" width="321" height="193" transform="translate(265 1030.402)" fill="#fff" stroke="#707070" stroke-width="1"/>
    </clipPath>
    <clipPath id="clip-path-2">
      <rect id="Rectángulo_379762" data-name="Rectángulo 379762" width="325.747" height="226.664" fill="none"/>
    </clipPath>
    <clipPath id="clip-path-3">
      <rect id="Rectángulo_379763" data-name="Rectángulo 379763" width="248.563" height="81.568" fill="none"/>
    </clipPath>
  </defs>
  <g id="Grupo_1075466" data-name="Grupo 1075466" transform="translate(-22632 10613.333)">
    <g id="Grupo_1072716" data-name="Grupo 1072716" transform="translate(22632 -10613.333)">
      <path id="Trazado_608309" data-name="Trazado 608309" d="M0,0H398.443V444H0Z" transform="translate(0)" fill="url(#linear-gradient)"/>
    </g>
    <g id="Enmascarar_grupo_1074756" data-name="Enmascarar grupo 1074756" transform="translate(22406 -11628.401)" clip-path="url(#clip-path)">
      <g id="Grupo_1075415" data-name="Grupo 1075415" transform="translate(265 1038.083)">
        <g id="Grupo_1075410" data-name="Grupo 1075410" transform="translate(0 0)">
          <g id="Grupo_1075409" data-name="Grupo 1075409" clip-path="url(#clip-path-2)">
            <path id="Trazado_643131" data-name="Trazado 643131" d="M329.223,31.562A72.927,72.927,0,0,0,309.4,34.292,88.589,88.589,0,0,0,152.986,69.075a17.46,17.46,0,0,0-20.693,20.57,44.474,44.474,0,0,0-27.079,65.835H381.039A72.792,72.792,0,0,0,329.223,31.562" transform="translate(-88.074 0.003)" fill="#f9f2fc"/>
            <path id="Trazado_643132" data-name="Trazado 643132" d="M1209.981,1336.691a23.655,23.655,0,0,1-1.8,9.541c-1.115,2.442-2.655,3.953-4.355,3.953h-184.1a2.945,2.945,0,0,1-.909-.147c-2.971-.963-5.25-6.573-5.25-13.348a23.654,23.654,0,0,1,1.8-9.541c1.115-2.442,2.655-3.953,4.355-3.953h184.1c3.4,0,6.159,6.041,6.159,13.494" transform="translate(-890.555 -1177.866)" fill="#fff4d6"/>
            <path id="Trazado_643133" data-name="Trazado 643133" d="M287.232,1336.691a23.656,23.656,0,0,1-1.8,9.541c-1.115,2.442-2.655,3.953-4.355,3.953H96.971a2.945,2.945,0,0,1-.909-.147c-2.971-.963-5.25-6.573-5.25-13.348a23.656,23.656,0,0,1,1.8-9.541c1.115-2.442,2.655-3.953,4.355-3.953h184.1c3.4,0,6.159,6.041,6.159,13.494" transform="translate(-88.635 -1177.866)" fill="#fff4d6"/>
            <path id="Trazado_643134" data-name="Trazado 643134" d="M677.029,220.261a9.523,9.523,0,0,1,9.154,6.9H667.874a9.523,9.523,0,0,1,9.155-6.9" transform="translate(-576.304 -189.679)" fill="#fff"/>
            <path id="Trazado_643135" data-name="Trazado 643135" d="M33.305,177.037A14.028,14.028,0,0,1,46.791,187.2H19.82a14.028,14.028,0,0,1,13.485-10.166" transform="translate(22.798 -149.719)" fill="#fff"/>
            <path id="Trazado_643136" data-name="Trazado 643136" d="M261.455,158.647c-2.068-7.155-10.262-12.5-20.057-12.5s-17.989,5.344-20.057,12.5Z" transform="translate(-163.5 -121.163)" fill="#fff"/>
            <path id="Trazado_643137" data-name="Trazado 643137" d="M452.032,271.031a6.962,6.962,0,0,1,6.692,5.045H445.34a6.962,6.962,0,0,1,6.692-5.045" transform="translate(-370.58 -236.613)" fill="#afbfc9"/>
            <path id="Trazado_643138" data-name="Trazado 643138" d="M581.093,291.729a4.8,4.8,0,0,1,4.618,3.481h-9.236a4.8,4.8,0,0,1,4.618-3.481" transform="translate(-491.81 -255.748)" fill="#afbfc9"/>
            <path id="Trazado_643139" data-name="Trazado 643139" d="M292.426,271.321c-.9-3.11-4.461-5.433-8.719-5.433s-7.82,2.323-8.719,5.433Z" transform="translate(-213.097 -231.859)" fill="#afbfc9"/>
            <path id="Trazado_643140" data-name="Trazado 643140" d="M2452.339,592.967a4.558,4.558,0,0,1,4.381,3.3h-8.763a4.558,4.558,0,0,1,4.381-3.3" transform="translate(-2179.092 -527.84)" fill="#bab1ac"/>
            <path id="Trazado_643141" data-name="Trazado 643141" d="M2510.026,602.287a3.145,3.145,0,0,1,3.024,2.279H2507a3.145,3.145,0,0,1,3.023-2.279" transform="translate(-2231.652 -536.136)" fill="#bab1ac"/>
            <path id="Trazado_643142" data-name="Trazado 643142" d="M2382.67,594.209c-.589-2.036-2.921-3.557-5.708-3.557s-5.119,1.521-5.708,3.557Z" transform="translate(-2110.813 -525.779)" fill="#bab1ac"/>
            <path id="Trazado_643143" data-name="Trazado 643143" d="M2736.5,506.179a9.527,9.527,0,0,1,9.158,6.9h-18.316a9.527,9.527,0,0,1,9.158-6.9" transform="translate(-2427.788 -450.584)" fill="#bfd3db"/>
            <path id="Trazado_643144" data-name="Trazado 643144" d="M2857.08,525.66a6.575,6.575,0,0,1,6.32,4.765h-12.64a6.574,6.574,0,0,1,6.32-4.765" transform="translate(-2537.654 -467.925)" fill="#bfd3db"/>
            <path id="Trazado_643145" data-name="Trazado 643145" d="M2590.871,508.775c-1.23-4.256-6.1-7.436-11.931-7.436s-10.7,3.179-11.932,7.436Z" transform="translate(-2285.067 -446.275)" fill="#bfd3db"/>
            <path id="Trazado_643146" data-name="Trazado 643146" d="M56.99,451.382A3.2,3.2,0,0,1,60.07,453.7H53.911a3.2,3.2,0,0,1,3.079-2.322" transform="translate(-47.99 -401.805)" fill="#fff"/>
            <path id="Trazado_643147" data-name="Trazado 643147" d="M97.536,457.933a2.211,2.211,0,0,1,2.125,1.6h-4.25a2.21,2.21,0,0,1,2.125-1.6" transform="translate(-84.932 -407.637)" fill="#fff"/>
            <path id="Trazado_643148" data-name="Trazado 643148" d="M8.024,452.255a4.024,4.024,0,0,0-4.012-2.5A4.024,4.024,0,0,0,0,452.255Z" transform="translate(0 -400.357)" fill="#fff"/>
            <path id="Trazado_643149" data-name="Trazado 643149" d="M1105.386,220.774h40.406a13.8,13.8,0,0,0,4.7-10.588c0-10.828-13.973-19.606-27.144-19.606s-23.849,8.778-23.849,19.606c0,4.381,2.288,7.923,5.885,10.588" transform="translate(-978.74 -169.648)" fill="#febeb5"/>
            <path id="Trazado_643150" data-name="Trazado 643150" d="M1065.019,387.183a7.253,7.253,0,1,1,7.253,7.253,7.253,7.253,0,0,1-7.253-7.253" transform="translate(-948.045 -338.201)" fill="#febeb5"/>
            <path id="Trazado_643151" data-name="Trazado 643151" d="M1059.323,306.63a5.636,5.636,0,1,1,5.636,5.636,5.636,5.636,0,0,1-5.636-5.636" transform="translate(-942.975 -267.935)" fill="#febeb5"/>
            <path id="Trazado_643152" data-name="Trazado 643152" d="M1161.959,437.057a5.636,5.636,0,1,1,5.636,5.636,5.636,5.636,0,0,1-5.636-5.636" transform="translate(-1034.338 -384.037)" fill="#febeb5"/>
            <path id="Trazado_643153" data-name="Trazado 643153" d="M1099.5,228.327a5.636,5.636,0,1,1,5.636,5.637,5.636,5.636,0,0,1-5.636-5.637" transform="translate(-978.74 -198.232)" fill="#febeb5"/>
            <path id="Trazado_643154" data-name="Trazado 643154" d="M1171.369,174.823a5.636,5.636,0,1,1,5.636,5.636,5.636,5.636,0,0,1-5.636-5.636" transform="translate(-1042.714 -150.604)" fill="#febeb5"/>
            <path id="Trazado_643155" data-name="Trazado 643155" d="M1258.959,154.624a5.636,5.636,0,1,1,5.636,5.636,5.636,5.636,0,0,1-5.636-5.636" transform="translate(-1120.684 -132.624)" fill="#febeb5"/>
            <path id="Trazado_643156" data-name="Trazado 643156" d="M1352.121,166.462a5.636,5.636,0,1,1,5.636,5.637,5.636,5.636,0,0,1-5.636-5.637" transform="translate(-1203.614 -143.162)" fill="#febeb5"/>
            <path id="Trazado_643157" data-name="Trazado 643157" d="M1441.29,204.968a5.636,5.636,0,1,1,5.636,5.636,5.636,5.636,0,0,1-5.636-5.636" transform="translate(-1282.989 -177.439)" fill="#febeb5"/>
            <path id="Trazado_643158" data-name="Trazado 643158" d="M1485.954,286.005a5.636,5.636,0,1,1,5.636,5.636,5.636,5.636,0,0,1-5.636-5.636" transform="translate(-1322.748 -249.575)" fill="#febeb5"/>
            <path id="Trazado_643159" data-name="Trazado 643159" d="M1478.114,368.485a5.636,5.636,0,1,1,5.636,5.636,5.636,5.636,0,0,1-5.636-5.636" transform="translate(-1315.769 -322.996)" fill="#febeb5"/>
            <path id="Trazado_643160" data-name="Trazado 643160" d="M1176.814,360.583l.074.021.059.018.088.028.088.028.076.026c.1.035.206.071.3.106l.282.107.271.11c.182.073.352.152.528.228s.341.159.511.239c.672.327,1.314.686,1.941,1.066a23.465,23.465,0,0,1,8.65,9.469,27.441,27.441,0,0,1,1.563,3.918c.1.333.187.67.28,1l.136.5c.043.168.075.337.112.505l.215,1.011c.064.337.11.676.165,1.014a35.629,35.629,0,0,1,.276,8.041l-4.5-.157a30.8,30.8,0,0,0-.8-6.92c-.069-.276-.129-.555-.2-.828l-.244-.811c-.042-.134-.077-.271-.124-.4l-.144-.395c-.1-.262-.186-.528-.289-.786a21.859,21.859,0,0,0-1.466-2.952,17.629,17.629,0,0,0-4.249-4.762,17.326,17.326,0,0,0-2.662-1.685c-.467-.231-.939-.446-1.411-.629l-.353-.13c-.116-.038-.234-.082-.347-.116l-.17-.053-.162-.046c-.056-.017-.1-.027-.149-.039l-.036-.009-.025,0-.024,0h-.006l.008,0,.017.005Z" transform="translate(-1046.006 -320.979)" fill="#febeb5"/>
            <path id="Trazado_643161" data-name="Trazado 643161" d="M1361.219,436.451a12.122,12.122,0,1,0,15.549-7.219,12.122,12.122,0,0,0-15.549,7.219m17.416,6.371a6.423,6.423,0,1,1-3.825-8.239,6.423,6.423,0,0,1,3.825,8.239" transform="translate(-1211.053 -381.428)" fill="#b7c6ce"/>
            <path id="Trazado_643162" data-name="Trazado 643162" d="M1351.235,479.506l-1.677,4.583-3.663-1.836a13.209,13.209,0,0,1,1.357-3.708Z" transform="translate(-1198.073 -425.985)" fill="#b7c6ce"/>
            <path id="Trazado_643163" data-name="Trazado 643163" d="M1347.094,532.387l.839,4.807-4.09.241a13.209,13.209,0,0,1-.679-3.889Z" transform="translate(-1195.641 -473.913)" fill="#b7c6ce"/>
            <path id="Trazado_643164" data-name="Trazado 643164" d="M1365.127,579.222l3.131,3.744-3.422,2.254a13.219,13.219,0,0,1-2.533-3.029Z" transform="translate(-1212.677 -515.604)" fill="#b7c6ce"/>
            <path id="Trazado_643165" data-name="Trazado 643165" d="M1411.493,615.249l4.583,1.677-1.836,3.663a13.212,13.212,0,0,1-3.708-1.356Z" transform="translate(-1255.609 -547.674)" fill="#b7c6ce"/>
            <path id="Trazado_643166" data-name="Trazado 643166" d="M1464.375,624.011l4.807-.839.241,4.09a13.213,13.213,0,0,1-3.89.679Z" transform="translate(-1303.539 -554.726)" fill="#b7c6ce"/>
            <path id="Trazado_643167" data-name="Trazado 643167" d="M1511.209,596.374l3.744-3.131,2.254,3.422a13.212,13.212,0,0,1-3.029,2.533Z" transform="translate(-1345.229 -528.085)" fill="#b7c6ce"/>
            <path id="Trazado_643168" data-name="Trazado 643168" d="M1547.236,553.333l1.677-4.583,3.663,1.836a13.213,13.213,0,0,1-1.357,3.708Z" transform="translate(-1377.299 -488.479)" fill="#b7c6ce"/>
            <path id="Trazado_643169" data-name="Trazado 643169" d="M1556,504.467l-.84-4.807,4.09-.241a13.22,13.22,0,0,1,.679,3.889Z" transform="translate(-1384.351 -444.565)" fill="#b7c6ce"/>
            <path id="Trazado_643170" data-name="Trazado 643170" d="M1528.361,449.941l-3.131-3.744,3.422-2.254a13.225,13.225,0,0,1,2.533,3.029Z" transform="translate(-1357.71 -395.183)" fill="#b7c6ce"/>
            <path id="Trazado_643171" data-name="Trazado 643171" d="M1485.32,419.248l-4.583-1.677,1.836-3.663a13.223,13.223,0,0,1,3.708,1.357Z" transform="translate(-1318.104 -368.447)" fill="#b7c6ce"/>
            <path id="Trazado_643172" data-name="Trazado 643172" d="M1436.455,415.107l-4.807.84-.241-4.09a13.216,13.216,0,0,1,3.889-.679Z" transform="translate(-1274.191 -366.016)" fill="#b7c6ce"/>
            <path id="Trazado_643173" data-name="Trazado 643173" d="M1381.929,433.139l-3.744,3.131-2.254-3.422a13.212,13.212,0,0,1,3.029-2.533Z" transform="translate(-1224.809 -383.052)" fill="#b7c6ce"/>
            <path id="Trazado_643174" data-name="Trazado 643174" d="M1590.813,396.225a6.014,6.014,0,1,0,7.714-3.582,6.014,6.014,0,0,0-7.714,3.582m8.64,3.161a3.186,3.186,0,1,1-1.9-4.087,3.187,3.187,0,0,1,1.9,4.087" transform="translate(-1415.762 -349.191)" fill="#b7c6ce"/>
            <path id="Trazado_643175" data-name="Trazado 643175" d="M1585.861,417.586l-.832,2.274-1.817-.911a6.551,6.551,0,0,1,.673-1.839Z" transform="translate(-1409.324 -371.296)" fill="#b7c6ce"/>
            <path id="Trazado_643176" data-name="Trazado 643176" d="M1583.807,443.82l.417,2.385-2.029.12a6.551,6.551,0,0,1-.337-1.93Z" transform="translate(-1408.118 -395.074)" fill="#b7c6ce"/>
            <path id="Trazado_643177" data-name="Trazado 643177" d="M1592.753,467.054l1.553,1.857-1.7,1.118a6.56,6.56,0,0,1-1.257-1.5Z" transform="translate(-1416.569 -415.756)" fill="#b7c6ce"/>
            <path id="Trazado_643178" data-name="Trazado 643178" d="M1615.755,484.927l2.274.832-.911,1.817a6.556,6.556,0,0,1-1.839-.673Z" transform="translate(-1437.868 -431.666)" fill="#b7c6ce"/>
            <path id="Trazado_643179" data-name="Trazado 643179" d="M1641.989,489.273l2.385-.416.12,2.029a6.562,6.562,0,0,1-1.929.337Z" transform="translate(-1461.645 -435.164)" fill="#b7c6ce"/>
            <path id="Trazado_643180" data-name="Trazado 643180" d="M1665.224,475.563l1.857-1.553,1.118,1.7a6.552,6.552,0,0,1-1.5,1.257Z" transform="translate(-1482.328 -421.948)" fill="#b7c6ce"/>
            <path id="Trazado_643181" data-name="Trazado 643181" d="M1683.1,454.211l.832-2.274,1.817.911a6.562,6.562,0,0,1-.673,1.839Z" transform="translate(-1498.238 -402.299)" fill="#b7c6ce"/>
            <path id="Trazado_643182" data-name="Trazado 643182" d="M1687.443,429.969l-.417-2.385,2.029-.12a6.551,6.551,0,0,1,.337,1.93Z" transform="translate(-1501.736 -380.514)" fill="#b7c6ce"/>
            <path id="Trazado_643183" data-name="Trazado 643183" d="M1673.733,402.918l-1.553-1.857,1.7-1.118a6.566,6.566,0,0,1,1.257,1.5Z" transform="translate(-1488.52 -356.015)" fill="#b7c6ce"/>
            <path id="Trazado_643184" data-name="Trazado 643184" d="M1652.38,387.691l-2.274-.832.911-1.817a6.562,6.562,0,0,1,1.839.673Z" transform="translate(-1468.87 -342.751)" fill="#b7c6ce"/>
            <path id="Trazado_643185" data-name="Trazado 643185" d="M1628.138,385.637l-2.385.417-.12-2.029a6.554,6.554,0,0,1,1.93-.337Z" transform="translate(-1447.085 -341.545)" fill="#b7c6ce"/>
            <path id="Trazado_643186" data-name="Trazado 643186" d="M1601.088,394.583l-1.857,1.553-1.118-1.7a6.55,6.55,0,0,1,1.5-1.257Z" transform="translate(-1422.587 -349.997)" fill="#b7c6ce"/>
            <path id="Trazado_643187" data-name="Trazado 643187" d="M1094.562,501.5a1.377,1.377,0,1,1-.694-2.463,4.029,4.029,0,0,1,.694,2.463" transform="translate(-972.65 -444.228)" fill="#543f5c"/>
            <path id="Trazado_643188" data-name="Trazado 643188" d="M1131.948,539.392a1.377,1.377,0,1,1-.276-2.543,4.03,4.03,0,0,1,.276,2.543" transform="translate(-1005.901 -477.885)" fill="#543f5c"/>
            <path id="Trazado_643189" data-name="Trazado 643189" d="M1034.33,500.6a4.028,4.028,0,0,1,1.609,1.989,3.45,3.45,0,0,1-4.146-2.323,4.03,4.03,0,0,1,2.537.334" transform="translate(-918.468 -445.251)" fill="#543f5c"/>
            <path id="Trazado_643190" data-name="Trazado 643190" d="M1060.241,539.3a4.029,4.029,0,0,1,2.547.243,3.451,3.451,0,0,1-4.561,1.335,4.029,4.029,0,0,1,2.014-1.578" transform="translate(-941.999 -479.959)" fill="#543f5c"/>
            <path id="Trazado_643191" data-name="Trazado 643191" d="M1093.818,575.129a4.029,4.029,0,0,1,2.547.243,3.45,3.45,0,0,1-4.561,1.335,4.028,4.028,0,0,1,2.014-1.578" transform="translate(-971.888 -511.855)" fill="#543f5c"/>
            <path id="Trazado_643192" data-name="Trazado 643192" d="M1074.411,532.494l-.252.089a36.234,36.234,0,0,0-3.177-6.368,30.807,30.807,0,0,0-4.074-5.251,20.042,20.042,0,0,0-5.814-4.225l.113-.242a20.311,20.311,0,0,1,5.9,4.283,31.1,31.1,0,0,1,4.111,5.3,36.5,36.5,0,0,1,3.2,6.416" transform="translate(-944.55 -459.768)" fill="#543f5c"/>
            <path id="Trazado_643193" data-name="Trazado 643193" d="M1673.3,499.6a1.653,1.653,0,1,0,1.69-2.564,4.835,4.835,0,0,0-1.69,2.564" transform="translate(-1489.458 -442.448)" fill="#543f5c"/>
            <path id="Trazado_643194" data-name="Trazado 643194" d="M1616.76,528.015a1.654,1.654,0,1,0,1.241-2.809,4.836,4.836,0,0,0-1.241,2.809" transform="translate(-1439.185 -467.521)" fill="#543f5c"/>
            <path id="Trazado_643195" data-name="Trazado 643195" d="M1722.5,519.775a4.838,4.838,0,0,0-2.565,1.69,4.142,4.142,0,0,0,5.588-1.148,4.836,4.836,0,0,0-3.023-.542" transform="translate(-1531.031 -462.624)" fill="#543f5c"/>
            <path id="Trazado_643196" data-name="Trazado 643196" d="M1680.934,548.567a4.836,4.836,0,0,0-3-.649,4.141,4.141,0,0,0,4.731,3.187,4.836,4.836,0,0,0-1.729-2.538" transform="translate(-1493.64 -487.714)" fill="#543f5c"/>
            <path id="Trazado_643197" data-name="Trazado 643197" d="M1629.485,577.338a4.837,4.837,0,0,0-3-.649,4.141,4.141,0,0,0,4.731,3.187,4.837,4.837,0,0,0-1.729-2.538" transform="translate(-1447.842 -513.325)" fill="#543f5c"/>
            <path id="Trazado_643198" data-name="Trazado 643198" d="M1539.892,545.621l.256.193a43.492,43.492,0,0,1,5.952-6.128,37,37,0,0,1,6.571-4.524,24.063,24.063,0,0,1,8.189-2.717l-.041-.318a24.38,24.38,0,0,0-8.3,2.754,37.335,37.335,0,0,0-6.63,4.566,43.843,43.843,0,0,0-5.995,6.175" transform="translate(-1370.761 -473.681)" fill="#2d334a"/>
          </g>
        </g>
        <g id="Grupo_1075412" data-name="Grupo 1075412" transform="translate(17.294 65.152)">
          <g id="Grupo_1075411" data-name="Grupo 1075411" clip-path="url(#clip-path-3)">
            <path id="Trazado_643199" data-name="Trazado 643199" d="M459.3,495.148s30.658.209,31.5,31.813c.394,14.806,16.241,17.34,33.347,16.052,26.515-2,63.578,22.016,36.016,61.746S571.633,651.9,571.633,651.9H351.554s-13.3-28.447,2.826-41.766c13.823-11.416,32.034-18.7,28.4-39.372s8.066-42.065,26.158-46.673,31.582-24.386,31.582-24.386Z" transform="translate(-325.647 -505.916)" fill="#543f5c"/>
            <path id="Trazado_643200" data-name="Trazado 643200" d="M1067.3,1235.87a20.416,20.416,0,0,0-6.837,11.394c-1.267,7.065,3.516,8.364,3.419,22.166s11.134-20.721,11.134-20.721Z" transform="translate(-961.098 -1165.282)" fill="#ccb67b"/>
            <path id="Trazado_643201" data-name="Trazado 643201" d="M893.193,1066.024q.544-1.31,1.069-2.6.685-1.664,1.337-3.286c1.566-3.884,3-7.614,4.341-11.2.753-2.029,1.479-4.005,2.171-5.947,1.143-3.219,2.2-6.33,3.179-9.3.672-2.131,1.324-4.173,1.935-6.176q.635-2.117,1.21-4.14c6.25-22,7.157-36.557,5.631-46.765a25.663,25.663,0,0,1,9.664-24.293l2.91-2.231a22.909,22.909,0,0,1,36.45,13.743A139.128,139.128,0,0,1,965.367,983a249.61,249.61,0,0,1-.907,38.452c-.2,2.049-.45,4.092-.712,6.176q-.917,7.227-2.325,14.724c-.383,2.023-.786,4.073-1.216,6.122-.921,4.328-1.969,8.7-3.172,13.185q-.786,2.953-1.667,5.994c-.047.165-.1.333-.145.5H892.313c.3-.716.594-1.429.88-2.131" transform="translate(-811.602 -906.642)" fill="#ccb67b"/>
            <path id="Trazado_643202" data-name="Trazado 643202" d="M1387.777,1013.144c-6.147-5.319-10.854-6.8-14.606-.769-1.672,2.69-1.961,9.51,4.05,16.352l49.038,63.811c.737,1.182,2.719-.006,3.925-.7a2.569,2.569,0,0,0,.938-.937c2.141-2.471,2.446-6.783,1.248-9.9-6.233-16.234-34.2-58.861-44.593-67.854" transform="translate(-1238.722 -962.851)" fill="#ccb67b"/>
            <path id="Trazado_643203" data-name="Trazado 643203" d="M1146.682,465.559s19.19-3.357,23.781-21.252c6.164-24.029-16.4-40.3-31.168-34.6-13.6,5.247-13.325,16.145-12.329,18.993s19.716,36.856,19.716,36.856" transform="translate(-1020.116 -428.845)" fill="#543f5c"/>
            <path id="Trazado_643204" data-name="Trazado 643204" d="M1176.468,501.2s15.126-2.415,18.164-6.943-4.349-5.3-4.349-5.3a18.99,18.99,0,0,0-13.815,12.245" transform="translate(-1064.548 -500.406)" fill="#2d334a"/>
            <path id="Trazado_643205" data-name="Trazado 643205" d="M1132.065,569.129c-5.677,11.856-18.538,17.513-25.784,14.044s-6.132-14.751-.455-26.607,14.44-15.078,21.685-11.608,10.23,12.315,4.553,24.172" transform="translate(-997.551 -549.082)" fill="#ebc2ab"/>
            <path id="Trazado_643206" data-name="Trazado 643206" d="M1251.211,720.472l-14.15-2.61c-.352,2.215-3.366,23.334-3.214,31.386.347,2.5,3.823,3.886,7.763,3.093,3.542-.713,6.231-2.943,6.49-5.2l.017,0c-.091-4.828,1.871-18.921,3.094-26.661" transform="translate(-1115.62 -704.168)" fill="#ebc2ab"/>
            <path id="Trazado_643207" data-name="Trazado 643207" d="M1224.488,503.653s2.252,17.452,17.931,24.229c8.076,3.491,11.5-9.371,11.5-9.371l-7.448-12.809s-6.352-5.627-11.448-5.375c-.436.022-10.538,3.325-10.538,3.325" transform="translate(-1107.294 -510.52)" fill="#543f5c"/>
            <path id="Trazado_643208" data-name="Trazado 643208" d="M1352.164,743.684c-1.559,2.869-6.4,4.989-8.478,3.861s-1.333-3.737.226-6.605,4.7-4.637,6.779-3.508,3.033,3.384,1.474,6.253" transform="translate(-1212.266 -721.282)" fill="#ebc2ab"/>
            <path id="Trazado_643209" data-name="Trazado 643209" d="M1244.274,554.445c-.048.165-.094.3-.144.446s-.1.285-.153.426c-.106.281-.216.559-.334.834q-.35.825-.767,1.617t-.9,1.548c-.32.5-.667.99-1.032,1.462a17.827,17.827,0,0,1-1.174,1.354c-.214.209-.42.426-.646.624-.112.1-.219.2-.334.3l-.346.287c-.113.1-.236.184-.355.275s-.237.183-.362.265c-.25.166-.494.339-.755.487a12.342,12.342,0,0,1-1.6.809l-.42.158-.21.079c-.07.025-.143.045-.214.067l-.842.257-.822.25c-.139.038-.272.089-.407.139l-.4.149-.4.149c-.067.026-.135.048-.2.076l-.2.086-.789.345c-.133.054-.258.125-.387.189l-.384.195-.384.2-.373.216a18.332,18.332,0,0,0-2.83,1.972c-.214.193-.436.378-.643.578s-.418.4-.613.611a10.813,10.813,0,0,0-1.1,1.333l-.079-.048a10.918,10.918,0,0,1,1.054-1.4c.188-.224.392-.433.593-.645s.417-.408.626-.613a18.651,18.651,0,0,1,2.788-2.128l.371-.237.382-.217.383-.216c.129-.07.254-.149.387-.21l.791-.388.2-.1c.066-.031.135-.058.2-.087l.406-.171.406-.171c.135-.058.271-.115.41-.161l.832-.293.812-.287c.066-.024.133-.046.2-.072l.194-.083.388-.166a11.6,11.6,0,0,0,1.47-.824c.238-.148.461-.321.688-.486.114-.082.219-.176.329-.264s.22-.175.322-.272l.313-.283c.1-.094.2-.2.3-.295.2-.194.388-.407.581-.612.369-.425.724-.863,1.05-1.323s.632-.934.915-1.423.543-.99.784-1.5.461-1.032.658-1.56c.1-.263.191-.53.279-.8.043-.133.085-.266.124-.4s.079-.272.107-.387Z" transform="translate(-1106.566 -558.404)" fill="#543f5c"/>
            <path id="Trazado_643210" data-name="Trazado 643210" d="M1191.658,608.768c-.029.316-.067.609-.11.91s-.089.6-.143.893q-.157.89-.368,1.768t-.481,1.741q-.274.862-.612,1.7a15.644,15.644,0,0,1-1.722,3.2,10.31,10.31,0,0,1-1.187,1.392,7.859,7.859,0,0,1-1.447,1.132,9.027,9.027,0,0,1-1.646.787,9.682,9.682,0,0,1-1.758.461,14.738,14.738,0,0,1-3.593.069c-.593-.045-1.182-.1-1.771-.133a10.555,10.555,0,0,0-1.758.026,5.452,5.452,0,0,0-1.681.46,5.2,5.2,0,0,0-1.435,1l-.066-.065a5.319,5.319,0,0,1,1.436-1.07,5.626,5.626,0,0,1,1.719-.528,10.8,10.8,0,0,1,1.794-.083c.6.014,1.189.052,1.78.079a14.381,14.381,0,0,0,3.5-.173,9.228,9.228,0,0,0,1.663-.491,8.535,8.535,0,0,0,1.534-.792,7.314,7.314,0,0,0,1.315-1.1,9.689,9.689,0,0,0,1.077-1.344,14.966,14.966,0,0,0,1.55-3.1q.3-.819.54-1.661t.414-1.7q.179-.857.3-1.724c.043-.289.078-.578.111-.867s.06-.583.077-.858Z" transform="translate(-1060.464 -606.998)" fill="#543f5c"/>
          </g>
        </g>
        <g id="Grupo_1075414" data-name="Grupo 1075414" transform="translate(0 0)">
          <g id="Grupo_1075413" data-name="Grupo 1075413" clip-path="url(#clip-path-2)">
            <path id="Trazado_643211" data-name="Trazado 643211" d="M336.443,1268.326a11.866,11.866,0,0,0-11.406,8.6H347.85a11.866,11.866,0,0,0-11.406-8.6" transform="translate(-289.337 -1129.022)" fill="#869ead"/>
            <path id="Trazado_643212" data-name="Trazado 643212" d="M798.911,1231.286a17.479,17.479,0,0,0-16.8,12.667h33.605a17.479,17.479,0,0,0-16.8-12.667" transform="translate(-696.207 -1096.05)" fill="#869ead"/>
            <path id="Trazado_643213" data-name="Trazado 643213" d="M460.31,1220.391c2.577-8.916,12.787-15.575,24.991-15.575s22.415,6.659,24.991,15.575Z" transform="translate(-409.753 -1072.488)" fill="#869ead"/>
            <path id="Trazado_643214" data-name="Trazado 643214" d="M521.072,1320.97a4.8,4.8,0,0,0-4.618,3.482h9.236a4.8,4.8,0,0,0-4.618-3.482" transform="translate(-459.73 -1175.884)" fill="#b7aea9"/>
            <path id="Trazado_643215" data-name="Trazado 643215" d="M708.311,1305.974a7.077,7.077,0,0,0-6.8,5.129h13.606a7.077,7.077,0,0,0-6.8-5.129" transform="translate(-624.46 -1162.535)" fill="#b7aea9"/>
            <path id="Trazado_643216" data-name="Trazado 643216" d="M571.222,1301.563c1.043-3.61,5.177-6.306,10.118-6.306s9.075,2.7,10.118,6.306Z" transform="translate(-508.483 -1152.995)" fill="#b7aea9"/>
            <path id="Trazado_643217" data-name="Trazado 643217" d="M516.411,1024.4a6.428,6.428,0,0,1-2.471,3.248,5.5,5.5,0,0,1,2.026-7.306,6.429,6.429,0,0,1,.445,4.057" transform="translate(-456.945 -908.275)" fill="#869ead"/>
            <path id="Trazado_643218" data-name="Trazado 643218" d="M564.556,1094.8a6.427,6.427,0,0,1-2.976,2.794,5.5,5.5,0,0,1,3.209-6.869,6.428,6.428,0,0,1-.233,4.075" transform="translate(-499.694 -970.928)" fill="#869ead"/>
            <path id="Trazado_643219" data-name="Trazado 643219" d="M427.7,1005.5a6.428,6.428,0,0,1,2.01,3.552,5.5,5.5,0,0,1-5.914-4.744,6.427,6.427,0,0,1,3.9,1.191" transform="translate(-377.253 -894.002)" fill="#869ead"/>
            <path id="Trazado_643220" data-name="Trazado 643220" d="M454.86,1077.826a2.2,2.2,0,1,1-3.583,1.954,6.429,6.429,0,0,1,3.583-1.954" transform="translate(-401.712 -959.417)" fill="#869ead"/>
            <path id="Trazado_643221" data-name="Trazado 643221" d="M498.288,1143.028a2.2,2.2,0,1,1-3.583,1.954,6.427,6.427,0,0,1,3.583-1.954" transform="translate(-440.37 -1017.458)" fill="#869ead"/>
            <path id="Trazado_643222" data-name="Trazado 643222" d="M482.041,1065.546l-.42.073a57.827,57.827,0,0,0-3.328-10.855,49.166,49.166,0,0,0-5.032-9.333,31.977,31.977,0,0,0-8.04-8.175l.241-.352a32.4,32.4,0,0,1,8.152,8.287,49.618,49.618,0,0,1,5.077,9.418,58.258,58.258,0,0,1,3.35,10.936" transform="translate(-414.125 -923.018)" fill="#869ead"/>
            <path id="Trazado_643223" data-name="Trazado 643223" d="M704.823,935.408a7.921,7.921,0,0,1-3.764,3.336,6.783,6.783,0,0,1,4.2-8.348,7.921,7.921,0,0,1-.432,5.011" transform="translate(-623.859 -828.209)" fill="#869ead"/>
            <path id="Trazado_643224" data-name="Trazado 643224" d="M744.961,1033.578a7.921,7.921,0,0,1-4.265,2.666,6.783,6.783,0,0,1,5.522-7.536,7.921,7.921,0,0,1-1.257,4.87" transform="translate(-659.327 -915.721)" fill="#869ead"/>
            <path id="Trazado_643225" data-name="Trazado 643225" d="M612.051,886.264a7.921,7.921,0,0,1,1.581,4.775,6.782,6.782,0,0,1-6.015-7.149,7.922,7.922,0,0,1,4.435,2.373" transform="translate(-540.879 -786.811)" fill="#869ead"/>
            <path id="Trazado_643226" data-name="Trazado 643226" d="M623.749,987.29a7.921,7.921,0,0,1,4.517,2.214,6.783,6.783,0,0,1-9.316-.708,7.921,7.921,0,0,1,4.8-1.506" transform="translate(-550.969 -878.839)" fill="#869ead"/>
            <path id="Trazado_643227" data-name="Trazado 643227" d="M660.66,1076.5a7.92,7.92,0,0,1,4.517,2.214,6.783,6.783,0,0,1-9.316-.708,7.921,7.921,0,0,1,4.8-1.506" transform="translate(-583.826 -958.248)" fill="#869ead"/>
            <path id="Trazado_643228" data-name="Trazado 643228" d="M662.711,972.281l-.525-.012a71.228,71.228,0,0,0-1.427-13.918,60.6,60.6,0,0,0-3.852-12.485,39.408,39.408,0,0,0-7.765-11.8l.375-.368a39.928,39.928,0,0,1,7.874,11.968,61.124,61.124,0,0,1,3.886,12.6,71.8,71.8,0,0,1,1.435,14.021" transform="translate(-577.844 -831.143)" fill="#869ead"/>
            <path id="Trazado_643229" data-name="Trazado 643229" d="M1760.8,836.7a20.908,20.908,0,0,1,6.456,2.416l.035-.263c.3-2.25.7-4.784,1.237-7.51a20.913,20.913,0,0,1-6.819-1.782,20.617,20.617,0,0,1-6.161-4.486,20.619,20.619,0,0,1,7.4,1.817,20.91,20.91,0,0,1,5.672,3.978c.452-2.259.995-4.645,1.647-7.112a20.924,20.924,0,0,1-6.092-3.45,20.618,20.618,0,0,1-4.808-5.912,20.618,20.618,0,0,1,6.69,3.649,20.892,20.892,0,0,1,4.365,5.126c.664-2.46,1.439-4.994,2.34-7.558a20.928,20.928,0,0,1-5.5-4.342,20.616,20.616,0,0,1-3.85-6.577,20.621,20.621,0,0,1,6.056,4.627,20.9,20.9,0,0,1,3.512,5.682c.618-1.724,1.295-3.459,2.035-5.192a20.923,20.923,0,0,1-3.44-6.085,20.622,20.622,0,0,1-1.079-7.544,19.66,19.66,0,0,1,4.951,12.636q.8-1.811,1.7-3.61A19.662,19.662,0,0,1,1783.5,793.2a19.659,19.659,0,0,1-5.418,12.406q-.929,1.857-1.751,3.734a20.887,20.887,0,0,1,6.281-2.207,20.619,20.619,0,0,1,7.618.2,20.619,20.619,0,0,1-7.126,2.7,20.913,20.913,0,0,1-7.043-.081c-.749,1.738-1.431,3.479-2.056,5.21a20.912,20.912,0,0,1,6.925-.358,20.621,20.621,0,0,1,7.236,2.393,20.62,20.62,0,0,1-7.6.528,20.916,20.916,0,0,1-6.721-2.112c-.935,2.629-1.734,5.231-2.417,7.754a20.915,20.915,0,0,1,6.832-.957,20.619,20.619,0,0,1,7.419,1.745,20.619,20.619,0,0,1-7.526,1.2,20.913,20.913,0,0,1-6.853-1.5c-.663,2.491-1.213,4.9-1.669,7.179a20.915,20.915,0,0,1,6.757-1.19,20.618,20.618,0,0,1,7.477,1.476,20.62,20.62,0,0,1-7.478,1.468,20.919,20.919,0,0,1-6.859-1.234c-.526,2.689-.923,5.189-1.22,7.41-.015.111-.029.222-.044.332a20.832,20.832,0,0,1,7.4-.472,20.619,20.619,0,0,1,7.236,2.393,19.742,19.742,0,0,1-14.655-1.761,109.941,109.941,0,0,0-1.01,15.571l-1.011.03a110.467,110.467,0,0,1,.978-15.423,20.911,20.911,0,0,1-6.922-.041,20.621,20.621,0,0,1-7.087-2.8,20.622,20.622,0,0,1,7.62-.092" transform="translate(-1560.625 -706.083)" fill="#b7aea9"/>
            <path id="Trazado_643230" data-name="Trazado 643230" d="M2101.129,1143.664a7.823,7.823,0,0,1,2.09,1.509l.038-.091c.331-.782.726-1.656,1.188-2.586a7.818,7.818,0,0,1-2.283-1.316,1.452,1.452,0,1,1,.711-.84,7.815,7.815,0,0,1,1.653,2c.386-.77.818-1.577,1.3-2.4a7.826,7.826,0,0,1-1.856-1.846,1.452,1.452,0,1,1,.9-.63,7.818,7.818,0,0,1,1.068,2.28c.483-.821,1.012-1.659,1.591-2.494a7.83,7.83,0,0,1-1.554-2.109,1.452,1.452,0,1,1,.988-.485,7.819,7.819,0,0,1,.705,2.4c.394-.561.809-1.12,1.247-1.671a7.809,7.809,0,0,1-.639-2.535,1.211,1.211,0,1,1,.893,2.219q.467-.574.968-1.134a1.222,1.222,0,1,1,.3.237q-.519.578-1,1.174a7.808,7.808,0,0,1,2.483-.175,7.709,7.709,0,0,1,2.728.825,7.709,7.709,0,0,1-2.837.27,7.816,7.816,0,0,1-2.532-.725c-.441.553-.86,1.113-1.256,1.676a7.815,7.815,0,0,1,2.533.555,7.71,7.71,0,0,1,2.373,1.578,7.71,7.71,0,0,1-2.794-.561,7.812,7.812,0,0,1-2.215-1.426c-.6.856-1.142,1.715-1.638,2.557a7.816,7.816,0,0,1,2.558.33,7.712,7.712,0,0,1,2.5,1.362,7.71,7.71,0,0,1-2.833-.312,7.827,7.827,0,0,1-2.323-1.218c-.485.833-.922,1.647-1.312,2.424a7.822,7.822,0,0,1,2.554.239,7.707,7.707,0,0,1,2.551,1.271,7.709,7.709,0,0,1-2.842-.21,7.824,7.824,0,0,1-2.351-1.123c-.456.918-.846,1.78-1.173,2.552l-.049.115a7.381,7.381,0,0,1,5.088,2.139,7.707,7.707,0,0,1-2.794-.561,7.786,7.786,0,0,1-2.317-1.522,41.089,41.089,0,0,0-1.9,5.516l-.368-.089a41.34,41.34,0,0,1,1.877-5.465,7.814,7.814,0,0,1-2.492-.7,7.715,7.715,0,0,1-2.279-1.711,7.706,7.706,0,0,1,2.757.72" transform="translate(-1867.902 -1005.898)" fill="#b7aea9"/>
            <path id="Trazado_643231" data-name="Trazado 643231" d="M1983.842,1239.113a17.863,17.863,0,0,1,17.172,12.946H1966.67a17.863,17.863,0,0,1,17.172-12.946" transform="translate(-1750.665 -1103.018)" fill="#b7aea9"/>
            <path id="Trazado_643232" data-name="Trazado 643232" d="M2209.939,1275.64a12.328,12.328,0,0,1,11.85,8.934h-23.7a12.327,12.327,0,0,1,11.85-8.934" transform="translate(-1956.667 -1135.533)" fill="#b7aea9"/>
            <path id="Trazado_643233" data-name="Trazado 643233" d="M1710.788,1243.98c-2.306-7.981-11.447-13.942-22.372-13.942s-20.066,5.961-22.372,13.942Z" transform="translate(-1483.058 -1094.939)" fill="#b7aea9"/>
            <path id="Trazado_643234" data-name="Trazado 643234" d="M2009.614,1320.506a7.9,7.9,0,0,1,7.589,5.721h-15.178a7.9,7.9,0,0,1,7.589-5.721" transform="translate(-1782.137 -1175.471)" fill="#d3cecb"/>
            <path id="Trazado_643235" data-name="Trazado 643235" d="M2109.538,1336.65a5.448,5.448,0,0,1,5.237,3.948H2104.3a5.448,5.448,0,0,1,5.237-3.948" transform="translate(-1873.18 -1189.842)" fill="#d3cecb"/>
            <path id="Trazado_643236" data-name="Trazado 643236" d="M1888.938,1322.658c-1.019-3.527-5.059-6.162-9.887-6.162s-8.868,2.635-9.887,6.162Z" transform="translate(-1663.868 -1171.901)" fill="#d3cecb"/>
            <path id="Trazado_643237" data-name="Trazado 643237" d="M1448.6,798.308s1.764-2.175-.161-3.847a2.646,2.646,0,0,0-4.47,1.377,2.723,2.723,0,0,0,1.731,3.089,3.007,3.007,0,0,0,2.9-.619" transform="translate(-1285.349 -706.523)" fill="#765f62"/>
            <path id="Trazado_643238" data-name="Trazado 643238" d="M1480.944,966.931c-1.636-.884-1.658-1.9-1.447-2.541a1,1,0,0,1,.019-.139.985.985,0,0,1,1.206-.742l15.05,3.858a.454.454,0,0,1,.224.745,1.575,1.575,0,0,1-1.436.749c-3.053-.183-11.489-.782-13.617-1.931" transform="translate(-1316.917 -857.656)" fill="#f5d1bc"/>
            <path id="Trazado_643239" data-name="Trazado 643239" d="M1543.286,999.541a1.171,1.171,0,0,1,1.358.042.985.985,0,0,1,.132,1.41l-9.974,11.884c-.16.186-.578.122-.77-.031a.455.455,0,0,1-.08-.627l.4-.538c5.959-8.843,7.065-11.111,8.932-12.14" transform="translate(-1365.394 -889.586)" fill="#f5d1bc"/>
            <path id="Trazado_643240" data-name="Trazado 643240" d="M1562.166,1054.543a1.172,1.172,0,0,1,.646-1.2.985.985,0,0,1,1.32.513l6.158,14.241c.095.226-.15.571-.372.674a.455.455,0,0,1-.6-.209l-.3-.6c-5.237-9.289-6.77-11.293-6.854-13.424" transform="translate(-1390.589 -937.575)" fill="#f5d1bc"/>
            <path id="Trazado_643241" data-name="Trazado 643241" d="M1452.9,965.941c-1.082-1.512-.654-2.438-.183-2.918a.979.979,0,0,1,1.488-.253l11.826,10.076a.454.454,0,0,1-.126.768,1.575,1.575,0,0,1-1.62.042c-2.663-1.505-9.978-5.749-11.385-7.715" transform="translate(-1292.725 -856.817)" fill="#f5d1bc"/>
            <path id="Trazado_643242" data-name="Trazado 643242" d="M1622.776,1188.212a1.891,1.891,0,0,1-.916.148,2.686,2.686,0,0,1-.582-.081.219.219,0,0,0-.272.162c-.09.414-.192,1.05.034,1.085.335.051,5.17.374,5.207.151.1-.59-2.228-1.232-3.47-1.464" transform="translate(-1442.875 -1057.707)" fill="#5f6475"/>
            <path id="Trazado_643243" data-name="Trazado 643243" d="M1531.055,1107.571a1.9,1.9,0,0,1-.407-.834,2.7,2.7,0,0,1-.092-.58.219.219,0,0,0-.234-.213c-.422.034-1.059.122-1.026.347.049.335,1.147,5.055,1.371,5.025.591-.079.528-2.49.389-3.746" transform="translate(-1361.328 -984.475)" fill="#5f6475"/>
            <path id="Trazado_643244" data-name="Trazado 643244" d="M1485.483,969.106s11.835,2.365,12.812,3.212.259,1.883-.329,2.591-8.006,9.465-8.006,9.465l-1.345-1.005s4.661-8.084,6.36-9.359c0,0-11.327-.459-12.55-1.528s-.487-3.309-.487-3.309Z" transform="translate(-1318.978 -862.666)" fill="#658497"/>
            <path id="Trazado_643245" data-name="Trazado 643245" d="M1449.627,962.339a3.964,3.964,0,0,0,.732,4.377c1.913,2.076,10.775,6.792,10.775,6.792s-.17,1.866,6.326,12.276l1.764-.8s-4.173-11.307-5.514-12.411-10.01-9.1-10.01-9.1Z" transform="translate(-1290.089 -856.642)" fill="#658497"/>
            <path id="Trazado_643246" data-name="Trazado 643246" d="M1500.9,824.015a10.944,10.944,0,0,1,.956,3.736c.322,2.626-.409,7.987.188,9.833a6.617,6.617,0,0,1-2.009.653l-.3-8.9Z" transform="translate(-1335.011 -733.511)" fill="#ccb67b"/>
            <path id="Trazado_643247" data-name="Trazado 643247" d="M1571.015,778.938a1.1,1.1,0,0,0,.363-.912c-.072-.882-.264-2.542-.705-2.862-.607-.441-.8,2.4.2,3.905Z" transform="translate(-1397.714 -689.984)" fill="#f5d1bc"/>
            <path id="Trazado_643248" data-name="Trazado 643248" d="M1559.059,804.654a33.637,33.637,0,0,0-1.538,7.631c.035,1.077.688,1.04.715,1.047a.88.88,0,0,0,.9-.661l.888-7.829Z" transform="translate(-1386.453 -716.276)" fill="#ccb67b"/>
            <path id="Trazado_643249" data-name="Trazado 643249" d="M1487.566,811.9a.948.948,0,0,0-1.455.4c-.254.255-.1.943.233,1.227l7.806,5.955c.116.108.3-.081.411-.194a.294.294,0,0,0,.075-.131,1.186,1.186,0,0,0-.157-1.125,37.353,37.353,0,0,0-6.913-6.131" transform="translate(-1322.775 -722.558)" fill="#ccb67b"/>
            <path id="Trazado_643250" data-name="Trazado 643250" d="M1451.245,831.9c-.184.043.219-3.642.8-6.059a37.294,37.294,0,0,1,1.587-8.638c.781-1.883,1.891-2.874,3.585-2,.533.275.965,1.722,1.1,3.242s.482,1.237-.557,3.391c-.369.766.108,6.129.419,7.559a17.619,17.619,0,0,0,.363,2.233,4.056,4.056,0,0,1-1,.421c-2.452.657-3.852-.718-6.3-.147" transform="translate(-1291.811 -725.383)" fill="#9faeb3"/>
            <path id="Trazado_643251" data-name="Trazado 643251" d="M1430.309,830.737a.971.971,0,0,0-.457-1.4.929.929,0,0,0-1.16.176l-5.272,7.227c-.1.107.094.288.207.4a.315.315,0,0,0,.129.077,1.1,1.1,0,0,0,1.066-.108,30.954,30.954,0,0,0,5.488-6.368" transform="translate(-1267.057 -738.125)" fill="#ccb67b"/>
            <path id="Trazado_643252" data-name="Trazado 643252" d="M1474.775,766.564a.736.736,0,0,1-.869.487,3.873,3.873,0,0,1-2.342-1.729,2.441,2.441,0,0,1,2.748-3.5c1.344.3,1.516,1.273,1.473,1.555-.033.209-.679,2.185-1.01,3.188" transform="translate(-1309.696 -678.092)" fill="#765f62"/>
            <path id="Trazado_643253" data-name="Trazado 643253" d="M1489.1,790.081l1.779-.151a28.375,28.375,0,0,1,.076,3.434c-.069.268-.513.386-.993.263-.431-.11-.741-.377-.75-.625h0a23.5,23.5,0,0,0-.11-2.92" transform="translate(-1325.553 -703.17)" fill="#f5d1bc"/>
            <path id="Trazado_643254" data-name="Trazado 643254" d="M1489.064,772.715c.766,1.209,2.229,1.655,2.967,1.186s.473-1.673-.293-2.882-1.755-1.444-2.493-.976-.948,1.463-.181,2.671" transform="translate(-1325.086 -685.268)" fill="#f5d1bc"/>
            <path id="Trazado_643255" data-name="Trazado 643255" d="M1482.337,767.151a3.553,3.553,0,0,1-1.038,3.113c-.718.634-1.507-.581-1.507-.581l.339-1.577s.467-.8,1-.943c.046-.012,1.2-.012,1.2-.012" transform="translate(-1317.263 -682.892)" fill="#765f62"/>
            <path id="Trazado_643256" data-name="Trazado 643256" d="M1494.094,765.783s-1.667.04-2.081-.385.361-.654.361-.654a2.067,2.067,0,0,1,1.721,1.038" transform="translate(-1328.032 -680.75)" fill="#765f62"/>
            <path id="Trazado_643257" data-name="Trazado 643257" d="M1486.784,795.8a.89.89,0,0,0,.987.232c.2-.165.063-.427-.164-.7s-.6-.4-.8-.231a.458.458,0,0,0-.025.7" transform="translate(-1323.354 -707.71)" fill="#f5d1bc"/>
            <path id="Trazado_643258" data-name="Trazado 643258" d="M1453.479,814.523a1.249,1.249,0,0,0,.149,1.456,4.347,4.347,0,0,0,.935,1.069s-1.275,3.561-1.007,5.331a40.836,40.836,0,0,1,.16,8.586s-4.468.942-4.738.623c0,0,1.487-9.7,1.473-10.483s.727-5.933,3.028-6.582" transform="translate(-1289.833 -725.061)" fill="#ccb67b"/>
            <path id="Trazado_643259" data-name="Trazado 643259" d="M1397.331,958.076a1.1,1.1,0,0,1,.482.855c.047.884.08,2.554-.313,2.931-.542.518-1.115-2.276-.331-3.9Z" transform="translate(-1243.372 -852.75)" fill="#f5d1bc"/>
            <path id="Trazado_643260" data-name="Trazado 643260" d="M1399.045,897.877a33.632,33.632,0,0,0,3.683-6.858c.279-1.041-.357-1.195-.381-1.21a.88.88,0,0,0-1.05.373l-3.118,7.236Z" transform="translate(-1244.613 -792.021)" fill="#ccb67b"/>
            <path id="Trazado_643261" data-name="Trazado 643261" d="M1504.735,705.424c2.3,0,4.335,2.77,4.335,2.77s2.034-2.771,4.336-2.77a3.363,3.363,0,0,1,3.55,3.542c.029,2.779-3.836,3.369-5.478,3.48s-2.408,2.218-2.408,2.218-.766-2.106-2.408-2.218-5.507-.7-5.478-3.48a3.363,3.363,0,0,1,3.551-3.542" transform="translate(-1336.306 -627.945)" fill="#f8535b"/>
            <path id="Trazado_643262" data-name="Trazado 643262" d="M972.39,903.967a3.287,3.287,0,1,1,6.574,0,3.287,3.287,0,1,1-6.574,0" transform="translate(-865.59 -801.755)" fill="#fff"/>
            <path id="Trazado_643263" data-name="Trazado 643263" d="M1628.664,907.818a1.825,1.825,0,0,1,3.649,0,1.825,1.825,0,0,1-3.649,0" transform="translate(-1449.783 -806.485)" fill="#fff"/>
            <path id="Trazado_643264" data-name="Trazado 643264" d="M915.95,1025.577a1.825,1.825,0,1,1,3.649,0,1.825,1.825,0,0,1-3.649,0" transform="translate(-815.349 -911.31)" fill="#fff"/>
            <path id="Trazado_643265" data-name="Trazado 643265" d="M1326.109,384.336a1.825,1.825,0,0,1,3.649,0,1.825,1.825,0,0,1-3.649,0" transform="translate(-1180.459 -340.498)" fill="#fff"/>
            <path id="Trazado_643266" data-name="Trazado 643266" d="M1414.245,248.283a3.287,3.287,0,1,1,6.574,0,3.287,3.287,0,1,1-6.574,0" transform="translate(-1258.915 -218.087)" fill="#fff"/>
            <path id="Trazado_643267" data-name="Trazado 643267" d="M1143.633,244.671a7.354,7.354,0,1,0-7.285,7.422,7.354,7.354,0,0,0,7.285-7.422m-11.25.105a3.9,3.9,0,1,1,3.933,3.86,3.9,3.9,0,0,1-3.933-3.86" transform="translate(-1004.932 -211.313)" fill="#feddd8"/>
            <path id="Trazado_643268" data-name="Trazado 643268" d="M1250.039,293.317l-.028-2.961,2.472.26a8.038,8.038,0,0,1,.022,2.4Z" transform="translate(-1112.719 -258.465)" fill="#feddd8"/>
            <path id="Trazado_643269" data-name="Trazado 643269" d="M1237.27,259.518l-1.5-2.55,2.271-1.011a7.995,7.995,0,0,1,1.217,2.063Z" transform="translate(-1100.038 -227.844)" fill="#feddd8"/>
            <path id="Trazado_643270" data-name="Trazado 643270" d="M1213.412,235.625l-2.578-1.456,1.461-2.011a8.024,8.024,0,0,1,2.085,1.178Z" transform="translate(-1077.845 -206.659)" fill="#feddd8"/>
            <path id="Trazado_643271" data-name="Trazado 643271" d="M1184.856,229.324l-2.961.028.26-2.472a8.016,8.016,0,0,1,2.4-.022Z" transform="translate(-1052.084 -201.87)" fill="#feddd8"/>
            <path id="Trazado_643272" data-name="Trazado 643272" d="M1151.058,234.684l-2.55,1.5-1.011-2.271a8.011,8.011,0,0,1,2.063-1.217Z" transform="translate(-1021.464 -207.143)" fill="#feddd8"/>
            <path id="Trazado_643273" data-name="Trazado 643273" d="M1127.166,258.067l-1.456,2.578-2.011-1.461a8.033,8.033,0,0,1,1.178-2.086Z" transform="translate(-1000.279 -228.86)" fill="#feddd8"/>
            <path id="Trazado_643274" data-name="Trazado 643274" d="M1120.863,291.371l.028,2.961-2.472-.26a8.016,8.016,0,0,1-.022-2.4Z" transform="translate(-995.489 -259.369)" fill="#feddd8"/>
            <path id="Trazado_643275" data-name="Trazado 643275" d="M1126.222,320.3l1.5,2.55-2.271,1.011a8.012,8.012,0,0,1-1.217-2.063Z" transform="translate(-1000.761 -285.12)" fill="#feddd8"/>
            <path id="Trazado_643276" data-name="Trazado 643276" d="M1149.606,344.953l2.578,1.456-1.461,2.011a8.026,8.026,0,0,1-2.086-1.178Z" transform="translate(-1022.479 -307.066)" fill="#feddd8"/>
            <path id="Trazado_643277" data-name="Trazado 643277" d="M1182.911,358.5l2.96-.028-.26,2.472a8.016,8.016,0,0,1-2.4.023Z" transform="translate(-1052.989 -319.1)" fill="#feddd8"/>
            <path id="Trazado_643278" data-name="Trazado 643278" d="M1211.84,345.731l2.55-1.5,1.011,2.271a8.014,8.014,0,0,1-2.063,1.217Z" transform="translate(-1078.74 -306.419)" fill="#feddd8"/>
            <path id="Trazado_643279" data-name="Trazado 643279" d="M1236.493,321.873l1.456-2.578,2.011,1.461a8.02,8.02,0,0,1-1.178,2.086Z" transform="translate(-1100.686 -284.226)" fill="#feddd8"/>
            <path id="Trazado_643280" data-name="Trazado 643280" d="M1137.847,391.523a4.174,4.174,0,1,0-4.135,4.213,4.174,4.174,0,0,0,4.135-4.213m-6.385.06a2.212,2.212,0,1,1,2.232,2.191,2.212,2.212,0,0,1-2.232-2.191" transform="translate(-1005.443 -344.84)" fill="#feddd8"/>
            <path id="Trazado_643281" data-name="Trazado 643281" d="M1198.241,419.133l-.016-1.68,1.4.147a4.553,4.553,0,0,1,.013,1.359Z" transform="translate(-1066.621 -371.603)" fill="#feddd8"/>
            <path id="Trazado_643282" data-name="Trazado 643282" d="M1190.995,399.95l-.854-1.447,1.289-.574a4.547,4.547,0,0,1,.691,1.171Z" transform="translate(-1059.425 -354.223)" fill="#feddd8"/>
            <path id="Trazado_643283" data-name="Trazado 643283" d="M1177.452,386.39l-1.463-.827.829-1.141a4.548,4.548,0,0,1,1.184.669Z" transform="translate(-1046.827 -342.2)" fill="#feddd8"/>
            <path id="Trazado_643284" data-name="Trazado 643284" d="M1161.244,382.812l-1.68.016.147-1.4a4.549,4.549,0,0,1,1.359-.013Z" transform="translate(-1032.206 -339.48)" fill="#feddd8"/>
            <path id="Trazado_643285" data-name="Trazado 643285" d="M1142.061,385.854l-1.448.854-.574-1.289a4.544,4.544,0,0,1,1.171-.691Z" transform="translate(-1014.826 -342.472)" fill="#feddd8"/>
            <path id="Trazado_643286" data-name="Trazado 643286" d="M1128.5,399.127l-.826,1.463-1.142-.829a4.551,4.551,0,0,1,.669-1.184Z" transform="translate(-1002.803 -354.8)" fill="#feddd8"/>
            <path id="Trazado_643287" data-name="Trazado 643287" d="M1124.923,418.029l.016,1.68-1.4-.147a4.554,4.554,0,0,1-.013-1.36Z" transform="translate(-1000.084 -372.115)" fill="#feddd8"/>
            <path id="Trazado_643288" data-name="Trazado 643288" d="M1127.966,434.449l.854,1.447-1.289.574a4.551,4.551,0,0,1-.691-1.171Z" transform="translate(-1003.076 -386.732)" fill="#feddd8"/>
            <path id="Trazado_643289" data-name="Trazado 643289" d="M1141.238,448.441l1.463.826-.829,1.142a4.543,4.543,0,0,1-1.184-.669Z" transform="translate(-1015.403 -399.187)" fill="#feddd8"/>
            <path id="Trazado_643290" data-name="Trazado 643290" d="M1160.14,456.13l1.68-.016-.147,1.4a4.562,4.562,0,0,1-1.359.013Z" transform="translate(-1032.719 -406.017)" fill="#feddd8"/>
            <path id="Trazado_643291" data-name="Trazado 643291" d="M1176.56,448.884l1.448-.854.574,1.289a4.548,4.548,0,0,1-1.171.691Z" transform="translate(-1047.335 -398.821)" fill="#feddd8"/>
            <path id="Trazado_643292" data-name="Trazado 643292" d="M1190.552,435.341l.827-1.463,1.141.829a4.564,4.564,0,0,1-.669,1.184Z" transform="translate(-1059.79 -386.224)" fill="#feddd8"/>
            <path id="Trazado_643293" data-name="Trazado 643293" d="M1290.444,228.221a4.868,4.868,0,1,0-4.822,4.913,4.868,4.868,0,0,0,4.822-4.913m-7.447.07a2.579,2.579,0,1,1,2.6,2.555,2.579,2.579,0,0,1-2.6-2.555" transform="translate(-1140.045 -198.862)" fill="#feddd8"/>
            <path id="Trazado_643294" data-name="Trazado 643294" d="M1360.878,260.422l-.018-1.96,1.636.172a5.3,5.3,0,0,1,.015,1.585Z" transform="translate(-1211.393 -230.074)" fill="#feddd8"/>
            <path id="Trazado_643295" data-name="Trazado 643295" d="M1352.427,238.049l-1-1.688,1.5-.669a5.3,5.3,0,0,1,.806,1.366Z" transform="translate(-1203 -209.805)" fill="#feddd8"/>
            <path id="Trazado_643296" data-name="Trazado 643296" d="M1336.634,222.234l-1.706-.964.967-1.331a5.3,5.3,0,0,1,1.38.78Z" transform="translate(-1188.309 -195.782)" fill="#feddd8"/>
            <path id="Trazado_643297" data-name="Trazado 643297" d="M1317.731,218.063l-1.96.018.172-1.636a5.313,5.313,0,0,1,1.585-.015Z" transform="translate(-1171.257 -192.612)" fill="#feddd8"/>
            <path id="Trazado_643298" data-name="Trazado 643298" d="M1295.359,221.61l-1.688,1-.669-1.5a5.309,5.309,0,0,1,1.366-.806Z" transform="translate(-1150.988 -196.101)" fill="#feddd8"/>
            <path id="Trazado_643299" data-name="Trazado 643299" d="M1279.544,237.089l-.964,1.706-1.331-.967a5.3,5.3,0,0,1,.78-1.38Z" transform="translate(-1136.965 -210.478)" fill="#feddd8"/>
            <path id="Trazado_643300" data-name="Trazado 643300" d="M1275.373,259.133l.018,1.96-1.636-.172a5.315,5.315,0,0,1-.015-1.585Z" transform="translate(-1133.795 -230.671)" fill="#feddd8"/>
            <path id="Trazado_643301" data-name="Trazado 643301" d="M1278.921,278.283l1,1.688-1.5.669a5.3,5.3,0,0,1-.805-1.366Z" transform="translate(-1137.285 -247.718)" fill="#feddd8"/>
            <path id="Trazado_643302" data-name="Trazado 643302" d="M1294.4,294.6l1.706.964-.967,1.331a5.312,5.312,0,0,1-1.38-.78Z" transform="translate(-1151.661 -262.244)" fill="#feddd8"/>
            <path id="Trazado_643303" data-name="Trazado 643303" d="M1316.444,303.568l1.96-.018-.172,1.636a5.315,5.315,0,0,1-1.585.015Z" transform="translate(-1171.855 -270.21)" fill="#feddd8"/>
            <path id="Trazado_643304" data-name="Trazado 643304" d="M1335.593,295.116l1.688-1,.669,1.5a5.309,5.309,0,0,1-1.366.806Z" transform="translate(-1188.901 -261.816)" fill="#feddd8"/>
            <path id="Trazado_643305" data-name="Trazado 643305" d="M1351.912,279.324l.964-1.706,1.331.967a5.311,5.311,0,0,1-.78,1.38Z" transform="translate(-1203.428 -247.126)" fill="#feddd8"/>
            <path id="Trazado_643306" data-name="Trazado 643306" d="M1250.272,529.7a.523.523,0,0,1,.651.691,15.051,15.051,0,0,1,1.23,1.345,8.144,8.144,0,0,1-.094-1.939.525.525,0,1,1,.28.039,8.62,8.62,0,0,0,.195,2.386,22.669,22.669,0,0,1,3.07,5.666l-.267.091a21.155,21.155,0,0,0-1.186-2.66c-.237-.452-.526-.966-.865-1.508a5.564,5.564,0,0,0-1.95-.064.523.523,0,1,1-.068-.276,6.1,6.1,0,0,1,1.807.01,16.8,16.8,0,0,0-2.325-2.867.523.523,0,1,1-.478-.916" transform="translate(-1112.633 -470.718)" fill="#2d334a"/>
            <path id="Trazado_643307" data-name="Trazado 643307" d="M1287.866,530.4a5.562,5.562,0,0,0-1.8-.747.522.522,0,1,1,.034-.282,6.1,6.1,0,0,1,1.687.646,16.783,16.783,0,0,0-1.166-3.5.523.523,0,1,1,.379-.484.52.52,0,0,1-.137.334,15.062,15.062,0,0,1,.677,1.693,8.145,8.145,0,0,1,.6-1.848.522.522,0,1,1,.345.148.53.53,0,0,1-.1-.013,8.61,8.61,0,0,0-.658,2.3,22.671,22.671,0,0,1,.878,6.384l-.282-.009a21.154,21.154,0,0,0-.173-2.907c-.063-.506-.152-1.089-.279-1.716" transform="translate(-1143.916 -467.611)" fill="#2d334a"/>
          </g>
        </g>
      </g>
    </g>
    <path id="Trazado_643423" data-name="Trazado 643423" d="M5.576-14.219,8.75-4.326l3.164-9.893h4.512V0H12.988V-3.32l.332-6.8L9.883,0H7.617L4.17-10.127,4.5-3.32V0H1.074V-14.219ZM24.4,0a3.716,3.716,0,0,1-.312-.947A3.06,3.06,0,0,1,21.553.2a3.749,3.749,0,0,1-2.539-.9,2.875,2.875,0,0,1-1.045-2.271,2.955,2.955,0,0,1,1.27-2.6,6.468,6.468,0,0,1,3.691-.879h1.016v-.559q0-1.462-1.26-1.462a1.03,1.03,0,0,0-1.172,1.158H18.223a2.95,2.95,0,0,1,1.3-2.487,5.479,5.479,0,0,1,3.325-.956,4.8,4.8,0,0,1,3.193.986,3.429,3.429,0,0,1,1.2,2.705v4.678A4.79,4.79,0,0,0,27.7-.166V0ZM22.344-2.148a1.836,1.836,0,0,0,1.021-.264,1.653,1.653,0,0,0,.581-.6V-4.7h-.957q-1.719,0-1.719,1.543a.942.942,0,0,0,.3.728A1.1,1.1,0,0,0,22.344-2.148Zm6.309-3.213a6.455,6.455,0,0,1,1.084-3.955,3.568,3.568,0,0,1,3.027-1.445,3.035,3.035,0,0,1,2.383,1.113V-15h3.3V0H35.488l-.166-1.133A3.116,3.116,0,0,1,32.744.2,3.562,3.562,0,0,1,29.756-1.25,6.659,6.659,0,0,1,28.652-5.361Zm3.291.205q0,2.813,1.641,2.813a1.62,1.62,0,0,0,1.563-.918V-7.285A1.576,1.576,0,0,0,33.6-8.223q-1.523,0-1.65,2.461ZM46.611-1.143A3.393,3.393,0,0,1,43.789.2,3.328,3.328,0,0,1,41.157-.815a4.251,4.251,0,0,1-.894-2.905v-6.846h3.291V-3.7a1.183,1.183,0,0,0,1.318,1.357,1.72,1.72,0,0,0,1.611-.811v-7.412h3.311V0H46.709ZM57.988-7.588,56.9-7.666a1.947,1.947,0,0,0-1.992.977V0H51.621V-10.566h3.086l.107,1.357a2.548,2.548,0,0,1,2.314-1.553,3.209,3.209,0,0,1,.918.117ZM64.1.2a5.432,5.432,0,0,1-3.936-1.45,5.008,5.008,0,0,1-1.5-3.774V-5.3a6.489,6.489,0,0,1,.6-2.861,4.395,4.395,0,0,1,1.753-1.919,5.292,5.292,0,0,1,2.734-.679A4.574,4.574,0,0,1,67.266-9.38a5.43,5.43,0,0,1,1.289,3.853v1.279H62.012a2.372,2.372,0,0,0,.771,1.4,2.3,2.3,0,0,0,1.543.508,2.958,2.958,0,0,0,2.441-1.094l1.5,1.777A4.2,4.2,0,0,1,66.528-.308,5.891,5.891,0,0,1,64.1.2ZM63.73-8.223q-1.445,0-1.719,1.914h3.32v-.254a1.63,1.63,0,0,0-.4-1.226A1.593,1.593,0,0,0,63.73-8.223ZM73.76-2.539h4.814V0H69.6V-1.836l4.688-6.191H69.8v-2.539h8.662v1.777ZM90.264.2a5.432,5.432,0,0,1-3.936-1.45,5.008,5.008,0,0,1-1.5-3.774V-5.3a6.489,6.489,0,0,1,.6-2.861,4.395,4.395,0,0,1,1.753-1.919,5.292,5.292,0,0,1,2.734-.679A4.574,4.574,0,0,1,93.428-9.38a5.43,5.43,0,0,1,1.289,3.853v1.279H88.174a2.372,2.372,0,0,0,.771,1.4,2.3,2.3,0,0,0,1.543.508A2.958,2.958,0,0,0,92.93-3.437l1.5,1.777A4.2,4.2,0,0,1,92.69-.308,5.891,5.891,0,0,1,90.264.2Zm-.371-8.418q-1.445,0-1.719,1.914h3.32v-.254a1.63,1.63,0,0,0-.4-1.226A1.593,1.593,0,0,0,89.893-8.223Zm9.258-2.344.107,1.24a3.633,3.633,0,0,1,3.018-1.436A2.675,2.675,0,0,1,104.98-9.17a3.517,3.517,0,0,1,3.105-1.592q3.213,0,3.3,3.887V0h-3.3V-6.67a2.014,2.014,0,0,0-.273-1.182,1.164,1.164,0,0,0-1-.371,1.559,1.559,0,0,0-1.455.869l.01.137V0h-3.3V-6.65a2.117,2.117,0,0,0-.264-1.2,1.161,1.161,0,0,0-1.006-.371,1.578,1.578,0,0,0-1.445.869V0H96.064V-10.566Zm13.7,5.186a6.236,6.236,0,0,1,.615-2.817,4.4,4.4,0,0,1,1.768-1.9,5.323,5.323,0,0,1,2.705-.664,4.858,4.858,0,0,1,3.74,1.47,5.64,5.64,0,0,1,1.367,4v.117a5.472,5.472,0,0,1-1.372,3.921A4.871,4.871,0,0,1,117.959.2a4.927,4.927,0,0,1-3.623-1.353,5.29,5.29,0,0,1-1.475-3.667Zm3.291.205a3.932,3.932,0,0,0,.459,2.148,1.529,1.529,0,0,0,1.357.684q1.758,0,1.8-2.705v-.332q0-2.842-1.816-2.842-1.65,0-1.787,2.451Zm12.822,2.832a1.464,1.464,0,0,0,1.074-.376,1.379,1.379,0,0,0,.371-1.05H133.5a3.653,3.653,0,0,1-1.245,2.852A4.631,4.631,0,0,1,129.043.2,4.689,4.689,0,0,1,125.41-1.25a5.7,5.7,0,0,1-1.328-4v-.137a6.436,6.436,0,0,1,.591-2.827,4.3,4.3,0,0,1,1.7-1.885,5.081,5.081,0,0,1,2.637-.659,4.573,4.573,0,0,1,3.271,1.143,4.053,4.053,0,0,1,1.211,3.1H130.41a1.807,1.807,0,0,0-.4-1.26,1.382,1.382,0,0,0-1.074-.439q-1.279,0-1.494,1.631a11.508,11.508,0,0,0-.068,1.426,4.52,4.52,0,0,0,.381,2.207A1.319,1.319,0,0,0,128.965-2.344ZM138.359,0h-3.3V-10.566h3.3Zm-3.5-13.291a1.469,1.469,0,0,1,.508-1.152,1.916,1.916,0,0,1,1.318-.449,1.916,1.916,0,0,1,1.318.449,1.469,1.469,0,0,1,.508,1.152,1.469,1.469,0,0,1-.508,1.152,1.916,1.916,0,0,1-1.318.449,1.916,1.916,0,0,1-1.318-.449A1.469,1.469,0,0,1,134.863-13.291Zm5.107,7.91a6.236,6.236,0,0,1,.615-2.817,4.4,4.4,0,0,1,1.768-1.9,5.323,5.323,0,0,1,2.705-.664,4.858,4.858,0,0,1,3.74,1.47,5.64,5.64,0,0,1,1.367,4v.117a5.472,5.472,0,0,1-1.372,3.921A4.871,4.871,0,0,1,145.078.2a4.927,4.927,0,0,1-3.623-1.353,5.29,5.29,0,0,1-1.475-3.667Zm3.291.205a3.932,3.932,0,0,0,.459,2.148,1.529,1.529,0,0,0,1.357.684q1.758,0,1.8-2.705v-.332q0-2.842-1.816-2.842-1.65,0-1.787,2.451Zm11.377-5.391.107,1.24a3.583,3.583,0,0,1,3.018-1.436,3.015,3.015,0,0,1,2.466.986,4.7,4.7,0,0,1,.845,2.969V0h-3.3V-6.67a1.783,1.783,0,0,0-.322-1.177,1.491,1.491,0,0,0-1.172-.376,1.569,1.569,0,0,0-1.436.762V0h-3.291V-10.566ZM168.848,0a3.716,3.716,0,0,1-.312-.947A3.06,3.06,0,0,1,166,.2a3.749,3.749,0,0,1-2.539-.9,2.875,2.875,0,0,1-1.045-2.271,2.955,2.955,0,0,1,1.27-2.6,6.468,6.468,0,0,1,3.691-.879h1.016v-.559q0-1.462-1.26-1.462a1.03,1.03,0,0,0-1.172,1.158h-3.291a2.95,2.95,0,0,1,1.3-2.487,5.479,5.479,0,0,1,3.325-.956,4.8,4.8,0,0,1,3.193.986,3.429,3.429,0,0,1,1.2,2.705v4.678a4.79,4.79,0,0,0,.449,2.227V0Zm-2.061-2.148a1.836,1.836,0,0,0,1.021-.264,1.652,1.652,0,0,0,.581-.6V-4.7h-.957q-1.719,0-1.719,1.543a.942.942,0,0,0,.3.728A1.1,1.1,0,0,0,166.787-2.148ZM176.982,0h-3.3V-15h3.3Z" transform="translate(22743 -10422)" fill="#12263f"/>
    <rect id="Rectángulo_379766" data-name="Rectángulo 379766" width="274" height="40" rx="20" transform="translate(22695 -10370)" fill="#d29de5"/>
    <rect id="Rectángulo_379771" data-name="Rectángulo 379771" width="274" height="40" rx="20" transform="translate(22695 -10326)" fill="#d29de5"/>
    <rect id="Rectángulo_379768" data-name="Rectángulo 379768" width="270" height="40" rx="20" transform="translate(22697 -10282)" fill="#d29de5"/>
    <rect id="Rectángulo_379769" data-name="Rectángulo 379769" width="274" height="40" rx="20" transform="translate(22695 -10414)" fill="#d29de5"/>
    <rect id="Rectángulo_379770" data-name="Rectángulo 379770" width="274" height="40" rx="20" transform="translate(22695 -10236)" fill="#d29de5"/>
    <path id="Trazado_643425" data-name="Trazado 643425" d="M7.438-2.344H3.328L2.547,0H.055L4.289-11.375H6.461L10.719,0H8.227Zm-3.477-1.9H6.8L5.375-8.5Zm7.32-.047a5.094,5.094,0,0,1,.887-3.148,2.877,2.877,0,0,1,2.426-1.172,2.589,2.589,0,0,1,2.039.922V-12H18.9V0H16.859L16.75-.9A2.657,2.657,0,0,1,14.578.156,2.869,2.869,0,0,1,12.184-1.02,5.258,5.258,0,0,1,11.281-4.289Zm2.258.168A3.337,3.337,0,0,0,13.953-2.3a1.349,1.349,0,0,0,1.2.634,1.511,1.511,0,0,0,1.477-.884V-5.889a1.489,1.489,0,0,0-1.461-.884Q13.539-6.773,13.539-4.121ZM25.547,0a2.507,2.507,0,0,1-.227-.758,2.732,2.732,0,0,1-2.133.914,3,3,0,0,1-2.059-.719,2.312,2.312,0,0,1-.816-1.812,2.389,2.389,0,0,1,1-2.062,4.915,4.915,0,0,1,2.879-.727h1.039v-.484a1.393,1.393,0,0,0-.3-.937,1.183,1.183,0,0,0-.949-.352,1.345,1.345,0,0,0-.895.273.929.929,0,0,0-.324.75H20.5a2.268,2.268,0,0,1,.453-1.359,3,3,0,0,1,1.281-.98,4.669,4.669,0,0,1,1.859-.355,3.689,3.689,0,0,1,2.48.785,2.747,2.747,0,0,1,.918,2.207v3.664a4.041,4.041,0,0,0,.336,1.82V0ZM23.68-1.57a1.945,1.945,0,0,0,.922-.223,1.462,1.462,0,0,0,.625-.6V-3.844h-.844q-1.7,0-1.8,1.172l-.008.133a.9.9,0,0,0,.3.7A1.153,1.153,0,0,0,23.68-1.57ZM36.836-4.148a5.07,5.07,0,0,1-.887,3.129A2.843,2.843,0,0,1,33.555.156a2.633,2.633,0,0,1-2.07-.891V3.25H29.227v-11.7H31.32l.078.828a2.654,2.654,0,0,1,2.141-.984,2.862,2.862,0,0,1,2.43,1.156,5.207,5.207,0,0,1,.867,3.188Zm-2.258-.164a3.327,3.327,0,0,0-.418-1.82,1.361,1.361,0,0,0-1.215-.641,1.479,1.479,0,0,0-1.461.813V-2.5a1.5,1.5,0,0,0,1.477.836Q34.578-1.664,34.578-4.312Zm6.359-6.219v2.078h1.445V-6.8H40.938v4.219a1.007,1.007,0,0,0,.18.672.9.9,0,0,0,.688.2,3.6,3.6,0,0,0,.664-.055V-.047a4.648,4.648,0,0,1-1.367.2,2.156,2.156,0,0,1-2.422-2.4V-6.8H37.445V-8.453H38.68v-2.078ZM48.539,0a2.507,2.507,0,0,1-.227-.758A2.732,2.732,0,0,1,46.18.156a3,3,0,0,1-2.059-.719A2.312,2.312,0,0,1,43.3-2.375a2.389,2.389,0,0,1,1-2.062,4.915,4.915,0,0,1,2.879-.727h1.039v-.484a1.393,1.393,0,0,0-.3-.937,1.183,1.183,0,0,0-.949-.352,1.345,1.345,0,0,0-.895.273.929.929,0,0,0-.324.75H43.492a2.268,2.268,0,0,1,.453-1.359,3,3,0,0,1,1.281-.98,4.669,4.669,0,0,1,1.859-.355,3.689,3.689,0,0,1,2.48.785,2.747,2.747,0,0,1,.918,2.207v3.664a4.041,4.041,0,0,0,.336,1.82V0ZM46.672-1.57a1.945,1.945,0,0,0,.922-.223,1.462,1.462,0,0,0,.625-.6V-3.844h-.844q-1.7,0-1.8,1.172l-.008.133a.9.9,0,0,0,.3.7A1.153,1.153,0,0,0,46.672-1.57ZM59.836-4.148A5.119,5.119,0,0,1,58.969-.98,2.872,2.872,0,0,1,56.547.156,2.639,2.639,0,0,1,54.352-.9l-.1.9H52.219V-12h2.258v4.3a2.571,2.571,0,0,1,2.055-.914,2.9,2.9,0,0,1,2.426,1.137,5.126,5.126,0,0,1,.879,3.2Zm-2.258-.164a3.363,3.363,0,0,0-.406-1.871,1.374,1.374,0,0,0-1.211-.59,1.489,1.489,0,0,0-1.484.883v3.336a1.509,1.509,0,0,0,1.5.891,1.394,1.394,0,0,0,1.438-1.078A5.562,5.562,0,0,0,57.578-4.312ZM63.609,0H61.344V-8.453h2.266Zm-2.4-10.641a1.112,1.112,0,0,1,.34-.836,1.277,1.277,0,0,1,.926-.328,1.28,1.28,0,0,1,.922.328,1.105,1.105,0,0,1,.344.836,1.108,1.108,0,0,1-.348.844,1.283,1.283,0,0,1-.918.328,1.283,1.283,0,0,1-.918-.328A1.108,1.108,0,0,1,61.211-10.641ZM67.852,0H65.586V-12h2.266Zm4.242,0H69.828V-8.453h2.266ZM69.7-10.641a1.112,1.112,0,0,1,.34-.836,1.277,1.277,0,0,1,.926-.328,1.28,1.28,0,0,1,.922.328,1.105,1.105,0,0,1,.344.836,1.108,1.108,0,0,1-.348.844,1.283,1.283,0,0,1-.918.328,1.283,1.283,0,0,1-.918-.328A1.108,1.108,0,0,1,69.7-10.641ZM73.6-4.289a5.094,5.094,0,0,1,.887-3.148,2.877,2.877,0,0,1,2.426-1.172,2.589,2.589,0,0,1,2.039.922V-12h2.266V0H79.18L79.07-.9A2.657,2.657,0,0,1,76.9.156,2.869,2.869,0,0,1,74.5-1.02,5.258,5.258,0,0,1,73.6-4.289Zm2.258.168A3.337,3.337,0,0,0,76.273-2.3a1.349,1.349,0,0,0,1.2.634,1.511,1.511,0,0,0,1.477-.884V-5.889a1.489,1.489,0,0,0-1.461-.884Q75.859-6.773,75.859-4.121ZM87.867,0a2.507,2.507,0,0,1-.227-.758,2.732,2.732,0,0,1-2.133.914,3,3,0,0,1-2.059-.719,2.312,2.312,0,0,1-.816-1.812,2.389,2.389,0,0,1,1-2.062,4.915,4.915,0,0,1,2.879-.727h1.039v-.484a1.393,1.393,0,0,0-.3-.937,1.183,1.183,0,0,0-.949-.352,1.345,1.345,0,0,0-.895.273.929.929,0,0,0-.324.75H82.82a2.268,2.268,0,0,1,.453-1.359,3,3,0,0,1,1.281-.98,4.669,4.669,0,0,1,1.859-.355,3.689,3.689,0,0,1,2.48.785,2.747,2.747,0,0,1,.918,2.207v3.664a4.041,4.041,0,0,0,.336,1.82V0ZM86-1.57a1.945,1.945,0,0,0,.922-.223,1.462,1.462,0,0,0,.625-.6V-3.844H86.7q-1.7,0-1.8,1.172l-.008.133a.9.9,0,0,0,.3.7A1.153,1.153,0,0,0,86-1.57Zm5.2-2.719a5.094,5.094,0,0,1,.887-3.148,2.877,2.877,0,0,1,2.426-1.172,2.589,2.589,0,0,1,2.039.922V-12h2.266V0H96.773l-.109-.9A2.657,2.657,0,0,1,94.492.156,2.869,2.869,0,0,1,92.1-1.02,5.258,5.258,0,0,1,91.2-4.289Zm2.258.168A3.337,3.337,0,0,0,93.867-2.3a1.349,1.349,0,0,0,1.2.634,1.511,1.511,0,0,0,1.477-.884V-5.889a1.489,1.489,0,0,0-1.461-.884Q93.453-6.773,93.453-4.121Z" transform="translate(22782 -10344)" fill="#12263f"/>
    <path id="Trazado_643426" data-name="Trazado 643426" d="M5.227-4.164H3.359V0H1.016V-11.375H5.242a4.778,4.778,0,0,1,3.109.9A3.1,3.1,0,0,1,9.445-7.937,3.5,3.5,0,0,1,8.941-6,3.437,3.437,0,0,1,7.414-4.758L9.875-.109V0H7.359Zm-1.867-1.9H5.25a1.936,1.936,0,0,0,1.367-.449A1.606,1.606,0,0,0,7.1-7.75a1.719,1.719,0,0,0-.457-1.266,1.9,1.9,0,0,0-1.4-.461H3.359ZM14.969.156A4.15,4.15,0,0,1,11.941-.984a4.054,4.054,0,0,1-1.168-3.039v-.219a5.106,5.106,0,0,1,.492-2.277A3.612,3.612,0,0,1,12.66-8.066a3.914,3.914,0,0,1,2.059-.543,3.508,3.508,0,0,1,2.73,1.094,4.444,4.444,0,0,1,1,3.1v.922H13.063a2.1,2.1,0,0,0,.66,1.328,2,2,0,0,0,1.395.5,2.437,2.437,0,0,0,2.039-.945l1.109,1.242A3.389,3.389,0,0,1,16.891-.246,4.511,4.511,0,0,1,14.969.156Zm-.258-6.945a1.411,1.411,0,0,0-1.09.455,2.357,2.357,0,0,0-.535,1.3h3.141v-.181a1.681,1.681,0,0,0-.406-1.165A1.456,1.456,0,0,0,14.711-6.789ZM24.3-2.336a.727.727,0,0,0-.41-.652,4.659,4.659,0,0,0-1.316-.426q-3.016-.633-3.016-2.562A2.323,2.323,0,0,1,20.5-7.855a3.766,3.766,0,0,1,2.441-.754,4.053,4.053,0,0,1,2.574.758,2.388,2.388,0,0,1,.965,1.969H24.219a1.092,1.092,0,0,0-.312-.8A1.322,1.322,0,0,0,22.93-7a1.351,1.351,0,0,0-.883.258.814.814,0,0,0-.312.656.7.7,0,0,0,.355.605,3.657,3.657,0,0,0,1.2.4,9.8,9.8,0,0,1,1.422.379A2.336,2.336,0,0,1,26.5-2.43a2.2,2.2,0,0,1-.992,1.871,4.28,4.28,0,0,1-2.562.715,4.47,4.47,0,0,1-1.887-.379,3.166,3.166,0,0,1-1.293-1.039A2.414,2.414,0,0,1,19.3-2.687h2.141a1.179,1.179,0,0,0,.445.922,1.766,1.766,0,0,0,1.109.32,1.635,1.635,0,0,0,.98-.246A.766.766,0,0,0,24.3-2.336ZM35.563-4.148a5.07,5.07,0,0,1-.887,3.129A2.843,2.843,0,0,1,32.281.156a2.633,2.633,0,0,1-2.07-.891V3.25H27.953v-11.7h2.094l.078.828a2.654,2.654,0,0,1,2.141-.984A2.862,2.862,0,0,1,34.7-7.453a5.207,5.207,0,0,1,.867,3.188ZM33.3-4.312a3.327,3.327,0,0,0-.418-1.82,1.361,1.361,0,0,0-1.215-.641,1.478,1.478,0,0,0-1.461.813V-2.5a1.5,1.5,0,0,0,1.477.836Q33.3-1.664,33.3-4.312Zm3.3.008a5.013,5.013,0,0,1,.484-2.242A3.546,3.546,0,0,1,38.488-8.07,4.069,4.069,0,0,1,40.6-8.609a3.849,3.849,0,0,1,2.793,1.047A4.2,4.2,0,0,1,44.6-4.719l.016.578A4.418,4.418,0,0,1,43.531-1.02,3.775,3.775,0,0,1,40.617.156,3.793,3.793,0,0,1,37.7-1.016,4.5,4.5,0,0,1,36.609-4.2Zm2.258.16A3.16,3.16,0,0,0,39.32-2.3a1.5,1.5,0,0,0,1.3.638,1.5,1.5,0,0,0,1.281-.63,3.457,3.457,0,0,0,.461-2.015A3.128,3.128,0,0,0,41.9-6.14a1.5,1.5,0,0,0-1.3-.649,1.474,1.474,0,0,0-1.281.646A3.516,3.516,0,0,0,38.867-4.144Zm9.219-4.309.07.977a2.951,2.951,0,0,1,2.43-1.133,2.453,2.453,0,0,1,2,.789,3.682,3.682,0,0,1,.672,2.359V0H51V-5.406a1.465,1.465,0,0,0-.312-1.043,1.4,1.4,0,0,0-1.039-.324,1.553,1.553,0,0,0-1.43.813V0H45.961V-8.453ZM59.547-2.336a.727.727,0,0,0-.41-.652,4.659,4.659,0,0,0-1.316-.426Q54.8-4.047,54.8-5.977a2.323,2.323,0,0,1,.934-1.879,3.766,3.766,0,0,1,2.441-.754,4.053,4.053,0,0,1,2.574.758,2.388,2.388,0,0,1,.965,1.969H59.461a1.092,1.092,0,0,0-.312-.8A1.322,1.322,0,0,0,58.172-7a1.351,1.351,0,0,0-.883.258.814.814,0,0,0-.312.656.7.7,0,0,0,.355.605,3.657,3.657,0,0,0,1.2.4,9.8,9.8,0,0,1,1.422.379A2.336,2.336,0,0,1,61.742-2.43,2.2,2.2,0,0,1,60.75-.559a4.28,4.28,0,0,1-2.562.715A4.47,4.47,0,0,1,56.3-.223a3.166,3.166,0,0,1-1.293-1.039,2.414,2.414,0,0,1-.469-1.426H56.68a1.179,1.179,0,0,0,.445.922,1.766,1.766,0,0,0,1.109.32,1.635,1.635,0,0,0,.98-.246A.766.766,0,0,0,59.547-2.336ZM68.094,0a2.507,2.507,0,0,1-.227-.758,2.732,2.732,0,0,1-2.133.914,3,3,0,0,1-2.059-.719,2.312,2.312,0,0,1-.816-1.812,2.389,2.389,0,0,1,1-2.062,4.915,4.915,0,0,1,2.879-.727h1.039v-.484a1.393,1.393,0,0,0-.3-.937,1.183,1.183,0,0,0-.949-.352,1.345,1.345,0,0,0-.895.273.929.929,0,0,0-.324.75H63.047A2.268,2.268,0,0,1,63.5-7.273a3,3,0,0,1,1.281-.98,4.669,4.669,0,0,1,1.859-.355,3.689,3.689,0,0,1,2.48.785,2.747,2.747,0,0,1,.918,2.207v3.664a4.041,4.041,0,0,0,.336,1.82V0ZM66.227-1.57a1.945,1.945,0,0,0,.922-.223,1.462,1.462,0,0,0,.625-.6V-3.844H66.93q-1.7,0-1.8,1.172l-.008.133a.9.9,0,0,0,.3.7A1.153,1.153,0,0,0,66.227-1.57ZM79.391-4.148A5.119,5.119,0,0,1,78.523-.98,2.872,2.872,0,0,1,76.1.156,2.639,2.639,0,0,1,73.906-.9l-.1.9H71.773V-12h2.258v4.3a2.571,2.571,0,0,1,2.055-.914,2.9,2.9,0,0,1,2.426,1.137,5.126,5.126,0,0,1,.879,3.2Zm-2.258-.164a3.363,3.363,0,0,0-.406-1.871,1.374,1.374,0,0,0-1.211-.59,1.489,1.489,0,0,0-1.484.883v3.336a1.509,1.509,0,0,0,1.5.891,1.394,1.394,0,0,0,1.438-1.078A5.562,5.562,0,0,0,77.133-4.312ZM83.164,0H80.9V-8.453h2.266Zm-2.4-10.641a1.112,1.112,0,0,1,.34-.836,1.277,1.277,0,0,1,.926-.328,1.28,1.28,0,0,1,.922.328,1.105,1.105,0,0,1,.344.836,1.108,1.108,0,0,1-.348.844,1.283,1.283,0,0,1-.918.328,1.283,1.283,0,0,1-.918-.328A1.108,1.108,0,0,1,80.766-10.641ZM87.406,0H85.141V-12h2.266Zm4.242,0H89.383V-8.453h2.266Zm-2.4-10.641a1.112,1.112,0,0,1,.34-.836,1.277,1.277,0,0,1,.926-.328,1.28,1.28,0,0,1,.922.328,1.105,1.105,0,0,1,.344.836,1.108,1.108,0,0,1-.348.844,1.283,1.283,0,0,1-.918.328A1.283,1.283,0,0,1,89.6-9.8,1.108,1.108,0,0,1,89.25-10.641Zm3.906,6.352a5.094,5.094,0,0,1,.887-3.148,2.877,2.877,0,0,1,2.426-1.172,2.589,2.589,0,0,1,2.039.922V-12h2.266V0H98.734l-.109-.9A2.657,2.657,0,0,1,96.453.156,2.869,2.869,0,0,1,94.059-1.02,5.258,5.258,0,0,1,93.156-4.289Zm2.258.168A3.337,3.337,0,0,0,95.828-2.3a1.349,1.349,0,0,0,1.2.634,1.511,1.511,0,0,0,1.477-.884V-5.889a1.489,1.489,0,0,0-1.461-.884Q95.414-6.773,95.414-4.121ZM107.422,0a2.507,2.507,0,0,1-.227-.758,2.732,2.732,0,0,1-2.133.914A3,3,0,0,1,103-.562a2.312,2.312,0,0,1-.816-1.812,2.389,2.389,0,0,1,1-2.062,4.915,4.915,0,0,1,2.879-.727H107.1v-.484a1.393,1.393,0,0,0-.3-.937,1.183,1.183,0,0,0-.949-.352,1.345,1.345,0,0,0-.895.273.929.929,0,0,0-.324.75h-2.258a2.268,2.268,0,0,1,.453-1.359,3,3,0,0,1,1.281-.98,4.669,4.669,0,0,1,1.859-.355,3.689,3.689,0,0,1,2.48.785,2.747,2.747,0,0,1,.918,2.207v3.664a4.041,4.041,0,0,0,.336,1.82V0Zm-1.867-1.57a1.945,1.945,0,0,0,.922-.223,1.462,1.462,0,0,0,.625-.6V-3.844h-.844q-1.7,0-1.8,1.172l-.008.133a.9.9,0,0,0,.3.7A1.153,1.153,0,0,0,105.555-1.57Zm5.2-2.719a5.094,5.094,0,0,1,.887-3.148,2.877,2.877,0,0,1,2.426-1.172,2.589,2.589,0,0,1,2.039.922V-12h2.266V0h-2.039l-.109-.9A2.657,2.657,0,0,1,114.047.156a2.869,2.869,0,0,1-2.395-1.176A5.258,5.258,0,0,1,110.75-4.289Zm2.258.168a3.337,3.337,0,0,0,.414,1.823,1.349,1.349,0,0,0,1.2.634,1.511,1.511,0,0,0,1.477-.884V-5.889a1.489,1.489,0,0,0-1.461-.884Q113.008-6.773,113.008-4.121ZM127.992.156a4.15,4.15,0,0,1-3.027-1.141A4.054,4.054,0,0,1,123.8-4.023v-.219a5.106,5.106,0,0,1,.492-2.277,3.612,3.612,0,0,1,1.395-1.547,3.914,3.914,0,0,1,2.059-.543,3.508,3.508,0,0,1,2.73,1.094,4.444,4.444,0,0,1,1,3.1v.922h-5.383a2.1,2.1,0,0,0,.66,1.328,2,2,0,0,0,1.395.5,2.437,2.437,0,0,0,2.039-.945l1.109,1.242a3.389,3.389,0,0,1-1.375,1.121A4.511,4.511,0,0,1,127.992.156Zm-.258-6.945a1.411,1.411,0,0,0-1.09.455,2.357,2.357,0,0,0-.535,1.3h3.141v-.181a1.681,1.681,0,0,0-.406-1.165A1.456,1.456,0,0,0,127.734-6.789Zm7.133-1.664.07.945a2.971,2.971,0,0,1,2.43-1.1,2.255,2.255,0,0,1,2.242,1.289,2.9,2.9,0,0,1,2.539-1.289,2.521,2.521,0,0,1,2.047.8,3.681,3.681,0,0,1,.672,2.41V0H142.6V-5.391a1.61,1.61,0,0,0-.281-1.051,1.246,1.246,0,0,0-.992-.332,1.409,1.409,0,0,0-1.406.969L139.93,0h-2.258V-5.383a1.59,1.59,0,0,0-.289-1.062,1.259,1.259,0,0,0-.984-.328,1.463,1.463,0,0,0-1.391.8V0H132.75V-8.453ZM146.25-4.3a5.013,5.013,0,0,1,.484-2.242,3.546,3.546,0,0,1,1.395-1.523,4.069,4.069,0,0,1,2.113-.539,3.849,3.849,0,0,1,2.793,1.047,4.2,4.2,0,0,1,1.207,2.844l.016.578a4.418,4.418,0,0,1-1.086,3.121A3.775,3.775,0,0,1,150.258.156a3.793,3.793,0,0,1-2.918-1.172A4.5,4.5,0,0,1,146.25-4.2Zm2.258.16a3.16,3.16,0,0,0,.453,1.843,1.5,1.5,0,0,0,1.3.638,1.5,1.5,0,0,0,1.281-.63A3.457,3.457,0,0,0,152-4.309a3.128,3.128,0,0,0-.461-1.831,1.5,1.5,0,0,0-1.3-.649,1.474,1.474,0,0,0-1.281.646A3.516,3.516,0,0,0,148.508-4.144Zm10.656,2.48a1.481,1.481,0,0,0,1.016-.344,1.2,1.2,0,0,0,.406-.914H162.7a2.9,2.9,0,0,1-.469,1.574,3.093,3.093,0,0,1-1.262,1.109,3.949,3.949,0,0,1-1.77.395A3.67,3.67,0,0,1,156.344-1,4.56,4.56,0,0,1,155.3-4.18v-.148a4.508,4.508,0,0,1,1.039-3.117,3.627,3.627,0,0,1,2.852-1.164,3.555,3.555,0,0,1,2.543.9,3.2,3.2,0,0,1,.973,2.4h-2.117a1.551,1.551,0,0,0-.406-1.072,1.355,1.355,0,0,0-1.031-.412,1.36,1.36,0,0,0-1.191.575,3.333,3.333,0,0,0-.4,1.866v.235a3.375,3.375,0,0,0,.4,1.878A1.377,1.377,0,0,0,159.164-1.664ZM166.375,0h-2.266V-8.453h2.266Zm-2.4-10.641a1.112,1.112,0,0,1,.34-.836,1.277,1.277,0,0,1,.926-.328,1.28,1.28,0,0,1,.922.328,1.105,1.105,0,0,1,.344.836,1.109,1.109,0,0,1-.348.844,1.283,1.283,0,0,1-.918.328,1.283,1.283,0,0,1-.918-.328A1.109,1.109,0,0,1,163.977-10.641ZM167.883-4.3a5.013,5.013,0,0,1,.484-2.242,3.546,3.546,0,0,1,1.395-1.523,4.069,4.069,0,0,1,2.113-.539,3.849,3.849,0,0,1,2.793,1.047,4.2,4.2,0,0,1,1.207,2.844l.016.578A4.418,4.418,0,0,1,174.8-1.02,3.775,3.775,0,0,1,171.891.156a3.793,3.793,0,0,1-2.918-1.172,4.5,4.5,0,0,1-1.09-3.187Zm2.258.16a3.16,3.16,0,0,0,.453,1.843,1.5,1.5,0,0,0,1.3.638,1.5,1.5,0,0,0,1.281-.63,3.457,3.457,0,0,0,.461-2.015,3.128,3.128,0,0,0-.461-1.831,1.5,1.5,0,0,0-1.3-.649,1.474,1.474,0,0,0-1.281.646A3.516,3.516,0,0,0,170.141-4.144Zm9.219-4.309.07.977a2.951,2.951,0,0,1,2.43-1.133,2.453,2.453,0,0,1,2,.789,3.682,3.682,0,0,1,.672,2.359V0h-2.258V-5.406a1.465,1.465,0,0,0-.312-1.043,1.4,1.4,0,0,0-1.039-.324,1.553,1.553,0,0,0-1.43.813V0h-2.258V-8.453ZM191.141,0a2.507,2.507,0,0,1-.227-.758,2.732,2.732,0,0,1-2.133.914,3,3,0,0,1-2.059-.719,2.312,2.312,0,0,1-.816-1.812,2.389,2.389,0,0,1,1-2.062,4.915,4.915,0,0,1,2.879-.727h1.039v-.484a1.393,1.393,0,0,0-.3-.937,1.183,1.183,0,0,0-.949-.352,1.345,1.345,0,0,0-.895.273.929.929,0,0,0-.324.75h-2.258a2.268,2.268,0,0,1,.453-1.359,3,3,0,0,1,1.281-.98,4.669,4.669,0,0,1,1.859-.355,3.689,3.689,0,0,1,2.48.785,2.747,2.747,0,0,1,.918,2.207v3.664a4.041,4.041,0,0,0,.336,1.82V0Zm-1.867-1.57a1.945,1.945,0,0,0,.922-.223,1.462,1.462,0,0,0,.625-.6V-3.844h-.844q-1.7,0-1.8,1.172l-.008.133a.9.9,0,0,0,.3.7A1.153,1.153,0,0,0,189.273-1.57ZM197.2,0h-2.266V-12H197.2Z" transform="translate(22733 -10301.5)" fill="#12263f"/>
    <path id="Trazado_643427" data-name="Trazado 643427" d="M7.438-2.344H3.328L2.547,0H.055L4.289-11.375H6.461L10.719,0H8.227Zm-3.477-1.9H6.8L5.375-8.5ZM16.609-.859A2.831,2.831,0,0,1,14.3.156a2.67,2.67,0,0,1-2.074-.781,3.335,3.335,0,0,1-.73-2.289V-8.453H13.75v5.467q0,1.322,1.2,1.322a1.63,1.63,0,0,0,1.578-.8V-8.453H18.8V0H16.672ZM23.2-10.531v2.078h1.445V-6.8H23.2v4.219a1.007,1.007,0,0,0,.18.672.9.9,0,0,0,.688.2,3.6,3.6,0,0,0,.664-.055V-.047a4.648,4.648,0,0,1-1.367.2,2.156,2.156,0,0,1-2.422-2.4V-6.8H19.711V-8.453h1.234v-2.078ZM25.32-4.3A5.013,5.013,0,0,1,25.8-6.547,3.546,3.546,0,0,1,27.2-8.07a4.069,4.069,0,0,1,2.113-.539,3.849,3.849,0,0,1,2.793,1.047,4.2,4.2,0,0,1,1.207,2.844l.016.578A4.418,4.418,0,0,1,32.242-1.02,3.775,3.775,0,0,1,29.328.156,3.793,3.793,0,0,1,26.41-1.016,4.5,4.5,0,0,1,25.32-4.2Zm2.258.16A3.16,3.16,0,0,0,28.031-2.3a1.5,1.5,0,0,0,1.3.638,1.5,1.5,0,0,0,1.281-.63,3.457,3.457,0,0,0,.461-2.015,3.128,3.128,0,0,0-.461-1.831,1.5,1.5,0,0,0-1.3-.649,1.474,1.474,0,0,0-1.281.646A3.516,3.516,0,0,0,27.578-4.144Zm10.656,2.48a1.481,1.481,0,0,0,1.016-.344,1.2,1.2,0,0,0,.406-.914h2.117A2.9,2.9,0,0,1,41.3-1.348,3.093,3.093,0,0,1,40.043-.238a3.949,3.949,0,0,1-1.77.395A3.67,3.67,0,0,1,35.414-1,4.56,4.56,0,0,1,34.367-4.18v-.148a4.508,4.508,0,0,1,1.039-3.117,3.627,3.627,0,0,1,2.852-1.164,3.555,3.555,0,0,1,2.543.9,3.2,3.2,0,0,1,.973,2.4H39.656a1.551,1.551,0,0,0-.406-1.072,1.354,1.354,0,0,0-1.031-.412,1.36,1.36,0,0,0-1.191.575,3.333,3.333,0,0,0-.4,1.866v.235a3.375,3.375,0,0,0,.4,1.878A1.377,1.377,0,0,0,38.234-1.664ZM42.711-4.3A5.013,5.013,0,0,1,43.2-6.547,3.546,3.546,0,0,1,44.59-8.07,4.069,4.069,0,0,1,46.7-8.609,3.849,3.849,0,0,1,49.5-7.562,4.2,4.2,0,0,1,50.7-4.719l.016.578A4.418,4.418,0,0,1,49.633-1.02,3.775,3.775,0,0,1,46.719.156,3.793,3.793,0,0,1,43.8-1.016,4.5,4.5,0,0,1,42.711-4.2Zm2.258.16A3.16,3.16,0,0,0,45.422-2.3a1.5,1.5,0,0,0,1.3.638A1.5,1.5,0,0,0,48-2.294a3.457,3.457,0,0,0,.461-2.015A3.128,3.128,0,0,0,48-6.14a1.5,1.5,0,0,0-1.3-.649,1.474,1.474,0,0,0-1.281.646A3.516,3.516,0,0,0,44.969-4.144Zm9.219-4.309.07.977a2.951,2.951,0,0,1,2.43-1.133,2.453,2.453,0,0,1,2,.789,3.682,3.682,0,0,1,.672,2.359V0H57.1V-5.406a1.465,1.465,0,0,0-.312-1.043,1.4,1.4,0,0,0-1.039-.324,1.553,1.553,0,0,0-1.43.813V0H52.063V-8.453Zm10.4,6.789A1.481,1.481,0,0,0,65.6-2.008a1.2,1.2,0,0,0,.406-.914h2.117a2.9,2.9,0,0,1-.469,1.574A3.093,3.093,0,0,1,66.395-.238a3.949,3.949,0,0,1-1.77.395A3.67,3.67,0,0,1,61.766-1,4.56,4.56,0,0,1,60.719-4.18v-.148a4.508,4.508,0,0,1,1.039-3.117,3.627,3.627,0,0,1,2.852-1.164,3.555,3.555,0,0,1,2.543.9,3.2,3.2,0,0,1,.973,2.4H66.008A1.551,1.551,0,0,0,65.6-6.377a1.354,1.354,0,0,0-1.031-.412,1.36,1.36,0,0,0-1.191.575,3.333,3.333,0,0,0-.4,1.866v.235a3.375,3.375,0,0,0,.4,1.878A1.377,1.377,0,0,0,64.586-1.664ZM71.8,0H69.531V-8.453H71.8ZM69.4-10.641a1.112,1.112,0,0,1,.34-.836,1.277,1.277,0,0,1,.926-.328,1.28,1.28,0,0,1,.922.328,1.105,1.105,0,0,1,.344.836,1.108,1.108,0,0,1-.348.844,1.283,1.283,0,0,1-.918.328,1.283,1.283,0,0,1-.918-.328A1.108,1.108,0,0,1,69.4-10.641ZM77.547.156A4.15,4.15,0,0,1,74.52-.984a4.054,4.054,0,0,1-1.168-3.039v-.219a5.106,5.106,0,0,1,.492-2.277,3.612,3.612,0,0,1,1.395-1.547A3.914,3.914,0,0,1,77.3-8.609a3.508,3.508,0,0,1,2.73,1.094,4.444,4.444,0,0,1,1,3.1v.922H75.641a2.1,2.1,0,0,0,.66,1.328,2,2,0,0,0,1.395.5,2.437,2.437,0,0,0,2.039-.945l1.109,1.242A3.389,3.389,0,0,1,79.469-.246,4.511,4.511,0,0,1,77.547.156Zm-.258-6.945a1.411,1.411,0,0,0-1.09.455,2.357,2.357,0,0,0-.535,1.3H78.8v-.181A1.681,1.681,0,0,0,78.4-6.377,1.456,1.456,0,0,0,77.289-6.789Zm7.094-1.664.07.977a2.951,2.951,0,0,1,2.43-1.133,2.453,2.453,0,0,1,2,.789,3.682,3.682,0,0,1,.672,2.359V0H87.3V-5.406a1.465,1.465,0,0,0-.312-1.043,1.4,1.4,0,0,0-1.039-.324,1.553,1.553,0,0,0-1.43.813V0H82.258V-8.453Zm10.4,6.789A1.481,1.481,0,0,0,95.8-2.008a1.2,1.2,0,0,0,.406-.914H98.32a2.9,2.9,0,0,1-.469,1.574A3.093,3.093,0,0,1,96.59-.238a3.949,3.949,0,0,1-1.77.395A3.67,3.67,0,0,1,91.961-1,4.56,4.56,0,0,1,90.914-4.18v-.148a4.508,4.508,0,0,1,1.039-3.117A3.627,3.627,0,0,1,94.8-8.609a3.555,3.555,0,0,1,2.543.9,3.2,3.2,0,0,1,.973,2.4H96.2A1.551,1.551,0,0,0,95.8-6.377a1.354,1.354,0,0,0-1.031-.412,1.36,1.36,0,0,0-1.191.575,3.333,3.333,0,0,0-.4,1.866v.235a3.375,3.375,0,0,0,.4,1.878A1.377,1.377,0,0,0,94.781-1.664ZM101.992,0H99.727V-8.453h2.266Zm-2.4-10.641a1.112,1.112,0,0,1,.34-.836,1.277,1.277,0,0,1,.926-.328,1.28,1.28,0,0,1,.922.328,1.105,1.105,0,0,1,.344.836,1.108,1.108,0,0,1-.348.844,1.283,1.283,0,0,1-.918.328,1.283,1.283,0,0,1-.918-.328A1.108,1.108,0,0,1,99.594-10.641ZM108.75,0a2.507,2.507,0,0,1-.227-.758,2.732,2.732,0,0,1-2.133.914,3,3,0,0,1-2.059-.719,2.312,2.312,0,0,1-.816-1.812,2.389,2.389,0,0,1,1-2.062,4.915,4.915,0,0,1,2.879-.727h1.039v-.484a1.393,1.393,0,0,0-.3-.937,1.183,1.183,0,0,0-.949-.352,1.345,1.345,0,0,0-.895.273.929.929,0,0,0-.324.75H103.7a2.268,2.268,0,0,1,.453-1.359,3,3,0,0,1,1.281-.98,4.669,4.669,0,0,1,1.859-.355,3.689,3.689,0,0,1,2.48.785,2.747,2.747,0,0,1,.918,2.207v3.664a4.041,4.041,0,0,0,.336,1.82V0Zm-1.867-1.57a1.945,1.945,0,0,0,.922-.223,1.462,1.462,0,0,0,.625-.6V-3.844h-.844q-1.7,0-1.8,1.172l-.008.133a.9.9,0,0,0,.3.7A1.153,1.153,0,0,0,106.883-1.57Z" transform="translate(22776 -10256)" fill="#12263f"/>
    <path id="Trazado_643424" data-name="Trazado 643424" d="M7.438-2.344H3.328L2.547,0H.055L4.289-11.375H6.461L10.719,0H8.227Zm-3.477-1.9H6.8L5.375-8.5ZM16.609-.859A2.831,2.831,0,0,1,14.3.156a2.67,2.67,0,0,1-2.074-.781,3.335,3.335,0,0,1-.73-2.289V-8.453H13.75v5.467q0,1.322,1.2,1.322a1.63,1.63,0,0,0,1.578-.8V-8.453H18.8V0H16.672ZM23.2-10.531v2.078h1.445V-6.8H23.2v4.219a1.007,1.007,0,0,0,.18.672.9.9,0,0,0,.688.2,3.6,3.6,0,0,0,.664-.055V-.047a4.648,4.648,0,0,1-1.367.2,2.156,2.156,0,0,1-2.422-2.4V-6.8H19.711V-8.453h1.234v-2.078ZM25.32-4.3A5.013,5.013,0,0,1,25.8-6.547,3.546,3.546,0,0,1,27.2-8.07a4.069,4.069,0,0,1,2.113-.539,3.849,3.849,0,0,1,2.793,1.047,4.2,4.2,0,0,1,1.207,2.844l.016.578A4.418,4.418,0,0,1,32.242-1.02,3.775,3.775,0,0,1,29.328.156,3.793,3.793,0,0,1,26.41-1.016,4.5,4.5,0,0,1,25.32-4.2Zm2.258.16A3.16,3.16,0,0,0,28.031-2.3a1.5,1.5,0,0,0,1.3.638,1.5,1.5,0,0,0,1.281-.63,3.457,3.457,0,0,0,.461-2.015,3.128,3.128,0,0,0-.461-1.831,1.5,1.5,0,0,0-1.3-.649,1.474,1.474,0,0,0-1.281.646A3.516,3.516,0,0,0,27.578-4.144Zm10.656,2.48a1.481,1.481,0,0,0,1.016-.344,1.2,1.2,0,0,0,.406-.914h2.117A2.9,2.9,0,0,1,41.3-1.348,3.093,3.093,0,0,1,40.043-.238a3.949,3.949,0,0,1-1.77.395A3.67,3.67,0,0,1,35.414-1,4.56,4.56,0,0,1,34.367-4.18v-.148a4.508,4.508,0,0,1,1.039-3.117,3.627,3.627,0,0,1,2.852-1.164,3.555,3.555,0,0,1,2.543.9,3.2,3.2,0,0,1,.973,2.4H39.656a1.551,1.551,0,0,0-.406-1.072,1.354,1.354,0,0,0-1.031-.412,1.36,1.36,0,0,0-1.191.575,3.333,3.333,0,0,0-.4,1.866v.235a3.375,3.375,0,0,0,.4,1.878A1.377,1.377,0,0,0,38.234-1.664ZM42.711-4.3A5.013,5.013,0,0,1,43.2-6.547,3.546,3.546,0,0,1,44.59-8.07,4.069,4.069,0,0,1,46.7-8.609,3.849,3.849,0,0,1,49.5-7.562,4.2,4.2,0,0,1,50.7-4.719l.016.578A4.418,4.418,0,0,1,49.633-1.02,3.775,3.775,0,0,1,46.719.156,3.793,3.793,0,0,1,43.8-1.016,4.5,4.5,0,0,1,42.711-4.2Zm2.258.16A3.16,3.16,0,0,0,45.422-2.3a1.5,1.5,0,0,0,1.3.638A1.5,1.5,0,0,0,48-2.294a3.457,3.457,0,0,0,.461-2.015A3.128,3.128,0,0,0,48-6.14a1.5,1.5,0,0,0-1.3-.649,1.474,1.474,0,0,0-1.281.646A3.516,3.516,0,0,0,44.969-4.144Zm9.219-4.309.07.977a2.951,2.951,0,0,1,2.43-1.133,2.453,2.453,0,0,1,2,.789,3.682,3.682,0,0,1,.672,2.359V0H57.1V-5.406a1.465,1.465,0,0,0-.312-1.043,1.4,1.4,0,0,0-1.039-.324,1.553,1.553,0,0,0-1.43.813V0H52.063V-8.453Zm9.586-2.078v2.078h1.445V-6.8H63.773v4.219a1.007,1.007,0,0,0,.18.672.9.9,0,0,0,.688.2,3.6,3.6,0,0,0,.664-.055V-.047a4.648,4.648,0,0,1-1.367.2,2.156,2.156,0,0,1-2.422-2.4V-6.8H60.281V-8.453h1.234v-2.078Zm7.453,4.2a6.134,6.134,0,0,0-.812-.062,1.654,1.654,0,0,0-1.68.867V0H66.477V-8.453h2.133l.063,1.008a2.092,2.092,0,0,1,1.883-1.164,2.366,2.366,0,0,1,.7.1ZM71.68-4.3a5.013,5.013,0,0,1,.484-2.242A3.546,3.546,0,0,1,73.559-8.07a4.069,4.069,0,0,1,2.113-.539,3.849,3.849,0,0,1,2.793,1.047,4.2,4.2,0,0,1,1.207,2.844l.016.578A4.418,4.418,0,0,1,78.6-1.02,3.775,3.775,0,0,1,75.688.156,3.793,3.793,0,0,1,72.77-1.016,4.5,4.5,0,0,1,71.68-4.2Zm2.258.16A3.16,3.16,0,0,0,74.391-2.3a1.5,1.5,0,0,0,1.3.638,1.5,1.5,0,0,0,1.281-.63,3.457,3.457,0,0,0,.461-2.015,3.128,3.128,0,0,0-.461-1.831,1.5,1.5,0,0,0-1.3-.649,1.474,1.474,0,0,0-1.281.646A3.516,3.516,0,0,0,73.938-4.144ZM83.461,0H81.2V-12h2.266Z" transform="translate(22790 -10388)" fill="#12263f"/>
    <path id="Trazado_643428" data-name="Trazado 643428" d="M7.859-4.93h-4.5v3.047H8.641V0H1.016V-11.375H8.625v1.9H3.359v2.711h4.5Zm4.125-3.523.07.945a2.971,2.971,0,0,1,2.43-1.1A2.255,2.255,0,0,1,16.727-7.32a2.9,2.9,0,0,1,2.539-1.289,2.521,2.521,0,0,1,2.047.8,3.681,3.681,0,0,1,.672,2.41V0H19.719V-5.391a1.61,1.61,0,0,0-.281-1.051,1.246,1.246,0,0,0-.992-.332,1.409,1.409,0,0,0-1.406.969L17.047,0H14.789V-5.383A1.59,1.59,0,0,0,14.5-6.445a1.259,1.259,0,0,0-.984-.328,1.463,1.463,0,0,0-1.391.8V0H9.867V-8.453Zm19.344,4.3a5.07,5.07,0,0,1-.887,3.129A2.843,2.843,0,0,1,28.047.156a2.633,2.633,0,0,1-2.07-.891V3.25H23.719v-11.7h2.094l.078.828a2.654,2.654,0,0,1,2.141-.984,2.862,2.862,0,0,1,2.43,1.156,5.207,5.207,0,0,1,.867,3.188ZM29.07-4.312a3.327,3.327,0,0,0-.418-1.82,1.361,1.361,0,0,0-1.215-.641,1.478,1.478,0,0,0-1.461.813V-2.5a1.5,1.5,0,0,0,1.477.836Q29.07-1.664,29.07-4.312ZM37.625,0A2.507,2.507,0,0,1,37.4-.758a2.732,2.732,0,0,1-2.133.914,3,3,0,0,1-2.059-.719,2.312,2.312,0,0,1-.816-1.812,2.389,2.389,0,0,1,1-2.062,4.915,4.915,0,0,1,2.879-.727H37.3v-.484a1.393,1.393,0,0,0-.3-.937,1.183,1.183,0,0,0-.949-.352,1.345,1.345,0,0,0-.895.273.929.929,0,0,0-.324.75H32.578a2.268,2.268,0,0,1,.453-1.359,3,3,0,0,1,1.281-.98,4.669,4.669,0,0,1,1.859-.355,3.689,3.689,0,0,1,2.48.785,2.747,2.747,0,0,1,.918,2.207v3.664a4.041,4.041,0,0,0,.336,1.82V0ZM35.758-1.57a1.945,1.945,0,0,0,.922-.223,1.462,1.462,0,0,0,.625-.6V-3.844h-.844q-1.7,0-1.8,1.172l-.008.133a.9.9,0,0,0,.3.7A1.153,1.153,0,0,0,35.758-1.57Zm8.25-8.961v2.078h1.445V-6.8H44.008v4.219a1.007,1.007,0,0,0,.18.672.9.9,0,0,0,.688.2,3.6,3.6,0,0,0,.664-.055V-.047a4.648,4.648,0,0,1-1.367.2,2.156,2.156,0,0,1-2.422-2.4V-6.8H40.516V-8.453H41.75v-2.078ZM49.094,0H46.828V-8.453h2.266ZM46.7-10.641a1.112,1.112,0,0,1,.34-.836,1.277,1.277,0,0,1,.926-.328,1.28,1.28,0,0,1,.922.328,1.105,1.105,0,0,1,.344.836,1.108,1.108,0,0,1-.348.844,1.283,1.283,0,0,1-.918.328,1.283,1.283,0,0,1-.918-.328A1.108,1.108,0,0,1,46.7-10.641ZM55.852,0a2.507,2.507,0,0,1-.227-.758,2.732,2.732,0,0,1-2.133.914,3,3,0,0,1-2.059-.719,2.312,2.312,0,0,1-.816-1.812,2.389,2.389,0,0,1,1-2.062,4.915,4.915,0,0,1,2.879-.727h1.039v-.484a1.393,1.393,0,0,0-.3-.937,1.183,1.183,0,0,0-.949-.352,1.345,1.345,0,0,0-.895.273.929.929,0,0,0-.324.75H50.8a2.268,2.268,0,0,1,.453-1.359,3,3,0,0,1,1.281-.98A4.669,4.669,0,0,1,54.4-8.609a3.689,3.689,0,0,1,2.48.785A2.747,2.747,0,0,1,57.8-5.617v3.664a4.041,4.041,0,0,0,.336,1.82V0ZM53.984-1.57a1.945,1.945,0,0,0,.922-.223,1.462,1.462,0,0,0,.625-.6V-3.844h-.844q-1.7,0-1.8,1.172l-.008.133a.9.9,0,0,0,.3.7A1.153,1.153,0,0,0,53.984-1.57Z" transform="translate(22802 -10210)" fill="#12263f"/>
    <circle id="Elipse_5927" data-name="Elipse 5927" cx="11.5" cy="11.5" r="11.5" transform="translate(22707 -10227)" fill="#fff"/>
    <circle id="Elipse_5928" data-name="Elipse 5928" cx="11.5" cy="11.5" r="11.5" transform="translate(22707 -10275)" fill="#fff"/>
    <circle id="Elipse_5929" data-name="Elipse 5929" cx="11.5" cy="11.5" r="11.5" transform="translate(22707 -10316)" fill="#fff"/>
    <circle id="Elipse_5930" data-name="Elipse 5930" cx="11.5" cy="11.5" r="11.5" transform="translate(22707 -10360)" fill="#fff"/>
    <circle id="Elipse_5931" data-name="Elipse 5931" cx="11.5" cy="11.5" r="11.5" transform="translate(22707 -10404)" fill="#fff"/>
    <circle id="Elipse_5922" data-name="Elipse 5922" cx="6" cy="6" r="6" transform="translate(22679 -10435)" fill="#fff"/>
    <path id="Trazado_643314" data-name="Trazado 643314" d="M23421-10138h33" transform="translate(-736 -124)" fill="none" stroke="#fff" stroke-width="3"/>
    <path id="Trazado_643318" data-name="Trazado 643318" d="M23454-10138h-33v-213" transform="translate(-736 -78)" fill="none" stroke="#fff" stroke-width="3"/>
    <path id="Trazado_643315" data-name="Trazado 643315" d="M23421-10138h33" transform="translate(-736 -166)" fill="none" stroke="#fff" stroke-width="3"/>
    <path id="Trazado_643316" data-name="Trazado 643316" d="M23421-10138h33" transform="translate(-736 -210)" fill="none" stroke="#fff" stroke-width="3"/>
    <path id="Trazado_643317" data-name="Trazado 643317" d="M23421-10138h33" transform="translate(-736 -254)" fill="none" stroke="#fff" stroke-width="3"/>
  </g>
</svg>
