<svg xmlns="http://www.w3.org/2000/svg" xmlns:xlink="http://www.w3.org/1999/xlink" width="124.417" height="124.418" viewBox="0 0 124.417 124.418">
  <defs>
    <clipPath id="clip-path">
      <rect id="Rectángulo_379471" data-name="Rectángulo 379471" width="115" height="115" transform="translate(389.246 2670.246)" fill="#fff" stroke="#707070" stroke-width="1"/>
    </clipPath>
    <linearGradient id="linear-gradient" x1="0.989" y1="1.001" x2="0.081" y2="0.049" gradientUnits="objectBoundingBox">
      <stop offset="0" stop-color="#8c50af"/>
      <stop offset="1" stop-color="#fbe3b1"/>
    </linearGradient>
    <clipPath id="clip-path-2">
      <rect id="Rectángulo_379489" data-name="Rectángulo 379489" width="84" height="84" transform="translate(399 1987)" fill="#fff" stroke="#707070" stroke-width="1"/>
    </clipPath>
    <clipPath id="clip-path-3">
      <rect id="Rectángulo_379490" data-name="Rectángulo 379490" width="74.86" height="74.546" fill="#543f5c"/>
    </clipPath>
  </defs>
  <g id="Grupo_1075439" data-name="Grupo 1075439" transform="translate(-2114.537 9664.857)">
    <g id="Enmascarar_grupo_1074684" data-name="Enmascarar grupo 1074684" transform="translate(1730.29 -12330.102)" clip-path="url(#clip-path)">
      <rect id="Imagen_30" data-name="Imagen 30" width="128.611" height="124.518" transform="translate(382.686 2667.283)" fill="#fff"/>
    </g>
    <path id="Sustracción_213" data-name="Sustracción 213" d="M113.2,113.2H0V0H113.2V113.2ZM6.49,6.49V106.714H106.713V6.49Z" transform="matrix(-0.995, -0.105, 0.105, -0.995, 2227.121, -9540.439)" fill="url(#linear-gradient)"/>
    <g id="Enmascarar_grupo_1074690" data-name="Enmascarar grupo 1074690" transform="translate(1736.208 -11630.855)" clip-path="url(#clip-path-2)">
      <g id="Grupo_1075077" data-name="Grupo 1075077" transform="translate(404 1992)">
        <g id="Grupo_1075076" data-name="Grupo 1075076" clip-path="url(#clip-path-3)">
          <path id="Trazado_642248" data-name="Trazado 642248" d="M21.184,94.748c.1.05.191.1.285.135a15.884,15.884,0,0,1,10.14,10.455,21.053,21.053,0,0,1,.631,2.95c.172,1-.508,1.355-1.2,1.478a2.561,2.561,0,0,1-.447.017q-14.365,0-28.73,0a4.33,4.33,0,0,1-.686-.045A1.241,1.241,0,0,1,.031,108.2a23.413,23.413,0,0,1,.8-3.34,15.894,15.894,0,0,1,9.014-9.6c.2-.087.395-.187.6-.261s.409-.12.688-.2a8.762,8.762,0,0,1-3.763-7.9,8.437,8.437,0,0,1,3.526-6.3A8.751,8.751,0,1,1,21.184,94.748m-5.063-.8a6.379,6.379,0,1,0-6.386-6.482,6.361,6.361,0,0,0,6.386,6.482m13.606,13.412a13.648,13.648,0,0,0-3.948-7.163,13.948,13.948,0,0,0-6.9-3.595c.111.284.223.533.307.792.282.872.552,1.749.83,2.623q.436,1.376.876,2.75a1.425,1.425,0,0,1-.34,1.523c-.623.66-1.218,1.346-1.822,2.024-.294.33-.581.666-.912,1.046ZM13.387,96.587c-.361.1-.643.191-.927.267a13.583,13.583,0,0,0-8.215,6.181,15.579,15.579,0,0,0-1.613,3.935c-.11.375-.095.406.314.406h11.1c.12,0,.241-.011.449-.022-.406-.459-.759-.861-1.114-1.261-.573-.644-1.152-1.282-1.719-1.932a1.177,1.177,0,0,1-.325-1.173c.378-1.191.766-2.379,1.147-3.569.293-.916.582-1.834.9-2.832m2.783-.477a2.794,2.794,0,0,0-.283.469q-.988,3-1.961,6.012a.683.683,0,0,0,.171.782c.255.247.465.538.7.8.45.5.905,1,1.365,1.5.71-.8,1.387-1.579,2.086-2.338a.555.555,0,0,0,.148-.616c-.653-2.029-1.3-4.061-1.949-6.09a3.834,3.834,0,0,0-.278-.525" transform="translate(0 -56.997)" fill="#543f5c"/>
          <path id="Trazado_642249" data-name="Trazado 642249" d="M129.735,60.585h3.687c.517,0,1.035-.01,1.552,0a1.349,1.349,0,0,1,1.362.958c.2.818-.438,1.517-1.409,1.523-1.587.008-3.173,0-4.76,0h-.437c0,.165,0,.309,0,.454q0,11.468.009,22.936c0,.861,0,.859.869.857q2.88-.006,5.76-.009a1.561,1.561,0,0,1,1.177.384,1.145,1.145,0,0,1-.439,1.922,2.792,2.792,0,0,1-.815.11c-2.4,0-4.806.011-7.208-.012-1.358-.013-1.716-.393-1.716-1.746q0-12.227,0-24.454v-.443h-.407c-1.564,0-3.127.008-4.691,0a1.393,1.393,0,0,1-1.391-.772,1.084,1.084,0,0,1,.439-1.429,2.534,2.534,0,0,1,1.047-.268c1.528-.029,3.058-.012,4.587-.012h.419c0-.154,0-.276,0-.4q-.009-11.658-.017-23.316,0-.759.02-1.517a1.258,1.258,0,0,1,1.39-1.394q3.88-.013,7.76,0a1.279,1.279,0,0,1,1.226.616,1.142,1.142,0,0,1-.822,1.734,4.2,4.2,0,0,1-.619.033c-2.081-.008-4.162-.012-6.242-.037-.318,0-.324.146-.324.377q0,5.139-.006,10.278,0,6.571,0,13.142v.483" transform="translate(-87.341 -24.556)" fill="#543f5c"/>
          <path id="Trazado_642250" data-name="Trazado 642250" d="M190.492,92.265c.166-.437.3-.851.479-1.248a1.163,1.163,0,0,1,1.144-.735c.966,0,1.931-.006,2.9,0a1.161,1.161,0,0,1,1.135.749c.148.348.268.709.43,1.05a.7.7,0,0,0,.315.317c.449.2.915.367,1.368.562a.943.943,0,0,0,.859-.03c.265-.136.543-.247.818-.362a1.024,1.024,0,0,1,1.157.191c.792.751,1.576,1.512,2.328,2.3a1.125,1.125,0,0,1,.122,1.239c-.128.332-.3.648-.411.984a.774.774,0,0,0,.017.476c.177.484.4.951.574,1.436a.58.58,0,0,0,.417.4c.263.081.516.191.776.281a1.379,1.379,0,0,1,.995,1.381c.017.885.014,1.771,0,2.656a1.209,1.209,0,0,1-.914,1.273,2.2,2.2,0,0,0-1.62,1.577,1.934,1.934,0,0,0,.048,1.787,1.318,1.318,0,0,1-.342,1.871c-.556.549-1.114,1.1-1.657,1.66a1.305,1.305,0,0,1-1.755.353,1.761,1.761,0,0,0-2.023,0,.425.425,0,0,1-.16.063c-.707.112-1,.6-1.2,1.229a1.3,1.3,0,0,1-1.531,1.117c-.839,0-1.679-.012-2.518,0a1.276,1.276,0,0,1-1.333-.878c-.112-.289-.2-.588-.33-.867a.734.734,0,0,0-.311-.342c-.478-.222-.977-.4-1.458-.614a.743.743,0,0,0-.686,0c-.33.159-.673.292-1.014.427a.949.949,0,0,1-1.059-.193q-1.167-1.123-2.294-2.287a.957.957,0,0,1-.184-1.259,2.185,2.185,0,0,0,.019-2.4c-.275-.539-.5-.989-1.137-1.1a1.829,1.829,0,0,1-.577-.219,1.2,1.2,0,0,1-.639-1.073c-.007-.977-.012-1.954,0-2.931a1.109,1.109,0,0,1,.852-1.159,2.186,2.186,0,0,0,1.616-1.53,1.884,1.884,0,0,0-.053-1.889,1.249,1.249,0,0,1,.289-1.724c.674-.642,1.323-1.31,1.99-1.96a1.08,1.08,0,0,1,1.295-.242,6.091,6.091,0,0,0,.921.38,1.211,1.211,0,0,0,.686-.015c.57-.208,1.12-.469,1.66-.7m9.62,17.8c.131-.127.276-.266.418-.407.555-.549.567-.555.238-1.255a1.763,1.763,0,0,1,.053-1.737,7.216,7.216,0,0,0,.758-1.763,1.673,1.673,0,0,1,1.263-1.382c.11-.029.207-.106.317-.132.3-.072.373-.247.366-.548-.025-.968-.011-.971-.909-1.312a1.563,1.563,0,0,1-.983-1.106,9.073,9.073,0,0,0-.734-1.811,1.857,1.857,0,0,1-.014-2.13c.215-.316.149-.526-.118-.784-.662-.638-.654-.663-1.5-.268a1.562,1.562,0,0,1-1.448-.035,17.028,17.028,0,0,0-2.058-.857,1.762,1.762,0,0,1-1.226-1.138c-.268-.753-.292-.744-1.1-.749-.62,0-.647-.011-.807.579a1.784,1.784,0,0,1-1.409,1.344,5.4,5.4,0,0,0-1.495.595,1.983,1.983,0,0,1-2.287.082,1.017,1.017,0,0,0-.249-.116c-.073-.021-.187-.048-.226-.012a4.537,4.537,0,0,0-.858.882c-.086.142.132.472.217.715a1.845,1.845,0,0,0,.124.284,1.2,1.2,0,0,1-.027,1.177c-.337.713-.645,1.442-.912,2.184a1.707,1.707,0,0,1-1.19,1.221,2.311,2.311,0,0,0-.469.213,1.389,1.389,0,0,0-.1,1.472.676.676,0,0,0,.121.065,2.393,2.393,0,0,0,.406.185,1.78,1.78,0,0,1,1.267,1.362,11.279,11.279,0,0,0,.8,1.895,1.493,1.493,0,0,1,.053,1.492c-.4.838-.371.839.275,1.5a.521.521,0,0,0,.745.128,1.579,1.579,0,0,1,.6-.259,2.351,2.351,0,0,1,1.032,0c.883.312,1.732.718,2.6,1.063a1.385,1.385,0,0,1,.831.816,3.072,3.072,0,0,1,.192.515c.071.367.283.458.636.453.928-.013.942.007,1.273-.853a1.6,1.6,0,0,1,1.052-1,20.066,20.066,0,0,0,2.157-.887,1.563,1.563,0,0,1,1.479-.045c.256.127.525.228.845.366" transform="translate(-131.064 -65.292)" fill="#543f5c"/>
          <path id="Trazado_642251" data-name="Trazado 642251" d="M197.988,192.971a10.565,10.565,0,1,1-10.6,10.574,10.5,10.5,0,0,1,10.6-10.574m-8.225,10.57a8.244,8.244,0,1,0,8.28-8.228,8.2,8.2,0,0,0-8.28,8.228" transform="translate(-135.522 -139.556)" fill="#543f5c"/>
          <path id="Trazado_642252" data-name="Trazado 642252" d="M197.949,21.128a10.564,10.564,0,1,1,10.679-10.489,10.552,10.552,0,0,1-10.679,10.489m.058-2.363a8.144,8.144,0,0,0,8.244-8.166,8.243,8.243,0,0,0-16.468-.524,8.127,8.127,0,0,0,8.224,8.689" transform="translate(-135.521 0)" fill="#543f5c"/>
          <path id="Trazado_642253" data-name="Trazado 642253" d="M215.359,117.9a6.407,6.407,0,1,1-6.348-6.425,6.371,6.371,0,0,1,6.348,6.425m-6.372-4.009a3.932,3.932,0,0,0-4.085,4,4.079,4.079,0,0,0,8.158-.007,3.97,3.97,0,0,0-4.073-4" transform="translate(-146.482 -80.619)" fill="#543f5c"/>
          <path id="Trazado_642254" data-name="Trazado 642254" d="M216.6,214.8a.727.727,0,0,0-.462-.8c-.656-.228-1.33-.406-2-.583a4.06,4.06,0,0,1-2.946-2.048,3.145,3.145,0,0,1,.852-3.777,7.558,7.558,0,0,1,1.36-.787c.157-.08.227-.131.218-.32a1.153,1.153,0,1,1,2.3-.092.4.4,0,0,0,.328.436,3.808,3.808,0,0,1,2.388,2.231,1.135,1.135,0,0,1-.6,1.524,1.112,1.112,0,0,1-1.487-.528,1.93,1.93,0,0,0-2.622-.928,1,1,0,0,0-.684.948.793.793,0,0,0,.6.759,8.736,8.736,0,0,0,1.284.366,6.953,6.953,0,0,1,2.258.8,3.329,3.329,0,0,1,1.505,3.69,3.172,3.172,0,0,1-1.751,1.932,3.8,3.8,0,0,1-.506.216c-.4.144-.778.221-.765.83.01.472-.561.814-1.085.818a1.1,1.1,0,0,1-1.14-.948c-.052-.451-.284-.59-.647-.731a3.755,3.755,0,0,1-2.352-2.525,1.2,1.2,0,0,1,.449-1.374,1.177,1.177,0,0,1,1.38.08,1.569,1.569,0,0,1,.392.59,1.717,1.717,0,0,0,1.57,1.194,3.152,3.152,0,0,0,1.743-.283.633.633,0,0,0,.415-.681" transform="translate(-152.298 -148.397)" fill="#543f5c"/>
          <path id="Trazado_642255" data-name="Trazado 642255" d="M223.749,17.24c0,.735.012,1.471-.005,2.206a.694.694,0,0,0,.4.69c.942.527,1.875,1.068,2.81,1.607a3.415,3.415,0,0,1,.4.264,1.092,1.092,0,0,1,.292,1.522,1.125,1.125,0,0,1-1.528.414c-1.333-.744-2.654-1.509-3.979-2.267a1.414,1.414,0,0,1-.748-1.308c0-1.735-.013-3.471.006-5.206a1.194,1.194,0,0,1,1.5-1.281,1.035,1.035,0,0,1,.827,1.014c.02.781.005,1.563.005,2.344Z" transform="translate(-160.113 -10.008)" fill="#543f5c"/>
        </g>
      </g>
    </g>
  </g>
</svg>
