<svg xmlns="http://www.w3.org/2000/svg" xmlns:xlink="http://www.w3.org/1999/xlink" width="124.417" height="124.418" viewBox="0 0 124.417 124.418">
  <defs>
    <clipPath id="clip-path">
      <rect id="Rectángulo_379463" data-name="Rectángulo 379463" width="115" height="115" transform="translate(389.246 2670.246)" fill="#fff" stroke="#707070" stroke-width="1"/>
    </clipPath>
    <linearGradient id="linear-gradient" x1="0.989" y1="1.001" x2="0.081" y2="0.049" gradientUnits="objectBoundingBox">
      <stop offset="0" stop-color="#8c50af"/>
      <stop offset="1" stop-color="#fbe3b1"/>
    </linearGradient>
    <clipPath id="clip-path-2">
      <rect id="Rectángulo_379483" data-name="Rectángulo 379483" width="84" height="84" transform="translate(405 1987)" fill="#fff" stroke="#707070" stroke-width="1"/>
    </clipPath>
    <clipPath id="clip-path-3">
      <rect id="Rectángulo_379484" data-name="Rectángulo 379484" width="77.152" height="78" fill="#543f5c"/>
    </clipPath>
  </defs>
  <g id="Grupo_1075437" data-name="Grupo 1075437" transform="translate(-1090.328 -1969.999)">
    <g id="Enmascarar_grupo_1074682" data-name="Enmascarar grupo 1074682" transform="translate(705.754 -695.246)" clip-path="url(#clip-path)">
      <rect id="Imagen_27" data-name="Imagen 27" width="128.611" height="124.518" transform="translate(382.686 2667.283)" fill="#fff"/>
    </g>
    <path id="Sustracción_211" data-name="Sustracción 211" d="M113.2,113.2H0V0H113.2V113.2ZM6.49,6.49V106.714H106.713V6.49Z" transform="matrix(-0.995, -0.105, 0.105, -0.995, 1202.912, 2094.417)" fill="url(#linear-gradient)"/>
    <g id="Enmascarar_grupo_1074688" data-name="Enmascarar grupo 1074688" transform="translate(706 4)" clip-path="url(#clip-path-2)">
      <g id="Grupo_1075073" data-name="Grupo 1075073" transform="translate(408.033 1990)">
        <g id="Grupo_1075072" data-name="Grupo 1075072" clip-path="url(#clip-path-3)">
          <path id="Trazado_642237" data-name="Trazado 642237" d="M16.792,47.17c-6.068,7.239-8.126,15.482-6.647,24.741.15-.125.268-.226.389-.322a1.249,1.249,0,0,1,2.071.3c1.027,1.54,2.029,3.1,3.041,4.646,2.349,3.6,4.686,7.2,7.055,10.783a1.28,1.28,0,0,1-.887,1.984c-.577.05-1.162.017-1.743.017l-7.27,0h-10a13.623,13.623,0,0,1-1.673-.02,1.216,1.216,0,0,1-.909-1.923c1.362-2.127,2.754-4.235,4.133-6.351.35-.536.693-1.076,1.051-1.607a.634.634,0,0,0,.063-.649A32.508,32.508,0,0,1,3.75,72.6a34.458,34.458,0,0,1-.516-8.409A36.265,36.265,0,0,1,4.99,55.175,35.344,35.344,0,0,1,11.9,43.068c.306-.351.616-.7.944-1.031a.29.29,0,0,0,.027-.448c-.453-.621-.909-1.24-1.335-1.88a2.411,2.411,0,0,1-.424-.9,1.316,1.316,0,0,1,1.338-1.521c.522-.034,1.046-.037,1.567-.084,2.2-.2,4.4-.416,6.6-.624,1.1-.1,2.2-.2,3.3-.309a1.319,1.319,0,0,1,1.443,2c-1.136,2.473-2.291,4.937-3.435,7.406-.474,1.024-.947,2.048-1.408,3.077a1.316,1.316,0,0,1-2.4.258c-.339-.458-.652-.936-.981-1.4-.093-.131-.2-.252-.347-.438M11.469,74.2l-8.4,12.869H19.877L11.469,74.2m2.595-34.754c.384.528.726.981,1.05,1.448a1.4,1.4,0,0,1-.191,2.183l-.074.075A32.451,32.451,0,0,0,9.341,50.68a29.9,29.9,0,0,0-2.752,6.992,38.938,38.938,0,0,0-.914,4.542,32.357,32.357,0,0,0-.125,6.869,35.2,35.2,0,0,0,1.2,6.472c.11.383.234.763.37,1.2.095-.13.157-.208.212-.291.3-.456.583-.928.911-1.364a.953.953,0,0,0,.179-.846c-.15-.669-.332-1.334-.429-2.011-.223-1.565-.471-3.132-.583-4.707a27.572,27.572,0,0,1,.66-7.632,31.266,31.266,0,0,1,7.888-15.084,1.222,1.222,0,0,1,1.9.012,3.586,3.586,0,0,1,.331.4c.289.4.572.812.9,1.28l3.607-7.785-.1-.081-8.534.791" transform="translate(0 -26.088)" fill="#543f5c"/>
          <path id="Trazado_642238" data-name="Trazado 642238" d="M141.691,30.914A29.1,29.1,0,0,0,131.3,16.877c-2.664-1.967-6.969-4.094-7.975-3.982-.007.094-.022.195-.021.3q.011,1.922.025,3.844a1.28,1.28,0,0,1-1.107,1.28,4.887,4.887,0,0,1-.765.062q-7.235.005-14.47,0a6.442,6.442,0,0,1-.732-.045,1.273,1.273,0,0,1-1.278-1.344c-.044-1.117-.054-2.236-.055-3.354s.005-2.214.047-3.319a1.1,1.1,0,0,1,1.206-1.157,1.01,1.01,0,0,1,.985.871,3.528,3.528,0,0,1,.045.591c0,1.713.011,3.426,0,5.138,0,.291.086.346.354.346q6.291-.011,12.583,0h.889V2.24h-.376q-6.519,0-13.037-.007c-.336,0-.438.086-.424.426.028.7.038,1.4,0,2.1a1.616,1.616,0,0,1-.29.861.971.971,0,0,1-1.094.346,1.04,1.04,0,0,1-.815-.983c-.037-1.256-.045-2.515.009-3.77A1.238,1.238,0,0,1,106.135.054,2.911,2.911,0,0,1,106.689,0q7.479,0,14.959,0a2.914,2.914,0,0,1,.855.135,1.164,1.164,0,0,1,.831,1.193c-.011,1.41-.008,2.82-.03,4.229-.006.38.116.526.506.627A30.575,30.575,0,0,1,129.676,8.4a35.28,35.28,0,0,1,17.5,18.859c.37.9.667,1.834.968,2.761.077.238.187.284.4.259.763-.089,1.527-.166,2.289-.261a1.525,1.525,0,0,1,1.483.491A1.183,1.183,0,0,1,152.5,31.9c-.818,1.723-1.618,3.455-2.419,5.186q-1.238,2.676-2.464,5.357a1.347,1.347,0,0,1-2.469.261c-.419-.558-.814-1.135-1.218-1.705l-5.458-7.692a1.307,1.307,0,0,1-.22-1.465,1.551,1.551,0,0,1,1.35-.8c.669-.047,1.34-.085,2.087-.131M123.312,8.367c0,.6.013,1.149-.006,1.694a.4.4,0,0,0,.325.45c.682.228,1.365.462,2.032.729a31.34,31.34,0,0,1,13.59,10.38,32.082,32.082,0,0,1,4.928,9.687,1.17,1.17,0,0,1-.126,1.031,1.392,1.392,0,0,1-1.189.673c-.551.038-1.1.129-1.719.205l5,7.06,3.626-7.837c-.194,0-.319-.01-.442,0-.533.05-1.064.124-1.6.155a1.313,1.313,0,0,1-1.446-1c-.2-.6-.372-1.2-.567-1.795a32.478,32.478,0,0,0-6.116-10.927A33.087,33.087,0,0,0,124.052,8.557c-.227-.073-.463-.119-.74-.189" transform="translate(-75.494 0)" fill="#543f5c"/>
          <path id="Trazado_642239" data-name="Trazado 642239" d="M110.505,188.586l-1.36-1.439c-.208.168-.412.334-.617.5a31.5,31.5,0,0,1-10.573,5.53,29.725,29.725,0,0,1-6.74,1.264,29.344,29.344,0,0,1-7.86-.432c-.568-.118-1.141-.226-1.7-.382a1.257,1.257,0,0,1-.848-1.785c.115-.279.254-.549.376-.825s.235-.546.35-.812c-.587.024-1.152.055-1.718.066a1.1,1.1,0,0,1-.387-2.158,2.441,2.441,0,0,1,.581-.1c.962-.091,1.923-.2,2.886-.253a1.3,1.3,0,0,1,1.357,1.917c-.236.581-.527,1.14-.793,1.708-.038.081-.073.164-.137.307a9.551,9.551,0,0,0,.995.256,34.253,34.253,0,0,0,6.41.277c.429-.018.854-.1,1.283-.134a26.435,26.435,0,0,0,6.488-1.406,29.191,29.191,0,0,0,9.129-5.156c.244-.2.274-.341.133-.654a9.284,9.284,0,0,1-.828-4.93,9.738,9.738,0,0,1,1.724-4.589,2.5,2.5,0,0,1,.468-.512.967.967,0,0,1,1.332.054,1.036,1.036,0,0,1,.274,1.289c-.277.511-.631.984-.868,1.512a7.51,7.51,0,1,0,14.027,5.241,6.942,6.942,0,0,0,.194-3.211,7.258,7.258,0,0,0-5.09-5.937,7.927,7.927,0,0,0-4.509-.054,1.143,1.143,0,0,1-1.546-1.086,1.2,1.2,0,0,1,.805-1.041,9.341,9.341,0,0,1,4.523-.309,9.565,9.565,0,0,1,6.376,4.044,9.676,9.676,0,0,1-4.27,14.547,9.913,9.913,0,0,1-6.561.33,7.581,7.581,0,0,1-.977-.367.448.448,0,0,0-.532.111,33.5,33.5,0,0,1-5.795,4.123,36.728,36.728,0,0,1-5.8,2.634,33.261,33.261,0,0,1-6.112,1.536,20.322,20.322,0,0,1-4.683.411c-.44-.034-.885-.013-1.328,0a20.1,20.1,0,0,1-4.483-.3c-1.081-.222-2.172-.393-3.256-.6-.2-.039-.317-.019-.41.187-.367.816-.731,1.635-1.137,2.432a1.253,1.253,0,0,1-1.824.569,2.231,2.231,0,0,1-.588-.588q-3.3-4.641-6.579-9.294a3.268,3.268,0,0,1-.2-.327,1.228,1.228,0,0,1,.822-1.836,13.942,13.942,0,0,1,3.645-.306,1,1,0,0,1,.919.823.954.954,0,0,1-.443,1.115,3.606,3.606,0,0,1-.918.291,3.325,3.325,0,0,1-.557.041l-.648.044,5.009,7.086c.254-.535.461-.982.679-1.424a5.266,5.266,0,0,1,.4-.732,1.284,1.284,0,0,1,1.553-.459,25.333,25.333,0,0,0,5.214.914,36.926,36.926,0,0,0,8.4-.247,32.64,32.64,0,0,0,11.176-3.861,31.728,31.728,0,0,0,5.016-3.476c.061-.051.118-.106.134-.12" transform="translate(-50.319 -123.144)" fill="#543f5c"/>
          <path id="Trazado_642240" data-name="Trazado 642240" d="M91.7,118.562c-.873,0-1.747-.009-2.621,0a1.43,1.43,0,0,1-1.665-1.317c-.179-.782-.367-1.562-.571-2.337a.549.549,0,0,0-.268-.3c-.3-.15-.632-.24-.929-.4a.759.759,0,0,0-.841.052c-.66.415-1.331.811-2,1.206a1.259,1.259,0,0,1-1.844-.211q-2.005-1.973-3.986-3.972a1.192,1.192,0,0,1-.19-1.724c.454-.759.92-1.51,1.361-2.276a.564.564,0,0,0,.023-.431,10.624,10.624,0,0,0-.526-1.137.587.587,0,0,0-.329-.263c-.842-.224-1.69-.428-2.536-.636A1.284,1.284,0,0,1,73.7,103.5q-.013-2.883,0-5.767a1.235,1.235,0,0,1,.987-1.272c.852-.224,1.715-.407,2.567-.631a.671.671,0,0,0,.384-.295A11.4,11.4,0,0,0,78.19,94.3a.509.509,0,0,0-.066-.378c-.429-.733-.878-1.455-1.312-2.185a1.227,1.227,0,0,1,.215-1.828q2.014-2.014,4.036-4.021a1.211,1.211,0,0,1,1.637-.18c.758.456,1.521.9,2.274,1.367a.513.513,0,0,0,.578.014c.3-.156.63-.244.927-.4a.724.724,0,0,0,.355-.365c.21-.737.376-1.487.569-2.229a4.644,4.644,0,0,1,.249-.721,1.051,1.051,0,0,1,1.023-.657c1.969-.009,3.937-.026,5.906-.01.825.007,1.105.227,1.335,1.016.24.825.431,1.665.624,2.5a.576.576,0,0,0,.4.467c.361.129.707.3,1.069.425a.554.554,0,0,0,.408-.02c.776-.448,1.541-.914,2.308-1.378a1.257,1.257,0,0,1,1.728.209l1.406,1.411c.815.816,1.634,1.628,2.442,2.45a3.944,3.944,0,0,1,.523.652.927.927,0,0,1-.054,1.024c-.47.79-.935,1.583-1.418,2.365a.629.629,0,0,0-.043.682c.161.321.267.671.442.983a.729.729,0,0,0,.4.316c.861.236,1.733.432,2.6.666a1.2,1.2,0,0,1,1,1.255q.032,2.935,0,5.872a1.264,1.264,0,0,1-1.069,1.215c-.834.212-1.668.42-2.505.619a.6.6,0,0,0-.488.438,1.654,1.654,0,0,1-.2.518,1.071,1.071,0,0,0,.081,1.411c.431.62.8,1.283,1.174,1.941a.988.988,0,0,1-.156,1.393c-.61.657-1.257,1.28-1.889,1.916-.714.719-1.426,1.44-2.146,2.153a1.328,1.328,0,0,1-1.96.237c-.62-.368-1.243-.733-1.854-1.116a.887.887,0,0,0-1.035-.078,1.589,1.589,0,0,1-.577.24c-.456.068-.567.361-.651.759-.171.807-.372,1.609-.61,2.4a1.147,1.147,0,0,1-1.305.912c-.955,0-1.91,0-2.866,0v0m-9.574-5.276.314-.186q1.082-.638,2.165-1.276a1.162,1.162,0,0,1,1.161-.014c.663.308,1.342.586,2.029.837a1.553,1.553,0,0,1,1.072,1.1c.19.73.384,1.46.538,2.2.055.261.142.343.4.341,1.235-.012,2.47-.019,3.7,0a.466.466,0,0,0,.549-.424c.148-.669.317-1.333.468-2a1.592,1.592,0,0,1,1.124-1.218,10.5,10.5,0,0,0,1.646-.663,1.649,1.649,0,0,1,1.976.088,5.219,5.219,0,0,0,.508.306l1.51.9c.967-.958,1.91-1.907,2.872-2.835a.385.385,0,0,0,.074-.569c-.4-.654-.793-1.316-1.187-1.974a1.478,1.478,0,0,1-.05-1.466,19.319,19.319,0,0,0,.763-1.833,1.656,1.656,0,0,1,1.324-1.186c.813-.176,1.617-.4,2.429-.6,0-1.385.007-2.746-.013-4.108a.461.461,0,0,0-.286-.315c-.7-.2-1.409-.407-2.128-.541a1.552,1.552,0,0,1-1.249-1.03,13.083,13.083,0,0,0-.68-1.64,1.889,1.889,0,0,1,.1-2.213c.417-.6.767-1.245,1.148-1.87-.058-.07-.091-.116-.132-.157-.91-.918-1.826-1.83-2.726-2.759a.352.352,0,0,0-.512-.066c-.625.383-1.259.752-1.877,1.146a1.6,1.6,0,0,1-1.683.1,17.871,17.871,0,0,0-1.866-.773,1.57,1.57,0,0,1-1.1-1.236c-.151-.68-.328-1.355-.484-2.034a.4.4,0,0,0-.484-.366c-.57.027-1.141.009-1.712.009H89.508c-.171.7-.355,1.376-.494,2.057a1.9,1.9,0,0,1-1.393,1.648,12.372,12.372,0,0,0-1.7.71,1.541,1.541,0,0,1-1.589-.082c-.587-.378-1.2-.707-1.787-1.092a.481.481,0,0,0-.734.089c-.808.839-1.631,1.664-2.48,2.46-.252.236-.279.4-.111.675.4.643.766,1.3,1.174,1.941a1.387,1.387,0,0,1,.046,1.451c-.307.663-.587,1.341-.841,2.027a1.494,1.494,0,0,1-1.1.976c-.753.2-1.51.381-2.271.541-.256.054-.3.167-.3.4.01,1.258,0,2.516.006,3.775,0,.1.011.2.014.25.993.27,1.95.512,2.894.8a1.166,1.166,0,0,1,.737.783,22.094,22.094,0,0,0,.85,2.061,1.428,1.428,0,0,1-.066,1.513c-.365.581-.711,1.174-1.066,1.763-.3.5-.3.506.11.907.567.553,1.138,1.1,1.7,1.656.339.334.67.677,1.012,1.025" transform="translate(-53.021 -59.503)" fill="#543f5c"/>
          <path id="Trazado_642241" data-name="Trazado 642241" d="M111.54,126.841a7.4,7.4,0,0,1,7.3-7.445,7.435,7.435,0,0,1,.385,14.865,7.377,7.377,0,0,1-7.686-7.42m2.245-.061a5.075,5.075,0,0,0,5.217,5.24,5.2,5.2,0,0,0,5.146-5.282,5.26,5.26,0,0,0-5.206-5.115,5.12,5.12,0,0,0-5.157,5.157" transform="translate(-80.248 -85.907)" fill="#543f5c"/>
        </g>
      </g>
    </g>
  </g>
</svg>
