<svg xmlns="http://www.w3.org/2000/svg" xmlns:xlink="http://www.w3.org/1999/xlink" width="124.417" height="124.418" viewBox="0 0 124.417 124.418">
  <defs>
    <clipPath id="clip-path">
      <rect id="Rectángulo_379464" data-name="Rectángulo 379464" width="115" height="115" transform="translate(389.246 2670.246)" fill="#fff" stroke="#707070" stroke-width="1"/>
    </clipPath>
    <linearGradient id="linear-gradient" x1="0.989" y1="1.001" x2="0.081" y2="0.049" gradientUnits="objectBoundingBox">
      <stop offset="0" stop-color="#8c50af"/>
      <stop offset="1" stop-color="#fbe3b1"/>
    </linearGradient>
    <clipPath id="clip-path-2">
      <rect id="Rectángulo_379480" data-name="Rectángulo 379480" width="84" height="84" transform="translate(405 1987)" fill="#fff" stroke="#707070" stroke-width="1"/>
    </clipPath>
    <clipPath id="clip-path-3">
      <rect id="Rectángulo_379481" data-name="Rectángulo 379481" width="78.106" height="77.87" fill="#543f5c"/>
    </clipPath>
  </defs>
  <g id="Grupo_1075436" data-name="Grupo 1075436" transform="translate(-738.328 -1969.999)">
    <g id="Enmascarar_grupo_1074683" data-name="Enmascarar grupo 1074683" transform="translate(353.984 -695.246)" clip-path="url(#clip-path)">
      <rect id="Imagen_28" data-name="Imagen 28" width="128.611" height="124.518" transform="translate(382.686 2667.283)" fill="#fff"/>
    </g>
    <path id="Sustracción_212" data-name="Sustracción 212" d="M113.2,113.2H0V0H113.2V113.2ZM6.49,6.49V106.714H106.713V6.49Z" transform="matrix(-0.995, -0.105, 0.105, -0.995, 850.912, 2094.417)" fill="url(#linear-gradient)"/>
    <g id="Enmascarar_grupo_1074687" data-name="Enmascarar grupo 1074687" transform="translate(354.23 4)" clip-path="url(#clip-path-2)">
      <g id="Grupo_1075071" data-name="Grupo 1075071" transform="translate(408 1990)">
        <g id="Grupo_1075070" data-name="Grupo 1075070" clip-path="url(#clip-path-3)">
          <path id="Trazado_642229" data-name="Trazado 642229" d="M122.07,40.345a12.481,12.481,0,0,1-2.5-.027,5.162,5.162,0,0,1-3.965-3.762c-.112-.347-.223-.342-.5-.236a5.062,5.062,0,0,1-4.639-.379,5.207,5.207,0,0,1-2.17-6.488c.114-.281.076-.35-.212-.436a5.254,5.254,0,0,1-2.6-8.626c.482-.539,1.023-1.025,1.516-1.555a.636.636,0,0,0,.149-.456,7.888,7.888,0,0,1,.246-3.831c.518-1.4.955-2.835,1.447-4.247a5.7,5.7,0,0,1,1.319-2.119c1.35-1.38,2.692-2.771,4.1-4.091a8.936,8.936,0,0,1,7.559-2.456c1.533.2,3.056.474,4.583.725.713.117,1.419.274,2.133.376a.648.648,0,0,0,.437-.213c.693-.672,1.36-1.371,2.057-2.038a1.288,1.288,0,0,1,1.99-.032c1.039.972,2.038,1.986,3.045,2.991q6.813,6.8,13.621,13.6c.09.09.181.179.263.275a1.252,1.252,0,0,1-.056,1.895c-.693.709-1.4,1.406-2.106,2.1a1.962,1.962,0,0,0-.564,1c-.372,1.606-.74,3.214-1.182,4.8a8.043,8.043,0,0,1-1.937,3.458c-1.921,1.995-3.871,3.962-5.828,5.921-2.308,2.309-4.642,4.594-6.954,6.9a5.547,5.547,0,0,1-3.918,1.78,5.328,5.328,0,0,1-5.282-4.607,1.935,1.935,0,0,0-.06-.231M132.1,3.2c-.138.115-.251.2-.348.292q-.7.7-1.4,1.4a1.538,1.538,0,0,1-1.407.5c-1.152-.18-2.307-.345-3.46-.523-1.439-.222-2.871-.515-4.317-.662a6.252,6.252,0,0,0-5.306,1.965Q114.18,7.89,112.454,9.56a5.423,5.423,0,0,0-1.436,2.34c-.357,1.15-.749,2.289-1.129,3.431a3.948,3.948,0,0,0,.795,4.185c.265.291.54.573.82.85q4.737,4.7,9.477,9.39c.241.239.47.489.724.755a5.18,5.18,0,0,0,1.5-2.887,5.355,5.355,0,0,0-1.775-4.978c-.895-.847-1.757-1.729-2.613-2.615a5.3,5.3,0,0,1-.684-6.432A5.392,5.392,0,0,1,119,12.552a1.115,1.115,0,0,1,1.529-.04c.223.168.437.348.651.528a6.689,6.689,0,0,0,5.837,1.356,6.229,6.229,0,0,0,2.909-1.506,2.728,2.728,0,0,1,1.059-.619,1.18,1.18,0,0,1,1.273.713,1.1,1.1,0,0,1-.1,1.318,3.542,3.542,0,0,1-.447.467,9.4,9.4,0,0,1-10.98,1.121c-.2-.12-.394-.261-.631-.419a3.127,3.127,0,0,0-.109.319,2.743,2.743,0,0,0,.861,2.627c.943.942,1.892,1.879,2.827,2.829a6.891,6.891,0,0,1,1.853,3.233,1,1,0,0,0,1,.886,5.067,5.067,0,0,1,4.144,4.222c.063.409.088.824.13,1.226a5.43,5.43,0,0,1,5.453,3.965c1.974-1.965,3.927-3.89,5.857-5.837a5.449,5.449,0,0,0,1.388-2.464c.4-1.481.794-2.962,1.127-4.458a4.2,4.2,0,0,1,1.4-2.577,11.606,11.606,0,0,0,1.08-1.093L132.1,3.2m-4.91,39.327a2.466,2.466,0,0,0,1.891-.591c1.387-1.341,2.774-2.687,4.092-4.095a2.639,2.639,0,0,0-.452-3.87,2.737,2.737,0,0,0-3.264.061,8.013,8.013,0,0,0-.73.668c-1.081,1.074-2.14,2.172-3.243,3.224a2.811,2.811,0,0,0-.694,2.781,2.509,2.509,0,0,0,2.4,1.822m-1.356-14.65c-.042.171-.079.317-.114.464a7.912,7.912,0,0,1-2.229,4.041,2.583,2.583,0,0,1-1.944.714,2.962,2.962,0,0,1-1.785-.791c-.363.384-.732.735-1.057,1.123a2.651,2.651,0,0,0,1.537,4.377,2.867,2.867,0,0,0,2.7-.977c1.393-1.374,2.766-2.768,4.162-4.14a3.013,3.013,0,0,0,1-2.515,2.5,2.5,0,0,0-2.273-2.3m-11.8-1.182c-1.028,1.079-2.112,2.133-3.081,3.284A2.665,2.665,0,0,0,112,33.818a2.513,2.513,0,0,0,2.86-.31c1.03-.9,1.97-1.906,2.947-2.868a.282.282,0,0,0,.061-.1l-3.838-3.852m-1.794-1.844-3.835-3.813c-.376.413-.8.817-1.152,1.278a2.649,2.649,0,0,0,.844,3.921c1.662.888,3.066.045,4.143-1.386" transform="translate(-72.258 0)" fill="#543f5c"/>
          <path id="Trazado_642230" data-name="Trazado 642230" d="M29.226,108.286c2.644-.9,4.815-.418,6.318,1.288a5.182,5.182,0,0,1,.69,5.692,3.315,3.315,0,0,0,.4.169,5.149,5.149,0,0,1,3.8,3.917,4.484,4.484,0,0,1,.019,2.259c-.054.216-.036.318.226.347a5.212,5.212,0,0,1,3.01,8.929q-5.432,5.431-10.88,10.848c-.369.368-.755.72-1.1,1.107a10.659,10.659,0,0,1-5.966,3.282q-1.8.378-3.585.866a2.2,2.2,0,0,0-.822.584c-.653.622-1.268,1.284-1.922,1.9a1.409,1.409,0,0,1-2.306-.039q-8.2-8.191-16.4-16.384a4.6,4.6,0,0,1-.333-.367,1.206,1.206,0,0,1,.057-1.8c.667-.7,1.356-1.376,2.053-2.044a.7.7,0,0,0,.213-.789c-.226-.934-.376-1.888-.53-2.838-.2-1.252-.415-2.5-.566-3.764a8.624,8.624,0,0,1,2.286-7.125c1.381-1.507,2.878-2.908,4.331-4.348a7.288,7.288,0,0,1,2.976-1.634c1.252-.411,2.5-.827,3.762-1.214a5.412,5.412,0,0,1,3.369-.146.625.625,0,0,0,.492-.154c.651-.567,1.243-1.207,1.924-1.732a5.31,5.31,0,0,1,8.044,1.991c.171.388.294.8.438,1.2M15.587,119.871a.575.575,0,0,0,.032.122c.048.089.1.177.153.263a8.808,8.808,0,0,1,1.288,3.194,9.159,9.159,0,0,1-1.58,7.162,9.311,9.311,0,0,1-1.022,1.177,1.139,1.139,0,0,1-1.263.291,1.289,1.289,0,0,1-.885-1.053,1.5,1.5,0,0,1,.517-1.255,6.526,6.526,0,0,0,1.8-4.793,6.692,6.692,0,0,0-1.856-4.357,1.319,1.319,0,0,1,.143-2.166,5.284,5.284,0,0,1,5.972-.648,14.086,14.086,0,0,1,2.245,1.806c.78.708,1.455,1.533,2.255,2.215a5.43,5.43,0,0,0,6.856-.008c.39-.322.39-.359.022-.723Q27,117.869,23.73,114.639c-1.317-1.307-2.616-2.631-3.93-3.942a4.009,4.009,0,0,0-4.31-1.028c-1.354.425-2.7.89-4.044,1.336A4.7,4.7,0,0,0,9.6,112.183c-1.152,1.148-2.32,2.282-3.449,3.453a6.616,6.616,0,0,0-1.974,4.794,26.842,26.842,0,0,0,.465,3.617c.2,1.406.45,2.806.74,4.2a1.9,1.9,0,0,1-.68,2.027c-.548.461-1.035,1-1.555,1.5l15.23,15.178c.5-.545.977-1.04,1.428-1.556a2.609,2.609,0,0,1,1.373-.838c1.573-.394,3.137-.83,4.72-1.181a7.356,7.356,0,0,0,3.7-2.062c1.669-1.673,3.357-3.327,5.035-4.991.085-.084.154-.183.252-.3a6.036,6.036,0,0,1-2.962-2.068,6.249,6.249,0,0,1-1.052-3.444,2.678,2.678,0,0,0-.323-.014,4.513,4.513,0,0,1-2.773-.789,5.084,5.084,0,0,1-2.434-3.771c-.045-.307-.124-.44-.424-.5a7.36,7.36,0,0,1-3.624-1.986c-.88-.845-1.766-1.688-2.583-2.592a3.136,3.136,0,0,0-3.122-.986M36.14,133.5a2.738,2.738,0,0,0,2.127-.827c1.231-1.211,2.463-2.42,3.662-3.662a2.689,2.689,0,0,0,.337-3.367,2.727,2.727,0,0,0-4.259-.378c-1.23,1.193-2.433,2.414-3.641,3.629a2.634,2.634,0,0,0-.582,3.022A2.461,2.461,0,0,0,36.14,133.5m1.786-12.8a2.588,2.588,0,0,0-3.316-2.757,3.8,3.8,0,0,0-1.887,1.282.422.422,0,0,0-.066.668,2.356,2.356,0,0,1,.3,2.636,3.783,3.783,0,0,1-.517.744,6.254,6.254,0,0,1-2.152,1.541c-.657.287-1.36.47-2.044.7-.169.056-.387.084-.28.341a4.488,4.488,0,0,0,.488,1.019,2.718,2.718,0,0,0,3.932.334c.543-.455,1.024-.985,1.527-1.486q1.647-1.639,3.286-3.286a2.321,2.321,0,0,0,.731-1.733m-7.3-2.915c.174-.2.329-.4.5-.578.8-.814,1.635-1.6,2.4-2.441a2.546,2.546,0,0,0,.367-2.95,2.49,2.49,0,0,0-2.425-1.462,2.894,2.894,0,0,0-2.147.983c-.719.716-1.431,1.44-2.154,2.153a4.086,4.086,0,0,1-.44.338l3.893,3.957m-9.533-9.44a.459.459,0,0,0,.061.076q1.507,1.457,3.014,2.912c.832.8.582.863,1.5.005a2.768,2.768,0,0,0,.958-2.415,2.531,2.531,0,0,0-1.837-2.2,3,3,0,0,0-3,.839c-.221.259-.453.509-.7.78" transform="translate(0 -72.19)" fill="#543f5c"/>
          <path id="Trazado_642231" data-name="Trazado 642231" d="M42.281,40.937c.423-.062.747.251,1.065.569q2.127,2.13,4.251,4.264c.377.378.757.753,1.122,1.142a1.215,1.215,0,0,1,.043,1.8,1.259,1.259,0,0,1-1.838.026c-1.867-1.816-3.718-3.648-5.573-5.475a1.328,1.328,0,0,1-.422-1.479,1.277,1.277,0,0,1,1.354-.845" transform="translate(-28.349 -28.408)" fill="#543f5c"/>
          <path id="Trazado_642232" data-name="Trazado 642232" d="M194.247,195.033a3.51,3.51,0,0,1-.849-.435c-.783-.724-1.531-1.486-2.286-2.239-1.124-1.121-2.251-2.24-3.362-3.375a1.238,1.238,0,0,1,.143-2,1.26,1.26,0,0,1,1.554.065q2.851,2.805,5.675,5.638a1.238,1.238,0,0,1,.366,1.483,1.468,1.468,0,0,1-1.242.862" transform="translate(-130.007 -129.617)" fill="#543f5c"/>
          <path id="Trazado_642233" data-name="Trazado 642233" d="M213.1,162.6a1.24,1.24,0,0,1-1.5,1.2c-1.438-.348-2.864-.743-4.3-1.118q-1.708-.447-3.418-.893a1.364,1.364,0,0,1-1.09-1.581,1.251,1.251,0,0,1,1.636-.948c1.806.445,3.6.941,5.4,1.414.734.193,1.474.369,2.2.579A1.32,1.32,0,0,1,213.1,162.6" transform="translate(-140.73 -110.503)" fill="#543f5c"/>
          <path id="Trazado_642234" data-name="Trazado 642234" d="M162.98,212.455a1.217,1.217,0,0,1-1.193-.837c-.327-1.051-.61-2.116-.9-3.177-.41-1.476-.794-2.96-1.227-4.43a1.335,1.335,0,0,1,1.591-1.791,1.183,1.183,0,0,1,.876.868q.327,1.111.629,2.23c.492,1.821.983,3.642,1.461,5.467a1.259,1.259,0,0,1-1.233,1.67" transform="translate(-110.759 -140.323)" fill="#543f5c"/>
          <path id="Trazado_642235" data-name="Trazado 642235" d="M85.141,27.546A1.411,1.411,0,0,1,84.3,28.82a1.224,1.224,0,0,1-1.492-.408,5.245,5.245,0,0,1-.432-1.127c-.625-2.283-1.235-4.571-1.846-6.857a1.3,1.3,0,0,1,.888-1.763,1.209,1.209,0,0,1,1.506.819c.5,1.739.965,3.488,1.447,5.232.223.805.456,1.607.679,2.412.047.17.073.345.087.418" transform="translate(-55.846 -12.926)" fill="#543f5c"/>
          <path id="Trazado_642236" data-name="Trazado 642236" d="M27.861,84.888c-.475-.1-.863-.164-1.241-.265-2.141-.571-4.282-1.145-6.418-1.736a3.314,3.314,0,0,1-1.029-.448,1.223,1.223,0,0,1-.326-1.542,1.285,1.285,0,0,1,1.444-.654c2.55.666,5.1,1.328,7.644,2.018a1.289,1.289,0,0,1,.7,2.223,3.3,3.3,0,0,1-.77.4" transform="translate(-12.983 -55.668)" fill="#543f5c"/>
        </g>
      </g>
    </g>
  </g>
</svg>
