<svg xmlns="http://www.w3.org/2000/svg" xmlns:xlink="http://www.w3.org/1999/xlink" width="139" height="139" viewBox="0 0 139 139">
  <defs>
    <clipPath id="clip-path">
      <path id="Trazado_642217" data-name="Trazado 642217" d="M98.974,149.166a49,49,0,1,0,49-49,49,49,0,0,0-49,49" transform="translate(-98.974 -100.166)" fill="none"/>
    </clipPath>
  </defs>
  <g id="Grupo_1075458" data-name="Grupo 1075458" transform="translate(-421 -1565)">
    <g id="Grupo_1075441" data-name="Grupo 1075441">
      <g id="Grupo_1075052" data-name="Grupo 1075052" transform="translate(-1013.668 -4317)">
        <g id="Grupo_1072229" data-name="Grupo 1072229" transform="translate(1434.668 5882)">
          <path id="Trazado_608385" data-name="Trazado 608385" d="M69.5,0A69.5,69.5,0,1,1,0,69.5,69.5,69.5,0,0,1,69.5,0Z" transform="translate(0)" fill="#fff"/>
        </g>
      </g>
      <g id="Grupo_1075066" data-name="Grupo 1075066" transform="translate(338.826 1485.834)">
        <g id="Grupo_1075065" data-name="Grupo 1075065" transform="translate(103.174 100.166)" clip-path="url(#clip-path)">
          <path id="Trazado_642166" data-name="Trazado 642166" d="M140.756,59.966c-5.389,17.37-20.1,34.429-35.664,49.585a70.121,70.121,0,0,1-26.225,16.138c-.95.324-1.906.63-2.869.908q-2.67.787-5.38,1.34s-.006,0-.012,0q-1.255.261-2.515.468c-21.192,3.528-43.23-3.294-57.471-21.438C-.3,93.055-2.05,79.081,1.988,65.427c4.556-15.4,16.48-30.4,30.907-44.447A74.942,74.942,0,0,1,65.663,2.741C90.423-3.914,118.1,1.3,133.652,21.124c9.949,12.673,11.136,25.844,7.1,38.841" transform="translate(-29.875 -25.762)" fill="#f0f9fb"/>
          <path id="Trazado_642167" data-name="Trazado 642167" d="M145.932,88.83c-.731,37.582-33.584,44.8-67.347,44.746q-2.752,0-5.509-.069H73.06c-.647-.015-1.3-.033-1.945-.051-.312-.009-.626-.021-.938-.036C34.333,131.8,2.014,98.359,2.793,58.354,3.579,18,35.268,9.621,71.484,10.7s75.234,37.777,74.449,78.129" transform="translate(-31.939 -33.644)" fill="#fce5e5"/>
          <path id="Trazado_642168" data-name="Trazado 642168" d="M209.806,435.382c0,7.625-28.7,13.806-64.108,13.806S81.59,443.007,81.59,435.382s28.7-13.806,64.108-13.806,64.108,6.181,64.108,13.806" transform="translate(-90.48 -345.647)" fill="#ccb67b"/>
          <path id="Trazado_642169" data-name="Trazado 642169" d="M298.091,377.933l1.641,2.963-1.142.291-1.151-1.152Z" transform="translate(-250.815 -306.494)" fill="#002152"/>
          <path id="Trazado_642170" data-name="Trazado 642170" d="M267.091,328.71l2.86,6.277-.941,3.167-4.173-3.244Z" transform="translate(-226.597 -269.931)" fill="#002152"/>
          <path id="Trazado_642171" data-name="Trazado 642171" d="M259.072,307.453a2.157,2.157,0,0,1,.918,2.171c-.238,1.475-.1.226-.1.226l2.779,1.924-.127-3.017s-2.93-3.794-3.438-3.682-.614,1.788-.028,2.377" transform="translate(-222.02 -252.373)" fill="#dfa889"/>
          <path id="Trazado_642172" data-name="Trazado 642172" d="M264.021,295.715s2.295,3.775,1.358,5.244c0,0-2.11.773-4.049-2.848,0,0,.719-2.518,2.691-2.4" transform="translate(-223.993 -245.418)" fill="#f2b694"/>
          <path id="Trazado_642173" data-name="Trazado 642173" d="M254.973,291.865a20.1,20.1,0,0,0,3.692-1.511.826.826,0,0,1,1.258.64,1.256,1.256,0,0,1-1.065,1.447s-2.062-.309-1.867,1.7c0,0,.669,2.129,3.55,1.614,0,0,.049-.665.207,1.448,0,0-1.1,2.029-3.566-1.13,0,0-.017-1.65-1.248-1.185,0,0-.426.828,1.039,1.65l.194.637s-3.636-1.708-2.194-5.313" transform="translate(-219.02 -241.348)" fill="#563b3b"/>
          <path id="Trazado_642174" data-name="Trazado 642174" d="M274.191,303.746l1.133.825a.1.1,0,0,1-.03.185l-.819.256Z" transform="translate(-233.546 -251.387)" fill="#f2b694"/>
          <path id="Trazado_642175" data-name="Trazado 642175" d="M255.95,291.876l.673-.579L260,290.246a10.3,10.3,0,0,1-4.046,1.63" transform="translate(-219.996 -241.359)" fill="#563b3b"/>
          <path id="Trazado_642176" data-name="Trazado 642176" d="M226.549,317.13l-6.39,2.7s-9.777,5.538-3.681,21.773l2.188,6.8,11.014-12.378s.155-13.71.156-15.548l-.151-.364Z" transform="translate(-189.189 -261.329)" fill="#002a69"/>
          <path id="Trazado_642177" data-name="Trazado 642177" d="M257.3,328.71l-.778.514-4.868,16.062,2.99-5.124,1.881-7.366Z" transform="translate(-216.805 -269.931)" fill="#eaf4f5"/>
          <path id="Trazado_642178" data-name="Trazado 642178" d="M295.311,390.792l.9,7.087-1.017.156-2.383-7.932s1.251-1.847,2.5.69" transform="translate(-247.376 -315.051)" fill="#002152"/>
          <path id="Trazado_642179" data-name="Trazado 642179" d="M294.409,362.3l-1.717-11.2-1.1,8.277,1.19,3.113Z" transform="translate(-246.474 -286.564)" fill="#002152"/>
          <path id="Trazado_642180" data-name="Trazado 642180" d="M302.626,393.173l1.564,1.242-.783,2.617-.469-.749.157-1.034-.86-1.643Z" transform="translate(-254.378 -317.814)" fill="#f2b694"/>
          <path id="Trazado_642181" data-name="Trazado 642181" d="M230.764,369.929s7.742,3.262,10.324-1.195,6.419-21.337,6.419-21.337a2.26,2.26,0,0,0-3.206-.99c-2.334,1.03-9.491,14.035-9.491,14.035Z" transform="translate(-201.288 -282.858)" fill="#002a69"/>
          <path id="Trazado_642182" data-name="Trazado 642182" d="M282.978,351.1l1.324,21.026h-1.017s-4.065-6.607-4.768-11.125Z" transform="translate(-236.76 -286.564)" fill="#002a69"/>
          <path id="Trazado_642183" data-name="Trazado 642183" d="M297.055,432.853l.078.755-.078.755h.626l.391-.5.782.5h2.033l-2.815-1.511Z" transform="translate(-250.529 -347.288)" fill="#002152"/>
          <path id="Trazado_642184" data-name="Trazado 642184" d="M302.076,422.458l.2,1.447h.665v-.274l.625.274H305.4v-.274l-1.838-.665-.672-.634Z" transform="translate(-254.259 -339.475)" fill="#002152"/>
          <path id="Trazado_642185" data-name="Trazado 642185" d="M236.115,386.1l-2.743,5.051-3.615,7.93-.349-.534,3.634-7.64Z" transform="translate(-200.28 -312.559)" fill="#002152"/>
          <path id="Trazado_642186" data-name="Trazado 642186" d="M279.624,393.818a13.053,13.053,0,0,1-.94-3.236,15.61,15.61,0,0,0,.617,4Z" transform="translate(-236.883 -315.889)" fill="#002152"/>
          <path id="Trazado_642187" data-name="Trazado 642187" d="M260.775,316.7l2.688,3.089-1.688,1.114-1.824-3.933Z" transform="translate(-222.969 -261.008)" fill="#eaf4f5"/>
          <path id="Trazado_642188" data-name="Trazado 642188" d="M245.445,323.372s2.923-1,3.91,3.408a57.81,57.81,0,0,0,3.908,10.311l6.017,4.544-.626.953-8.52-2.836-6.825-11.221s-1.226-4.383,2.137-5.158" transform="translate(-210.444 -265.894)" fill="#0c3879"/>
          <path id="Trazado_642189" data-name="Trazado 642189" d="M304.173,389.455l.564.956v.978l-1.036-.823-.282-.919Z" transform="translate(-255.256 -315.053)" fill="#dfa889"/>
          <path id="Trazado_642190" data-name="Trazado 642190" d="M216.6,393.193l2.155,12.037,1.594-2.369.461-5.549Z" transform="translate(-190.764 -317.829)" fill="#002a69"/>
          <path id="Trazado_642191" data-name="Trazado 642191" d="M229.483,390.574s-4.253,4.75-4.707,7.319c0,0,3.957-5.936,4.707-7.319" transform="translate(-196.84 -315.883)" fill="#0c3879"/>
          <path id="Trazado_642192" data-name="Trazado 642192" d="M172.268,389.291a.89.89,0,0,0-.889-.872h0l-3.154.031a.882.882,0,0,0-.872.89l.025,2.5,4.917-.049Zm-5.55.056a1.517,1.517,0,0,1,1.5-1.531l3.192-.031a1.524,1.524,0,0,1,1.493,1.5l.031,3.133-6.184.062Z" transform="translate(-153.714 -313.812)" fill="#39311c"/>
          <path id="Trazado_642193" data-name="Trazado 642193" d="M145.584,409.576l15.884-.319a.714.714,0,0,0,.7-.729l-.212-10.572a.714.714,0,0,0-.729-.7l-15.884.319a.714.714,0,0,0-.7.729l.212,10.572a.714.714,0,0,0,.728.7" transform="translate(-137.317 -320.847)" fill="#665b3d"/>
          <rect id="Rectángulo_379458" data-name="Rectángulo 379458" width="17.173" height="0.201" transform="translate(7.42 82.125) rotate(-1.15)" fill="#39311c"/>
          <rect id="Rectángulo_379459" data-name="Rectángulo 379459" width="0.317" height="1.644" transform="matrix(0.014, -1, 1, 0.014, 15.079, 80.525)" fill="#39311c"/>
          <path id="Trazado_642194" data-name="Trazado 642194" d="M345.022,118.308l-.91,2.719-.8,1.5.583.309s.487,2.5,2.5,1.326l.689.97.681,2.126,3.158-.373.713-1.753-2.087-2.284s-2.9-3.993-4.528-4.539" transform="translate(-284.893 -113.642)" fill="#f2b694"/>
          <path id="Trazado_642195" data-name="Trazado 642195" d="M347.449,115.95s1.345-.345,1.752.032-.157,2.794-.157,2.794l.416.221.775-1.46s1.011.105.823.862l-.355.667,1.715.59.569-4.288-1.153-1.146s-5.982-1.1-4.386,1.727" transform="translate(-287.761 -110.451)" fill="#665b3d"/>
          <path id="Trazado_642196" data-name="Trazado 642196" d="M355.3,130.8l.994-1-.035-2.516s.983-.448.893,1.756l.785.27.516.177L357.7,130.9l-1.713.869Z" transform="translate(-293.792 -120.279)" fill="#e0a990"/>
          <path id="Trazado_642197" data-name="Trazado 642197" d="M346.544,127.828s.187-.4.581.007l.443.189s-1.094.146-1.024-.2" transform="translate(-287.288 -120.583)" fill="#5b628c"/>
          <path id="Trazado_642198" data-name="Trazado 642198" d="M328.868,152.612l.188,23.577-9.824,8.664-1.059-.818,7.451-9.457-1.842-18.229s.409-2.637,5.086-3.736" transform="translate(-266.216 -139.123)" fill="#002152"/>
          <path id="Trazado_642199" data-name="Trazado 642199" d="M344.153,150.5l-1.522,21.3-1.309,7.465h4.048l2.412-12.064Z" transform="translate(-283.411 -137.555)" fill="#002152"/>
          <path id="Trazado_642200" data-name="Trazado 642200" d="M388.066,434.765l-1.179.989-1.727.058s-.058,1.061.788,1.033,3.131-.471,3.131-.471l1.179-.145-.476-.816-.306-.7Z" transform="translate(-315.974 -348.673)" fill="#002152"/>
          <path id="Trazado_642201" data-name="Trazado 642201" d="M324.731,434.717l-1.275.862-1.724-.12s-.167,1.05.677,1.108,3.163-.145,3.163-.145l1.188-.023-.389-.861-.232-.724Z" transform="translate(-268.85 -348.673)" fill="#002152"/>
          <path id="Trazado_642202" data-name="Trazado 642202" d="M353.747,144.3l-3.435.985-.568-1.219-2.368,6.74a5.177,5.177,0,0,0-.273,2.163l.534,6.147,1.136,10.238,10.782-.705,1.025-16.616s.706-5.9-6.834-7.733" transform="translate(-287.691 -132.778)" fill="#fff"/>
          <path id="Trazado_642203" data-name="Trazado 642203" d="M367.032,148.809l-1.538,24.069,1.924,23.583,5.77,25.785,2.046.127s2.144-18.95-1.54-24.787l2.384-22.174Z" transform="translate(-301.367 -136.298)" fill="#002a69"/>
          <path id="Trazado_642204" data-name="Trazado 642204" d="M363.282,142.234s2.91,1.665,5.252,2.837,1.582,4.9,1.582,4.9l-1.34,12.959,3.969,10.675-9.76.963-2.589-6.57-1.765-23.783Z" transform="translate(-296.269 -131.414)" fill="#002a69"/>
          <path id="Trazado_642205" data-name="Trazado 642205" d="M380.179,242.426l-4.544.672.3,1.63,5.424-.385Z" transform="translate(-308.9 -205.838)" fill="#0c3879"/>
          <path id="Trazado_642206" data-name="Trazado 642206" d="M358.631,141.219l.9,2.663,3.755-4.641-.864-1.036Z" transform="translate(-296.269 -128.422)" fill="#edf6fb"/>
          <path id="Trazado_642207" data-name="Trazado 642207" d="M338.485,234.336l-5.055,50.79,1.088.032c.025.123,8.418-8.9,6.73-24.624l7.045-16.724-3.73-10.48Z" transform="translate(-277.549 -199.082)" fill="#002a69"/>
          <path id="Trazado_642208" data-name="Trazado 642208" d="M366.647,273.123,365.3,262.357V273.91Z" transform="translate(-301.223 -220.643)" fill="#002152"/>
          <path id="Trazado_642209" data-name="Trazado 642209" d="M379.165,295.861l-15.96-.542a.718.718,0,0,1-.693-.742l.361-10.623a.718.718,0,0,1,.742-.693l15.96.542a.718.718,0,0,1,.693.742l-.36,10.623a.718.718,0,0,1-.742.693" transform="translate(-299.151 -236.17)" fill="#665b3d"/>
          <rect id="Rectángulo_379460" data-name="Rectángulo 379460" width="0.202" height="17.262" transform="matrix(0.034, -0.999, 0.999, 0.034, 63.699, 52.682)" fill="#3d341c"/>
          <rect id="Rectángulo_379461" data-name="Rectángulo 379461" width="1.652" height="0.319" transform="translate(71.63 51.032)" fill="#3d341c"/>
          <path id="Trazado_642210" data-name="Trazado 642210" d="M391.226,278.863l-6.215-.148.075-3.149a1.532,1.532,0,0,1,1.521-1.487l3.208.076a1.525,1.525,0,0,1,1.486,1.559Zm-5.563-.77,4.941.118.06-2.511a.887.887,0,0,0-.864-.907l-3.17-.075h0a.894.894,0,0,0-.906.864Z" transform="translate(-315.864 -229.35)" fill="#3d341c"/>
          <path id="Trazado_642211" data-name="Trazado 642211" d="M373.652,247.045l-9,1.221-.261-7.221-.5,8.042Z" transform="translate(-300.178 -204.812)" fill="#002152"/>
          <path id="Trazado_642212" data-name="Trazado 642212" d="M355.708,149.922l-.858.988-.154-.494.154.95Z" transform="translate(-293.346 -137.125)" fill="#e6e7e8"/>
          <path id="Trazado_642213" data-name="Trazado 642213" d="M360.653,173.7l1.409-13.356-1.422.331.433-9.044-1.531,1.555-.91-3.268,1.828,23.791" transform="translate(-296.269 -137.125)" fill="#0c3879"/>
          <path id="Trazado_642214" data-name="Trazado 642214" d="M395.214,268.61l-.476,2.068,1.647.713.649-.524-.986-2.93Z" transform="translate(-323.09 -224.787)" fill="#f2b694"/>
          <path id="Trazado_642215" data-name="Trazado 642215" d="M387.117,155.15a2.637,2.637,0,0,0-4.982-.477,7.064,7.064,0,0,0-.433,3.175c.326,5.31,3.514,25.379,3.514,25.379h1.574l.636-15.064s.7-8.665-.309-13.012" transform="translate(-313.391 -139.485)" fill="#0c3879"/>
          <path id="Trazado_642216" data-name="Trazado 642216" d="M311.472,275.158l-.343,1.327-2.654.164.237-.616,1.174-.5s-.915-.022-.546-.285a1.66,1.66,0,0,1,.953-.215l.677-.244Z" transform="translate(-259.013 -229.875)" fill="#f2b694"/>
        </g>
      </g>
    </g>
  </g>
</svg>
