<svg xmlns="http://www.w3.org/2000/svg" xmlns:xlink="http://www.w3.org/1999/xlink" width="139" height="139" viewBox="0 0 139 139">
  <defs>
    <clipPath id="clip-path">
      <path id="Trazado_642165" data-name="Trazado 642165" d="M938.8,54.828a48.62,48.62,0,1,0,48.62-48.62,48.62,48.62,0,0,0-48.62,48.62" transform="translate(-938.804 -6.208)" fill="none"/>
    </clipPath>
  </defs>
  <g id="Grupo_1075459" data-name="Grupo 1075459" transform="translate(-1046 -1565)">
    <g id="Grupo_1075440" data-name="Grupo 1075440">
      <g id="Grupo_1075053" data-name="Grupo 1075053" transform="translate(-388.668 -4317)">
        <g id="Grupo_1072229" data-name="Grupo 1072229" transform="translate(1434.668 5882)">
          <path id="Trazado_608385" data-name="Trazado 608385" d="M69.5,0A69.5,69.5,0,1,1,0,69.5,69.5,69.5,0,0,1,69.5,0Z" transform="translate(0)" fill="#fff"/>
        </g>
      </g>
      <g id="Grupo_1075064" data-name="Grupo 1075064" transform="translate(115.656 1567.252)">
        <g id="Grupo_1075063" data-name="Grupo 1075063" transform="translate(951.345 18.749)" clip-path="url(#clip-path)">
          <path id="Trazado_642138" data-name="Trazado 642138" d="M198,0V132.8H0V.021L.119,0Z" transform="translate(-78.489 -16.565)" fill="#e8e2e4"/>
          <path id="Trazado_642139" data-name="Trazado 642139" d="M1778.006,1487.956h45.617c-.424-11.089-2.15-16.112-3.9-25.165-.632-3.343-32.216-13.289-42.722-10.8-1.836.435-3.063,1.02-3.418,1.774-3.26,6.93,2.33,31.406,4.42,34.193" transform="translate(-1733.377 -1371.774)" fill="#fdb88e"/>
          <path id="Trazado_642140" data-name="Trazado 642140" d="M1696.587,723.262c-.4,7.6,2.231,28.627,5.911,31.256,9.067,6.475,36.115,1.783,45.907-2.595.666-.3,5.4-25.112,2.622-36.222-3.22-12.885-17.229-25.217-26.887-25.4-5.367-.1-5.492-.378-9.352.362-22.864,4.385-18.2,32.6-18.2,32.6" transform="translate(-1662.058 -660.906)" fill="#ef715c"/>
          <path id="Trazado_642141" data-name="Trazado 642141" d="M1917.658,740.047c11.155,1.726,22.369-1.137,29.057-10.757,4.847-6.972,5.245-22.775-9.048-33.16a42.339,42.339,0,0,0-37.473-5.551l22.84,19.572s-7.273,29.6-5.377,29.9" transform="translate(-1852.512 -659.323)" fill="#ef715c"/>
          <path id="Trazado_642142" data-name="Trazado 642142" d="M2007.087,533.8l1.105,12.95c.452,4.254-13.657,5.1-13.787,1.372v-8.2Z" transform="translate(-1940.467 -514.917)" fill="#fdb88e"/>
          <path id="Trazado_642143" data-name="Trazado 642143" d="M1423.07,1737.436h41.813q-.783-3.3-1.725-6.86l-1.214-10.169-29.43-1.6s-6.61,9.026-9.444,18.626" transform="translate(-1407.068 -1621.247)" fill="#002969"/>
          <path id="Trazado_642144" data-name="Trazado 642144" d="M1375.91,1112.59c1.28-1.39-3.172-36.785-4.91-37.051-13.737-2.1-14.788,24.342-15.01,30.212-.488,12.9,11.421,16.069,19.92,6.839" transform="translate(-1344.429 -1020.578)" fill="#d29de5"/>
          <path id="Trazado_642145" data-name="Trazado 642145" d="M1799.931,1099.2c-.18-1.881-11.916-38.267-10.173-38.5,5-.658,13.967.649,18.171,8.7,4.633,8.874,7.821,20.548,7.429,27.163-.634,10.7-14.451,12.839-15.427,2.632" transform="translate(-1749.243 -1006.703)" fill="#d29de5"/>
          <path id="Trazado_642146" data-name="Trazado 642146" d="M1755.431,728.314a13.574,13.574,0,0,1-.841-3.548c-.031-1.585,1.64-5.089.023-7.234,0,0-8.943-.174-13.87,5.4-.859.971.012,0,0,0s-2.027,9.452,1.719,12.13a9.363,9.363,0,0,0,7.687,1.457c3.7-1.021,3.608-5.755,4.171-6.328.126-.128,1.28-.887,1.112-1.872" transform="translate(-1703.135 -686.452)" fill="#fdb88e"/>
          <path id="Trazado_642147" data-name="Trazado 642147" d="M1492.4,1104.135c-11.02,4.621-26.445,2.385-29.5-1.592l-7.209-34.5c1.97-8.068,12.2-8.5,18.739-9.2,8.458-.9,18.593,2.663,21.779,8.833Z" transform="translate(-1437.528 -1004.975)" fill="#d29de5"/>
          <path id="Trazado_642148" data-name="Trazado 642148" d="M1506.851,1451.379a.263.263,0,0,1-.257-.209l-2.672-14.975a.263.263,0,1,1,.515-.107l2.672,14.975a.263.263,0,0,1-.2.312.266.266,0,0,1-.054.005" transform="translate(-1482.546 -1357.1)" fill="#012869"/>
          <path id="Trazado_642149" data-name="Trazado 642149" d="M1887.465,1486.932a.264.264,0,0,1-.181-.073c-5.393-5.132-5.819-15.393-5.834-15.828a.263.263,0,1,1,.526-.019c0,.1.436,10.482,5.671,15.465a.263.263,0,0,1-.182.454" transform="translate(-1835.011 -1389.666)" fill="#012869"/>
          <path id="Trazado_642150" data-name="Trazado 642150" d="M123.955,58.977c-1.062,5.976,5.246,11.022-9.894,17.33-13.782,5.742-6.619,24.058-26.149,26.473-15.82,1.956-13.621,14.514-21.762,23.13-5.3,5.612-10.5,6.235-15.511,6.889H0V.021L12.469,0H72.641c5.287,3.246,9.767,8.172,14.505,15.475,6.941,10.7,18.167,3.87,25.278,9.868,6.607,5.573,5.616,11.186,10.5,16.038a7.432,7.432,0,0,0,4.05,1.926c3.652.266,5.224,2,3.692,5.445-1.952,4.382-5.845,5.378-6.706,10.226" transform="translate(-78.489 -16.565)" fill="#543f5c"/>
          <path id="Trazado_642151" data-name="Trazado 642151" d="M1733.789,1148.131a26.875,26.875,0,0,0-3.881-2.592c-1.469-1.017-2.629-2.355-3.4-1.979-1.737.844,2.78,4.068,2.362,5.081-.521.3-2.273-.245-3.454-.759-1.415-.616-4.7-3-5.319-2.32-.981,1.079,2.134,2.527,3.09,3.089-1-.577-4.147-3.193-4.619-1.986-.5,1.278,4,3.594,4.663,3.976-.329-.17-4.139-3.286-4.9-2.427-1.028,1.163,4.015,3.67,4.68,4.052-.419-.211-3.549-2.928-4.425-1.755-.446.6,3.715,3.367,4.379,3.75,2.929,1.688,9.753,2.975,11.045,3.85l4.43-5.085s-1.472-1.761-2.27-2.5c-1-.922-1.881-1.938-2.383-2.4" transform="translate(-1682.596 -1084.133)" fill="#fdb88e"/>
          <path id="Trazado_642152" data-name="Trazado 642152" d="M1927.614,1114.35c.345,1.382,15.088,10.5,29.8,7.215,0,0-2.849-27.867-3.966-24.5-2.917,8.785-9.295,10.9-21.157,9.663-2.143-.463-5.3,5.232-4.675,7.625" transform="translate(-1878.035 -1040.519)" fill="#ef715c"/>
          <path id="Trazado_642153" data-name="Trazado 642153" d="M2190.263,1400.145a30.911,30.911,0,0,1-4.259-.3.233.233,0,0,1,.064-.461,30.124,30.124,0,0,0,15.418-1.9,24.99,24.99,0,0,0,5.851-3.234.232.232,0,1,1,.293.36,24.925,24.925,0,0,1-5.952,3.3,30.585,30.585,0,0,1-6.821,1.879,30.263,30.263,0,0,1-4.593.349" transform="translate(-2119.156 -1318.197)" fill="#002969"/>
          <path id="Trazado_642154" data-name="Trazado 642154" d="M2101.538,1122.43a.232.232,0,0,1,0-.465,18.943,18.943,0,0,0,5.62-1.106,13.158,13.158,0,0,0,8.088-7.476.233.233,0,1,1,.433.17,12.592,12.592,0,0,1-3.68,5.114,15.412,15.412,0,0,1-4.7,2.635,19.057,19.057,0,0,1-5.762,1.128Z" transform="translate(-2040.269 -1055.882)" fill="#002969"/>
          <path id="Trazado_642155" data-name="Trazado 642155" d="M1825.482,288.813c-3.392-4.55-10.947-.363-10.947-.363-9.842-1.574-12.442,6.59-12.5,8.7-.052,1.85.64,6.048,6.958,6.114a22.506,22.506,0,0,0,4.8-.222c1.395-.158,10.473-.719,12.5.188.784,3.269.381,8.654,2.167,9.739,2.07,1.258.837-9.96.838-9.96,1.948-3.646,2.535-13.62-3.814-14.2" transform="translate(-1760.865 -284.221)" fill="#563b3b"/>
          <path id="Trazado_642156" data-name="Trazado 642156" d="M1900.971,382.774a19.384,19.384,0,0,0,.686,4.365,13.871,13.871,0,0,0,.659,1.315c.921,1.649,3.631,4.8,7.08,4.358,3.623-.475,7.15-3.958,7.584-9.342,2.609.1,3.459-3.648,2.359-5.353a1.827,1.827,0,0,0-2.746-.484c.117-1.77.816-2.105.6-2.809-3.43-11.1-15.163-2.845-16.677-1.317-1.674,3.358.4,8.445.455,9.267" transform="translate(-1852.204 -361.176)" fill="#fdb88e"/>
          <path id="Trazado_642157" data-name="Trazado 642157" d="M2065.963,548.15a2.21,2.21,0,1,0,1.831-2.532,2.209,2.209,0,0,0-1.831,2.532" transform="translate(-2007.246 -525.927)" fill="#ed715d"/>
          <path id="Trazado_642158" data-name="Trazado 642158" d="M1916.52,574.417c.034.466.031.9.047,1.164a8.495,8.495,0,0,0,.64,3.2,2.209,2.209,0,0,0-.686-4.365" transform="translate(-1867.753 -552.819)" fill="#ed715d"/>
          <path id="Trazado_642159" data-name="Trazado 642159" d="M1850.9,346.241c-5.169-.529-4.4,2.715-7.588,2.118-2.612-.489.9-7.575,4.28-6.634,3.868,1.079,9.662-10.925,17.4,2.528.963,1.674-.656,2.79-2.03,4.141a2.655,2.655,0,0,0-.484,2.506.28.28,0,0,1-.167.309c-.375.15-1.05.257-1.484-1.512-.607-2.474-.867-7.075-3.495-6.292-2.29.682-2.655,3.222-6.436,2.835" transform="translate(-1798.553 -331.957)" fill="#563b3b"/>
          <path id="Trazado_642160" data-name="Trazado 642160" d="M2033.877,527.39a4.394,4.394,0,0,0,2.593-1.023.211.211,0,0,0-.28-.317,3.647,3.647,0,0,1-3.267.763.211.211,0,1,0-.14.4,3.178,3.178,0,0,0,1.094.178" transform="translate(-1976.164 -507.637)" fill="#002869"/>
          <path id="Trazado_642161" data-name="Trazado 642161" d="M1924.431,548.437a3.01,3.01,0,0,0,1.638-.507.211.211,0,0,0-.25-.341,2.639,2.639,0,0,1-2.889-.01.211.211,0,0,0-.22.361,3.194,3.194,0,0,0,1.72.5" transform="translate(-1873.438 -527.757)" fill="#002869"/>
          <path id="Trazado_642162" data-name="Trazado 642162" d="M1990.587,554.935a2.576,2.576,0,0,0,1.268-.418.211.211,0,1,0-.217-.363c-.864.517-1.485.4-1.717.064-.216-.316-.024-.672.269-1.141l.108-.174a4.149,4.149,0,0,0,.431-2.118.211.211,0,0,0-.422.03,3.792,3.792,0,0,1-.372,1.872l-.1.167c-.274.436-.648,1.034-.26,1.6a1.167,1.167,0,0,0,1.015.479" transform="translate(-1935.799 -530.595)" fill="#ed715d"/>
          <path id="Trazado_642163" data-name="Trazado 642163" d="M1995.493,635.872a.211.211,0,0,1,.18.02c1.408.871,3.012-.689,3.027-.7a.211.211,0,1,1,.3.3c-.074.075-1.859,1.809-3.547.764a.211.211,0,0,1-.068-.291.209.209,0,0,1,.111-.089" transform="translate(-1941.349 -609.519)" fill="#ed715d"/>
          <path id="Trazado_642164" data-name="Trazado 642164" d="M2012.578,632.6a14.2,14.2,0,0,1-1.695-.074.19.19,0,1,1,.038-.378c4.946.5,8.051-1.557,9.226-6.113a.19.19,0,1,1,.368.1c-1.089,4.22-3.756,6.391-7.938,6.47" transform="translate(-1955.69 -600.898)" fill="#ed715d"/>
        </g>
      </g>
    </g>
  </g>
</svg>
