<svg xmlns="http://www.w3.org/2000/svg" xmlns:xlink="http://www.w3.org/1999/xlink" width="124.417" height="124.418" viewBox="0 0 124.417 124.418">
  <defs>
    <clipPath id="clip-path">
      <rect id="Rectángulo_379690" data-name="Rectángulo 379690" width="115" height="115" transform="translate(389.246 2670.246)" fill="#fff" stroke="#707070" stroke-width="1"/>
    </clipPath>
    <linearGradient id="linear-gradient" x1="0.989" y1="1.001" x2="0.081" y2="0.049" gradientUnits="objectBoundingBox">
      <stop offset="0" stop-color="#8c50af"/>
      <stop offset="1" stop-color="#fbe3b1"/>
    </linearGradient>
    <clipPath id="clip-path-2">
      <rect id="Rectángulo_379703" data-name="Rectángulo 379703" width="84" height="84" transform="translate(405 1986.3)" fill="#fff" stroke="#707070" stroke-width="1"/>
    </clipPath>
    <clipPath id="clip-path-3">
      <rect id="Rectángulo_379706" data-name="Rectángulo 379706" width="80.498" height="76.667" fill="#543f5c"/>
    </clipPath>
  </defs>
  <g id="Grupo_1075464" data-name="Grupo 1075464" transform="translate(-1091 -2235.699)">
    <g id="Enmascarar_grupo_1074735" data-name="Enmascarar grupo 1074735" transform="translate(705.754 -429.546)" clip-path="url(#clip-path)">
      <rect id="Imagen_37" data-name="Imagen 37" width="128.611" height="124.518" transform="translate(382.686 2667.283)" fill="#fff"/>
    </g>
    <path id="Sustracción_229" data-name="Sustracción 229" d="M113.2,113.2H0V0H113.2V113.2ZM6.49,6.49V106.714H106.713V6.49Z" transform="matrix(-0.995, -0.105, 0.105, -0.995, 1203.584, 2360.117)" fill="url(#linear-gradient)"/>
    <g id="Enmascarar_grupo_1074739" data-name="Enmascarar grupo 1074739" transform="translate(706 269.7)" clip-path="url(#clip-path-2)">
      <g id="Grupo_1075329" data-name="Grupo 1075329" transform="translate(407 1989.3)">
        <g id="Grupo_1075328" data-name="Grupo 1075328" clip-path="url(#clip-path-3)">
          <path id="Trazado_642825" data-name="Trazado 642825" d="M28.895,157.305a10.147,10.147,0,0,1,.431,1.51,2.979,2.979,0,0,1-.919,2.543c-2.091,2.1-4.186,4.2-6.3,6.277a3.067,3.067,0,0,1-4.367.006c-1.755-1.689-3.481-3.407-5.207-5.125Q6.893,156.907,1.267,151.29a3.756,3.756,0,0,1-1.224-2.079,2.916,2.916,0,0,1,.81-2.608c1.7-1.725,3.423-3.43,5.137-5.143l1.1-1.1a3.166,3.166,0,0,1,4.376-.38c.326.233.476.2.758-.075a29.322,29.322,0,0,1,9.526-6.574A16.9,16.9,0,0,1,30,132.114a19.586,19.586,0,0,1,6.983,2.22,2.315,2.315,0,0,0,1.037.258c4.343.016,8.686-.027,13.028.018a7.993,7.993,0,0,1,7.23,4.771c.1.231.191.466.293.7.2.455.229.467.661.254.825-.406,1.647-.82,2.473-1.224,2.908-1.424,5.809-2.864,8.731-4.259a8.291,8.291,0,0,1,4.437-.648,6.191,6.191,0,0,1,3.683,1.488,5.689,5.689,0,0,1,.173,8.4,6.12,6.12,0,0,1-1.236.864c-3.663,2-7.323,4-11.007,5.954a37.126,37.126,0,0,1-8.055,3c-1.23.323-2.453.672-3.677,1.015-1.915.536-3.816,1.13-5.748,1.6a25.588,25.588,0,0,1-3.654.56c-5.026.464-10.067.134-15.1.229-.451.008-.9,0-1.361,0M13.529,142.2a4.544,4.544,0,0,1,.523.371q1.946,1.909,3.88,3.83,4.351,4.349,8.7,8.7a.453.453,0,0,0,.4.1,5.743,5.743,0,0,1,2.7-.611c4.343-.013,8.686.006,13.029-.014a32.228,32.228,0,0,0,3.4-.184A36.452,36.452,0,0,0,52.188,153c2.347-.675,4.693-1.352,7.046-2.007a32.241,32.241,0,0,0,6.485-2.58c3.473-1.844,6.921-3.735,10.373-5.619a5.155,5.155,0,0,0,1.037-.749,2.735,2.735,0,0,0,.682-2.422,2.8,2.8,0,0,0-1.949-2.584,5.942,5.942,0,0,0-4.739.313c-4.04,1.95-8.058,3.945-12.079,5.932a.837.837,0,0,0-.331.368,3.354,3.354,0,0,1-2.984,2.132c-5.479.05-10.958.021-16.438.019a1.272,1.272,0,0,1-1.218-1.177,1.207,1.207,0,0,1,.9-1.317,6.013,6.013,0,0,1,1.2-.093q7.442-.008,14.885-.006a2.737,2.737,0,0,0,.637-.061.742.742,0,0,0,.608-.8,6.548,6.548,0,0,0-.132-1.2A5.273,5.273,0,0,0,51,137.235c-4.355.02-8.711,0-13.067.016a3.5,3.5,0,0,1-1.869-.47,16.369,16.369,0,0,0-7.025-2.156,14.243,14.243,0,0,0-5.864.908,21.846,21.846,0,0,0-6.894,4.154c-.9.764-1.751,1.594-2.752,2.512M2.588,148.609a1.314,1.314,0,0,0,.543.9q3.579,3.569,7.164,7.13,4.451,4.437,8.9,8.88c.534.532.88.508,1.4-.032.73-.751,1.472-1.49,2.218-2.226,1.177-1.161,2.365-2.311,3.539-3.474.518-.513.5-.837-.006-1.345q-2.5-2.483-4.992-4.966-4.488-4.453-8.979-8.9c-.788-.782-1.562-1.579-2.361-2.349-.543-.524-.6-.518-1.145-.019-.437.4-.857.82-1.277,1.239q-2.33,2.328-4.652,4.665a3.568,3.568,0,0,0-.355.5" transform="translate(0 -91.884)" fill="#543f5c"/>
          <path id="Trazado_642826" data-name="Trazado 642826" d="M51.59,23.852c-.021,0-.131-.01-.241-.01-2.714,0-5.429-.012-8.143.011a4.229,4.229,0,0,0-4.1,2.576,4.087,4.087,0,0,0-.316,1.615c-.028,2.3.007,4.592-.008,6.888a2.137,2.137,0,0,1-.248,1,1.145,1.145,0,0,1-1.3.546,1.108,1.108,0,0,1-.962-.988,18.226,18.226,0,0,1-.1-2.074c-.008-1.754.005-3.508.012-5.261a6.967,6.967,0,0,1,7.1-6.936c.163,0,.326,0,.583,0-.153-.166-.259-.274-.357-.389a8.635,8.635,0,0,1-2.1-5.041,6.2,6.2,0,0,1,.961-4.3,6,6,0,0,1,6.124-2.68,5.933,5.933,0,0,1,4.975,4.635,8.344,8.344,0,0,1-2.089,7.469c-.066.072-.13.147-.243.277.68.038,1.3.088,1.92.093.109,0,.229-.178.326-.289a9.869,9.869,0,0,1,5.85-3.291,13.8,13.8,0,0,1,1.886-.123c.5-.019,1,0,1.439,0-.288-.327-.579-.668-.882-1a10.65,10.65,0,0,1-2.229-3.956,11.955,11.955,0,0,1-.7-4.641,8.221,8.221,0,0,1,4.465-6.971A8.36,8.36,0,0,1,74.951,5.347,8,8,0,0,1,75.5,8.376a11.694,11.694,0,0,1-3.668,8.963,1.367,1.367,0,0,0-.106.108.845.845,0,0,0-.061.132c.17,0,.313-.008.454,0a25.872,25.872,0,0,1,3.423.249,9.457,9.457,0,0,1,5.419,3.24.734.734,0,0,0,.5.215c.536,0,1.072-.054,1.668-.091-.188-.207-.338-.37-.485-.536a9.139,9.139,0,0,1-2.018-4.848,6.346,6.346,0,0,1,3.691-6.582A6.111,6.111,0,0,1,92.7,13.338a8.151,8.151,0,0,1-2.221,7.739.57.57,0,0,0-.054.086c.654.065,1.31.077,1.944.2a7.052,7.052,0,0,1,5.758,6.166,2.071,2.071,0,0,1,.016.264q0,3.671,0,7.344a1.473,1.473,0,0,1-1.2,1.364,1.252,1.252,0,0,1-1.412-.876,3.411,3.411,0,0,1-.109-.9c0-2.2-.013-4.391.019-6.586a4.159,4.159,0,0,0-4.206-4.293q-3.92-.005-7.84,0h-.781c.061.3.136.593.175.888a17.522,17.522,0,0,1,.241,2.1c.031,2.737.022,5.476.021,8.213a1.309,1.309,0,0,1-1.679,1.4,1.161,1.161,0,0,1-.867-1.037,8.308,8.308,0,0,1-.069-1.131c-.007-2.523,0-5.047-.008-7.57a6.555,6.555,0,0,0-4.709-6.184,7.686,7.686,0,0,0-2.459-.345c-4.229.007-8.459-.042-12.688.033a6.665,6.665,0,0,0-6.187,3.956,4.575,4.575,0,0,0-.491,2.109c.029,2.889.014,5.779.011,8.668a1.458,1.458,0,0,1-1.441,1.565,1.253,1.253,0,0,1-1.207-.958,3.546,3.546,0,0,1-.077-.75c-.005-2.6-.042-5.2.016-7.8a29.508,29.508,0,0,1,.4-3.153M67.122,2.65a5.663,5.663,0,0,0-5.613,4.337,8.5,8.5,0,0,0-.026,3.044,8.735,8.735,0,0,0,2.077,4.816,4.666,4.666,0,0,0,7.05.037,8.8,8.8,0,0,0,1.175-1.7A11.791,11.791,0,0,0,72.87,9.47a5.776,5.776,0,0,0-5.748-6.82M51.079,14.939a8.223,8.223,0,0,0-.221-1.294,3.56,3.56,0,0,0-3.3-2.342,3.443,3.443,0,0,0-3.343,2.213,5.519,5.519,0,0,0,1.025,5.3,2.8,2.8,0,0,0,4.64-.1,6.665,6.665,0,0,0,1.2-3.774m39.272.1a9.463,9.463,0,0,0-.347-1.646,3.459,3.459,0,0,0-3.46-2.083,3.371,3.371,0,0,0-3.224,2.716,5.789,5.789,0,0,0,1.461,5.111,2.723,2.723,0,0,0,1.1.692A2.9,2.9,0,0,0,89.367,18.4a6.984,6.984,0,0,0,.985-3.363" transform="translate(-25.171 -0.001)" fill="#543f5c"/>
          <path id="Trazado_642827" data-name="Trazado 642827" d="M110.385,93.089c0,1.109,0,2.218,0,3.327a1.3,1.3,0,0,1-1.234,1.467,1.336,1.336,0,0,1-1.4-1.442c-.022-1.134-.008-2.269-.008-3.4s-.009-2.269.005-3.4a1.393,1.393,0,0,1,1.175-1.449,1.357,1.357,0,0,1,1.46,1.386c.013,1.172,0,2.344,0,3.516Z" transform="translate(-74.986 -61.373)" fill="#543f5c"/>
          <path id="Trazado_642828" data-name="Trazado 642828" d="M162.2,93.085c0,1.134.01,2.268,0,3.4a1.3,1.3,0,0,1-1.613,1.4,1.507,1.507,0,0,1-1.03-1.512c-.016-1.121-.012-2.243-.012-3.364q0-1.607.012-3.213a1.489,1.489,0,0,1,.768-1.417,1.243,1.243,0,0,1,1.788.748,2.831,2.831,0,0,1,.087.709c.009,1.084,0,2.167,0,3.251" transform="translate(-111.043 -61.407)" fill="#543f5c"/>
          <path id="Trazado_642829" data-name="Trazado 642829" d="M60.658,218.284a2.056,2.056,0,0,1-1.9-1.914,2.13,2.13,0,0,1,1.952-1.876,2.078,2.078,0,0,1,1.866,1.909,1.977,1.977,0,0,1-1.919,1.881" transform="translate(-40.897 -149.292)" fill="#543f5c"/>
        </g>
      </g>
    </g>
  </g>
</svg>
