<svg xmlns="http://www.w3.org/2000/svg" xmlns:xlink="http://www.w3.org/1999/xlink" width="70" height="70" viewBox="0 0 70 70">
  <defs>
    <clipPath id="clip-path">
      <rect id="Rect치ngulo_379654" data-name="Rect치ngulo 379654" width="49" height="49" transform="translate(254 968)" fill="#543f5c" stroke="#707070" stroke-width="1"/>
    </clipPath>
    <clipPath id="clip-path-2">
      <rect id="Rect치ngulo_379655" data-name="Rect치ngulo 379655" width="45.215" height="39.925" fill="#543f5c"/>
    </clipPath>
  </defs>
  <g id="Grupo_1075461" data-name="Grupo 1075461" transform="translate(-1230 -2402)">
    <g id="Grupo_1075233" data-name="Grupo 1075233" transform="translate(961 1444)">
      <circle id="Elipse_5614" data-name="Elipse 5614" cx="35" cy="35" r="35" transform="translate(269 958)" fill="#fff"/>
    </g>
    <g id="Enmascarar_grupo_1074727" data-name="Enmascarar grupo 1074727" transform="translate(987 1445)" clip-path="url(#clip-path)">
      <g id="Grupo_1075241" data-name="Grupo 1075241" transform="translate(256 973)">
        <g id="Grupo_1075240" data-name="Grupo 1075240" clip-path="url(#clip-path-2)">
          <path id="Trazado_642610" data-name="Trazado 642610" d="M22.619,50.254H13.125a1.26,1.26,0,0,1-1.387-1.336c-.022-1.252-.022-2.5-.023-3.757q0-7.555,0-15.11c0-.347,0-.346-.354-.348-1.245-.006-2.494.05-3.735-.03a6.6,6.6,0,0,1-6.076-4.65A11.913,11.913,0,0,1,1.2,23.247C1,21.965.821,20.68.63,19.4c-.2-1.33-.4-2.658-.6-3.988a2.664,2.664,0,0,1,2.315-3.058,2.66,2.66,0,0,1,2.6,1.354,4.979,4.979,0,0,1,.381,1.179c.207.931.383,1.87.571,2.806q.485,2.411.969,4.821c.061.3.12.606.2.9a1.265,1.265,0,0,0,1.288.979q3.151,0,6.3,0a.443.443,0,0,1,.367.156,10.033,10.033,0,0,0,4.837,3,9.925,9.925,0,0,0,3.453.36,10.065,10.065,0,0,0,5.952-2.459c.319-.278.613-.586.907-.892a.492.492,0,0,1,.388-.168c2.074.005,4.148,0,6.221.012a1.329,1.329,0,0,0,1.4-1.077c.2-1.021.419-2.04.625-3.061q.522-2.578,1.04-5.157c.061-.3.11-.61.2-.9a2.644,2.644,0,0,1,5.067.041,3.5,3.5,0,0,1,0,1.674c-.162,1.008-.3,2.021-.447,3.031q-.283,1.925-.569,3.849a9.784,9.784,0,0,1-.813,3.186A6.535,6.535,0,0,1,38.778,29.5a7.859,7.859,0,0,1-1.92.21c-1.056-.02-2.114,0-3.17-.012-.168,0-.2.057-.2.211q.007,9.07.005,18.14a8.626,8.626,0,0,1-.053,1.168,1.22,1.22,0,0,1-1.225,1.04q-2.757,0-5.514,0h-4.08m-5.774-15a3.6,3.6,0,0,0,1.127,2.635q1.607,1.591,3.214,3.183a7.048,7.048,0,0,0,.587.553,1.316,1.316,0,0,0,1.7-.029c.114-.094.219-.2.324-.3,1.111-1.107,2.206-2.231,3.338-3.316a3.607,3.607,0,0,0-4.409-5.691.258.258,0,0,1-.222.019,3.711,3.711,0,0,0-2.985-.5,3.618,3.618,0,0,0-2.679,3.451" transform="translate(-0.001 -10.329)" fill="#543f5c"/>
          <path id="Trazado_642611" data-name="Trazado 642611" d="M100.586,0a7.465,7.465,0,1,1-7.459,7.441A7.46,7.46,0,0,1,100.586,0" transform="translate(-78.025 0)" fill="#543f5c"/>
          <path id="Trazado_642612" data-name="Trazado 642612" d="M123.473,152.5c-.183-.2-.335-.38-.5-.547q-1.128-1.142-2.262-2.279a.931.931,0,0,1-.246-.966.9.9,0,0,1,1.362-.475,6.916,6.916,0,0,1,.618.578,1.372,1.372,0,0,0,1.6.355,1.549,1.549,0,0,0,.37-.24c.2-.173.38-.362.567-.546a.9.9,0,0,1,1.3-.041.892.892,0,0,1,.031,1.286c-.733.762-1.487,1.5-2.232,2.252-.189.19-.376.383-.611.623" transform="translate(-100.892 -124.065)" fill="#543f5c"/>
        </g>
      </g>
    </g>
  </g>
</svg>
