<svg xmlns="http://www.w3.org/2000/svg" xmlns:xlink="http://www.w3.org/1999/xlink" width="70" height="70" viewBox="0 0 70 70">
  <defs>
    <clipPath id="clip-path">
      <rect id="Rect치ngulo_379647" data-name="Rect치ngulo 379647" width="49" height="49" transform="translate(254 968)" fill="#543f5c" stroke="#707070" stroke-width="1"/>
    </clipPath>
    <clipPath id="clip-path-2">
      <rect id="Rect치ngulo_379648" data-name="Rect치ngulo 379648" width="33.8" height="46.288" fill="#543f5c"/>
    </clipPath>
  </defs>
  <g id="Grupo_1075230" data-name="Grupo 1075230" transform="translate(-262 -958)">
    <circle id="Elipse_5614" data-name="Elipse 5614" cx="35" cy="35" r="35" transform="translate(262 958)" fill="#fff"/>
    <g id="Enmascarar_grupo_1074724" data-name="Enmascarar grupo 1074724" transform="translate(18 1)" clip-path="url(#clip-path)">
      <g id="Grupo_1075235" data-name="Grupo 1075235" transform="translate(262 969)">
        <g id="Grupo_1075234" data-name="Grupo 1075234" clip-path="url(#clip-path-2)">
          <path id="Trazado_642598" data-name="Trazado 642598" d="M19.383,69.78v-.218c0-1.237,0-2.475,0-3.712a.314.314,0,0,1,.226-.34c.58-.237,1.152-.5,1.737-.718a.625.625,0,0,1,.409.062,16.34,16.34,0,0,1,2.98,1.654,12.98,12.98,0,0,1,4.876,6.178,11.316,11.316,0,0,1,.671,3c.051.611.054,1.228.058,1.842a7.251,7.251,0,0,0,.542,2.911,14.75,14.75,0,0,0,1.81,3.01,6.11,6.11,0,0,1,1.017,1.743,1.093,1.093,0,0,1-.731,1.545,8.143,8.143,0,0,1-1.273.252c-.194.032-.394.031-.629.048.358.409.7.8.459,1.349a1.77,1.77,0,0,1-1.151.929,1.754,1.754,0,0,1,.215.122,2.593,2.593,0,0,1,.53.445c.3.411.255.79-.182,1.261a2.8,2.8,0,0,1-.661.452c-.108.063-.155.095-.092.23a5.946,5.946,0,0,1,.537,1.947A1.922,1.922,0,0,1,29.476,95.9a4.515,4.515,0,0,1-1.429.305A16.617,16.617,0,0,1,24,95.811c-.241-.049-.488-.063-.724-.092-.182.747-.358,1.461-.531,2.176-.073.3-.139.605-.213.907a1.5,1.5,0,0,1-1.571,1.255H6.414a1.5,1.5,0,0,1-1.53-1.04,1.045,1.045,0,0,1,0-.749c.284-.784.594-1.56.846-2.354A12.044,12.044,0,0,0,6.3,92.391a8.587,8.587,0,0,0-.382-2.838A12.068,12.068,0,0,0,4.354,86.53c-.747-1.087-1.523-2.155-2.242-3.259a12.329,12.329,0,0,1-1.884-4.78A18.207,18.207,0,0,1,0,76.333a7.664,7.664,0,0,1,.154-1.25A13.407,13.407,0,0,1,2.507,68.9,12.655,12.655,0,0,1,8,64.567a.69.69,0,0,1,.656.04c.681.331,1.381.622,2.08.914a.294.294,0,0,1,.214.32c0,1.224,0,2.447.01,3.67,0,.272,0,.271-.267.271-.635,0-1.271-.009-1.906,0A1.777,1.777,0,0,0,7.059,70.9a1.815,1.815,0,0,0,.318,2.067c.591.628,1.227,1.214,1.839,1.823q1.983,1.974,3.961,3.953c.225.225.438.46.665.682a1.953,1.953,0,0,0,2.662-.047c.865-.893,1.756-1.762,2.637-2.64,1.214-1.21,2.414-2.433,3.647-3.623a1.926,1.926,0,0,0-.2-3,1.837,1.837,0,0,0-1.05-.331c-.635,0-1.271,0-1.906,0h-.25" transform="translate(0 -53.769)" fill="#543f5c"/>
          <path id="Trazado_642599" data-name="Trazado 642599" d="M41.552,0a12.262,12.262,0,0,1,7.319,2.73,12.771,12.771,0,0,1,1.961,2.014.993.993,0,0,1,.016,1.468,12.047,12.047,0,0,1-5.8,4.131,11.509,11.509,0,0,1-4.562.6,13.331,13.331,0,0,1-1.979-.3,11.873,11.873,0,0,1-6.7-4.181c-.1-.123-.2-.245-.3-.374a.885.885,0,0,1,.006-1.2,12.456,12.456,0,0,1,2.723-2.648A11.89,11.89,0,0,1,37.621.568,12.446,12.446,0,0,1,41.552,0m-.3,9.1a3.6,3.6,0,0,0,3.62-3.569A3.641,3.641,0,1,0,37.6,5.518,3.591,3.591,0,0,0,41.257,9.1" transform="translate(-26.078 0)" fill="#543f5c"/>
          <path id="Trazado_642600" data-name="Trazado 642600" d="M54.535,73.428c.23.037.418.079.608.1.487.047.974.107,1.463.119a12.955,12.955,0,0,0,3.154-.181c.15-.033.194.017.194.167,0,1.465,0,2.93,0,4.4,0,.619.089.719.714.717.842,0,1.685-.012,2.527-.013a2.822,2.822,0,0,1,.474.033.361.361,0,0,1,.233.609,5,5,0,0,1-.406.442q-2.831,2.825-5.664,5.648c-.515.514-.606.513-1.115.007q-2.5-2.492-5.009-4.984-.463-.461-.918-.928a1.317,1.317,0,0,1-.208-.256.335.335,0,0,1,.244-.531,2.932,2.932,0,0,1,.515-.04c.863,0,1.726.006,2.589.009a1.692,1.692,0,0,0,.186-.007c.359-.038.419-.106.419-.471V73.428Z" transform="translate(-42.114 -61.21)" fill="#543f5c"/>
          <path id="Trazado_642601" data-name="Trazado 642601" d="M86.56,27.387a1.119,1.119,0,0,1-1.09,1.147A1.164,1.164,0,0,1,84.351,27.4a1.135,1.135,0,0,1,1.095-1.127,1.105,1.105,0,0,1,1.114,1.115" transform="translate(-70.315 -21.901)" fill="#543f5c"/>
        </g>
      </g>
    </g>
  </g>
</svg>
