<svg xmlns="http://www.w3.org/2000/svg" xmlns:xlink="http://www.w3.org/1999/xlink" width="70" height="70" viewBox="0 0 70 70">
  <defs>
    <clipPath id="clip-path">
      <rect id="Rect치ngulo_379652" data-name="Rect치ngulo 379652" width="49" height="49" transform="translate(254.25 968.25)" fill="#543f5c" stroke="#707070" stroke-width="1"/>
    </clipPath>
    <clipPath id="clip-path-2">
      <rect id="Rect치ngulo_379656" data-name="Rect치ngulo 379656" width="33.922" height="47.656" fill="#543f5c"/>
    </clipPath>
  </defs>
  <g id="Grupo_1075460" data-name="Grupo 1075460" transform="translate(-920 -2402)">
    <g id="Grupo_1075232" data-name="Grupo 1075232" transform="translate(651 1444)">
      <circle id="Elipse_5614" data-name="Elipse 5614" cx="35" cy="35" r="35" transform="translate(269 958)" fill="#fff"/>
    </g>
    <g id="Enmascarar_grupo_1074726" data-name="Enmascarar grupo 1074726" transform="translate(676.75 1444.75)" clip-path="url(#clip-path)">
      <g id="Grupo_1075243" data-name="Grupo 1075243" transform="translate(262.041 969.005)">
        <g id="Grupo_1075242" data-name="Grupo 1075242" clip-path="url(#clip-path-2)">
          <path id="Trazado_642613" data-name="Trazado 642613" d="M16.947,135.761q-3.318,0-6.637,0a2.119,2.119,0,0,1-.546-.074,1.091,1.091,0,0,1-.835-1.1q0-4.016,0-8.031a1.9,1.9,0,0,0-.268-.993q-3.042-5.188-6.08-10.378c-.7-1.19-1.4-2.376-2.091-3.57a3.459,3.459,0,0,1,1.948-5.1,3.364,3.364,0,0,1,3.9,1.332c.523.768.963,1.593,1.434,2.4q2.124,3.625,4.244,7.252a1.251,1.251,0,0,0,1.659.682,13.2,13.2,0,0,1,3.433-.468,12.975,12.975,0,0,1,3.133.468,2.655,2.655,0,0,0,.4.076,1.105,1.105,0,0,0,1.134-.562c.84-1.419,1.671-2.844,2.5-4.267q1.564-2.668,3.128-5.336a3.3,3.3,0,0,1,2.216-1.643,3.456,3.456,0,0,1,4.189,2.55,3.4,3.4,0,0,1-.39,2.63c-.462.808-.941,1.607-1.412,2.411Q30.553,116.515,29.1,119q-1.9,3.248-3.81,6.493a2.212,2.212,0,0,0-.306,1.176c.012,2.6.01,5.2.01,7.8a1.218,1.218,0,0,1-1.322,1.295c-1.053.007-2.106,0-3.158,0H16.947" transform="translate(0.001 -88.108)" fill="#543f5c"/>
          <path id="Trazado_642614" data-name="Trazado 642614" d="M65.674,94.338a5.7,5.7,0,1,1,5.711,5.7,5.715,5.715,0,0,1-5.711-5.7" transform="translate(-54.415 -73.432)" fill="#543f5c"/>
          <path id="Trazado_642615" data-name="Trazado 642615" d="M65.928,3.923c.512,0,1.024,0,1.536,0a.665.665,0,0,0,.686-.493c.293-.92.583-1.84.877-2.76a2.934,2.934,0,0,1,.132-.337A.558.558,0,0,1,69.708,0a.521.521,0,0,1,.519.344c.172.481.331.967.489,1.452.178.546.338,1.1.529,1.64a.678.678,0,0,0,.728.5c.952-.021,1.905-.023,2.858-.03a2.307,2.307,0,0,1,.424.027.583.583,0,0,1,.341.956,2.077,2.077,0,0,1-.357.3c-.743.538-1.492,1.067-2.232,1.608-.459.335-.5.5-.327,1.039q.433,1.326.872,2.649c.153.464.12.685-.142.885s-.471.185-.883-.114c-.76-.551-1.517-1.105-2.277-1.656-.479-.347-.63-.347-1.1,0q-1.132.819-2.26,1.643c-.057.042-.116.083-.175.121a.542.542,0,0,1-.708.027.594.594,0,0,1-.221-.736c.269-.831.544-1.659.817-2.489.047-.142.1-.283.136-.426a.666.666,0,0,0-.3-.9c-.762-.559-1.534-1.1-2.3-1.657a3.142,3.142,0,0,1-.251-.2.575.575,0,0,1-.2-.651.567.567,0,0,1,.559-.415c.305-.009.611-.008.917-.009.256,0,.512,0,.768,0Z" transform="translate(-52.738 0)" fill="#543f5c"/>
          <path id="Trazado_642616" data-name="Trazado 642616" d="M22.293,72.546a3.27,3.27,0,0,1,.4.172q1.961,1.12,3.914,2.255a1.54,1.54,0,0,1,.472.414.627.627,0,0,1-.073.821.694.694,0,0,1-.86.2c-.826-.457-1.643-.932-2.463-1.4-.518-.3-1.036-.591-1.553-.89a3.178,3.178,0,0,1-.409-.269.7.7,0,0,1-.226-.8.794.794,0,0,1,.8-.5" transform="translate(-17.767 -60.109)" fill="#543f5c"/>
          <path id="Trazado_642617" data-name="Trazado 642617" d="M148.622,73.364a.8.8,0,0,1-.458.7c-.446.264-.9.521-1.346.78q-1.338.772-2.678,1.543a.773.773,0,0,1-1.258-.541.7.7,0,0,1,.379-.67c.778-.457,1.561-.906,2.343-1.356.622-.358,1.24-.722,1.869-1.067a.741.741,0,0,1,1.113.429,1.556,1.556,0,0,1,.036.182" transform="translate(-118.386 -60.189)" fill="#543f5c"/>
          <path id="Trazado_642618" data-name="Trazado 642618" d="M130.513,54.912a2.006,2.006,0,0,1,.192-.406c.979-1.249,1.966-2.49,2.948-3.736a.816.816,0,0,1,.687-.358.707.707,0,0,1,.618,1.089,9.031,9.031,0,0,1-.619.814q-1.145,1.448-2.295,2.893a1.823,1.823,0,0,1-.275.3c-.209.167-.429.318-.716.167a.807.807,0,0,1-.54-.759" transform="translate(-108.138 -41.77)" fill="#543f5c"/>
          <path id="Trazado_642619" data-name="Trazado 642619" d="M45.322,54.88a.8.8,0,0,1-.5.716.558.558,0,0,1-.686-.1,3.1,3.1,0,0,1-.4-.414q-1.293-1.616-2.576-3.239a3.991,3.991,0,0,1-.25-.345.757.757,0,0,1,.151-1.031.807.807,0,0,1,1.027.14c.419.5.818,1.021,1.224,1.534.613.775,1.228,1.549,1.833,2.331a1.8,1.8,0,0,1,.178.41" transform="translate(-33.783 -41.71)" fill="#543f5c"/>
        </g>
      </g>
    </g>
  </g>
</svg>
