<svg xmlns="http://www.w3.org/2000/svg" xmlns:xlink="http://www.w3.org/1999/xlink" width="124.417" height="124.418" viewBox="0 0 124.417 124.418">
  <defs>
    <clipPath id="clip-path">
      <rect id="Rectángulo_379514" data-name="Rectángulo 379514" width="115" height="115" transform="translate(389.246 2670.246)" fill="#fff" stroke="#707070" stroke-width="1"/>
    </clipPath>
    <linearGradient id="linear-gradient" x1="0.989" y1="1.001" x2="0.081" y2="0.049" gradientUnits="objectBoundingBox">
      <stop offset="0" stop-color="#8c50af"/>
      <stop offset="1" stop-color="#fbe3b1"/>
    </linearGradient>
    <clipPath id="clip-path-2">
      <rect id="Rectángulo_379519" data-name="Rectángulo 379519" width="84" height="84" transform="translate(405 1987)" fill="#fff" stroke="#707070" stroke-width="1"/>
    </clipPath>
    <clipPath id="clip-path-3">
      <rect id="Rectángulo_379704" data-name="Rectángulo 379704" width="69.999" height="96.988" fill="#543f5c"/>
    </clipPath>
  </defs>
  <g id="Grupo_1075466" data-name="Grupo 1075466" transform="translate(-14716 9464.301)">
    <g id="Enmascarar_grupo_1074696" data-name="Enmascarar grupo 1074696" transform="translate(14330.754 -12129.546)" clip-path="url(#clip-path)">
      <rect id="Imagen_32" data-name="Imagen 32" width="128.611" height="124.518" transform="translate(382.686 2667.283)" fill="#fff"/>
    </g>
    <path id="Sustracción_215" data-name="Sustracción 215" d="M113.2,113.2H0V0H113.2V113.2ZM6.49,6.49V106.714H106.713V6.49Z" transform="matrix(-0.995, -0.105, 0.105, -0.995, 14828.584, -9339.883)" fill="url(#linear-gradient)"/>
    <g id="Enmascarar_grupo_1074699" data-name="Enmascarar grupo 1074699" transform="translate(14331 -11430.3)" clip-path="url(#clip-path-2)">
      <g id="Grupo_1075325" data-name="Grupo 1075325" transform="translate(412 1987)">
        <g id="Grupo_1075324" data-name="Grupo 1075324" clip-path="url(#clip-path-3)">
          <path id="Trazado_642817" data-name="Trazado 642817" d="M13.472,66.566H14.54q8.531-.008,17.061-.008c.385,0,.509-.077.518-.5.025-1.3.068-2.605.2-3.9a4.675,4.675,0,0,1,.559-1.714c.625-1.139,1.317-2.245,2.028-3.333a1.286,1.286,0,0,1,1.865-.505,1.364,1.364,0,0,1,.448,1.936c-.495.882-1.057,1.726-1.586,2.588a4.786,4.786,0,0,0-.712,2.558c0,.8.013,1.593-.017,2.389-.014.374.081.521.479.5a5.152,5.152,0,0,1,1.122.069,2.617,2.617,0,0,1,2.377,2.777c.007,3.056,0,6.111,0,9.167q0,7.647.01,15.293a2.8,2.8,0,0,1-3.049,3.1q-12.98.011-25.96,0a2.84,2.84,0,0,1-3.012-3.037q0-12.056,0-24.113A4.825,4.825,0,0,1,6.992,68.8a2.755,2.755,0,0,1,2.822-2.224c.271-.015.543,0,.838,0,.014-.18.031-.306.031-.432,0-1.854-.012-3.707-.008-5.561a4.165,4.165,0,0,0-1.119-2.967q-3.424-3.694-6.834-7.4c-.461-.5-.945-.983-1.359-1.521A4.675,4.675,0,0,1,2.9,41.672a4.013,4.013,0,0,1,3.678-.007c1.18.545,2.34,1.134,3.511,1.7.178.085.366.149.58.234V26.426h-7.6a3.014,3.014,0,0,1-3.057-3C-.005,20.4,0,17.372,0,14.346Q0,8.828.013,3.31A3.055,3.055,0,0,1,3.281.009C4.844-.006,6.407,0,7.97.009A1.63,1.63,0,0,1,9.639,1.19a1.4,1.4,0,0,1-1.458,1.6C6.56,2.8,4.939,2.8,3.319,2.779c-.4-.006-.479.134-.478.5q.026,9.971.034,19.942c0,.1.008.2.015.345h7.751c.044-.421.069-.879.142-1.328a4.425,4.425,0,0,1,5.475-3.708,4.139,4.139,0,0,1,2.93,2.671,22.364,22.364,0,0,1,.634,2.4h3.791V2.789h-.488q-4.537,0-9.073,0A1.372,1.372,0,0,1,12.594,1.1a1.3,1.3,0,0,1,.99-.99,2.8,2.8,0,0,1,.77-.1Q18.826,0,23.3.009a3.219,3.219,0,0,1,2.166.745A2.944,2.944,0,0,1,26.487,3.1q.008,1.129.006,2.259c0,5.909-.012,11.817.012,17.726a3.11,3.11,0,0,1-1.886,3.128,2.368,2.368,0,0,1-.916.2c-1.172.023-2.344.009-3.516.009h-.45V32.67h.372c.767,0,1.536-.037,2.3.018a3.848,3.848,0,0,1,1.314.348,1.294,1.294,0,0,0,1.257-.012A3.43,3.43,0,0,1,26.2,32.69c.661-.058,1.33-.023,2-.033a3.4,3.4,0,0,1,1.945.5.549.549,0,0,0,.468.06c1.244-.775,2.616-.569,3.962-.551a3.407,3.407,0,0,1,2.9,1.7,3.959,3.959,0,0,1,.536,2.207c.014,2.476.057,4.954-.006,7.429a9.031,9.031,0,0,0,.629,3.638,12.364,12.364,0,0,1,1.006,4.416,3.744,3.744,0,0,1-.216,1.306,1.344,1.344,0,0,1-1.337.776,1.446,1.446,0,0,1-1.2-1.152,1.142,1.142,0,0,1-.037-.3,9.58,9.58,0,0,0-.945-4.456,10.6,10.6,0,0,1-.76-4.143c.051-2.533.017-5.068.015-7.6,0-.838-.178-1.013-1.025-1.023-.477-.006-.955-.006-1.433.006-.625.016-.824.224-.824.835q0,4.692,0,9.385a1.5,1.5,0,0,1-1.395,1.579,1.414,1.414,0,0,1-1.42-1.444c-.042-.939-.007-1.882,0-2.823.005-1.9.015-3.794.015-5.691,0-.39-.049-.779-.055-1.169a.612.612,0,0,0-.649-.662c-.679-.028-1.36-.027-2.039,0a.632.632,0,0,0-.62.568,4.564,4.564,0,0,0-.048.778c.007,2.882.022,5.763.027,8.645a1.785,1.785,0,0,1-.389,1.381,1.382,1.382,0,0,1-1.523.338,1.277,1.277,0,0,1-.843-1.164c-.048-.518-.068-1.041-.067-1.561,0-2.505.021-5.01.032-7.515,0-.217,0-.435-.012-.651-.04-.6-.217-.793-.824-.82-.578-.026-1.158-.018-1.736,0-.483.015-.605.156-.606.638,0,2.708,0,5.416,0,8.124,0,.535-.022,1.072-.073,1.6a1.516,1.516,0,0,1-1.562,1.431,1.422,1.422,0,0,1-1.289-1.526c-.007-3.374,0-6.748,0-10.122q0-5.93,0-11.861a6.326,6.326,0,0,0-.119-1.377,1.609,1.609,0,0,0-1.492-1.248,1.43,1.43,0,0,0-1.444.977,3,3,0,0,0-.259,1.113c-.015,7.473-.034,14.946.014,22.418a1.486,1.486,0,0,1-2.261,1.368,14.217,14.217,0,0,0-1.629-.81c-1.313-.637-2.629-1.267-3.938-1.912a1.515,1.515,0,0,0-1.815.037A1.863,1.863,0,0,0,3.276,46.3a2.526,2.526,0,0,0,.6,1.073c1.4,1.548,2.821,3.068,4.238,4.6,1.111,1.2,2.228,2.395,3.336,3.6a7.1,7.1,0,0,1,2.031,5.145c-.043,1.795-.009,3.591-.009,5.387v.47m22.536,2.872H9.694V94.186H36.008Z" transform="translate(0 0)" fill="#543f5c"/>
          <path id="Trazado_642818" data-name="Trazado 642818" d="M148.395,2.789h-.474q-9.94,0-19.879-.006c-.335,0-.489.058-.487.445q.035,9.317.045,18.635c0,.561,0,1.122,0,1.71h20.792V22.53q0-2.889,0-5.777a5.785,5.785,0,0,1,.049-.823,1.4,1.4,0,0,1,1.6-1.242,1.385,1.385,0,0,1,1.2,1.46q0,3.627-.007,7.254a3,3,0,0,1-3.025,3.023H127.632a2.918,2.918,0,0,1-2.792-2.437c-.1-1.02-.089-2.052-.09-3.079,0-5.865.027-11.729,0-17.593A3.122,3.122,0,0,1,128.089,0c6.612.015,13.224,0,19.836.007a3.066,3.066,0,0,1,3.308,3.342c0,2.288.023,4.576-.012,6.863a1.971,1.971,0,0,1-.414,1.089,1.108,1.108,0,0,1-1.3.471,1.529,1.529,0,0,1-1.063-1.211,5.72,5.72,0,0,1-.054-.822q0-3.084,0-6.168V2.789" transform="translate(-81.241 0)" fill="#543f5c"/>
          <path id="Trazado_642819" data-name="Trazado 642819" d="M149.918,27.509c-.978-1.047-1.966-2.084-2.925-3.147a2.385,2.385,0,0,1-.563-.944,1.311,1.311,0,0,1,.661-1.435,1.451,1.451,0,0,1,1.658.181c.992.95,1.964,1.922,2.943,2.886.406.4.4.4.8,0q1.41-1.413,2.823-2.823a1.581,1.581,0,0,1,1.693-.275,1.307,1.307,0,0,1,.747,1.3,2.226,2.226,0,0,1-.547.99c-.834.883-1.709,1.727-2.578,2.577a8.046,8.046,0,0,1-.676.531c.844.839,1.583,1.568,2.315,2.3.408.41.82.818,1.2,1.253a1.155,1.155,0,0,1-.091,1.706,1.28,1.28,0,0,1-1.717.269,8.7,8.7,0,0,1-.96-.873c-.871-.864-1.734-1.737-2.635-2.644-.71.714-1.4,1.409-2.089,2.1-.4.4-.778.82-1.2,1.188a1.348,1.348,0,0,1-2.007-.024,1.363,1.363,0,0,1,.1-1.95c.98-1.024,1.992-2.016,2.99-3.023.069-.07.134-.144.2-.217l-.142.068" transform="translate(-95.339 -14.2)" fill="#543f5c"/>
          <path id="Trazado_642820" data-name="Trazado 642820" d="M23.77,30.425c.886-.91,1.726-1.784,2.58-2.646q1.6-1.618,3.225-3.218a1.451,1.451,0,0,1,1.515-.506,1.324,1.324,0,0,1,.678,2.171c-.713.8-1.492,1.534-2.248,2.291q-2.162,2.165-4.331,4.323a8.069,8.069,0,0,1-.711.635,1.166,1.166,0,0,1-1.541-.034q-2.072-2.008-4.1-4.06a1.255,1.255,0,0,1-.179-1.668,1.371,1.371,0,0,1,1.59-.594,1.281,1.281,0,0,1,.49.339c.818.8,1.625,1.607,2.438,2.411.163.161.335.314.594.556" transform="translate(-11.997 -15.627)" fill="#543f5c"/>
          <path id="Trazado_642821" data-name="Trazado 642821" d="M37.928,218.708a8.769,8.769,0,0,1,.159-1.332,1.23,1.23,0,0,1,1.421-.931,1.1,1.1,0,0,1,1.172,1.047,20.492,20.492,0,0,1-.039,2.977,1.312,1.312,0,0,1-1.371.966A1.394,1.394,0,0,1,38,220.217c-.047-.43-.045-.865-.074-1.51" transform="translate(-24.701 -140.958)" fill="#543f5c"/>
        </g>
      </g>
    </g>
  </g>
</svg>
