<svg xmlns="http://www.w3.org/2000/svg" xmlns:xlink="http://www.w3.org/1999/xlink" width="190" height="190" viewBox="0 0 190 190">
  <defs>
    <clipPath id="clip-path">
      <rect id="Rect치ngulo_379606" data-name="Rect치ngulo 379606" width="190" height="190" transform="translate(1125 1096)" fill="#fff" stroke="#707070" stroke-width="1"/>
    </clipPath>
    <clipPath id="clip-path-2">
      <rect id="Rect치ngulo_379620" data-name="Rect치ngulo 379620" width="157.933" height="157.343" fill="#543f5c"/>
    </clipPath>
  </defs>
  <g id="Enmascarar_grupo_1074720" data-name="Enmascarar grupo 1074720" transform="translate(-1125 -1096)" clip-path="url(#clip-path)">
    <g id="Grupo_1075189" data-name="Grupo 1075189" transform="translate(1141 1112)">
      <g id="Grupo_1075188" data-name="Grupo 1075188" clip-path="url(#clip-path-2)">
        <path id="Trazado_642451" data-name="Trazado 642451" d="M21.108,136.377H84.379c0-.279.005-.52,0-.76a20.818,20.818,0,0,1,3.251-11.339,22.734,22.734,0,0,1,13.246-10.386c3.04-.933,6.079-1.871,9.131-2.766.485-.142.641-.338.639-.82-.011-2.987.013-5.975-.014-8.962a1.15,1.15,0,0,0-.459-.77,23.738,23.738,0,0,1-9.6-14.782c-.118-.563-.154-1.142-.232-1.713s-.162-1.132-.244-1.7l-.25-.187c-.357.439-.681.911-1.078,1.311q-4.643,4.677-9.314,9.327a10.417,10.417,0,0,1-1.237,1.1,2.339,2.339,0,0,1-3.347-.462,2.6,2.6,0,0,1,.047-3.254c2.071-2.118,4.192-4.187,6.291-6.277,2.7-2.692,5.4-5.394,8.116-8.074a2.266,2.266,0,0,0,.745-1.784c-.043-3.063-.054-6.127,0-9.189a5.974,5.974,0,0,0-.708-2.941c-1.068-2.072-2.087-4.168-3.14-6.247A11.776,11.776,0,0,1,94.8,50.512,13.051,13.051,0,0,1,100.835,38.9a12.45,12.45,0,0,1,7.157-2.137q13.407.1,26.815,0a21.879,21.879,0,0,1,11.046,2.972c6.82,3.829,10.64,9.793,11.975,17.409a23.074,23.074,0,0,1,.076,3.232c.259,8.369-2.126,16.038-6.247,23.215a45.1,45.1,0,0,1-11.536,13.171c-2.672,2.083-5.3,4.228-7.954,6.328a1.307,1.307,0,0,0-.543,1.153c.03,1.933.047,3.866.022,5.8-.008.6.27.763.785.864,2.581.507,5.2.89,7.725,1.6,8.929,2.49,14.616,8.278,17.13,17.2a17.785,17.785,0,0,1,.631,4.975c-.037,6.678-.051,13.357.014,20.035a2.6,2.6,0,0,1-2.607,2.629q-34.084-.063-68.169-.027c-1.973,0-2.779-.814-2.779-2.784v-12.89H83.3q-37.55,0-75.1,0a7.8,7.8,0,0,1-7.617-4.758,6.313,6.313,0,0,1-.554-2.605Q-.006,70.976,0,7.669C0,4.407,1.642,2.261,4.339.734A5.937,5.937,0,0,1,7.365.013q44.479.019,88.959,0a9.518,9.518,0,0,1,3.789.369c3.623,1.5,5.246,4.4,5.323,8.1.135,6.525.049,13.055.029,19.582a3.131,3.131,0,0,1-1.426,2.834c-1.825,1.118-3.868-.135-3.984-2.42-.034-.676-.008-1.355-.008-2.034q0-8.963,0-17.926a7.408,7.408,0,0,0-.037-.977A2.527,2.527,0,0,0,97.4,5.06c-1.275-.063-2.559,0-3.837.06a1.429,1.429,0,0,0-.829.431c-2.864,2.852-5.707,5.726-8.567,8.581a7.919,7.919,0,0,1-1.275,1.046,2.317,2.317,0,0,1-3.084-.286,2.52,2.52,0,0,1-.4-3.163,6.549,6.549,0,0,1,.956-1.154c1.69-1.682,3.4-3.346,5.1-5.02a3.54,3.54,0,0,0,.3-.421,3.453,3.453,0,0,0-.55-.1q-20.488.027-40.976.049a2.422,2.422,0,0,0-1.886.815c-4.134,4.173-8.31,8.3-12.482,12.439-1.48,1.466-2.957,2.938-4.491,4.347a2.421,2.421,0,0,1-3.628,0,2.545,2.545,0,0,1-.033-3.473Q27.02,13.874,32.364,8.566q1.519-1.516,3.031-3.039a3.269,3.269,0,0,0,.305-.488h-.978Q21.993,5.067,9.264,5.1c-.627,0-1.257,0-1.881.054A2.393,2.393,0,0,0,5.127,7.457C5.078,8.584,5.1,9.715,5.1,10.845q0,12.013.011,24.027c0,.2.018.392.036.755.294-.283.5-.472.7-.668q3.706-3.7,7.412-7.392a8.21,8.21,0,0,1,.784-.7,2.4,2.4,0,0,1,3.554.266,2.451,2.451,0,0,1-.153,3.45c-3.492,3.537-6.957,7.1-10.559,10.527a5.34,5.34,0,0,0-1.829,4.326c.082,20.813.059,41.627.064,62.441v1.16l.248.148c.854-.9,1.693-1.818,2.564-2.7q2.669-2.71,5.365-5.392a7.93,7.93,0,0,1,.9-.8,2.388,2.388,0,0,1,3.429.4,2.441,2.441,0,0,1-.036,3.288c-1.752,1.832-3.553,3.618-5.347,5.408-2.275,2.269-4.569,4.52-6.839,6.794a1.119,1.119,0,0,0-.3.711q-.017,8.059.007,16.118a9.712,9.712,0,0,0,.044,1.053,2.429,2.429,0,0,0,2.494,2.314c2.634.026,5.269.007,8.034.007,0-.2,0-.462,0-.722.043-2.483-.042-4.976.154-7.446a23.557,23.557,0,0,1,16.894-20.73c2.108-.617,4.3-.937,6.457-1.4.975-.212,1.945-.449,3.01-.7v-3.57c0-1,.02-2.009-.016-3.012a.8.8,0,0,0-.339-.614,24.613,24.613,0,0,1-10.23-7.323c-.079-.094-.178-.172-.329-.317-.209.182-.417.345-.605.529-1.7,1.669-3.395,3.349-5.106,5.01a2.619,2.619,0,0,1-2.365.895,2.271,2.271,0,0,1-1.993-1.612,2.633,2.633,0,0,1,.618-2.776c2.087-2.03,4.113-4.124,6.189-6.166.456-.449.4-.746.166-1.335A29.539,29.539,0,0,1,26.719,80.3a23.267,23.267,0,0,1-.444-4.557c-.037-8.691-.052-17.382,0-26.072a23.535,23.535,0,0,1,17.83-22.7,32.871,32.871,0,0,1,7.215-.915q11.56-.171,23.124-.023c5.6.065,10.207,2.2,13.166,7.172a15.009,15.009,0,0,1,1.828,8.928A13.967,13.967,0,0,1,83.7,52.693c-1.3.99-2.582,2-3.929,2.916a1.736,1.736,0,0,0-.832,1.66c.032,6.076.086,12.153,0,18.228-.121,8.828-3.842,15.746-11.309,20.544a31.122,31.122,0,0,1-3.817,1.933.773.773,0,0,0-.535.838c.013,2.108.019,4.218-.025,6.326-.014.652.41.716.838.843,2.64.786,5.274,1.6,7.924,2.349A23.768,23.768,0,0,1,83.677,115.7c.215.245.42.5.614.762.85,1.144.918,1.918.264,2.88a2.582,2.582,0,0,1-3.075,1.145,4.17,4.17,0,0,1-1.274-1.008c-1.116-1.044-2.159-2.173-3.33-3.15a17,17,0,0,0-6.026-2.99c-2.99-.925-6-1.8-8.981-2.74-.456-.143-.567.083-.765.348a10.326,10.326,0,0,1-7.136,4.322,10.07,10.07,0,0,1-9.689-4.117,1.358,1.358,0,0,0-1.7-.6c-2.258.565-4.56.953-6.844,1.412a18.485,18.485,0,0,0-14.53,14.9,19.129,19.129,0,0,0-.1,2.929c-.013,2.177,0,4.355,0,6.585m100.059,15.862v.025q15.55,0,31.1.013c.534,0,.553-.224.552-.628-.01-5.321.011-10.643-.027-15.963a20.409,20.409,0,0,0-.341-3.961c-1.646-7.973-7.593-13.313-15.654-14.778-2.093-.38-4.172-.831-6.264-1.217a.841.841,0,0,0-.7.239,10.306,10.306,0,0,1-10.677,4.47,10.023,10.023,0,0,1-6.448-4.1c-.291-.384-.482-.53-1.019-.361-2.771.867-5.552,1.705-8.353,2.466A18.482,18.482,0,0,0,89.453,136.7c.111,4.566.019,9.136.027,13.7,0,.593-.164,1.411.147,1.717s1.126.116,1.72.116q14.909.005,29.82,0m9.664-54.665c.371-.273.615-.441.847-.626q1.918-1.518,3.831-3.043a53.584,53.584,0,0,0,7.213-6.59,41.216,41.216,0,0,0,8.5-15.508A40.09,40.09,0,0,0,152.79,60.3a18.391,18.391,0,0,0-18.545-18.42c-8.71.011-17.42,0-26.13,0a8.326,8.326,0,0,0-1.572.122,8.036,8.036,0,0,0-5.806,11.262c.95,2.1,2.075,4.117,3.061,6.2a1.253,1.253,0,0,0,1.356.844A20.2,20.2,0,0,1,115.4,62.53a28.1,28.1,0,0,1,5.881,4.771,19.814,19.814,0,0,1,6.108,11.524c1.016,6.222,2.267,12.4,3.444,18.748m-57.3-39.822c-.288-.021-.485-.047-.681-.047-7.756,0-15.511-.018-23.267.013a7.415,7.415,0,0,0-6.759,5.111c-.525,1.748-.942,3.53-1.381,5.3-1.242,5.014-4.143,8.485-9.21,9.958a5.606,5.606,0,0,0-.629.273,32.162,32.162,0,0,0,.84,3.557A18.122,18.122,0,0,0,45.7,93.972c2.983.774,6.033.617,9.059.568,6.337-.1,11.616-2.476,15.427-7.671a16.048,16.048,0,0,0,3.363-9.844c-.057-6.123-.015-12.248-.015-18.372ZM31.352,73.065c.344-.139.6-.221.838-.343a7.45,7.45,0,0,0,3.978-4.849c.377-1.4.747-2.81,1.046-4.23a13.677,13.677,0,0,1,6.842-9.6,13.96,13.96,0,0,1,7.034-1.59c7.857,0,15.714.013,23.57-.016a2.834,2.834,0,0,0,1.508-.5c1.4-.971,2.733-2.041,4.112-3.045,3.461-2.518,4.608-5.978,3.91-10.056-.811-4.739-4.207-7.472-9.012-7.472-8.384,0-16.769-.027-25.152.024a18.864,18.864,0,0,0-4.69.544c-8.315,2.211-13.81,9.1-13.96,18.225-.122,7.328-.025,14.658-.025,21.988v.916M125.94,99.56c-.282-1.538-.548-2.987-.813-4.436q-1.062-5.8-2.127-11.6a53.159,53.159,0,0,0-1.218-6.105c-1.532-4.921-5.089-8.167-9.417-10.649-2.124-1.218-4.477-1.223-6.866-1.011-.009.163-.023.285-.023.407q0,8.844,0,17.688a3.588,3.588,0,0,0,.08.745,18.32,18.32,0,0,0,11.126,13.717,18.854,18.854,0,0,0,9.255,1.244m.676,5.25a26.315,26.315,0,0,1-10.791-1.288,1.364,1.364,0,0,0-.093.265c-.006,1.881-.073,3.764.013,5.641a9.972,9.972,0,0,0,.579,2.9,4.984,4.984,0,0,0,4.872,3.11,5.268,5.268,0,0,0,4.779-3.061c1.065-2.418.356-4.943.64-7.571M57.835,99.541H47.285c0,1.341-.008,2.615,0,3.888a17.574,17.574,0,0,0,.077,2.252,5.24,5.24,0,0,0,5.211,4.612,5.163,5.163,0,0,0,5.23-4.559c.147-2.041.029-4.1.029-6.193" transform="translate(0 0)" fill="#543f5c"/>
        <path id="Trazado_642452" data-name="Trazado 642452" d="M126.871,160.725a2.655,2.655,0,0,1,2.6,1.5,2.312,2.312,0,0,1-.386,2.665c-.909.967-1.824,1.937-2.816,2.815a2.594,2.594,0,0,1-4.367-1.434,1.9,1.9,0,0,1,.34-1.456c1.1-1.258,2.283-2.451,3.5-3.6a3.169,3.169,0,0,1,1.133-.493" transform="translate(-48.2 -63.568)" fill="#543f5c"/>
        <path id="Trazado_642453" data-name="Trazado 642453" d="M209.323,86.858a7.391,7.391,0,0,1,2.59-6.816,7.294,7.294,0,0,1,8.181-1.372,7.645,7.645,0,0,1,4.747,6.14,9.212,9.212,0,0,1-1.648,7.06c-.365.51-.681,1.057-1.067,1.549a11.5,11.5,0,0,0-2.553,8.274,2.129,2.129,0,0,1-1.128,2.058,2.48,2.48,0,0,1-3.846-1.675,13.761,13.761,0,0,1,1.745-9.13c.806-1.328,1.7-2.6,2.592-3.877a2.942,2.942,0,0,0,.643-2.09c-.051-.446,0-.9-.011-1.355a2.33,2.33,0,0,0-2.194-2.325c-1.632-.084-2.815.756-2.914,2.15-.07.974-.005,1.957-.037,2.935a2.613,2.613,0,0,1-1.793,2.523,2.5,2.5,0,0,1-2.824-.872,2.583,2.583,0,0,1-.461-1.222,16.731,16.731,0,0,1-.02-1.956" transform="translate(-82.761 -30.841)" fill="#543f5c"/>
        <path id="Trazado_642454" data-name="Trazado 642454" d="M223.015,129.771c0,.45,0,.9,0,1.351a2.38,2.38,0,0,1-2.072,2.439c-1.488.153-2.713-.545-2.877-1.888a15.972,15.972,0,0,1,.022-3.877,2.495,2.495,0,0,1,4.927.624c0,.45,0,.9,0,1.351" transform="translate(-86.204 -49.772)" fill="#543f5c"/>
        <path id="Trazado_642455" data-name="Trazado 642455" d="M104.692,107.845q0-.638,0-1.277a2.5,2.5,0,0,1,2.286-2.584,2.657,2.657,0,0,1,2.693,2.049,16.742,16.742,0,0,1,.048,3.811,2.391,2.391,0,0,1-2.884,1.982,2.419,2.419,0,0,1-2.142-2.477c-.006-.5,0-1,0-1.5" transform="translate(-41.406 -41.122)" fill="#543f5c"/>
        <path id="Trazado_642456" data-name="Trazado 642456" d="M83.439,107.911c0,.476,0,.953,0,1.429a2.4,2.4,0,0,1-2.188,2.507,2.334,2.334,0,0,1-2.8-1.99,16.913,16.913,0,0,1,.07-3.959,2.575,2.575,0,0,1,2.6-1.862,2.621,2.621,0,0,1,2.314,2.521c0,.451,0,.9,0,1.353" transform="translate(-30.996 -41.141)" fill="#543f5c"/>
      </g>
    </g>
  </g>
</svg>
