<svg xmlns="http://www.w3.org/2000/svg" xmlns:xlink="http://www.w3.org/1999/xlink" width="190" height="190" viewBox="0 0 190 190">
  <defs>
    <clipPath id="clip-path">
      <rect id="Rect치ngulo_379602" data-name="Rect치ngulo 379602" width="190" height="190" transform="translate(1125 1096)" fill="#fff" stroke="#707070" stroke-width="1"/>
    </clipPath>
    <clipPath id="clip-path-2">
      <rect id="Rect치ngulo_379611" data-name="Rect치ngulo 379611" width="160.944" height="160.568" fill="#543f5c"/>
    </clipPath>
  </defs>
  <g id="Enmascarar_grupo_1074719" data-name="Enmascarar grupo 1074719" transform="translate(-1125 -1096)" clip-path="url(#clip-path)">
    <g id="Grupo_1075183" data-name="Grupo 1075183" transform="translate(1140 1111)">
      <g id="Grupo_1075182" data-name="Grupo 1075182" clip-path="url(#clip-path-2)">
        <path id="Trazado_642442" data-name="Trazado 642442" d="M134.775,103.487c1.87.494,3.668.885,5.408,1.452a44.536,44.536,0,0,1,6.036,2.267,14.9,14.9,0,0,1,8.345,11.517c.512,3.044.95,6.1,1.446,9.147.707,4.347,1.443,8.689,2.157,13.034.555,3.376,1.109,6.752,1.641,10.132q.586,3.725,1.111,7.459a1.619,1.619,0,0,1-1.275,2,1.559,1.559,0,0,1-1.917-1.374c-.343-1.638-.579-3.3-.845-4.954q-1.231-7.62-2.453-15.241c-.632-3.9-1.29-7.793-1.921-11.691-.471-2.907-.844-5.831-1.395-8.722a11.4,11.4,0,0,0-7.008-8.686,40.827,40.827,0,0,0-9.822-2.889,52.629,52.629,0,0,0-13.3-.53,49.509,49.509,0,0,0-12.885,2.967,11.759,11.759,0,0,0-7.362,6.811,29.273,29.273,0,0,0-1.2,5.229c-.411,2.211-.729,4.439-1.08,6.66-.479,3.027-.948,6.056-1.429,9.083q-.919,5.78-1.852,11.557c-.533,3.332-1.043,6.669-1.614,9.994a2.818,2.818,0,0,1-.706,1.436,1.433,1.433,0,0,1-1.8.192,1.614,1.614,0,0,1-.841-1.761c.263-1.8.552-3.6.833-5.4.066-.423.143-.844.23-1.353a6.037,6.037,0,0,0-.632-.068q-43.486.01-86.972.023c-.646,0-1.295-.027-1.94-.077A1.7,1.7,0,0,1,0,150.047c.011-.994.561-1.572,1.7-1.631s2.3-.02,3.452-.028c.138,0,.275-.029.5-.054v-.943q0-5.36,0-10.722c0-1.409.541-1.948,1.964-1.956,1.24-.007,2.48,0,3.791,0V133.8q0-39.184.027-78.368a44.054,44.054,0,0,1,.61-5.845,56.111,56.111,0,0,1,13.62-29.67A57.188,57.188,0,0,1,52.04,2.688,59.618,59.618,0,0,1,64.261.248,54.166,54.166,0,0,1,78.088.707a58.138,58.138,0,0,1,44.769,35.258,50.494,50.494,0,0,1,3.806,14.68c.211,2.287.338,4.584.447,6.879.026.55.338.6.709.709A30.314,30.314,0,0,1,138.9,63.656a15.061,15.061,0,0,1,5.955,10.3,27.116,27.116,0,0,1,.062,3.521,1.241,1.241,0,0,0,.584,1.195,7.132,7.132,0,0,1,2.919,4.043,6.574,6.574,0,0,1-3.015,7.168,2.58,2.58,0,0,0-1.323,1.716,18.813,18.813,0,0,1-8.736,11.482c-.18.108-.343.244-.573.41m-19.264.205a1.766,1.766,0,0,0-.164-.21,3.362,3.362,0,0,0-.294-.207,20.345,20.345,0,0,1-9.264-12.416.869.869,0,0,0-.46-.462,6.578,6.578,0,0,1-.737-11.917,1.128,1.128,0,0,0,.643-1.108c.035-2.072-.222-4.152.518-6.19,1.482-4.082,4.229-6.641,8.548-7.392.5-.087.63-.264.621-.735-.022-1.175-.008-2.35.008-3.525a48.072,48.072,0,0,0-2.654-16.874,44.83,44.83,0,0,0-14.7-20.53,44.477,44.477,0,0,0-26.216-9.745,44.574,44.574,0,0,0-16.9,2.378A45.412,45.412,0,0,0,31.073,32.966,44.882,44.882,0,0,0,24.68,48.254a50.711,50.711,0,0,0-.943,11.012q.009,36.953,0,73.906v1.54h8.33c1.048,0,1.06,0,1.282-1.041q1.127-5.3,2.235-10.607c.568-2.742,1.095-5.493,1.661-8.235.628-3.046,1.327-6.078,1.912-9.132A15.524,15.524,0,0,1,47.02,94.582a35.569,35.569,0,0,1,9.215-3.341c.334-.081.66-.2,1.093-.326l-.722-.764a19.263,19.263,0,0,1-3.455-5.094,1.2,1.2,0,0,0-.852-.737,6.736,6.736,0,0,1-4.679-5.73,6.412,6.412,0,0,1,2.923-6.034,1.253,1.253,0,0,0,.587-1.184c-.027-2.326-.009-4.654-.014-6.98a4.338,4.338,0,0,0-.061-.93c-.787-3.527-1.592-7.05-2.381-10.576a1.443,1.443,0,0,0-1.385-1.245A7.032,7.032,0,0,1,41.131,45.7a7.169,7.169,0,0,1,6.58-8.246c4.127-.357,7.759,3.666,7.449,6.99a11.472,11.472,0,0,0,0,1.869.879.879,0,0,0,.344.614c1.623.971,3.27,1.9,4.9,2.862.4.234.625.121.775-.27.2-.513.377-1.034.58-1.544C62.835,45.284,63.9,42.592,65,39.91a.927.927,0,0,0-.313-1.226,6.765,6.765,0,0,1-2.579-5.48,7.1,7.1,0,0,1,7.209-6.945A6.752,6.752,0,0,1,75.7,30.3a6.561,6.561,0,0,1-.922,7.457c-.434.537-.946,1.009-1.454,1.544l4.312,10.775c1.929-1.087,3.81-2.134,5.669-3.219a.774.774,0,0,0,.2-.653,7.093,7.093,0,0,1,2.648-7.228,6.74,6.74,0,0,1,8.108-.342,7.175,7.175,0,0,1,3.206,7.379A7.269,7.269,0,0,1,91.2,51.648a1.3,1.3,0,0,0-1.3,1.2c-.558,2.694-1.182,5.375-1.838,8.046a18.477,18.477,0,0,0-.7,5.1c.063,1.773.039,3.551,0,5.325a1.275,1.275,0,0,0,.645,1.232A6.506,6.506,0,0,1,86.546,84.2a2.24,2.24,0,0,0-1.2,1.025q-1.267,2.083-2.654,4.092a17.867,17.867,0,0,1-1.4,1.6c.278.085.5.152.724.222,2.256.713,4.539,1.353,6.763,2.156a16.072,16.072,0,0,1,9.356,8.338c1.18,2.429,1.47,5.088,2.052,7.673.081.363.161.728.262,1.189,4.162-4.295,9.685-5.295,15.062-6.8M77.538,93.646c0,.459.007.859,0,1.259a31.078,31.078,0,0,1-.15,5.1,8.174,8.174,0,0,1-16.156.012,46.213,46.213,0,0,1-.215-5.594c-.012-.545-.107-.738-.748-.639a42.759,42.759,0,0,0-10.439,3.074,12.025,12.025,0,0,0-7.259,8.79c-.651,2.844-1.217,5.708-1.81,8.566q-1.735,8.366-3.456,16.735c-.253,1.23-.488,2.464-.745,3.767H46.783c2.309,0,2.3,0,2.613-2.334q.833-6.2,1.694-12.388a1.689,1.689,0,1,1,3.343.374c-.17,1.595-.423,3.181-.653,4.769q-.69,4.758-1.393,9.519h33.77c-.136-.907-.275-1.755-.389-2.606-.318-2.372-.623-4.746-.937-7.118-.2-1.519-.451-3.035-.59-4.559a2.167,2.167,0,0,1,.363-1.4,1.583,1.583,0,0,1,2.826.683,18.343,18.343,0,0,1,.431,2.689c.435,3.319.852,6.641,1.291,9.959a19.137,19.137,0,0,0,.381,1.974c.04.166.24.415.371.418,1.357.031,2.715.019,4.1.019.079-.53.14-.978.214-1.425.608-3.709,1.251-7.412,1.817-11.127a37.181,37.181,0,0,1,1.573-7.285,2.348,2.348,0,0,0,.051-1.195c-.479-2.467-1.006-4.924-1.5-7.39a12.229,12.229,0,0,0-7.147-9.3,42.669,42.669,0,0,0-11.481-3.337M20.325,134.679c.013-.247.031-.433.031-.62q0-37.816-.029-75.632A49.764,49.764,0,0,1,22.86,42.4,47.857,47.857,0,0,1,37.6,20.665,48.2,48.2,0,0,1,64.612,9.225a50.316,50.316,0,0,1,11.4.2,44.659,44.659,0,0,1,11.812,3.214c14.048,6,23.446,16.293,28.2,30.767A45.4,45.4,0,0,1,118.3,58.838c-.006.239.029.478.053.834a12.826,12.826,0,0,1,4.838-1.943c.436-.106.627-.267.617-.766a54.172,54.172,0,0,0-2.1-14.245,53.479,53.479,0,0,0-18.958-27.878,52.331,52.331,0,0,0-28.4-11.149A55.634,55.634,0,0,0,56.236,4.986a54.216,54.216,0,0,0-34.012,25.3A50.866,50.866,0,0,0,15.3,50.516a32.738,32.738,0,0,0-.415,3.629q-.036,39.868-.018,79.734v.8ZM108.677,76.13q0,1.331,0,2.662c0,1.425-.347,1.857-1.689,2.249a3.281,3.281,0,0,0-2.439,2.411,2.949,2.949,0,0,0,.986,3.186,5.074,5.074,0,0,0,1.7.843,2.022,2.022,0,0,1,1.571,1.495c.2.788.356,1.591.619,2.358A16.32,16.32,0,0,0,119.21,101.6a18.033,18.033,0,0,0,6.5.9,14.092,14.092,0,0,0,7.226-1.814,16.213,16.213,0,0,0,8.356-11.531,2.025,2.025,0,0,1,1.52-1.7,3.712,3.712,0,0,0,1.213-.588,3.285,3.285,0,0,0-.974-5.722,2.168,2.168,0,0,1-1.575-2.356c0-1.439.022-2.879-.01-4.317a9.67,9.67,0,0,0-.222-1.921,10.622,10.622,0,0,0-4.628-6.439c-2.957-2.053-6.335-3.234-9.615-4.632-3.329-1.419-7.884.653-9.13,3.663a2.779,2.779,0,0,1-2.8,1.9,7.124,7.124,0,0,0-6.4,7.146c.027.646,0,1.295,0,1.943m-15.25,62.092H9.072c0,3.286,0,6.521,0,9.755,0,.457.3.389.595.389q33.728,0,67.458,0c4.674,0,9.349,0,14.023.017.612,0,.871-.174.833-.816a6.065,6.065,0,0,1,.12-1.355c.339-2,.7-4.005,1.042-6.009.109-.634.185-1.273.287-1.985M54.889,71.854c-.051.267-.127.582-.169.9a2.232,2.232,0,0,1-1.528,2.1,3.249,3.249,0,0,0-2.22,3.742,3.2,3.2,0,0,0,2.861,2.591,2.33,2.33,0,0,1,1.944,1.575,14.767,14.767,0,0,0,4.472,6.326c4.034,3.287,8.5,4.675,13.562,2.7a15.453,15.453,0,0,0,9-9.053,2.47,2.47,0,0,1,2.1-1.594,3.491,3.491,0,0,0,1.489-.612,3.046,3.046,0,0,0,1.185-3.12,3.219,3.219,0,0,0-2.331-2.578,1.662,1.662,0,0,1-1.227-1.183,8.862,8.862,0,0,1-.237-1.339,13.183,13.183,0,0,0-2.089-5.9,1.116,1.116,0,0,0-.806-.408c-1.365-.024-2.741.132-4.093.006a3.605,3.605,0,0,0-3.442,1.6,14.68,14.68,0,0,1-14.476,5.352,37.506,37.506,0,0,1-3.992-1.113M69.322,62.62v.028q7.191,0,14.381.005c.342,0,.575-.005.671-.435.739-3.289,1.4-6.6,2.309-9.844a1.97,1.97,0,0,0-.947-2.568.711.711,0,0,0-.885-.041c-2.361,1.368-4.741,2.7-7.117,4.045a1.438,1.438,0,0,1-2.185-.419,6.373,6.373,0,0,1-.661-1.27Q72.625,46.5,70.4,40.855a.811.811,0,0,0-.823-.579,1.252,1.252,0,0,0-1.59,1.074,10.711,10.711,0,0,1-.567,1.395q-2,5-3.987,10a1.688,1.688,0,0,1-2.727.977q-3-1.693-6.01-3.378c-1.838-1.027-1.208-1.007-2.809.334a1.028,1.028,0,0,0-.218.845c.14.676.424,1.321.582,1.994q.982,4.191,1.918,8.394a.784.784,0,0,0,.916.726c4.746-.029,9.492-.017,14.238-.017m-4.881,32.7c0,1.377-.074,2.644.019,3.9A4.574,4.574,0,0,0,66.5,102.7a4.766,4.766,0,0,0,7.541-3.414c.09-.952.041-1.917.062-2.875.024-1.1-.042-1.156-1.1-.943a7.382,7.382,0,0,0-.769.176,10.179,10.179,0,0,1-5.943.008,18.238,18.238,0,0,0-1.849-.327M69.3,36.984a3.674,3.674,0,0,0,3.8-3.635,3.8,3.8,0,1,0-7.6.09,3.653,3.653,0,0,0,3.8,3.545m1.153,29.1H54.63c-.158,1.514-.169,1.537,1.11,2.154a13.583,13.583,0,0,0,8.921,1.279,11.275,11.275,0,0,0,5.789-3.433M86.787,44.657c-.163,2.226,2.062,3.758,3.741,3.73a3.89,3.89,0,0,0,3.727-3.816,3.717,3.717,0,0,0-3.782-3.7,3.536,3.536,0,0,0-3.686,3.783M51.7,44.665a3.6,3.6,0,0,0-3.647-3.813,3.712,3.712,0,0,0-3.691,3.779,3.837,3.837,0,0,0,3.767,3.753A3.468,3.468,0,0,0,51.7,44.665" transform="translate(0 0)" fill="#543f5c"/>
        <path id="Trazado_642443" data-name="Trazado 642443" d="M247.861,261.7c.04,1.682-.46,2.3-1.544,2.4a1.819,1.819,0,0,1-1.884-1.689q-1.046-7.609-2.1-15.218a1.631,1.631,0,0,1,.644-1.776,1.68,1.68,0,0,1,2.588,1c.607,3.974,1.162,7.957,1.745,11.935.188,1.277.419,2.549.552,3.348" transform="translate(-102.368 -103.557)" fill="#543f5c"/>
        <path id="Trazado_642444" data-name="Trazado 642444" d="M182.984,261.787c.228-1.393.49-2.826.694-4.268.5-3.508.958-7.02,1.45-10.529.193-1.381.55-1.754,1.611-1.794a1.5,1.5,0,0,1,1.723,1.768c-.133,1.357-.34,2.708-.529,4.059-.439,3.128-.909,6.252-1.32,9.383-.133,1.012.01,2.065-.626,2.974a1.593,1.593,0,0,1-2.624.122,5.339,5.339,0,0,1-.378-1.715" transform="translate(-77.308 -103.591)" fill="#543f5c"/>
      </g>
    </g>
  </g>
</svg>
