<svg xmlns="http://www.w3.org/2000/svg" xmlns:xlink="http://www.w3.org/1999/xlink" width="124.417" height="124.418" viewBox="0 0 124.417 124.418">
  <defs>
    <clipPath id="clip-path">
      <rect id="Rectángulo_379462" data-name="Rectángulo 379462" width="115" height="115" transform="translate(389.246 2670.246)" fill="#fff" stroke="#707070" stroke-width="1"/>
    </clipPath>
    <linearGradient id="linear-gradient" x1="0.989" y1="1.001" x2="0.081" y2="0.049" gradientUnits="objectBoundingBox">
      <stop offset="0" stop-color="#8c50af"/>
      <stop offset="1" stop-color="#fbe3b1"/>
    </linearGradient>
    <clipPath id="clip-path-2">
      <rect id="Rectángulo_379477" data-name="Rectángulo 379477" width="84" height="84" transform="translate(403 1987)" fill="#fff" stroke="#707070" stroke-width="1"/>
    </clipPath>
    <clipPath id="clip-path-3">
      <rect id="Rectángulo_379525" data-name="Rectángulo 379525" width="81" height="66.9" fill="#543f5c"/>
    </clipPath>
  </defs>
  <g id="Grupo_1075442" data-name="Grupo 1075442" transform="translate(-386.996 -1889.999)">
    <g id="Enmascarar_grupo_1074681" data-name="Enmascarar grupo 1074681" transform="translate(2.754 -775.246)" clip-path="url(#clip-path)">
      <rect id="Imagen_26" data-name="Imagen 26" width="128.611" height="124.518" transform="translate(382.686 2667.283)" fill="#fff"/>
    </g>
    <path id="Sustracción_210" data-name="Sustracción 210" d="M113.2,113.2H0V0H113.2V113.2ZM6.49,6.49V106.714H106.713V6.49Z" transform="matrix(-0.995, -0.105, 0.105, -0.995, 499.58, 2014.417)" fill="url(#linear-gradient)"/>
    <g id="Enmascarar_grupo_1074686" data-name="Enmascarar grupo 1074686" transform="translate(5 -76)" clip-path="url(#clip-path-2)">
      <g id="Grupo_1075104" data-name="Grupo 1075104" transform="translate(405 1996)">
        <g id="Grupo_1075103" data-name="Grupo 1075103" clip-path="url(#clip-path-3)">
          <path id="Trazado_642305" data-name="Trazado 642305" d="M48.233,46.268V47.4c0,3.009.033,6.019-.012,9.027A4.183,4.183,0,0,1,45.749,60.4a4,4,0,0,1-1.4.344c-.78.058-1.566.025-2.35.024q-7.951,0-15.9-.016a1.7,1.7,0,0,0-1.235.476c-1.925,1.746-3.871,3.47-5.813,5.2-.657.585-1.318.639-1.727.082a2.663,2.663,0,0,1-.42-1.091c-.253-1.442-.47-2.89-.682-4.338-.039-.262-.145-.316-.388-.312-1.032.015-2.065.022-3.1.01a4.1,4.1,0,0,1-4.068-4.148c-.031-2.922-.027-5.844-.027-8.766,0-2.76-.008-5.521.028-8.281a4.068,4.068,0,0,1,3.039-3.923,7.825,7.825,0,0,1,1.664-.176c2.264-.02,4.529-.009,6.794-.011.118,0,.236-.011.45-.022L10.6,25.581c-.029.025-.064.042-.079.07A3.564,3.564,0,0,1,6.143,27.76c-1.176-.255-2.349-.526-3.519-.806a3.512,3.512,0,0,1-2.557-4C.455,21.16.9,19.377,1.3,17.586c.523-2.31,1.023-4.626,1.55-6.936.441-1.934.9-3.864,1.364-5.793a25.057,25.057,0,0,1,.712-2.729A3.526,3.526,0,0,1,8.9.1c1.087.3,2.2.521,3.3.746a3.675,3.675,0,0,1,3.021,2.605c.116.369.3.475.688.473q5.767-.029,11.535-.006a1.123,1.123,0,0,0,.854-.346,7.249,7.249,0,0,1,4.613-2.116,6.433,6.433,0,0,1,3.352.726c1.517.767,3,1.6,4.493,2.418.86.472,1.706.97,2.561,1.452A3.945,3.945,0,0,0,47,6.311c.444-.192.886-.389,1.333-.576.2-.084.243-.2.173-.408a3.436,3.436,0,0,1,2.333-4.308A42.989,42.989,0,0,1,55.163.043a3.424,3.424,0,0,1,3.79,2.569c.555,2.111,1,4.252,1.485,6.38q.708,3.083,1.413,6.167c.407,1.777.824,3.552,1.215,5.332.074.336.185.461.554.459q6.2-.031,12.393-.017a7.649,7.649,0,0,1,1.958.186,4.15,4.15,0,0,1,3.019,4.255c.022,1.293.007,2.586.007,3.879,0,4.029.007,8.058-.007,12.086a7.449,7.449,0,0,1-.17,1.737,4.16,4.16,0,0,1-4.051,3.185c-1.007.017-2.015,0-3.023-.021-.244,0-.327.049-.366.315-.185,1.277-.408,2.548-.613,3.822a5.5,5.5,0,0,1-.051.555,3.065,3.065,0,0,1-.318.9.976.976,0,0,1-1.571.212c-1.033-.877-2.037-1.789-3.051-2.688-1.117-.99-2.229-1.985-3.353-2.966a.715.715,0,0,0-.437-.152c-2.9,0-5.8.022-8.7.031-2.265.007-4.529,0-6.794,0h-.259M31.142,36.933c-.088.2-.135.3-.174.4a4.221,4.221,0,0,1-6.418,1.845A11.465,11.465,0,0,1,23.263,38a.674.674,0,0,0-.545-.226q-4.983.008-9.967,0a1.693,1.693,0,0,0-1.787,1.618c-.037.383-.036.77-.036,1.155q0,7.274.012,14.548c0,.559-.025,1.12.012,1.678a1.694,1.694,0,0,0,1.825,1.749c1.294.022,2.588,0,3.882.009a4.427,4.427,0,0,1,.594.038,1.106,1.106,0,0,1,1,.924c.174.887.275,1.788.422,2.681.073.442.177.88.279,1.374.335-.309.594-.557.863-.795,1.4-1.238,2.8-2.464,4.186-3.714a1.873,1.873,0,0,1,1.34-.525q9.015.02,18.03.013c.224,0,.448,0,.672-.013a1.706,1.706,0,0,0,1.8-1.88q0-4.756,0-9.512c0-2.524-.01-5.048,0-7.573a1.734,1.734,0,0,0-1.783-1.783c-.469.044-.946-.016-1.417.015a4.121,4.121,0,0,1-2.741-.893c-.073-.053-.157-.092-.23-.135a7.405,7.405,0,0,1-.321.78,4.218,4.218,0,0,1-6.571,1.09c-.561-.507-1.057-1.085-1.64-1.689m-5.5-30.756H25.1q-4.871-.011-9.742-.026a.307.307,0,0,0-.36.276c-.1.434-.228.863-.328,1.3q-.9,3.9-1.793,7.8c-.512,2.237-.99,4.483-1.551,6.708a1.11,1.11,0,0,0,.319,1.274c3.087,2.98,6.147,5.987,9.213,8.988,1.591,1.557,3.172,3.125,4.769,4.676a1.927,1.927,0,0,0,2.641.2,1.962,1.962,0,0,0,.52-2.531,4.15,4.15,0,0,0-.731-.886c-.988-1-1.995-1.98-2.982-2.979a2.312,2.312,0,0,1-.445-.632.988.988,0,0,1,.355-1.191c.51-.405.778-.44,1.231-.084a11.748,11.748,0,0,1,.957.884q2.951,2.9,5.9,5.816c.468.461.9.961,1.413,1.372A1.984,1.984,0,0,0,37.563,36a2.124,2.124,0,0,0-.679-2.089c-1-.984-2.023-1.951-3.018-2.943q-1.928-1.922-3.824-3.876a1.142,1.142,0,0,1,.015-1.664,1.243,1.243,0,0,1,1.582.14q4.558,4.545,9.117,9.089a4.686,4.686,0,0,0,.712.6,1.985,1.985,0,0,0,2.395-.127,1.965,1.965,0,0,0,.519-2.356,3.278,3.278,0,0,0-.638-.86q-4.323-4.331-8.664-8.645c-.123-.123-.249-.244-.36-.377a1.116,1.116,0,0,1,.48-1.771c.591-.22.978.121,1.345.483q3.151,3.1,6.29,6.216c.821.814,1.6,1.672,2.45,2.454a2,2,0,0,0,2.823-2.823c-.2-.2-.393-.416-.6-.617q-3.978-3.936-7.957-7.871c-1.016-1.007-2.014-2.031-3.028-3.04a3.415,3.415,0,0,0-1.848-1.059,4.81,4.81,0,0,0-3.72.771,28.677,28.677,0,0,1-3.2,1.9,8.206,8.206,0,0,1-4.371,1.029A7.146,7.146,0,0,1,18.4,15.8a1.093,1.093,0,0,1,.089-1.781A70.228,70.228,0,0,0,25.36,6.614a4.416,4.416,0,0,0,.285-.437m45.033,42.8c.069-.264.139-.462.171-.666.056-.356.076-.717.132-1.072.1-.625.249-1.243.31-1.871.1-1.012.482-1.395,1.5-1.4,1.331,0,2.662.013,3.993-.01a1.781,1.781,0,0,0,1.816-1.37,4.094,4.094,0,0,0,.088-.887q.008-8,0-16c0-.224,0-.448-.017-.671a1.829,1.829,0,0,0-2.038-1.881q-6.252,0-12.5-.007c-.337,0-.441.078-.441.431a3.542,3.542,0,0,1-2.613,3.377q-2.122.489-4.252.937a2.281,2.281,0,0,1-.774,0,3.758,3.758,0,0,1-2.308-1.256.459.459,0,0,0-.4-.112c-.747.3-1.485.631-2.217.971a2.675,2.675,0,0,0-.474.366l.029.154a6.494,6.494,0,0,0,.806.1c2.375,0,4.751,0,7.126-.007q6.588-.007,13.175-.01a4.452,4.452,0,0,1,.559.02,1.194,1.194,0,0,1,1.034,1.14,1.1,1.1,0,0,1-1.047,1.058c-.5.036-.994.036-1.492.036q-9.854,0-19.708-.025a.783.783,0,0,0-.791.5A4.151,4.151,0,0,1,47.1,33c-.3.041-.378.126-.353.4a3.4,3.4,0,0,1-.6,2.4c-.119.162-.045.255.106.355a4.354,4.354,0,0,1,1.964,3.7c.047,1.266.007,2.536.007,3.8,0,.1.012.19.021.318h3.973q5.991,0,11.981,0a1.989,1.989,0,0,1,1.484.559c.561.545,1.163,1.049,1.749,1.569,1.058.939,2.118,1.877,3.24,2.872M20.744,15.054a4.492,4.492,0,0,0,2.349,1.224A6.2,6.2,0,0,0,27,15.465c1.07-.6,2.112-1.258,3.148-1.918a6.246,6.246,0,0,1,3.689-1.109,6.141,6.141,0,0,1,3.9,1.581c.724.664,1.429,1.348,2.125,2.041q4.651,4.632,9.292,9.275c.431.43.433.419.995.165.781-.352,1.56-.709,2.353-1.032.282-.115.324-.241.256-.524-.44-1.845-.857-3.7-1.284-5.545-.466-2.018-.939-4.035-1.4-6.053q-.479-2.086-.936-4.176c-.047-.215-.123-.278-.327-.191-.3.126-.6.241-.9.363a6.061,6.061,0,0,1-5.357-.2c-1.02-.54-2-1.15-3.019-1.7-1.484-.8-2.939-1.679-4.486-2.339a4.487,4.487,0,0,0-4.943.808A20.625,20.625,0,0,0,28.19,6.786C26.443,8.742,24.738,10.736,23,12.7c-.709.8-1.472,1.545-2.251,2.357m35.85,10.585a6.494,6.494,0,0,0,.7-.082c1.028-.23,2.056-.462,3.079-.715a1.262,1.262,0,0,0,1.017-1.654q-.5-2.234-1.011-4.464c-.539-2.332-1.089-4.661-1.627-6.993-.452-1.958-.894-3.918-1.341-5.877-.173-.761-.391-1.515-.511-2.284a1.318,1.318,0,0,0-1.679-1.263c-1.145.223-2.279.5-3.419.749A1.278,1.278,0,0,0,50.67,4.783q.585,2.691,1.2,5.375c.592,2.6,1.2,5.2,1.792,7.795.491,2.152.94,4.315,1.468,6.458.238.967.65,1.291,1.466,1.228m-49.81-.024c1.155.029,1.678-.422,1.8-1.283.034-.233.081-.465.133-.694q.848-3.7,1.7-7.4,1.039-4.514,2.079-9.028c.189-.822.382-1.644.543-2.472a1.23,1.23,0,0,0-.908-1.622c-1.194-.288-2.393-.558-3.6-.8a1.3,1.3,0,0,0-1.73,1.157c-.148.653-.28,1.309-.43,1.961q-1.079,4.7-2.164,9.39Q3.25,19.034,2.3,23.244a1.192,1.192,0,0,0,.9,1.549c.45.138.916.223,1.375.327.833.188,1.666.373,2.212.5" transform="translate(0 0)" fill="#543f5c"/>
          <path id="Trazado_642306" data-name="Trazado 642306" d="M66.733,171.177q5.263,0,10.525,0a1.288,1.288,0,0,1,1.29.561,1.129,1.129,0,0,1-.707,1.677,2.681,2.681,0,0,1-.627.066q-10.507,0-21.013,0a4.175,4.175,0,0,1-.741-.062,1.06,1.06,0,0,1-.9-1.1,1.107,1.107,0,0,1,.946-1.079,8.047,8.047,0,0,1,1.041-.053q5.095-.006,10.189,0Z" transform="translate(-38.212 -119.893)" fill="#543f5c"/>
          <path id="Trazado_642307" data-name="Trazado 642307" d="M66.531,148.64q5.26,0,10.519,0a1.486,1.486,0,0,1,1.216.334,1.079,1.079,0,0,1,.289,1.129.972.972,0,0,1-.9.726c-.321.027-.646.031-.969.031q-9.7,0-19.4-.007c-.634,0-1.268.01-1.9-.019a1.056,1.056,0,0,1-.971-1.036,1.192,1.192,0,0,1,.956-1.13,6.4,6.4,0,0,1,.707-.028q5.222,0,10.445,0" transform="translate(-38.118 -104.108)" fill="#543f5c"/>
          <path id="Trazado_642308" data-name="Trazado 642308" d="M175.884,120.06q5.392,0,10.784,0a1.278,1.278,0,0,1,1.041.387,1.054,1.054,0,0,1-.508,1.8,6.189,6.189,0,0,1-.963.091q-10.261.006-20.523,0a6.237,6.237,0,0,1-1.112-.081,1.114,1.114,0,0,1-.864-1.145,1.194,1.194,0,0,1,1.1-1.032c.261-.008.522,0,.784,0h10.261Z" transform="translate(-114.682 -84.087)" fill="#543f5c"/>
        </g>
      </g>
    </g>
  </g>
</svg>
