<svg xmlns="http://www.w3.org/2000/svg" xmlns:xlink="http://www.w3.org/1999/xlink" width="124.417" height="124.418" viewBox="0 0 124.417 124.418">
  <defs>
    <clipPath id="clip-path">
      <rect id="Rectángulo_379474" data-name="Rectángulo 379474" width="115" height="115" transform="translate(389.246 2670.246)" fill="#fff" stroke="#707070" stroke-width="1"/>
    </clipPath>
    <linearGradient id="linear-gradient" x1="0.989" y1="1.001" x2="0.081" y2="0.049" gradientUnits="objectBoundingBox">
      <stop offset="0" stop-color="#8c50af"/>
      <stop offset="1" stop-color="#fbe3b1"/>
    </linearGradient>
    <clipPath id="clip-path-2">
      <rect id="Rectángulo_379486" data-name="Rectángulo 379486" width="84" height="84" transform="translate(399 1987)" fill="#fff" stroke="#707070" stroke-width="1"/>
    </clipPath>
    <clipPath id="clip-path-3">
      <rect id="Rectángulo_379487" data-name="Rectángulo 379487" width="77.237" height="77" fill="#543f5c"/>
    </clipPath>
  </defs>
  <g id="Grupo_1075438" data-name="Grupo 1075438" transform="translate(-1763.306 9664.857)">
    <g id="Enmascarar_grupo_1074685" data-name="Enmascarar grupo 1074685" transform="translate(1378.962 -12330.102)" clip-path="url(#clip-path)">
      <rect id="Imagen_31" data-name="Imagen 31" width="128.611" height="124.518" transform="translate(382.686 2667.283)" fill="#fff"/>
    </g>
    <path id="Sustracción_214" data-name="Sustracción 214" d="M113.2,113.2H0V0H113.2V113.2ZM6.49,6.49V106.714H106.713V6.49Z" transform="matrix(-0.995, -0.105, 0.105, -0.995, 1875.89, -9540.439)" fill="url(#linear-gradient)"/>
    <g id="Enmascarar_grupo_1074689" data-name="Enmascarar grupo 1074689" transform="translate(1385.208 -11630.855)" clip-path="url(#clip-path-2)">
      <g id="Grupo_1075075" data-name="Grupo 1075075" transform="translate(402.492 1990.5)">
        <g id="Grupo_1075074" data-name="Grupo 1075074" clip-path="url(#clip-path-3)">
          <path id="Trazado_642242" data-name="Trazado 642242" d="M51.792,26.805a3.283,3.283,0,0,0,0,2.212c.441.969.788,1.979,1.2,2.962a1.964,1.964,0,0,0,.412.526c.183.2.4.36.578.562q4.869,5.645,9.729,11.3Q69.071,50.6,74.433,56.842q1.272,1.48,2.53,2.97a1.257,1.257,0,0,1,.012,1.551,1.209,1.209,0,0,1-1.651.239,3.765,3.765,0,0,1-.606-.586q-5.1-5.928-10.2-11.862-2.784-3.238-5.562-6.481c-.215-.252-.351-.279-.613-.06q-3.217,2.694-6.454,5.364c-.187.155-.388.292-.61.459a2.241,2.241,0,0,0,.147.23q6.2,7.6,12.409,15.2,4.495,5.5,8.993,11a3.466,3.466,0,0,1,.437.634,1.209,1.209,0,0,1-1.048,1.714,1.369,1.369,0,0,1-1.23-.651q-1.972-2.405-3.941-4.814-5.787-7.083-11.574-14.167Q49.9,50.768,44.329,43.962c-.5-.608-1.007-1.206-1.478-1.834a1.117,1.117,0,0,1,.2-1.792c.555-.42.518-.8.355-1.41-.634-2.373-2.062-4.319-3.281-6.379-.012-.02-.038-.03-.091-.069L35.1,39.848a5.455,5.455,0,0,0,.41.437,1.363,1.363,0,0,1,.021,2.042c-1.232,1.232-2.426,2.5-3.637,3.755q-4.272,4.421-8.547,8.84-4.108,4.248-8.216,8.494Q10.311,68.407,5.5,73.4C4.4,74.543,3.3,75.688,2.2,76.822a1.34,1.34,0,0,1-1.586.237A1.258,1.258,0,0,1,.319,75.17c.329-.38.69-.732,1.04-1.093q6.163-6.357,12.325-12.716c3.613-3.744,7.2-7.513,10.81-11.261.508-.527,1.079-.995,1.559-1.433l-7.63-7.726c-.981.947-1.933,1.885-2.9,2.8q-4.7,4.432-9.412,8.853c-1.251,1.177-2.5,2.36-3.748,3.536a1.415,1.415,0,0,1-1.441.517,1.238,1.238,0,0,1-.562-2.037c1.25-1.232,2.53-2.432,3.8-3.638q4.773-4.517,9.552-9.026,2.8-2.641,5.6-5.28,2.732-2.575,5.468-5.146a1.265,1.265,0,0,1,2.045.051c.068.068.14.132.238.224.321-.3.634-.591.937-.889.429-.422.833-.869,1.281-1.269a.837.837,0,0,0,.272-.852c-.117-.7-.234-1.4-.322-2.107-.052-.42-.049-.846-.075-1.371-.352.234-.625.41-.892.595A88.513,88.513,0,0,0,20.1,32.719Q14.2,37.937,8.3,43.158q-2.963,2.624-5.915,5.259a3.084,3.084,0,0,1-.556.418A1.229,1.229,0,0,1,.27,48.5a1.258,1.258,0,0,1,.093-1.62c.909-.842,1.846-1.653,2.773-2.475L15.888,33.1c.227-.2.452-.405.694-.623L15.6,31.109c-1.579-2.2-3.164-4.4-4.731-6.615-.193-.273-.329-.264-.586-.1q-4.1,2.531-8.209,5.045a1.344,1.344,0,0,1-1.322.173,1.2,1.2,0,0,1-.3-2.053c.687-.509,1.44-.93,2.171-1.379q7.192-4.418,14.387-8.831c.094-.058.189-.113.286-.167a1.206,1.206,0,0,1,1.806.415.746.746,0,0,0,.946.4c1.148-.3,2.309-.557,3.46-.847a.6.6,0,0,0,.293-.252q2.7-4.013,5.393-8.032c1-1.488,2.024-2.956,2.971-4.474A7.109,7.109,0,0,1,37.511.956c.859-.117,1.707-.327,2.555-.519a3.853,3.853,0,0,1,2.267.1c1.563.573,3.148,1.085,4.738,1.582A6.846,6.846,0,0,1,51.1,5.294q3.774,6.462,7.561,12.917a2.5,2.5,0,0,0,.562.671c1.659,1.342,3.332,2.668,5.029,4.023.176-.15.349-.3.524-.446a1.3,1.3,0,0,1,1.875.073q3.107,3.064,6.207,6.135c1.34,1.332,2.654,2.69,4,4.013A1.315,1.315,0,0,1,76.6,34.7a1.165,1.165,0,0,1-1.284-.059,10.34,10.34,0,0,1-.912-.853q-1.073-1.062-2.135-2.134c-.161-.164-.26-.172-.449-.01q-3.542,3.05-7.108,6.073c-.236.2-.178.311-.014.5q2.945,3.316,5.882,6.642,3.2,3.63,6.394,7.269a1.261,1.261,0,0,1,0,1.525,1.123,1.123,0,0,1-1.6.275,6.444,6.444,0,0,1-.9-.869Q70.008,48,65.539,42.932q-4.8-5.416-9.6-10.822a1.454,1.454,0,0,1-.465-1.43c.02-.07.03-.16.078-.2.346-.3.135-.533-.027-.844a4.536,4.536,0,0,0-2.577-2.269,12.091,12.091,0,0,1-1.154-.559m-18.5,11.217c.041-.051.09-.1.129-.162l8.226-12.29c.525-.785,1.046-1.573,1.577-2.353a3.337,3.337,0,0,0,.446-2.881c-.113-.416-.224-.454-.591-.242q-1,.58-2,1.174c-1.022.608-2.039,1.224-3.061,1.831a1.321,1.321,0,0,1-1.452-.067,1.222,1.222,0,0,1-.446-1.3q1.646-4.109,3.3-8.216,1.745-4.367,3.476-8.74a1.289,1.289,0,0,0-.5-1.5c-.183-.116-.386-.2-.609-.312-.25.372-.495.722-.726,1.08q-2.574,3.987-5.144,7.977-2.112,3.278-4.22,6.558a3.685,3.685,0,0,0-.632,2.411c.172,1.584.407,3.16.613,4.74.154,1.179.3,2.359.456,3.538a1.736,1.736,0,0,1-.577,1.619c-.685.632-1.325,1.312-1.99,1.966-.252.248-.52.478-.707.649l4.431,4.528M43.811,9.3l-3.861,9.623.112.057.244-.149c.945-.568,1.883-1.148,2.838-1.7a1.118,1.118,0,0,1,1.531.2,5.176,5.176,0,0,1,1.531,2.8,5.9,5.9,0,0,1-.987,4.614c-1.175,1.69-2.3,3.419-3.449,5.124a.413.413,0,0,0-.019.525c.954,1.557,1.9,3.116,2.835,4.687a8.251,8.251,0,0,1,.577,1.266c.2.532.367,1.08.556,1.645a1.941,1.941,0,0,0,.185-.119q2.434-2.079,4.871-4.155c.17-.144.114-.257.051-.412-.541-1.326-1.071-2.657-1.618-3.981a2.608,2.608,0,0,1-.155-1.472c.321-1.921.626-3.844.928-5.768a3.31,3.31,0,0,0-.336-2.072c-.748-1.433-1.527-2.85-2.3-4.269-1.15-2.107-2.307-4.209-3.531-6.441M62.332,24.566c-1.514-1.205-2.974-2.343-4.4-3.518a5.5,5.5,0,0,1-1.261-1.313c-1.705-2.836-3.357-5.7-5.028-8.561-.953-1.63-1.9-3.263-2.862-4.887a4.51,4.51,0,0,0-3.2-1.967c-.144.566-.3,1.1-.409,1.654a1.112,1.112,0,0,0,.06.689q3.088,5.686,6.213,11.353a6.885,6.885,0,0,1,1.024,4.639c-.069.386-.118.777-.2,1.159a.432.432,0,0,0,.282.576c.614.278,1.215.582,1.816.889,2.2,1.121,1.675.658,3.033,2.675.113.169.235.332.364.513l4.572-3.9M27.745,46.715c.191-.169.345-.288.478-.426q2.212-2.289,4.42-4.582c.371-.384.379-.374,0-.755q-3.025-3.013-6.047-6.027c-.285-.284-.561-.577-.859-.885l-5.365,5.1,7.379,7.575m-3-21.273c.278-.221.522-.424.776-.614.952-.714,1.9-1.429,2.863-2.131a.572.572,0,0,0,.254-.644,6.922,6.922,0,0,1,1.033-4.991c2.688-4.132,5.35-8.28,8.023-12.422.256-.4.514-.792.8-1.227a1.741,1.741,0,0,0-.233-.02,4.936,4.936,0,0,0-3.987,2.327c-2.805,4.3-5.685,8.561-8.529,12.841a2.029,2.029,0,0,1-1.264.933q-1.233.284-2.459.6c-.29.074-.571.185-.9.294l3.629,5.056m33.708,5.726,4.35,4.911,7.433-6.337-4.672-4.668-7.112,6.093m-1.409,9.273c-1.391-1.613-2.75-3.175-4.088-4.756-.227-.269-.355-.26-.607-.045q-3.295,2.823-6.607,5.626a2.5,2.5,0,0,0-.21.225c.263.322.5.615.744.91,1.081,1.332,2.164,2.662,3.237,4,.164.2.256.082.382-.022q2.676-2.217,5.354-4.431c.593-.491,1.18-.99,1.795-1.508M12.789,22.894l3.961,5.522q.761,1.062,1.525,2.121c.119.166.237.273.443.089q1.934-1.73,3.879-3.447c.142-.126.175-.223.044-.4-.55-.737-1.08-1.489-1.617-2.235l-3.07-4.273c-.163-.228-.3-.429-.644-.212-1.356.859-2.728,1.694-4.093,2.54-.143.089-.279.19-.429.293" transform="translate(0 -0.222)" fill="#543f5c"/>
          <path id="Trazado_642243" data-name="Trazado 642243" d="M93.84,196.56h-11.6a3.67,3.67,0,0,1-3.534-2.436,5.069,5.069,0,0,1-.274-1.654q-.031-6.15,0-12.3a3.867,3.867,0,0,1,3.028-3.957,6.878,6.878,0,0,1,1.427-.113q2.78-.014,5.559.011c.264,0,.3-.089.3-.317,0-.908-.029-1.82.053-2.722a3.845,3.845,0,0,1,2.91-3.287,1.8,1.8,0,0,1,.475-.037c1.043,0,2.086,0,3.129,0a3.84,3.84,0,0,1,3.7,3.838c.008.712.019,1.424,0,2.136-.009.3.044.4.373.4,1.951-.021,3.9-.015,5.854-.02a4.015,4.015,0,0,1,2.69.921,3.794,3.794,0,0,1,1.391,3.006q.02,6.352.006,12.7a3.876,3.876,0,0,1-2.689,3.707,2.357,2.357,0,0,1-.755.119q-6.02.011-12.039.005M80.916,185.079v.4q0,3.535,0,7.071a1.405,1.405,0,0,0,1.509,1.559c.527.014,1.055-.024,1.582-.023q10.6.007,21.207.02a1.437,1.437,0,0,0,1.619-1.6q0-3.517,0-7.034v-.389Zm25.918-2.628c0-.758,0-1.48,0-2.2a1.506,1.506,0,0,0-1.663-1.66H82.649c-.1,0-.2,0-.294,0a1.443,1.443,0,0,0-1.412,1.216c-.067.874-.016,1.757-.016,2.645Zm-10.261-6.336c-.053-.981-.048-1.936-.177-2.872a1.141,1.141,0,0,0-1.177-1.022c-.907-.016-1.815-.022-2.721.017a1.331,1.331,0,0,0-1.271,1.362c-.009.736,0,1.472-.006,2.208,0,.21.044.312.283.311,1.643-.008,3.286,0,5.069,0" transform="translate(-55.247 -119.588)" fill="#543f5c"/>
          <path id="Trazado_642244" data-name="Trazado 642244" d="M32.659,34.92a1.268,1.268,0,0,1,1.382,1.111,1.2,1.2,0,0,1-1,1.328Q29.9,37.95,26.75,38.52q-3.792.693-7.586,1.379a1.346,1.346,0,0,1-1.631-.583,1.105,1.105,0,0,1,.327-1.554,1.553,1.553,0,0,1,.727-.327c2.709-.494,5.423-.965,8.134-1.452,1.855-.333,3.707-.681,5.561-1.02.156-.028.316-.037.377-.043" transform="translate(-12.213 -24.601)" fill="#543f5c"/>
          <path id="Trazado_642245" data-name="Trazado 642245" d="M200.368,5.774a1.171,1.171,0,0,1-.527.911,3,3,0,0,1-.832.366c-1.789.457-3.583.894-5.376,1.337-1.484.367-2.965.742-4.452,1.095a1.272,1.272,0,0,1-1.489-.586,1.187,1.187,0,0,1,.191-1.456,1.589,1.589,0,0,1,.661-.366c1.953-.506,3.912-.993,5.869-1.483,1.446-.362,2.891-.729,4.34-1.079a1.293,1.293,0,0,1,1.615,1.262" transform="translate(-132.114 -3.152)" fill="#543f5c"/>
          <path id="Trazado_642246" data-name="Trazado 642246" d="M216.479,44.332c-.239-.05-.48-.092-.716-.151q-3.845-.961-7.688-1.927c-.652-.163-1.308-.308-1.96-.471a1.286,1.286,0,0,1-.919-1.961,1.087,1.087,0,0,1,1.164-.532c.876.172,1.744.384,2.611.6q3.847.954,7.689,1.927a1.262,1.262,0,0,1-.181,2.516" transform="translate(-144.412 -27.665)" fill="#543f5c"/>
          <path id="Trazado_642247" data-name="Trazado 642247" d="M57.885,0a5.176,5.176,0,0,1,.782.232q3.639,1.8,7.269,3.617a1.793,1.793,0,0,1,.918.859,1.08,1.08,0,0,1-.189,1.23,1.115,1.115,0,0,1-1.214.413,5.923,5.923,0,0,1-.945-.4q-3.471-1.725-6.938-3.461A1.254,1.254,0,0,1,57.1.376,2.922,2.922,0,0,1,57.885,0" transform="translate(-39.932)" fill="#543f5c"/>
        </g>
      </g>
    </g>
  </g>
</svg>
