<svg xmlns="http://www.w3.org/2000/svg" xmlns:xlink="http://www.w3.org/1999/xlink" width="124.417" height="124.418" viewBox="0 0 124.417 124.418">
  <defs>
    <clipPath id="clip-path">
      <rect id="Rectángulo_379464" data-name="Rectángulo 379464" width="115" height="115" transform="translate(389.246 2670.246)" fill="#fff" stroke="#707070" stroke-width="1"/>
    </clipPath>
    <linearGradient id="linear-gradient" x1="0.989" y1="1.001" x2="0.081" y2="0.049" gradientUnits="objectBoundingBox">
      <stop offset="0" stop-color="#8c50af"/>
      <stop offset="1" stop-color="#fbe3b1"/>
    </linearGradient>
    <clipPath id="clip-path-2">
      <rect id="Rectángulo_379480" data-name="Rectángulo 379480" width="84" height="84" transform="translate(405 1987)" fill="#fff" stroke="#707070" stroke-width="1"/>
    </clipPath>
    <clipPath id="clip-path-3">
      <rect id="Rectángulo_379526" data-name="Rectángulo 379526" width="77.294" height="77.018" fill="#543f5c"/>
    </clipPath>
  </defs>
  <g id="Grupo_1075443" data-name="Grupo 1075443" transform="translate(-739.098 -1889.999)">
    <g id="Enmascarar_grupo_1074683" data-name="Enmascarar grupo 1074683" transform="translate(354.754 -775.246)" clip-path="url(#clip-path)">
      <rect id="Imagen_28" data-name="Imagen 28" width="128.611" height="124.518" transform="translate(382.686 2667.283)" fill="#fff"/>
    </g>
    <path id="Sustracción_212" data-name="Sustracción 212" d="M113.2,113.2H0V0H113.2V113.2ZM6.49,6.49V106.714H106.713V6.49Z" transform="matrix(-0.995, -0.105, 0.105, -0.995, 851.682, 2014.417)" fill="url(#linear-gradient)"/>
    <g id="Enmascarar_grupo_1074687" data-name="Enmascarar grupo 1074687" transform="translate(355 -76)" clip-path="url(#clip-path-2)">
      <g id="Grupo_1075106" data-name="Grupo 1075106" transform="translate(408 1990)">
        <g id="Grupo_1075105" data-name="Grupo 1075105" clip-path="url(#clip-path-3)">
          <path id="Trazado_642309" data-name="Trazado 642309" d="M72.477,43.591A31.9,31.9,0,0,1,72,48.818a.582.582,0,0,0,.3.706,8.509,8.509,0,0,1,3.8,5.417,11.514,11.514,0,0,1,.1,4.822,24.871,24.871,0,0,1-1.035,3.959c-.039.1.051.291.132.4a15.546,15.546,0,0,1,1.281,1.7,6,6,0,0,1-9.767,6.792.5.5,0,0,0-.4-.109c-1.247.306-2.479.676-3.734.942a11.611,11.611,0,0,1-5.863-.235c-.447-.135-.866-.362-1.3-.535a.414.414,0,0,0-.3-.023,32.494,32.494,0,0,1-6.866,2.914A32.843,32.843,0,0,1,37.871,77a39.5,39.5,0,0,1-4.388-.426A33.494,33.494,0,0,1,22.138,72.7a.536.536,0,0,0-.42.016,10.677,10.677,0,0,1-2.9.853,13.252,13.252,0,0,1-5.164-.317c-.915-.21-1.814-.489-2.715-.753a.406.406,0,0,0-.495.148,5.717,5.717,0,0,1-1.92,1.379A5.972,5.972,0,0,1,.376,70.592a5.749,5.749,0,0,1,1.477-6.276.723.723,0,0,0,.189-.908A20.857,20.857,0,0,1,1.01,58.885a10.2,10.2,0,0,1,1.143-6.362A8.349,8.349,0,0,1,5.09,49.474a.427.427,0,0,0,.238-.517,30.166,30.166,0,0,1-.445-7.351,43.8,43.8,0,0,1,.7-5.219,32.942,32.942,0,0,1,5.085-11.934A33.409,33.409,0,0,1,24.557,12.714c.271-.124.547-.241.811-.378a.832.832,0,0,0,.315-.253A13.361,13.361,0,0,1,29.81,8.175c.8-.512,1.644-.966,2.488-1.406a.552.552,0,0,0,.351-.576A5.906,5.906,0,0,1,35.793.748a5.988,5.988,0,0,1,8.386,2.9,8.151,8.151,0,0,1,.53,2.621.548.548,0,0,0,.372.525,18.366,18.366,0,0,1,5.254,3.683c.431.442.778.965,1.181,1.435a1.762,1.762,0,0,0,.555.48,35.726,35.726,0,0,1,7.878,4.78,33.693,33.693,0,0,1,8.191,9.647,33.039,33.039,0,0,1,3.266,8.089,34.129,34.129,0,0,1,1.07,8.685M7.539,47.973a2.654,2.654,0,0,0,.286-.119q1.648-.936,3.293-1.878a4.3,4.3,0,0,1,2.875-.587,4.194,4.194,0,0,1,3.42,5.185,4.377,4.377,0,0,1-2.258,2.741c-1.033.578-2.04,1.2-3.087,1.754a1.7,1.7,0,0,0-1.129,1.41,1.153,1.153,0,0,1-.085.262,1.189,1.189,0,0,1-1.417.891,1.237,1.237,0,0,1-.852-1.546c.11-.434.227-.866.348-1.3a1.728,1.728,0,0,1,.84-1.087c.842-.473,1.676-.958,2.511-1.442.706-.41,1.416-.811,2.108-1.242a1.8,1.8,0,0,0,.476-2.546,1.918,1.918,0,0,0-2.524-.485c-.637.344-1.26.714-1.886,1.078-1.411.819-2.842,1.607-4.225,2.47a5.9,5.9,0,0,0-2.76,4.152,12.181,12.181,0,0,0,.215,4.894c.151.647.35,1.284.5,1.932.06.266.163.278.406.243a7.287,7.287,0,0,1,3.434.193,5.968,5.968,0,0,1,3.839,6.9c-.1.35,0,.509.33.6a14.322,14.322,0,0,0,4.734.776,7.094,7.094,0,0,1,1.1,0,4.927,4.927,0,0,0,2.116-.394,6.243,6.243,0,0,0,3.328-2.913q1.484-2.547,2.956-5.1a7.089,7.089,0,0,0,.514-1.085,1.77,1.77,0,0,0-2.015-2.227,1.941,1.941,0,0,0-1.482,1.108c-.766,1.349-1.561,2.681-2.318,4.035a1.9,1.9,0,0,1-1.343,1.075,13.916,13.916,0,0,1-1.642.358,1.093,1.093,0,0,1-1.087-1.013,1.155,1.155,0,0,1,.709-1.216,3.968,3.968,0,0,1,.824-.242.975.975,0,0,0,.732-.539c.745-1.322,1.491-2.643,2.285-3.935a4.18,4.18,0,0,1,7.71,2.8,5.155,5.155,0,0,1-.652,1.689c-1.5,2.481-2.725,5.133-4.592,7.436A30.5,30.5,0,0,0,36.4,74.525a31.041,31.041,0,0,0,16.837-3.481A15.782,15.782,0,0,1,52.1,69.555q-1.861-3.124-3.653-6.289a3.881,3.881,0,0,1-.408-2.865,4.222,4.222,0,0,1,4.97-3.193,4.408,4.408,0,0,1,2.908,2.253c.7,1.238,1.428,2.466,2.136,3.7a.757.757,0,0,0,.551.411,4.668,4.668,0,0,1,.984.3,1.132,1.132,0,0,1,.6,1.473,1.145,1.145,0,0,1-1.368.694c-.458-.11-.909-.25-1.37-.34a1.694,1.694,0,0,1-1.18-.919c-.347-.609-.693-1.219-1.048-1.823-.547-.931-1.065-1.882-1.663-2.78a1.835,1.835,0,0,0-2.927,2.212c.957,1.637,1.893,3.286,2.858,4.918a14.422,14.422,0,0,0,1.184,1.775,5.5,5.5,0,0,0,3.91,2.1,13.287,13.287,0,0,0,4.76-.268c.617-.18,1.241-.335,1.861-.5.254-.069.356-.2.268-.483a5.372,5.372,0,0,1,.613-4.309,5.744,5.744,0,0,1,4.076-2.912,11.083,11.083,0,0,1,2.606.052c.143.006.29.112.348-.126.15-.622.314-1.242.466-1.864a13.557,13.557,0,0,0,.358-4.344,5.9,5.9,0,0,0-2.752-4.814c-2.129-1.316-4.325-2.526-6.526-3.719a2.056,2.056,0,0,0-1.366-.073,1.6,1.6,0,0,0-1.145,1.314,1.694,1.694,0,0,0,.659,1.806,7.038,7.038,0,0,0,.609.39c1.364.787,2.727,1.575,4.1,2.352a1.6,1.6,0,0,1,.789.918,15.388,15.388,0,0,1,.445,1.624,1.172,1.172,0,0,1-2.281.541c-.1-.294-.154-.6-.27-.888a.915.915,0,0,0-.333-.432c-1.327-.781-2.678-1.523-4-2.314A4.133,4.133,0,0,1,60.3,47.474a4.2,4.2,0,0,1,5.773-1.565c.983.55,1.95,1.127,2.927,1.687.241.139.492.259.75.394A31.364,31.364,0,0,0,53.079,15.467c-.03.057-.049.077-.048.1,0,.08.012.16.022.239a7.282,7.282,0,0,1-.091,2.744c-.605,2.369-1.263,4.724-1.856,7.1a4.214,4.214,0,0,1-8.216-1.866c.4-1.521.845-3.03,1.243-4.552a1.307,1.307,0,0,0-.077-.716,7.366,7.366,0,0,0-.407-.757,1.158,1.158,0,1,1,1.983-1.193,11.85,11.85,0,0,1,.893,1.55,1.445,1.445,0,0,1,.087.891c-.409,1.636-.858,3.263-1.3,4.891a2.3,2.3,0,0,0-.055,1.323,1.854,1.854,0,0,0,1.82,1.273,1.811,1.811,0,0,0,1.735-1.421c.463-1.706.928-3.411,1.369-5.123a16.585,16.585,0,0,0,.6-2.753,6.167,6.167,0,0,0-1.641-4.548A14.786,14.786,0,0,0,44.8,9.287c-.28-.153-.56-.3-.85-.461-.051.086-.085.145-.121.2a6,6,0,0,1-10.28.081c-.13-.2-.226-.28-.462-.15a21.951,21.951,0,0,0-3.437,2.229,8.173,8.173,0,0,0-2.679,3.485,5.064,5.064,0,0,0-.386,2.967q.949,3.772,1.953,7.531a1.78,1.78,0,0,0,1.739,1.324,1.721,1.721,0,0,0,1.758-1.281,3.068,3.068,0,0,0-.055-1.35c-.4-1.638-.867-3.261-1.287-4.9a1.093,1.093,0,0,1,.031-.7,15.2,15.2,0,0,1,1.047-1.817,1.11,1.11,0,0,1,1.5-.309,1.184,1.184,0,0,1,.428,1.545c-.128.269-.32.511-.425.787a1.286,1.286,0,0,0-.1.713c.361,1.424.7,2.858,1.158,4.252a4.206,4.206,0,1,1-8.1,2.265q-.83-3.04-1.645-6.083a9.3,9.3,0,0,1-.365-3.681c.017-.131.025-.263.048-.5A30.836,30.836,0,0,0,12.23,26.316,31.154,31.154,0,0,0,7.539,47.973M2.477,68.612A3.494,3.494,0,0,0,5.96,72.249a3.655,3.655,0,0,0,.124-7.31,3.524,3.524,0,0,0-3.607,3.673m72.368,0a3.491,3.491,0,0,0-3.587-3.661,3.672,3.672,0,0,0-3.62,3.843,3.723,3.723,0,0,0,3.771,3.45,3.5,3.5,0,0,0,3.436-3.632M38.713,2.434a4.469,4.469,0,0,0-1.058.08,3.532,3.532,0,0,0-2.443,4.626,3.57,3.57,0,0,0,4.85,2.21,3.59,3.59,0,0,0,1.961-4.763,3.257,3.257,0,0,0-3.309-2.153" transform="translate(0 0)" fill="#543f5c"/>
          <path id="Trazado_642310" data-name="Trazado 642310" d="M108.926,117.663c1.222,0,2.421.066,3.61-.016a3.663,3.663,0,0,1,3.682,3.665c-.014,3.452,0,6.9,0,10.354,0,1.277,0,2.554.019,3.831a1.226,1.226,0,0,1-.712,1.264,1.17,1.17,0,0,1-1.393-.281c-.711-.7-1.4-1.427-2.1-2.139s-1.421-1.442-2.148-2.147a.708.708,0,0,0-.452-.162q-5.557-.013-11.114-.007a3.574,3.574,0,0,1-3.558-2.343,5.735,5.735,0,0,1-.2-1.517c-.012-.1.01-.209,0-.31-.027-.191-.006-.446-.119-.555-.171-.164-.723-.021-.919.174-1.332,1.319-2.658,2.646-4,3.955a2.174,2.174,0,0,1-.782.528,1.122,1.122,0,0,1-1.449-.932,4.247,4.247,0,0,1-.035-.653q0-6.7,0-13.392a4.518,4.518,0,0,1,.381-2.115,3.553,3.553,0,0,1,3.258-2.084c4.808-.052,9.618-.028,14.426-.009a3.707,3.707,0,0,1,3.562,2.918,12.465,12.465,0,0,1,.043,1.791c0,.045.007.09.015.183M89.579,128.04c.163-.151.258-.232.345-.32.739-.741,1.494-1.467,2.21-2.231a1.979,1.979,0,0,1,1.559-.652c3.83.015,7.661.012,11.491.014.934,0,1.386-.427,1.39-1.358q.014-3.468,0-6.936c-.005-.964-.448-1.376-1.408-1.376H91.017a1.282,1.282,0,0,0-1.438,1.45q0,5.5,0,11.008v.4m19.331-8.03c0,1.339,0,2.638,0,3.936a2.155,2.155,0,0,1-.1.677,3.592,3.592,0,0,1-2.744,2.5,5.64,5.64,0,0,1-1.2.128c-2.439.012-4.877.006-7.316.006-.664,0-.666,0-.666.679,0,.2,0,.392.017.586a1.117,1.117,0,0,0,1.15,1.088c.241.009.483.008.725.008,3.635,0,7.27.007,10.905-.006a2.125,2.125,0,0,1,1.634.663c.761.784,1.55,1.54,2.329,2.307a2.6,2.6,0,0,0,.234.177V132.5q0-5.435,0-10.871a2.739,2.739,0,0,0-.02-.413c-.107-.7-.485-1.179-1.045-1.192-1.285-.032-2.571-.01-3.9-.01" transform="translate(-63.074 -81.516)" fill="#543f5c"/>
          <path id="Trazado_642311" data-name="Trazado 642311" d="M105.993,136.986a1.215,1.215,0,0,1-1.187-1.189,1.24,1.24,0,0,1,1.144-1.21,1.427,1.427,0,0,1,1.243,1.185,1.359,1.359,0,0,1-1.2,1.214" transform="translate(-75.774 -97.305)" fill="#543f5c"/>
          <path id="Trazado_642312" data-name="Trazado 642312" d="M140.862,136.986a1.216,1.216,0,0,1-1.163-1.212,1.24,1.24,0,0,1,1.167-1.188,1.41,1.41,0,0,1,1.219,1.208,1.351,1.351,0,0,1-1.222,1.191" transform="translate(-101 -97.305)" fill="#543f5c"/>
          <path id="Trazado_642313" data-name="Trazado 642313" d="M124.534,135.818a1.149,1.149,0,0,1-1.151,1.157,1.225,1.225,0,0,1-1.163-1.18,1.288,1.288,0,0,1,1.186-1.214,1.214,1.214,0,0,1,1.128,1.238" transform="translate(-88.364 -97.3)" fill="#543f5c"/>
        </g>
      </g>
    </g>
  </g>
</svg>
