<svg xmlns="http://www.w3.org/2000/svg" xmlns:xlink="http://www.w3.org/1999/xlink" width="124.417" height="124.418" viewBox="0 0 124.417 124.418">
  <defs>
    <clipPath id="clip-path">
      <rect id="Rectángulo_379462" data-name="Rectángulo 379462" width="115" height="115" transform="translate(389.246 2670.246)" fill="#fff" stroke="#707070" stroke-width="1"/>
    </clipPath>
    <linearGradient id="linear-gradient" x1="0.989" y1="1.001" x2="0.081" y2="0.049" gradientUnits="objectBoundingBox">
      <stop offset="0" stop-color="#8c50af"/>
      <stop offset="1" stop-color="#fbe3b1"/>
    </linearGradient>
    <clipPath id="clip-path-2">
      <rect id="Rectángulo_379477" data-name="Rectángulo 379477" width="84" height="84" transform="translate(405 1987)" fill="#fff" stroke="#707070" stroke-width="1"/>
    </clipPath>
    <clipPath id="clip-path-3">
      <rect id="Rectángulo_379478" data-name="Rectángulo 379478" width="76.307" height="76.05" fill="#543f5c"/>
    </clipPath>
  </defs>
  <g id="Grupo_1075435" data-name="Grupo 1075435" transform="translate(-386.996 -1969.999)">
    <g id="Enmascarar_grupo_1074681" data-name="Enmascarar grupo 1074681" transform="translate(2.754 -695.246)" clip-path="url(#clip-path)">
      <rect id="Imagen_26" data-name="Imagen 26" width="128.611" height="124.518" transform="translate(382.686 2667.283)" fill="#fff"/>
    </g>
    <path id="Sustracción_210" data-name="Sustracción 210" d="M113.2,113.2H0V0H113.2V113.2ZM6.49,6.49V106.714H106.713V6.49Z" transform="matrix(-0.995, -0.105, 0.105, -0.995, 499.58, 2094.417)" fill="url(#linear-gradient)"/>
    <g id="Enmascarar_grupo_1074686" data-name="Enmascarar grupo 1074686" transform="translate(2 4)" clip-path="url(#clip-path-2)">
      <g id="Grupo_1075069" data-name="Grupo 1075069" transform="translate(409 1991)">
        <g id="Grupo_1075068" data-name="Grupo 1075068" clip-path="url(#clip-path-3)">
          <path id="Trazado_642220" data-name="Trazado 642220" d="M59.315,88.107a10.988,10.988,0,0,1,3.619-3.213,6.323,6.323,0,1,1,9.64-.008c.087.062.169.129.259.183a9.93,9.93,0,0,1,4.541,5.649,11.633,11.633,0,0,1,.416,5.633,5.641,5.641,0,0,1-4.485,4.555,11.351,11.351,0,0,1-2.124.225c-2.22.028-4.44-.013-6.66.018a8.2,8.2,0,0,1-4.412-1.037c-.011.174-.026.322-.027.47-.011,1.649.086,3.307-.054,4.945a4.483,4.483,0,0,1-3.3,4.212,3.817,3.817,0,0,1-.744.135,11.378,11.378,0,0,1-4.207-.587c-3.29-.9-6.6-1.732-9.886-2.654a3.242,3.242,0,0,0-1.924.016c-1.484.443-3,.793-4.492,1.194-1.928.516-3.857,1.03-5.776,1.575a12.191,12.191,0,0,1-3.353.483,4.544,4.544,0,0,1-4.107-2.943,8.676,8.676,0,0,1-.4-2.721q.006-1.911.011-3.821c0-.082-.013-.164-.019-.241a10.423,10.423,0,0,1-1.613.619,13.853,13.853,0,0,1-2.581.333q-3.675.065-7.351.006a6.283,6.283,0,0,1-4.556-1.773,5.939,5.939,0,0,1-1.68-3.579,11.647,11.647,0,0,1,.263-4.261A10,10,0,0,1,8.95,85.167c.143-.087.282-.179.439-.279a6.379,6.379,0,0,1-1.454-5.059,6.313,6.313,0,0,1,2.509-4.117,6.216,6.216,0,0,1,8.07.424A6.294,6.294,0,0,1,19.03,84.9a11.305,11.305,0,0,1,3.592,3.2,3.974,3.974,0,0,0,.166-.39,17.047,17.047,0,0,1,1.769-3.93.359.359,0,0,0-.022-.449,10.87,10.87,0,0,1-.738-1.248,2.613,2.613,0,0,1,.016-2.257c.939-2.053.062-3.711-1.146-5.28a2.117,2.117,0,0,0-.908-.573,3.466,3.466,0,0,1-2.364-3.582c.006-.776-.019-1.554.02-2.328a6.178,6.178,0,0,1,.227-1.276,2.825,2.825,0,0,1,1.717-1.9,3.533,3.533,0,0,0,1.563-1.018,7.3,7.3,0,0,0,1.3-3.161,2.768,2.768,0,0,0-.323-1.653,3.139,3.139,0,0,1,.449-3.439,13.834,13.834,0,0,1,2.541-2.588,3.3,3.3,0,0,1,3.64-.5,3.1,3.1,0,0,0,2.442.035,17.744,17.744,0,0,0,1.691-.749,2.639,2.639,0,0,0,1.363-1.538,3.093,3.093,0,0,1,1.47-1.867,4.207,4.207,0,0,1,1.933-.563c1.067.01,2.139-.064,3.2.019a3.306,3.306,0,0,1,3.187,2.181A3.335,3.335,0,0,0,47.834,52.1a17.274,17.274,0,0,0,1.884.64,2.347,2.347,0,0,0,1.631-.188,3.354,3.354,0,0,1,3.71.486,13.391,13.391,0,0,1,2.623,2.71,2.956,2.956,0,0,1,.387,3.214c-.723,1.467-.194,2.778.431,4.091A3.233,3.233,0,0,0,60.35,64.8a3.235,3.235,0,0,1,2.179,3.274c.022.909.037,1.82,0,2.728a3.155,3.155,0,0,1-2.117,3.057,3.409,3.409,0,0,0-1.98,1.911c-.161.365-.313.735-.45,1.11a3.2,3.2,0,0,0,.067,2.674,3.286,3.286,0,0,1-.575,3.688.487.487,0,0,0-.022.658,16.1,16.1,0,0,1,1.665,3.738,4.609,4.609,0,0,0,.2.474M45.886,105.08a2.013,2.013,0,0,0,.263.128c2.337.629,4.672,1.265,7.014,1.875a9.118,9.118,0,0,0,1.924.347,2.019,2.019,0,0,0,2.419-1.89,4.664,4.664,0,0,0,.056-.649q.005-5.568,0-11.136a17.927,17.927,0,0,0-.541-4.456,16.3,16.3,0,0,0-5.183-8.363A17.822,17.822,0,0,0,46.6,77.865a.38.38,0,0,0-.284.066,9.88,9.88,0,0,1-5.3,1.564,10.049,10.049,0,0,1-5.412-1.565.425.425,0,0,0-.316-.041c-.228.073-.443.188-.666.28A16.363,16.363,0,0,0,24.4,92.978c-.12,4.024-.053,8.054-.006,12.081.016,1.374.491,2.04,1.52,2.272a4.106,4.106,0,0,0,1.758.008c1.556-.353,3.088-.807,4.631-1.218,2.4-.638,4.8-1.269,7.191-1.912,1.9-.512,3.8-1.044,5.7-1.557,1.718-.463,3.441-.9,5.158-1.368a2.676,2.676,0,0,0-1.025-5.252c-2.373.574-4.735,1.193-7.1,1.8-1.956.5-3.906,1.033-5.863,1.532-1.548.395-3.1.759-4.655,1.141-.575.141-1.158.264-1.718.451a1.2,1.2,0,0,1-1.45-.367,1.081,1.081,0,0,1-.016-1.55,2.069,2.069,0,0,1,.759-.457c.216-.091.321-.171.317-.435-.022-1.552-.009-3.105-.032-4.657a1.179,1.179,0,0,1,.711-1.158,1.149,1.149,0,0,1,1.283.182A1.1,1.1,0,0,1,32,93.534c-.006,1.414,0,2.827,0,4.274a3.342,3.342,0,0,0,.369-.044c.623-.145,1.246-.289,1.865-.446q3.481-.885,6.961-1.779c1.783-.456,3.564-.915,5.349-1.362.913-.228,1.832-.438,2.751-.641a3.831,3.831,0,0,1,.621-.04.525.525,0,0,0,.041-.1,1.272,1.272,0,0,1,1.274-1.174,1.179,1.179,0,0,1,1.127,1.293,1.129,1.129,0,0,0,.529,1.052,5.12,5.12,0,0,1-1.621,9.033c-1.319.4-2.658.736-3.988,1.1l-1.384.38m9.83-23.706.176-.065a2.588,2.588,0,0,0-.116-.657,5.106,5.106,0,0,1-.534-2.852,9.95,9.95,0,0,1,.357-1.583c.66-2.137,1.76-3.908,4-4.709a.513.513,0,0,0,.289-.279,6.616,6.616,0,0,0,.073-3.553.833.833,0,0,0-.583-.626,4.977,4.977,0,0,1-2.827-2.434,23.648,23.648,0,0,1-1.06-2.5,5.116,5.116,0,0,1,.29-4.084.658.658,0,0,0-.044-.737,12.258,12.258,0,0,0-2.049-2.2,1.307,1.307,0,0,0-1.6-.189,4.561,4.561,0,0,1-2.238.344,8.82,8.82,0,0,1-3.755-1.26,5.16,5.16,0,0,1-2.489-2.83A1.039,1.039,0,0,0,42.7,50.4a10.963,10.963,0,0,0-3.547.015,1.007,1.007,0,0,0-.806.687,5.508,5.508,0,0,1-.83,1.476,8.063,8.063,0,0,1-5.843,2.681,3.69,3.69,0,0,1-1.9-.384,1.142,1.142,0,0,0-1.467.188c-.651.682-1.314,1.353-1.966,2.034a.822.822,0,0,0-.14,1.054,4.806,4.806,0,0,1,.4,3.462,15.508,15.508,0,0,1-.991,2.605,5.133,5.133,0,0,1-3.062,2.833.843.843,0,0,0-.587.675,7.358,7.358,0,0,0,0,3.244.79.79,0,0,0,.541.616,5.566,5.566,0,0,1,3.19,3.015c.29.622.514,1.277.745,1.926a5.261,5.261,0,0,1-.271,4.124,2.528,2.528,0,0,0-.1.724l.123.033a15.83,15.83,0,0,1,3.231-3.065c1.227-.854,2.525-1.607,3.835-2.432a10.181,10.181,0,0,1-2.313-4.934,9.692,9.692,0,0,1,.638-5.48,10.181,10.181,0,0,1,15.979-3.834A10.058,10.058,0,0,1,48.618,76.01a19.8,19.8,0,0,1,7.1,5.364m-7.177-12c.341-4.247-3.651-7.577-7.284-7.669a7.654,7.654,0,0,0-5.7,13.043,7.6,7.6,0,0,0,5.587,2.215c4.173-.006,7.728-3.755,7.4-7.589M14.208,98.522v0c1.577,0,3.153.011,4.73,0a2.969,2.969,0,0,0,2.84-2.386,13.133,13.133,0,0,0-.028-3.659,7.358,7.358,0,0,0-4.9-5.839.651.651,0,0,0-.374,0c-.313.084-.617.2-.929.29a5.642,5.642,0,0,1-3.625-.287.627.627,0,0,0-.375.008,3.777,3.777,0,0,0-.568.24,7.377,7.377,0,0,0-4.3,5.707c-.146.937,0,1.916-.083,2.867a3.1,3.1,0,0,0,3.1,3.078c1.5-.044,3.008-.009,4.511-.009m53.512,0c1.565,0,3.13.007,4.695,0a3,3,0,0,0,2.912-2.944c0-.764.017-1.529-.006-2.292a5.621,5.621,0,0,0-.147-1.259,7.649,7.649,0,0,0-4.942-5.45.314.314,0,0,0-.2,0c-.326.112-.644.246-.973.349a5.022,5.022,0,0,1-3.279-.172,1.368,1.368,0,0,0-1.177.079c-.033.016-.066.03-.1.046a7.359,7.359,0,0,0-4.4,6.806c-.016.606.025,1.215-.014,1.819a3.113,3.113,0,0,0,3.047,3.027c1.528-.036,3.057-.008,4.585-.008M17.965,80.8c.285-2.19-1.9-3.842-3.644-3.858a3.823,3.823,0,1,0-.108,7.645c1.857.008,4-1.633,3.752-3.786M67.7,76.97a3.71,3.71,0,0,0-2.722,1.083,4.109,4.109,0,0,0-1.014,3.389c.058,1.653,1.86,3.114,3.9,3.1A3.787,3.787,0,0,0,67.7,76.97" transform="translate(-2.808 -33.858)" fill="#543f5c"/>
          <path id="Trazado_642221" data-name="Trazado 642221" d="M.016,57.094a4.983,4.983,0,0,1,5.008-5.047,5.05,5.05,0,1,1,0,10.1A4.973,4.973,0,0,1,.016,57.094m5.031-2.462a2.427,2.427,0,0,0-2.584,2.457A2.622,2.622,0,0,0,5,59.625a2.559,2.559,0,0,0,2.6-2.487,2.369,2.369,0,0,0-2.553-2.507" transform="translate(0 -36.848)" fill="#543f5c"/>
          <path id="Trazado_642222" data-name="Trazado 642222" d="M236.825,57.086a5.049,5.049,0,1,1-5.039-5.057,5.027,5.027,0,0,1,5.039,5.057m-5.064-2.467a2.393,2.393,0,0,0-2.521,2.394,2.516,2.516,0,0,0,2.382,2.58,2.543,2.543,0,0,0,2.757-2.509,2.442,2.442,0,0,0-2.618-2.465" transform="translate(-160.518 -36.835)" fill="#543f5c"/>
          <path id="Trazado_642223" data-name="Trazado 642223" d="M118.414.019a4.962,4.962,0,0,1,5.044,4.932,5.071,5.071,0,1,1-10.142.019,4.989,4.989,0,0,1,5.1-4.951M118.383,7.6a2.558,2.558,0,0,0,2.6-2.593,2.6,2.6,0,0,0-5.2.027A2.571,2.571,0,0,0,118.383,7.6" transform="translate(-80.225 0.001)" fill="#543f5c"/>
          <path id="Trazado_642224" data-name="Trazado 642224" d="M41.74,35.988a1.351,1.351,0,0,1-1.262-1.142,1.148,1.148,0,0,1,.693-1.271c1.225-.582,2.46-1.141,3.693-1.708Q51.249,28.931,57.637,26c.231-.106.464-.209.7-.3a1.2,1.2,0,0,1,1.581.616,1.153,1.153,0,0,1-.572,1.594c-1.6.769-3.224,1.508-4.842,2.251q-5.908,2.714-11.82,5.421c-.312.143-.63.274-.945.411" transform="translate(-28.638 -18.125)" fill="#543f5c"/>
          <path id="Trazado_642225" data-name="Trazado 642225" d="M172.2,35.964c-.269-.118-.54-.233-.807-.354-1.08-.49-2.162-.979-3.24-1.475Q162.225,31.41,156.3,28.68c-.583-.269-1.174-.522-1.741-.821a1.143,1.143,0,0,1-.582-1.325,1.177,1.177,0,0,1,1.619-.866c1.759.782,3.507,1.588,5.257,2.391q5.81,2.667,11.616,5.341c.132.061.267.117.392.19a1.148,1.148,0,0,1,.591,1.285,1.3,1.3,0,0,1-1.259,1.089" transform="translate(-108.99 -18.101)" fill="#543f5c"/>
          <path id="Trazado_642226" data-name="Trazado 642226" d="M229.25,95.42c-.12.481-.282,1.163-.459,1.841q-.837,3.212-1.682,6.421c-.239.912-.677,1.284-1.448,1.223a1.169,1.169,0,0,1-1.085-1.419c.239-1,.536-1.982.8-2.975.394-1.509.777-3.021,1.167-4.531.1-.386.2-.773.312-1.155a1.235,1.235,0,0,1,1.383-.858,1.254,1.254,0,0,1,1.016,1.454" transform="translate(-158.973 -66.514)" fill="#543f5c"/>
          <path id="Trazado_642227" data-name="Trazado 642227" d="M24.1,104.89a.96.96,0,0,1-1.03-.651c-.233-.659-.409-1.339-.591-2.015q-.88-3.276-1.741-6.558a1.242,1.242,0,0,1,.991-1.725,1.22,1.22,0,0,1,1.332.83c.486,1.8.955,3.6,1.433,5.4.276,1.04.515,2.091.844,3.114a1.228,1.228,0,0,1-1.237,1.6" transform="translate(-14.631 -66.499)" fill="#543f5c"/>
          <path id="Trazado_642228" data-name="Trazado 642228" d="M147.068,180.491c-.617,0-1.235.015-1.852,0a1.2,1.2,0,0,1-1.281-1.2,1.237,1.237,0,0,1,1.239-1.263c1.282-.031,2.566-.023,3.849,0a1.161,1.161,0,0,1,1.118.88,1.192,1.192,0,0,1-.412,1.332,1.8,1.8,0,0,1-.846.247c-.6.036-1.21.011-1.815.011v0" transform="translate(-101.903 -126.025)" fill="#543f5c"/>
        </g>
      </g>
    </g>
  </g>
</svg>
