<svg xmlns="http://www.w3.org/2000/svg" xmlns:xlink="http://www.w3.org/1999/xlink" width="1030" height="522.968" viewBox="0 0 1030 522.968">
  <defs>
    <linearGradient id="linear-gradient" x1="0.5" x2="0.5" y2="1" gradientUnits="objectBoundingBox">
      <stop offset="0" stop-color="#fff4d6"/>
      <stop offset="1" stop-color="#fce5e5"/>
    </linearGradient>
    <clipPath id="clip-path">
      <rect id="Rectángulo_379680" data-name="Rectángulo 379680" width="501" height="55" transform="translate(0 0)" fill="#edd8f5"/>
    </clipPath>
    <clipPath id="clip-path-2">
      <rect id="Rectángulo_379680-2" data-name="Rectángulo 379680" width="551" height="55" transform="translate(-0.333 0)" fill="#edd8f5"/>
    </clipPath>
    <clipPath id="clip-path-3">
      <rect id="Rectángulo_379680-3" data-name="Rectángulo 379680" width="463" height="55" transform="translate(0 0)" fill="#edd8f5"/>
    </clipPath>
    <clipPath id="clip-path-4">
      <rect id="Rectángulo_379680-4" data-name="Rectángulo 379680" width="507" height="55" transform="translate(-0.333 0.001)" fill="#edd8f5"/>
    </clipPath>
    <clipPath id="clip-path-5">
      <rect id="Rectángulo_379679" data-name="Rectángulo 379679" width="479" height="507.373" fill="none"/>
    </clipPath>
    <clipPath id="clip-path-7">
      <rect id="Rectángulo_379674" data-name="Rectángulo 379674" width="156.135" height="151.938" fill="none"/>
    </clipPath>
    <clipPath id="clip-path-8">
      <rect id="Rectángulo_379675" data-name="Rectángulo 379675" width="164.913" height="147.148" fill="none"/>
    </clipPath>
    <clipPath id="clip-path-9">
      <rect id="Rectángulo_379676" data-name="Rectángulo 379676" width="124.04" height="97.679" fill="none"/>
    </clipPath>
  </defs>
  <g id="Grupo_1075462" data-name="Grupo 1075462" transform="translate(-285 -3000.405)">
    <path id="Trazado_642624" data-name="Trazado 642624" d="M0,0H1030V522.968H0Z" transform="translate(285 3000.405)" fill="url(#linear-gradient)"/>
    <g id="Grupo_1075282" data-name="Grupo 1075282" transform="translate(519 3128)">
      <g id="Grupo_1075281" data-name="Grupo 1075281" transform="translate(0 0)" clip-path="url(#clip-path)">
        <path id="Trazado_642792" data-name="Trazado 642792" d="M501.136,55.235H0V0H476.707c13.492,0,24.428,12.159,24.428,27.159Z" transform="translate(0 -0.194)" fill="#edd8f5"/>
      </g>
    </g>
    <g id="Grupo_1075283" data-name="Grupo 1075283" transform="translate(630 3209)">
      <g id="Grupo_1075281-2" data-name="Grupo 1075281" transform="translate(-101.667 0)" clip-path="url(#clip-path-2)">
        <path id="Trazado_642792-2" data-name="Trazado 642792" d="M550.816,55.235H0V0H523.966a27,27,0,0,1,26.85,27.159Z" transform="translate(-0.785 -0.692)" fill="#edd8f5"/>
      </g>
    </g>
    <g id="Grupo_1075284" data-name="Grupo 1075284" transform="translate(662 3288.001)">
      <g id="Grupo_1075281-3" data-name="Grupo 1075281" transform="translate(0 -0.001)" clip-path="url(#clip-path-3)">
        <path id="Trazado_642792-3" data-name="Trazado 642792" d="M463.125,55.235H0V0H440.55c12.468,0,22.575,12.159,22.575,27.159Z" transform="translate(-0.182 0.81)" fill="#edd8f5"/>
      </g>
    </g>
    <g id="Grupo_1075285" data-name="Grupo 1075285" transform="translate(656.333 3370)">
      <g id="Grupo_1075281-4" data-name="Grupo 1075281" transform="translate(0 -0.001)" clip-path="url(#clip-path-4)">
        <path id="Trazado_642792-4" data-name="Trazado 642792" d="M506.8,55.235H0V0H482.1c13.644,0,24.7,12.159,24.7,27.159Z" transform="translate(-0.137 -0.687)" fill="#edd8f5"/>
      </g>
    </g>
    <g id="Grupo_1075280" data-name="Grupo 1075280" transform="translate(311 3016)">
      <g id="Grupo_1075279" data-name="Grupo 1075279" clip-path="url(#clip-path-5)">
        <g id="Grupo_1075278" data-name="Grupo 1075278">
          <g id="Grupo_1075277" data-name="Grupo 1075277" clip-path="url(#clip-path-5)">
            <path id="Trazado_642625" data-name="Trazado 642625" d="M314.4,114.5c.146.088,12,7.164,25.887,8.809,9.583-10.228,11.57-16.423,8.888-20.111-9.792.136-22.3,4.242-34.784,11.3l.009,0" transform="translate(84.385 27.699)" fill="#ccb67b"/>
            <path id="Trazado_642626" data-name="Trazado 642626" d="M304.523,121.159q1.779-1.279,3.6-2.5c14.347-9.6,29.556-15.6,41.538-16.468-5.312-3.071-15.984-3.253-27.491-2.912-4.129.122-9.869,1.757-16.663,4.7-3.119,7.082-1.776,14.234-.982,17.176" transform="translate(81.474 26.614)" fill="#ccb67b"/>
            <path id="Trazado_642627" data-name="Trazado 642627" d="M316.715,113.784a1.1,1.1,0,0,1-.525-.931q-3.166,1.855-6.305,3.952-4.308,2.882-8.354,6.1c2.137,2.127,11.243,10.283,26.789,12.208.4-.344.791-.684,1.2-1.031,4.938-4.235,9.008-8.01,12.32-11.381a74.549,74.549,0,0,1-25.121-8.913" transform="translate(80.933 30.291)" fill="#ccb67b"/>
            <path id="Trazado_642628" data-name="Trazado 642628" d="M323.35,126.674c-13.015,10.683-23.717,23.714-30.726,37.58a1.1,1.1,0,0,1-1.96-.991c7.982-15.793,20.652-30.514,36.051-42.012a29.2,29.2,0,0,1,.015-17.274c-38.925,18.2-107.443,75.455-112.545,139.374-6.157,77.126,68.06,10.014,68.06,10.014,27.061-67.2,27.514-79.151,67.4-113.953-15.511-2.439-24.3-10.67-26.3-12.739" transform="translate(57.392 27.908)" fill="#ccb67b"/>
            <path id="Trazado_642629" data-name="Trazado 642629" d="M266.05,58.417A116.383,116.383,0,0,0,252.932,75.8c4.8,2.4,24.95,11.881,44.024,11.876a161.317,161.317,0,0,0,7.566-21.233,126.033,126.033,0,0,1-38.472-8.023" transform="translate(67.889 15.68)" fill="#ccb67b"/>
            <path id="Trazado_642630" data-name="Trazado 642630" d="M258.5,70.915q.67-.881,1.352-1.747,2.8-3.531,5.833-6.789a1.139,1.139,0,0,1,.091-.1A108.654,108.654,0,0,1,297.336,38.84c-12.451-5.929-30.994-2.007-47.436,8.979.292,6.877,5.642,17.84,8.6,23.1" transform="translate(67.075 9.685)" fill="#ccb67b"/>
            <path id="Trazado_642631" data-name="Trazado 642631" d="M295.1,39.614a105.9,105.9,0,0,0-30.556,22.239,124.294,124.294,0,0,0,37.412,7.576c3.015-12.422,2.784-22.748-3.314-28.022a22.893,22.893,0,0,0-3.073-2.225,1.1,1.1,0,0,1-.468.431" transform="translate(71.007 10.517)" fill="#ccb67b"/>
            <path id="Trazado_642632" data-name="Trazado 642632" d="M275.341,81.491A132.494,132.494,0,0,1,255.7,73.6,134.653,134.653,0,0,0,244.96,96.332a155.922,155.922,0,0,0-6.591,24.019l26.394,28.658s21.52-32.135,35.159-63.233a89.869,89.869,0,0,1-24.582-4.285" transform="translate(63.98 19.756)" fill="#ccb67b"/>
            <path id="Trazado_642633" data-name="Trazado 642633" d="M247.377,102.864a132.457,132.457,0,0,1,17.264-32.815c-1.168-2.024-8.228-14.566-9.24-23.586-17.526,12.486-32.2,33.043-33.723,58.182l19.331,20.99a157.6,157.6,0,0,1,6.369-22.77" transform="translate(59.5 12.471)" fill="#ccb67b"/>
            <path id="Trazado_642634" data-name="Trazado 642634" d="M223.99,326.383c8.63-1.214,17.975,3.207,16.437,9.2s-8.828-2.206-10.976-3.825a51.95,51.95,0,0,1-5.462-5.374" transform="translate(60.121 87.55)" fill="#e8bfbf"/>
            <path id="Trazado_642635" data-name="Trazado 642635" d="M62.179,269.609c-8.563-1.616-17.787-12.046-14.41-17.23s9.443,8.167,10.959,10.39a52.015,52.015,0,0,1,3.451,6.841" transform="translate(12.63 67.422)" fill="#e8bfbf"/>
            <path id="Trazado_642636" data-name="Trazado 642636" d="M229.521,317.606c16.266-6.778,36.663-6.844,36.572,1.69s-18.764-.241-23.743-.992a105.334,105.334,0,0,0-12.829-.7" transform="translate(61.605 83.929)" fill="#e8bfbf"/>
            <path id="Trazado_642637" data-name="Trazado 642637" d="M225.426,315.276a1.1,1.1,0,0,1-.833-1.811c16.595-19.365,37.777-23.879,38.671-24.062a1.1,1.1,0,1,1,.44,2.15,74.831,74.831,0,0,0-37.443,23.34,1.1,1.1,0,0,1-.835.383" transform="translate(60.212 77.672)" fill="#e8bfbf"/>
            <path id="Trazado_642638" data-name="Trazado 642638" d="M68.253,217.945A66.555,66.555,0,0,1,40,231.019c3.742,4.806,7.792,9.564,11.976,14.152,16.964-.88,30.293-13.2,32.177-15.029-5.326-4.135-10.671-8.24-15.9-12.2" transform="translate(10.736 58.498)" fill="#ccb67b"/>
            <path id="Trazado_642639" data-name="Trazado 642639" d="M51.065,212.841c32.428,23.417,76.981,59.714,92.281,72.28L136.8,253.067c-23.6-38.738-65.045-65.256-92.151-70.38,7.372,15.064,6.725,27.181,6.418,30.154" transform="translate(11.984 49.035)" fill="#ccb67b"/>
            <path id="Trazado_642640" data-name="Trazado 642640" d="M54.456,211.522c.207-4.319-.075-15.684-7-29.086-12.314-1.735-21.2,1.358-23.271,10.242,5.707,2.022,16.828,9.216,30.267,18.843" transform="translate(6.493 48.843)" fill="#ccb67b"/>
            <path id="Trazado_642641" data-name="Trazado 642641" d="M142.352,276.21c-8.633-7.1-33.615-27.522-59.392-47.578-1.026,1.043-14.2,14.088-32.01,15.75,14.679,15.766,30.647,29.237,40.46,35.181,23.117,14,55.714,20.005,55.714,20.005Z" transform="translate(13.676 61.367)" fill="#ccb67b"/>
            <path id="Trazado_642642" data-name="Trazado 642642" d="M70.8,223.5c-20.522-15.476-38.946-28.395-46.868-31.354-1.386,12.038,6.98,28.1,18.926,43.846A66.311,66.311,0,0,0,70.8,223.5" transform="translate(6.382 51.574)" fill="#ccb67b"/>
            <path id="Trazado_642643" data-name="Trazado 642643" d="M82.732,144.87a1.124,1.124,0,0,1-.257-.03,1.1,1.1,0,0,1-.811-1.324c3.354-13.966-.219-15.934-5.165-18.656-2.628-1.447-5.608-3.087-7.881-6.677-3.3-5.2-1.547-9.323,0-12.957,1.643-3.865,2.939-6.919-1.381-11.045a22.7,22.7,0,0,0-3.772-2.745c-4.267-2.67-8.3-5.19-4.587-16.555a1.1,1.1,0,1,1,2.087.681c-3.177,9.732-.308,11.529,3.664,14.013a24.4,24.4,0,0,1,4.125,3.018c5.417,5.176,3.54,9.594,1.884,13.492-1.461,3.441-2.842,6.692-.161,10.924,1.971,3.113,4.571,4.545,7.085,5.929,5.135,2.826,9.986,5.5,6.241,21.092a1.1,1.1,0,0,1-1.067.841" transform="translate(15.41 19.895)" fill="#e8bfbf"/>
            <path id="Trazado_642646" data-name="Trazado 642646" d="M60.4,70.135a1.162,1.162,0,0,1-.254-.029,1.1,1.1,0,0,1-.816-1.32l1.289-5.46a1.1,1.1,0,0,1,2.137.5l-1.29,5.459a1.1,1.1,0,0,1-1.067.846" transform="translate(15.917 16.77)" fill="#e8bfbf"/>
            <path id="Trazado_642648" data-name="Trazado 642648" d="M56.74,74.637l-10.445-.07a1.1,1.1,0,0,1-1.09-1.1,1.127,1.127,0,0,1,1.1-1.091l10.438.07a1.1,1.1,0,0,1-.008,2.2" transform="translate(12.133 19.425)" fill="#e8bfbf"/>
            <path id="Trazado_642649" data-name="Trazado 642649" d="M66.038,143.909a74.772,74.772,0,0,0,3.626-13.728c-5.767-2.811-11.006-3.317-14.563-.6a76.784,76.784,0,0,1,10.936,14.324" transform="translate(14.79 34.299)" fill="#ccb67b"/>
            <path id="Trazado_642650" data-name="Trazado 642650" d="M84.511,180.947A266.072,266.072,0,0,0,73.9,153.926a22.559,22.559,0,0,1-8.519,1.58c-4.249,0-11.517-2.146-17.778-6.079.3,8.776,3.227,17.983,7.323,27.237,5.818,3.116,18.023,8.26,29.584,4.283" transform="translate(12.777 40.107)" fill="#ccb67b"/>
            <path id="Trazado_642651" data-name="Trazado 642651" d="M71.862,130.529a84.146,84.146,0,0,1-4.224,15.083q8.16,14.083,15.667,35.463a358.882,358.882,0,0,1,10.458,35.789l-2.142.479c-.065-.288-2.973-13.093-8.283-29.244a30.007,30.007,0,0,1-9.811,1.6,45.2,45.2,0,0,1-18.979-4.708c11.619,24.728,30.378,49.453,28.663,66.817-.759,7.681,19.82-53.267,19.82-53.267,9.446-25.525-12.778-57.553-31.17-68.012" transform="translate(14.641 35.035)" fill="#ccb67b"/>
            <path id="Trazado_642652" data-name="Trazado 642652" d="M55.55,130.42A34.389,34.389,0,0,0,47.6,151.887c1.1.677,2.827,1.712,3.13,1.906,10.955,7,19.826,4.235,22.239,3.248-5.015-10.468-10.855-20.074-17.414-26.621" transform="translate(12.775 35.006)" fill="#ccb67b"/>
            <path id="Trazado_642653" data-name="Trazado 642653" d="M44.977,94.126c10.948-4.064,20.411,4.951,21.148,10.381-2.258-.828-11.038-4.065-15.256-3.333s-9.408-1.621-8.786-3.6a7.771,7.771,0,0,1,2.895-3.445" transform="translate(11.282 24.99)" fill="#e8bfbf"/>
            <path id="Trazado_642654" data-name="Trazado 642654" d="M125.228,344.45c-20.171-3.847-33.745,5.889-30.041,13.71s9.443-.516,11.881-3.142,18.16-10.568,18.16-10.568" transform="translate(25.385 92.22)" fill="#e8bfbf"/>
            <path id="Trazado_642655" data-name="Trazado 642655" d="M100.471,340.307c-12.16-4.154-21.969,3.563-18.276,6.974s10.212-.4,12.059-1.9,6.218-5.076,6.218-5.076" transform="translate(21.85 91.02)" fill="#e8bfbf"/>
            <path id="Trazado_642657" data-name="Trazado 642657" d="M257.969,284.089a1.109,1.109,0,0,1-1.1-1.149l.577-12.287a1.1,1.1,0,1,1,2.193.1l-.577,12.287a1.1,1.1,0,0,1-1.1,1.046" transform="translate(68.946 72.365)" fill="#c7edff"/>
            <path id="Trazado_642658" data-name="Trazado 642658" d="M265.246,287.152a1.1,1.1,0,0,1-.378-2.127l3.461-1.27a1.1,1.1,0,1,1,.756,2.061l-3.461,1.27a1.126,1.126,0,0,1-.378.066" transform="translate(70.9 76.144)" fill="#c7edff"/>
            <path id="Trazado_642662" data-name="Trazado 642662" d="M116.593,304.709c6.762,1.554,13.162,3.171,18.892,4.7l-17.515-30.754C75.9,269.1,52.385,281.988,48.812,296.444c16.7-1.012,39.442,1.755,67.781,8.265" transform="translate(13.102 73.911)" fill="#ccb67b"/>
            <path id="Trazado_642663" data-name="Trazado 642663" d="M61.419,316.387a123.422,123.422,0,0,0,14.45,7.633c15.568-9.244,20.759-20.3,22.417-25.581-5.932-1.164-11.984-2.217-17.985-3.076-1.726,3.448-9.119,17.2-18.882,21.024" transform="translate(16.485 79.278)" fill="#ccb67b"/>
            <path id="Trazado_642664" data-name="Trazado 642664" d="M81.478,295.522c-11.7-1.578-23.112-2.364-32.96-1.731a16.446,16.446,0,0,0,2.376,10.275c2.372,3.954,6.438,7.715,11.645,11.256,9.087-2.268,16.672-15.475,18.939-19.8" transform="translate(12.999 78.797)" fill="#ccb67b"/>
            <path id="Trazado_642665" data-name="Trazado 642665" d="M96.877,298.127c-1.645,5.358-6.792,16.667-22.146,26.237,33.111,14.475,79.061,23.3,79.061,23.3l-23.721-41.647c-9.467-2.558-21.033-5.435-33.194-7.887" transform="translate(20.058 80.02)" fill="#ccb67b"/>
            <path id="Trazado_642666" data-name="Trazado 642666" d="M74.169,274.608a1.047,1.047,0,0,1-.3-.041c-.317-.089-31.826-8.794-39.582-.316a1.1,1.1,0,0,1-1.621-1.483c8.664-9.466,40.447-.693,41.8-.315a1.1,1.1,0,0,1-.3,2.154" transform="translate(8.691 72.038)" fill="#e8bfbf"/>
            <path id="Trazado_642672" data-name="Trazado 642672" d="M36.378,172.86c-19.228-7.726-38.716,6.558-31.7,13.446s14.811-4.256,18.708-6.868,12.992-6.578,12.992-6.578" transform="translate(0.863 45.798)" fill="#e8bfbf"/>
            <path id="Trazado_642673" data-name="Trazado 642673" d="M32.976,164.4C21.708,151.58,5.787,151.681,5.44,156.65s7.961,6.7,7.961,6.7Z" transform="translate(1.457 41.21)" fill="#e8bfbf"/>
            <path id="Trazado_642678" data-name="Trazado 642678" d="M293.859,93.874a1.1,1.1,0,0,1-.682-1.958C309.762,78.76,339.308,81,340.557,81.1a1.1,1.1,0,0,1-.179,2.188c-.3-.024-29.938-2.267-45.839,10.346a1.091,1.091,0,0,1-.681.237" transform="translate(78.579 21.713)" fill="#e8bfbf"/>
            <path id="Trazado_642684" data-name="Trazado 642684" d="M296.607,85.56c3.615-4.077,6.123-21,11.291-21.845s3.361,7.154.67,12-11.961,9.845-11.961,9.845" transform="translate(79.612 17.085)" fill="#e8bfbf"/>
            <path id="Trazado_642685" data-name="Trazado 642685" d="M298.677,94.056c11.527-4.115,25.949-7.733,27.565-1.021s-15.718,2.675-15.718,2.675Z" transform="translate(80.167 23.972)" fill="#e8bfbf"/>
            <path id="Trazado_642686" data-name="Trazado 642686" d="M232.209,60.058c-.358-14.306-6.289-29.236-10.591-23.733s1.7,11.282,1.7,11.282Z" transform="translate(59.067 9.436)" fill="#e8bfbf"/>
            <path id="Trazado_642687" data-name="Trazado 642687" d="M232.814,46.8C234.2,34.66,246.2,27.737,248.736,32.353s-7.232,8.493-7.232,8.493Z" transform="translate(62.489 8.297)" fill="#e8bfbf"/>
            <path id="Trazado_642688" data-name="Trazado 642688" d="M78.181,115.359C75.566,110.9,74.8,96.823,82.027,94.014s4.614,6.077,2.654,9.077-5.384,9.921-5.384,9.921Z" transform="translate(20.485 25.089)" fill="#e8bfbf"/>
            <path id="Trazado_642691" data-name="Trazado 642691" d="M222.928,55.377a.656.656,0,0,1-.478-.207L173.544,3.416,130.867,55a.659.659,0,0,1-1.015-.84L173.478,1.43l49.928,52.836a.658.658,0,0,1-.478,1.111" transform="translate(34.813 0.384)" fill="#d66e41"/>
            <path id="Trazado_642692" data-name="Trazado 642692" d="M304.37,231.53c0,113.122-52.3,205.395-111.631,205.395S77.374,345.09,77.374,231.968,133.4,27.274,192.738,27.274,304.37,118.408,304.37,231.53" transform="translate(20.768 7.321)" fill="#f5789d"/>
            <path id="Trazado_642693" data-name="Trazado 642693" d="M309.908,231.53c0,113.122-52.3,205.395-111.633,205.395S82.911,345.09,82.911,231.968,138.94,27.274,198.275,27.274,309.908,118.408,309.908,231.53" transform="translate(22.254 7.321)" fill="#ff8aad"/>
            <path id="Trazado_642694" data-name="Trazado 642694" d="M296.576,229.224c0,106.565-48.99,191.092-103.044,191.092S92.5,335,92.5,228.435,146.213,37.84,193.419,37.986c54.054.166,103.157,84.673,103.157,191.238" transform="translate(24.829 10.196)" fill="#f5789d"/>
            <path id="Trazado_642695" data-name="Trazado 642695" d="M288.453,227.757c0,102.707-45.242,184.174-95.162,184.174S99.992,329.7,99.992,227s49.6-183.7,93.2-183.555c49.921.161,95.266,81.608,95.266,184.315" transform="translate(26.839 11.66)" fill="#ff8aad"/>
            <path id="Trazado_642696" data-name="Trazado 642696" d="M193.861,421.114c-26.539,0-51.8-20-71.129-56.327-19.487-36.62-30.217-84.995-30.217-136.212,0-67.958,22.68-134.48,57.781-169.473,14.2-14.155,29.181-21.634,43.331-21.634h.124c56.085.173,103.468,88.05,103.468,191.9,0,103.94-47.332,191.75-103.359,191.75m-.233-382.33c-13.8,0-28.453,7.345-42.4,21.251-34.866,34.758-57.4,100.915-57.4,168.54,0,51.005,10.677,99.159,30.064,135.593,18.812,35.353,44.314,55.63,69.965,55.63,55.313,0,102.042-87.208,102.042-190.434,0-103.133-46.781-190.408-102.155-190.58h-.121" transform="translate(24.832 10.056)" fill="#f5648f"/>
            <path id="Trazado_642697" data-name="Trazado 642697" d="M277.321,225.642c0,96.27-38.23,174.311-85.388,174.311s-85.389-78.041-85.389-174.311,38.23-174.311,85.389-174.311,85.388,78.041,85.388,174.311" transform="translate(28.597 13.778)" fill="#bdeaff"/>
            <g id="Grupo_1075270" data-name="Grupo 1075270" transform="translate(135.141 101.248)" opacity="0.31">
              <g id="Grupo_1075269" data-name="Grupo 1075269">
                <g id="Grupo_1075268" data-name="Grupo 1075268" clip-path="url(#clip-path-7)">
                  <path id="Trazado_642698" data-name="Trazado 642698" d="M262.679,120.352,106.807,231.761q-.264-6.817-.264-13.765A349.582,349.582,0,0,1,109,176.307L244,79.823a183.572,183.572,0,0,1,18.682,40.529" transform="translate(-106.544 -79.823)" fill="#fff"/>
                </g>
              </g>
            </g>
            <g id="Grupo_1075273" data-name="Grupo 1075273" transform="translate(140.466 184.925)" opacity="0.31">
              <g id="Grupo_1075272" data-name="Grupo 1075272">
                <g id="Grupo_1075271" data-name="Grupo 1075271" clip-path="url(#clip-path-8)">
                  <path id="Trazado_642699" data-name="Trazado 642699" d="M275.655,180.593,118.465,292.941a276.4,276.4,0,0,1-7.722-31.933L271.936,145.793a334.273,334.273,0,0,1,3.719,34.8" transform="translate(-110.742 -145.793)" fill="#fff"/>
                </g>
              </g>
            </g>
            <g id="Grupo_1075276" data-name="Grupo 1075276" transform="translate(140.475 80.959)" opacity="0.31">
              <g id="Grupo_1075275" data-name="Grupo 1075275">
                <g id="Grupo_1075274" data-name="Grupo 1075274" clip-path="url(#clip-path-9)">
                  <path id="Trazado_642700" data-name="Trazado 642700" d="M234.789,72.849,110.749,161.5q1.659-9.108,3.8-17.716L226.425,63.827a91.745,91.745,0,0,1,8.364,9.022" transform="translate(-110.749 -63.827)" fill="#fff"/>
                </g>
              </g>
            </g>
            <path id="Trazado_642701" data-name="Trazado 642701" d="M168.615,3.238a2.95,2.95,0,1,1-5.871,0,2.95,2.95,0,1,1,5.871,0" transform="translate(43.682)" fill="#d66e41"/>
            <path id="Trazado_642702" data-name="Trazado 642702" d="M165.938,4.8h-3.951a1.537,1.537,0,1,1,0-3.073h3.951a1.537,1.537,0,0,1,0,3.073" transform="translate(43.066 0.464)" fill="#d66e41"/>
            <path id="Trazado_642703" data-name="Trazado 642703" d="M338.042,185.583l-1.754-1.374c.066-.084,6.617-8.607,5.1-17.81-.851-5.173-4.089-9.64-9.623-13.28-6.4-4.207-12.231-4.984-21.063-6.159-3.029-.4-6.464-.86-10.362-1.518l.37-2.2c3.86.651,7.274,1.106,10.286,1.507,9.135,1.215,15.171,2.019,21.993,6.506,6.082,4,9.649,8.979,10.6,14.8,1.667,10.178-5.254,19.153-5.549,19.53" transform="translate(80.614 38.448)" fill="#b04d23"/>
            <path id="Trazado_642704" data-name="Trazado 642704" d="M334.512,208.147c4.612-13.288,9.939-41.047-12.178-48.434s-23.413,14.653-23.413,14.653l29.927,30.458Z" transform="translate(80.233 42.462)" fill="#ffbf47"/>
            <rect id="Rectángulo_379677" data-name="Rectángulo 379677" width="28.065" height="41.778" transform="translate(299.875 194.782)" fill="#f06c94"/>
            <path id="Trazado_642705" data-name="Trazado 642705" d="M246.211,157.264c.851.9,16.475,26.827,16.475,26.827s10.742-4.48,11.055-5.51-5.5-32.6-5.5-32.6l-20.01-6.1Z" transform="translate(66.085 37.545)" fill="#fcaf97"/>
            <path id="Trazado_642706" data-name="Trazado 642706" d="M253.864,171.16l15.282-7.4c-1.465-9.172-1.021-29.586-1.021-29.586l-19.551,7.232-3.631,27.672c.339.36,7.963-1.258,8.922,2.078" transform="translate(65.744 36.014)" fill="#f58f77"/>
            <path id="Trazado_642707" data-name="Trazado 642707" d="M236.628,130.443c-3.492,24.063,6.086,45.745,9.675,45.585,9.251-.412,5.476-24.863,5.476-24.863l3.061-6.55L243.926,108.3Z" transform="translate(63.311 29.069)" fill="#fcaf97"/>
            <path id="Trazado_642708" data-name="Trazado 642708" d="M316.1,160.1c10.646.595,29.074,6.9,35.42,38.409,5.1,25.328,5.773,53.169,5.773,53.169l5.041,54.994-75.445,19.471L283.9,312.48l-17.513-44.845-24.9-20.267s-12.391-50.15-12.082-53.154,30.076-19.542,40.406-24.267c8.493-3.884,46.284-9.852,46.284-9.852" transform="translate(61.575 42.971)" fill="#ffdd63"/>
            <path id="Trazado_642709" data-name="Trazado 642709" d="M291.932,189.692c-15.576,0-32.965-6.109-41.524-14.011a.658.658,0,0,1,.893-.968c11.365,10.492,39.477,17.654,56.088,11.052,8.65-3.437,13.368-9.985,14.018-19.459a.659.659,0,1,1,1.314.09c-.68,9.882-5.813,17-14.845,20.593a43.527,43.527,0,0,1-15.944,2.7" transform="translate(67.155 44.473)" fill="#ffb13b"/>
            <path id="Trazado_642710" data-name="Trazado 642710" d="M288.794,295.826a.66.66,0,0,1-.625-.45c-.141-.424-14.177-42.5-17.58-49.7-2.122-4.485-7.477-9.518-11.021-12.85-3.124-2.938-3.933-3.737-3.753-4.505a.658.658,0,0,1,1.3.136,29.851,29.851,0,0,0,3.357,3.411c3.616,3.4,9.081,8.536,11.308,13.245,3.437,7.264,17.063,48.108,17.641,49.843a.658.658,0,0,1-.417.832.627.627,0,0,1-.208.034" transform="translate(68.656 61.148)" fill="#ffb13b"/>
            <path id="Trazado_642711" data-name="Trazado 642711" d="M322.248,304.221a.657.657,0,0,1-.634-.485c-.129-.471-12.985-47.274-16.866-64.566-3.875-17.267-13.807-55.232-13.907-55.613a.659.659,0,0,1,1.275-.334c.1.382,10.038,38.369,13.918,55.658,3.874,17.263,16.72,64.036,16.85,64.506a.658.658,0,0,1-.46.809.64.64,0,0,1-.175.024" transform="translate(78.058 49.046)" fill="#ffb13b"/>
            <path id="Trazado_642712" data-name="Trazado 642712" d="M264.52,90.73c-11.373-2.821-23.417,5.519-36.946,22.552-4.188,4.554,13.435,7.109,12.678,13.6-1.879,16.108,2.873,18.628,9.949,15.82,5.236-2.076,6.553,3.284,6.553,9.952,4.133,15.854.819,22.967,20.773,34.059s65.805-8.095,76.853,6.384c1.06,1.39,2.728,3.87,3.76,4.947.819.857,1.638-1.6,1.775-2.779,1.238-10.6-7.216-25.1-16.989-31.339-16.37-10.447-41.859-2.8-36-23.3S297.031,103.612,290.6,97.9c-11.234-9.99-26.085-7.167-26.085-7.167" transform="translate(60.91 24.208)" fill="#b04d23"/>
            <path id="Trazado_642713" data-name="Trazado 642713" d="M391.621,433.777H339.28l-3.8-16.184-4.452-28.236-.483-3.057L326.8,433.777H271.625c-2.428-18.024-5.844-45.206-5.233-57.719.544-11.1,3.245-31.564,5.778-49.092.462-3.17.913-6.248,1.348-9.154,1.88-12.593,3.407-22.02,3.464-22.384.005-.009.537-.162.537-.162L350.586,274.2c13.463,20.425,33.844,59.493,34.529,78.672.531,14.84,4.663,60.854,6.507,80.91" transform="translate(71.482 73.596)" fill="#d29de5"/>
            <path id="Trazado_642714" data-name="Trazado 642714" d="M288.094,184.172c-2.054,0-4.126-.086-6.216-.275-27.256-2.468-29.008-18.875-31.435-41.582-.157-1.469-.317-2.971-.488-4.5l2.215-.246c.171,1.536.331,3.039.488,4.512,2.486,23.258,3.987,37.3,29.421,39.6,14.145,1.282,27.727-2.336,38.641-5.242,10.891-2.9,19.5-5.193,24.644-1.725l-1.243,1.848c-4.313-2.9-12.484-.726-22.829,2.029-9.489,2.528-20.967,5.585-33.2,5.585" transform="translate(67.09 36.924)" fill="#b04d23"/>
            <path id="Trazado_642715" data-name="Trazado 642715" d="M300.39,147.746l-2.048-.874c.1-.246,10.288-24.621-2.008-40.072-8.749-10.993-26.989-20.463-49.6-10.973l-.862-2.054c23.761-9.974,42.972.038,52.205,11.639,13.129,16.5,2.761,41.288,2.314,42.333" transform="translate(65.994 24.074)" fill="#b04d23"/>
            <path id="Trazado_642716" data-name="Trazado 642716" d="M247.41,145.11a3.437,3.437,0,0,1-.757-.084.551.551,0,1,1,.238-1.077,2.556,2.556,0,0,0,2.546-.972c1.1-1.277,1.892-4.02.528-7.546a.552.552,0,1,1,1.029-.4c1.268,3.276.987,6.677-.719,8.663a3.771,3.771,0,0,1-2.864,1.413" transform="translate(66.087 36.149)" fill="#f58f77"/>
            <path id="Trazado_642717" data-name="Trazado 642717" d="M245.415,140.779a.551.551,0,0,1-.545-.476c-.512-3.637-.263-5.59.809-6.333.719-.5,1.7-.4,3,.308a.552.552,0,1,1-.528.97c-.608-.331-1.418-.663-1.843-.372-.37.257-.908,1.284-.346,5.273a.552.552,0,0,1-.469.624.529.529,0,0,1-.077.005" transform="translate(65.656 35.875)" fill="#f58f77"/>
            <path id="Trazado_642718" data-name="Trazado 642718" d="M291.223,174.791a26.978,26.978,0,0,1-15.888-5.1c-13.478-9.381-12.051-24.384-10.9-36.438.585-6.151,1.091-11.461-.525-14.594a1.114,1.114,0,0,1,1.98-1.021c1.915,3.715,1.381,9.327.764,15.826-1.092,11.477-2.451,25.761,9.958,34.4,10.9,7.588,21.039,4.444,30.843,1.407,7.513-2.329,14.608-4.528,21.317-1.523a1.114,1.114,0,0,1-.911,2.033c-5.94-2.66-12.646-.582-19.747,1.618-5.284,1.638-10.948,3.393-16.886,3.393" transform="translate(70.788 31.413)" fill="#9c390e"/>
            <path id="Trazado_642719" data-name="Trazado 642719" d="M348.813,173.853a1.11,1.11,0,0,1-.542-.141c-.148-.081-12.061-6.444-38.587-3.633-8.119.864-14.164-.515-18.474-4.207-7.512-6.433-8.108-18.611-8.685-30.389-.406-8.3-.789-16.147-3.491-21.549-8.389-16.777-31.216-15.338-35.359-14.36a1.114,1.114,0,0,1-.511-2.169c5.341-1.261,28.868-2.458,37.863,15.532,2.911,5.822,3.305,13.893,3.725,22.437.551,11.307,1.123,23,7.906,28.806,3.822,3.271,9.316,4.475,16.791,3.683,27.366-2.9,39.408,3.624,39.908,3.9a1.114,1.114,0,0,1-.544,2.087" transform="translate(65.037 25.974)" fill="#9c390e"/>
            <path id="Trazado_642720" data-name="Trazado 642720" d="M352.21,280.846a174.012,174.012,0,0,1-76.677,16.406q-1.9-6.828-3.8-13.658a247.223,247.223,0,0,0,78.305-16.229q1.086,6.741,2.172,13.482" transform="translate(72.935 71.763)" fill="#b285c3"/>
            <path id="Trazado_642721" data-name="Trazado 642721" d="M277.684,295.1q-1.425,0-2.846-.024a.556.556,0,0,1-.548-.566.564.564,0,0,1,.566-.547,173.487,173.487,0,0,0,76.432-16.355.557.557,0,0,1,.472,1.01A174.621,174.621,0,0,1,277.684,295.1" transform="translate(73.622 74.498)" fill="#2d63d6"/>
            <path id="Trazado_642722" data-name="Trazado 642722" d="M332.694,328.935,320.461,348.96l-.589,7.187-.32,3.938-1.213,14.806-3.635,44.42h-1.12l5.169-63.12a.67.67,0,0,1,.009-.1l.6-7.35a.532.532,0,0,1,.079-.246l12.3-20.14a.558.558,0,0,1,.953.58" transform="translate(84.169 88.062)" fill="#2d63d6"/>
            <path id="Trazado_642723" data-name="Trazado 642723" d="M360.923,336.137a.513.513,0,0,1-.076-.005l-18.89-2.593a.561.561,0,0,1-.45-.368l-11.68-33.327a.553.553,0,0,1,.024-.426.559.559,0,0,1,.317-.284l17.358-6.069a.557.557,0,1,1,.368,1.051L331.062,300l11.384,32.48,18.221,2.5,3.3-4.589a.557.557,0,0,1,.9.649l-3.5,4.862a.559.559,0,0,1-.453.232" transform="translate(88.52 78.652)" fill="#2d63d6"/>
            <path id="Trazado_642724" data-name="Trazado 642724" d="M305.563,349.217a.513.513,0,0,1-.185-.032l-19.636-6.922a.556.556,0,0,1-.372-.506l-1.27-35.65a.558.558,0,0,1,.509-.576l31.982-2.769a.556.556,0,0,1,.6.483l4.5,34.266a.556.556,0,0,1-.23.526l-15.576,11.076a.55.55,0,0,1-.322.1m-19.093-7.878,19.006,6.7,15.067-10.715-4.387-33.4L285.233,306.6Z" transform="translate(76.255 81.263)" fill="#2d63d6"/>
            <path id="Trazado_642725" data-name="Trazado 642725" d="M273.353,313.491c-1.914,20.364-3.175,47.261-3.227,48.376l5.162,67.493a9.369,9.369,0,0,1-1.115.044l-5.159-67.484a.465.465,0,0,1,0-.071c.013-.232.948-20.438,2.437-39.256.25-3.139.514-6.244.794-9.207,1.164-12.43,2.349-20.022,3.512-22.564a.559.559,0,0,1,.51-.334.549.549,0,0,1,.531.4.457.457,0,0,1,.027.155.625.625,0,0,1-.057.25c-1.116,2.432-2.262,9.9-3.412,22.195" transform="translate(72.205 77.969)" fill="#2d63d6"/>
            <path id="Trazado_642726" data-name="Trazado 642726" d="M318.779,350.32c1.668,7.8,8.821,44.016,11.719,63.164h-1.124c-2.574-16.934-8.448-47.143-10.916-59.226-.329-1.607-.6-2.893-.785-3.785a.493.493,0,0,1-.014-.109.918.918,0,0,1,.009-.1.557.557,0,0,1,1.093-.027c.005.027.013.053.018.084" transform="translate(85.262 93.889)" fill="#2d63d6"/>
            <path id="Trazado_642727" data-name="Trazado 642727" d="M207.03,181.49c-.6-.178-14.675-4.5-21.39-14.729-6.64-10.119-5.1-43.121,9.171-61.651l1.766,1.36c-13.318,17.292-15.376,49.464-9.073,59.069,6.263,9.545,20.029,13.777,20.168,13.819Z" transform="translate(48.812 28.212)" fill="#b04d23"/>
            <path id="Trazado_642728" data-name="Trazado 642728" d="M190.293,110.766c-8.014,22.323-10.442,41.274,7.895,56.387,10.681,8.8,33.043,5.468,33.043,5.468s-1.12-46.921-3.607-48.4-37.331-13.457-37.331-13.457" transform="translate(49.454 29.73)" fill="#b04d23"/>
            <path id="Trazado_642729" data-name="Trazado 642729" d="M194.513,107.09c-4.28-7.2,2-14.409,12.716-17s33.738-2.123,41.507,3.207c6.359,4.361,16.044,19.077,15.757,29.275-.188,6.7-9.31,21-9.235,25.366.184,10.9,6.143,26.163,1.353,44.459-.965,3.685-4.272,24.7-19.974,26s-30.755-25.338-30.755-25.338l7.5-65.1Z" transform="translate(51.845 23.772)" fill="#b04d23"/>
            <path id="Trazado_642730" data-name="Trazado 642730" d="M220.411,186.041a1.114,1.114,0,0,1-.132-2.22c.95-.117,23.254-3.109,22.188-26.454-.668-14.645.413-25.707,3.215-32.881a1.114,1.114,0,1,1,2.075.811c-2.688,6.882-3.719,17.637-3.064,31.969,1.159,25.432-23.9,28.737-24.149,28.767a1.169,1.169,0,0,1-.133.008" transform="translate(58.861 33.223)" fill="#9c390e"/>
            <path id="Trazado_642731" data-name="Trazado 642731" d="M191.179,179.393h28.244l8.814-39.9H202.006Z" transform="translate(51.314 37.441)" fill="#fcaf97"/>
            <path id="Trazado_642732" data-name="Trazado 642732" d="M200.225,139.492h26.232l-5.136,23.244c-14.261-.337-23.511-12.311-23.511-12.311Z" transform="translate(53.094 37.441)" fill="#f58f77"/>
            <path id="Trazado_642733" data-name="Trazado 642733" d="M191.253,124.677c0-20.3,14.84-28.412,29.574-28.412s28.448,11.61,28.448,25.931c0,.183-.01.364-.014.547.014,0,0,.119,0,.119-.053,2.062-1.338,19.038-2.577,25.264-2.392,12.019-10.345,24.017-16.718,24.017S200.5,160.265,200.5,148.126c0-.2-6.7-7.7-6.7-7.7-.521-1.914-2.542-15.565-2.542-15.749" transform="translate(51.334 25.838)" fill="#fcaf97"/>
            <path id="Trazado_642734" data-name="Trazado 642734" d="M219.357,102.912s-10.9.885-9.6,17.326c.991,12.581-7.3,18.492-7.3,18.492L192.125,143.2s-3.6-17.575-3.6-25.334S200.3,97.275,200.3,97.275Z" transform="translate(50.601 26.109)" fill="#b04d23"/>
            <path id="Trazado_642735" data-name="Trazado 642735" d="M201.724,130.254c-3.865-2.213-8.294-1.745-9.894,1.048s.238,6.849,4.1,9.063,8.294,1.745,9.894-1.046-.238-6.851-4.1-9.064" transform="translate(51.334 34.587)" fill="#fcaf97"/>
            <path id="Trazado_642736" data-name="Trazado 642736" d="M200.276,137.063a.552.552,0,0,1-.534-.415,6.165,6.165,0,0,0-3.376-4.195,2.043,2.043,0,0,0-1.867.061.551.551,0,1,1-.6-.923,3.091,3.091,0,0,1,2.869-.166,7.337,7.337,0,0,1,4.046,4.949.552.552,0,0,1-.4.671.508.508,0,0,1-.137.018" transform="translate(51.976 35.203)" fill="#f58f77"/>
            <path id="Trazado_642737" data-name="Trazado 642737" d="M239.265,107.025c3.324-2.4,5.11,1.109,10.282,3.324s-4.618-9.051-4.618-9.79-21.8-8.313-21.8-8.313l-20.505,4.064-5.4,7.33s4.433,5.382,14.767,7.77c18.717,4.325,25.736-3.278,27.272-4.386" transform="translate(52.937 24.76)" fill="#b04d23"/>
            <path id="Trazado_642738" data-name="Trazado 642738" d="M212.885,120.644a.847.847,0,0,1-.368-1.61,7.05,7.05,0,0,1,5.246-.687.847.847,0,0,1-.594,1.586,5.507,5.507,0,0,0-3.918.628.841.841,0,0,1-.367.084" transform="translate(56.913 31.706)" fill="#691f28"/>
            <path id="Trazado_642739" data-name="Trazado 642739" d="M234.989,122.217a.844.844,0,0,1-.623-.273,4.651,4.651,0,0,0-2.758-.918.846.846,0,0,1,.042-1.692c.274.006,2.711.105,3.961,1.464a.846.846,0,0,1-.623,1.419" transform="translate(61.944 32.03)" fill="#691f28"/>
            <path id="Trazado_642740" data-name="Trazado 642740" d="M220.888,137.576s6.8-2.213,6.931-1.034a1.378,1.378,0,0,1-.6,1.514Z" transform="translate(59.288 36.556)" fill="#f58f77"/>
            <path id="Trazado_642741" data-name="Trazado 642741" d="M227.667,142.626c.084,1.827-.539,5.332-3.122,5.05-3.6-.393-5.181-1.3-7-3.937a16.858,16.858,0,0,1-1.593-3.954l5.01,2.75Z" transform="translate(57.964 37.519)" fill="#f58f77"/>
            <path id="Trazado_642742" data-name="Trazado 642742" d="M230.609,141.274s-10.5,1.733-14.991-1.728c1.66,2.835,4.065,3.653,6.8,4.406a39.546,39.546,0,0,0,6.161.363c.369.028,2.031-3.042,2.031-3.042" transform="translate(57.874 37.455)" fill="#fff"/>
            <path id="Trazado_642743" data-name="Trazado 642743" d="M219.653,125.06c.241.133,1.362,1.673,1.191,2.452-.245,1.114-1.533,1.971-2.593,2.393a4.083,4.083,0,0,1-2.414-.016c-2.665-.225-4.866-2.258-4.527-3.417.293-1.006,5.249-.978,5.249-.978Z" transform="translate(56.708 33.567)" fill="#fff"/>
            <path id="Trazado_642744" data-name="Trazado 642744" d="M214.159,127.325a2.589,2.589,0,1,0,2.784-2.628,2.714,2.714,0,0,0-2.784,2.628" transform="translate(57.48 33.468)" fill="#471a1f"/>
            <path id="Trazado_642745" data-name="Trazado 642745" d="M211.474,127.554a.8.8,0,0,1-.493-1.437c.208-.162,5.175-3.932,10.3-.977a.8.8,0,0,1-.8,1.393c-4.178-2.407-8.337.72-8.512.855a.8.8,0,0,1-.49.166" transform="translate(56.546 33.286)" fill="#471a1f"/>
            <path id="Trazado_642746" data-name="Trazado 642746" d="M232.995,125.934a4.064,4.064,0,0,1,.379,2.333c-.219,1.031.067,2.229-.866,2.624a3.445,3.445,0,0,1-2.126-.008c-2.345-.2-3.6-2.165-3.3-3.24.261-.93,3.723-1.876,3.723-1.876Z" transform="translate(60.939 33.757)" fill="#fff"/>
            <path id="Trazado_642747" data-name="Trazado 642747" d="M229.527,128.364A2.325,2.325,0,1,0,232,125.71a2.6,2.6,0,0,0-2.477,2.653" transform="translate(61.604 33.74)" fill="#471a1f"/>
            <path id="Trazado_642748" data-name="Trazado 642748" d="M227.226,128.5a.725.725,0,0,1-.445-1.3c.2-.153,4.877-3.711,9.214-.79a.726.726,0,1,1-.811,1.2c-3.475-2.341-7.475.7-7.514.732a.721.721,0,0,1-.444.152" transform="translate(60.794 33.623)" fill="#471a1f"/>
            <path id="Trazado_642749" data-name="Trazado 642749" d="M247.123,205.455a1.114,1.114,0,0,1-.831-1.856c14.78-16.564,6.38-37.733,6.294-37.944a1.056,1.056,0,0,1-.042-.122c-.225-.8-2.194-7.921-2.217-10.346-.1-10.736,6.338-22.29,9.8-28.5l.261-.469c3.139-5.639-.751-16.332-9.46-26-8-8.879-11.814-8.885-18.141-8.9-.717,0-1.462,0-2.245-.016-.166,0-20.355.445-22.545,10.714-.039.146-1.522,5.086.55,8.62a1.115,1.115,0,0,1-1.923,1.128c-2.575-4.393-.855-10.071-.78-10.311,2.532-11.9,23.8-12.366,24.7-12.38.807.014,1.541.015,2.246.016,6.7.013,11.135.02,19.794,9.634,9.484,10.532,13.4,22.016,9.75,28.577l-.261.469c-3.359,6.026-9.609,17.245-9.514,27.391.017,1.788,1.521,7.564,2.12,9.712.539,1.39,8.568,23.069-6.72,40.2a1.114,1.114,0,0,1-.832.372" transform="translate(55.08 23.91)" fill="#9c390e"/>
            <path id="Trazado_642750" data-name="Trazado 642750" d="M200.345,104.277a1.113,1.113,0,0,1-1.1-.947c-1.327-8.761,9.852-12.586,13.309-13.55a1.114,1.114,0,1,1,.6,2.146c-3.011.84-12.756,4.119-11.7,11.071a1.113,1.113,0,0,1-.935,1.268,1.074,1.074,0,0,1-.167.013" transform="translate(53.45 24.086)" fill="#9c390e"/>
            <path id="Trazado_642751" data-name="Trazado 642751" d="M189.431,143.221a1.115,1.115,0,0,1-1.1-.982c-.852-7.1,3.409-9.438,7.17-11.5,2.274-1.249,4.423-2.43,5.376-4.565,1.268-2.845.734-5.812.117-9.247-.635-3.533-1.355-7.537-.179-12.168a1.114,1.114,0,1,1,2.159.549c-1.057,4.163-.411,7.753.213,11.224.654,3.639,1.272,7.076-.275,10.548-1.257,2.82-3.839,4.239-6.337,5.61-3.6,1.976-6.7,3.683-6.031,9.286a1.115,1.115,0,0,1-.973,1.239,1.213,1.213,0,0,1-.134.008" transform="translate(50.519 27.892)" fill="#9c390e"/>
            <path id="Trazado_642752" data-name="Trazado 642752" d="M259.494,198.695a16.694,16.694,0,0,0-6.168-16.172c-7.962-6.218-19.445-14.545-31.647-16.411-24.253-3.71-51.77-.436-58.4,3.493-9.895,40.527-.363,77.458-10.258,117.985,8.595,4.214,21.872,14.952,39.029,16.422,10.632.912,27.145-5.358,34.35-6.535,10.6-17.7,17-34.133,27.6-51.832Z" transform="translate(41.071 44.15)" fill="#ffdd63"/>
            <path id="Trazado_642753" data-name="Trazado 642753" d="M157.029,223.929l4.4,3.945s21.276,40.091,36.137,41.863,38.287-3.12,38.287-3.12l9.122-13.563-38.744-2.126-40.056-43.714-9.146,4.934Z" transform="translate(42.148 55.618)" fill="#ffc266"/>
            <path id="Trazado_642754" data-name="Trazado 642754" d="M235.173,311.132c-14.405,21.35-31.7,32.4-49.595,32.4-21.123,0-40.451-15.652-55.357-41.587,10.1-14.116,18.445-25.774,28.917-40.4,5.646,4.113,18.923,7.231,34.04,10.2,13.966,2.749,32.658,1.129,39.336-.316-2.037,4.281.946,23.495,2.659,39.7" transform="translate(34.952 70.199)" fill="#d29de5"/>
            <path id="Trazado_642755" data-name="Trazado 642755" d="M169.533,337.855a.532.532,0,0,1-.117-.013.558.558,0,0,1-.429-.661L181.428,278.7a.558.558,0,0,1,1.091.232l-12.442,58.484a.558.558,0,0,1-.544.441" transform="translate(45.354 74.686)" fill="#2d63d6"/>
            <path id="Trazado_642756" data-name="Trazado 642756" d="M172.289,321.109A.557.557,0,0,1,172.2,320c.11-.018,11.109-1.859,15.141-4.094,2.839-1.573,5.1-22.91,5.86-35.99a.564.564,0,0,1,.589-.524.557.557,0,0,1,.524.589c-.2,3.526-2.123,34.512-6.432,36.9-4.2,2.328-15.04,4.141-15.5,4.217a.556.556,0,0,1-.091.008" transform="translate(46.094 74.992)" fill="#2d63d6"/>
            <path id="Trazado_642757" data-name="Trazado 642757" d="M139.511,292.705a14.759,14.759,0,0,1-4.939-.87.557.557,0,1,1,.37-1.05c10.993,3.877,20.486-7,25.707-18.471a.557.557,0,1,1,1.013.462c-4.642,10.2-12.613,19.929-22.151,19.929" transform="translate(36.02 73.004)" fill="#2d63d6"/>
            <path id="Trazado_642758" data-name="Trazado 642758" d="M215.108,301.483a.56.56,0,0,1-.2-.035c-9.429-3.524-10.391-9.762-12.134-21.086a.558.558,0,0,1,.465-.635.552.552,0,0,1,.635.465c1.734,11.263,2.6,16.917,11.423,20.212a.557.557,0,0,1-.2,1.079" transform="translate(54.426 75.079)" fill="#2d63d6"/>
            <path id="Trazado_642759" data-name="Trazado 642759" d="M177.53,293.143a.658.658,0,0,1-.611-.9c.205-.511,20.532-51.218,22.934-60.758,1.782-7.074,1.9-26.024,1.983-38.563.029-4.448.051-7.963.142-9.817a.659.659,0,0,1,1.317.065c-.09,1.827-.113,5.329-.141,9.762-.081,12.6-.2,31.648-2.023,38.875-2.424,9.626-22.15,58.838-22.989,60.928a.659.659,0,0,1-.611.413" transform="translate(47.474 48.977)" fill="#ffb13b"/>
            <path id="Trazado_642760" data-name="Trazado 642760" d="M209.951,283.679a147.889,147.889,0,0,1-62.4-14.046.557.557,0,0,1,.473-1.01c42.093,19.739,78.541,12.764,78.9,12.69a.558.558,0,0,1,.219,1.093,98.969,98.969,0,0,1-17.2,1.272" transform="translate(39.518 72.087)" fill="#2d63d6"/>
            <path id="Trazado_642761" data-name="Trazado 642761" d="M220.4,193.315q-1.109,0-2.246-.079c-17.628-1.249-35.552-17.29-41.2-27.9a.659.659,0,1,1,1.163-.618c5.511,10.348,22.973,25.987,40.134,27.2,9.925.7,18.25-3.444,24.734-12.325a.659.659,0,1,1,1.064.776c-6.277,8.6-14.224,12.943-23.644,12.943" transform="translate(47.475 44.118)" fill="#ffb13b"/>
            <path id="Trazado_642762" data-name="Trazado 642762" d="M186.249,293.235a.672.672,0,0,1-.246-.047.66.66,0,0,1-.367-.857c.205-.51,20.532-51.218,22.935-60.758,1.735-6.889,1.651-23.71,1.6-34.842-.022-4.543-.038-8.133.058-10.122a.658.658,0,1,1,1.315.065c-.094,1.953-.077,5.526-.056,10.051.055,11.2.14,28.119-1.638,35.169-2.424,9.626-22.15,58.838-22.989,60.928a.658.658,0,0,1-.61.414" transform="translate(49.814 49.919)" fill="#ffb13b"/>
            <path id="Trazado_642763" data-name="Trazado 642763" d="M194.259,293.361a.659.659,0,0,1-.611-.9c.205-.51,20.53-51.218,22.934-60.758,1.734-6.889,1.653-23.751,1.6-34.909-.023-4.554-.039-8.151.058-10.141a.672.672,0,0,1,.69-.625.659.659,0,0,1,.625.691c-.1,1.953-.079,5.535-.057,10.069.055,11.224.136,28.188-1.64,35.236-2.424,9.626-22.149,58.838-22.987,60.928a.659.659,0,0,1-.611.414" transform="translate(51.964 49.93)" fill="#ffb13b"/>
            <path id="Trazado_642764" data-name="Trazado 642764" d="M253.81,133.972a1.114,1.114,0,0,1-1.038-1.52c3.209-8.217,2.86-24.865.161-28.3-6.021-7.67-13.312-8.377-16.672-7.586-3.9.917-4.485,2.231-6.681,7.116l-.109.245a27.608,27.608,0,0,1-3.143,5.247,9.014,9.014,0,0,1-8.746,3.432c-9.385-1.583-21.232-4.146-24.379-7.364a1.114,1.114,0,1,1,1.593-1.558c2.066,2.113,10.723,4.627,23.156,6.725a6.792,6.792,0,0,0,6.594-2.575,25.362,25.362,0,0,0,2.892-4.821l.109-.245c2.288-5.093,3.236-7.2,8.2-8.371,3.871-.912,12.22-.175,18.935,8.379,3.658,4.661,3.208,22.687.161,30.489a1.113,1.113,0,0,1-1.038.709" transform="translate(51.772 25.256)" fill="#9c390e"/>
            <path id="Trazado_642765" data-name="Trazado 642765" d="M192.757,165.808c1.728,7.832,23.587,12.5,26.9,4.7,1.994-4.7-24.832-10.943-24.832-10.943Z" transform="translate(51.738 42.827)" fill="#fcaf97"/>
            <path id="Trazado_642766" data-name="Trazado 642766" d="M268.539,230.244l-57.765,12.222-34.65-64.752-23.107,25.938c5.127,12.863,17.352,31.112,37.895,63.568,7.551,11.929,17.34,11.057,40.353,3.413,13.162-4.372,40.91-20.4,47.787-24.205Z" transform="translate(41.071 47.7)" fill="#fca990"/>
            <path id="Trazado_642767" data-name="Trazado 642767" d="M239.773,219.6c.4,12.76,10.268,21.165,10.268,21.165-.1.443-.55,3.217-2.3,4.673-2.465,2.047-8.276,1.871-8.5,1.827a70.136,70.136,0,0,1-5.728-7.524c-2.768-4.512-4.9-12.562-3.623-15.856,2.563-6.589,9.886-4.283,9.886-4.283" transform="translate(61.601 58.839)" fill="#bf6f6f"/>
            <path id="Trazado_642768" data-name="Trazado 642768" d="M252.68,239.008c2.39.379,24.655-1.952,28.2-5.533-2.144-4.868-6.479-12.832-9.164-17.386-2.605-4.418-12.948-1.252-16,2.87-1.9,2.57-8.581,1.493-8.944,1.559-4.625.833-6.035,16.6,5.907,18.49" transform="translate(65.329 57.427)" fill="#fca990"/>
            <path id="Trazado_642769" data-name="Trazado 642769" d="M290.275,207.641l-12.5,8.942-.134.1-.471.2-16.252,6.783c-5.253,1.965-8.018-5.792-2.688-7.585l16.9-4.963-.605.293L288,204.023a2.143,2.143,0,0,1,2.273,3.619" transform="translate(68.538 54.687)" fill="#fca990"/>
            <path id="Trazado_642770" data-name="Trazado 642770" d="M291.805,213.419l-11.29,7.241c-.048.03-.53.228-.53.228l-11.425,4.669c-4.977,1.891-7.945-5.337-3.058-7.481a4.3,4.3,0,0,1,.585-.189l12-2.888-.53.228,12.206-5.561a2.145,2.145,0,0,1,2.046,3.752" transform="translate(70.593 56.221)" fill="#fca990"/>
            <path id="Trazado_642771" data-name="Trazado 642771" d="M291.106,219.3,281,224.734a2.042,2.042,0,0,1-.341.14L269.267,229a2.991,2.991,0,0,1-2.036-5.624c.063-.023.136-.046.2-.065L279.083,220l-.341.138,10.482-4.668a2.139,2.139,0,0,1,1.882,3.836" transform="translate(71.202 57.78)" fill="#fca990"/>
            <path id="Trazado_642772" data-name="Trazado 642772" d="M289.12,224.861l-15.3,7.068c-4.958,2.033-7.605-5.429-2.466-6.97l16.337-4.126a2.149,2.149,0,0,1,1.427,4.028" transform="translate(72.086 59.254)" fill="#fca990"/>
            <path id="Trazado_642773" data-name="Trazado 642773" d="M250.919,217.049l-9.183,7.727s19.5,2.311,19.72-.906,2.892-7.532,2.892-7.532,4.73-6.431,4.377-10.476c-.165-1.889-.293-2.714-1.251-3.332-1.022-.658-2.648,1.564-2.964,2.738Z" transform="translate(64.884 54.329)" fill="#fca990"/>
            <path id="Trazado_642774" data-name="Trazado 642774" d="M164.556,222.283l8.025-4.139s5.8,14.583,15.406,23.44c13.859,12.775,48.972,1.126,58.529-4.758.022.051-2.919-6.213-2.919-6.213l-34.757,7.668-19.624-47.357-35.267,11.09Z" transform="translate(41.322 51.246)" fill="#ff9c84"/>
            <path id="Trazado_642775" data-name="Trazado 642775" d="M155.3,227.941c5.462-1.632,11.236-3.564,17.25-5.86,7.562-2.886,14.476-5.954,20.723-9.026-5.291-27.858-15.736-48.666-24.923-46.707-14.537,3.1-20.78,20.495-19.18,35.977.389,3.766,6.129,25.616,6.129,25.616" transform="translate(39.973 44.615)" fill="#ffbf47"/>
            <path id="Trazado_642776" data-name="Trazado 642776" d="M151.236,206.234a.658.658,0,0,1-.134-1.3c2.353-.5,23.544-8.252,23.757-8.331a.659.659,0,0,1,.453,1.237c-.876.322-21.494,7.868-23.94,8.383a.712.712,0,0,1-.136.014" transform="translate(40.416 52.759)" fill="#ffb13b"/>
            <path id="Trazado_642777" data-name="Trazado 642777" d="M181.4,168.287c1.56,5.516,16.578,42.914,20.933,45.855,10.768-5.595,40.451-16.962,58.477-23.789l7.858,9.866s7.648,20.891-.6,28c-7.6,6.546-45.982,18.727-63.77,21.049-6.7.875-11.9,1.577-16.71-2.96-9.129-8.6-15.259-26.576-16.267-31.449-2.948-14.239-2.8-34.787-4.3-41.811Z" transform="translate(44.831 45.17)" fill="#fcaf97"/>
            <path id="Trazado_642778" data-name="Trazado 642778" d="M252.331,177.724c-13.1-1.161-43.229,23.008-43.229,23.008s10.088,31.251,21.9,40.642c9.447-6.276,18.055-6.854,27.795-16.378,11.562-11.3,6.144-30.991,2.745-36.128-5.5-8.319-9.206-11.144-9.206-11.144" transform="translate(56.125 47.692)" fill="#ffbf47"/>
            <path id="Trazado_642779" data-name="Trazado 642779" d="M164.631,170.4c6.1-1.771,16.388-3.148,27.981-3.378l-1.149-6.282s-6.776-4.861-11.314-5.459a10.281,10.281,0,0,0-5.495.572,18.245,18.245,0,0,0-3.615,2.674c-.87.686-2.243.464-3.307,1.306-1.351,1.071-1.28,3.219-1.778,4.115s-1.419,1.416-1.67,2.244a6.2,6.2,0,0,0,0,3.122Z" transform="translate(44.04 41.645)" fill="#fcaf97"/>
            <path id="Trazado_642780" data-name="Trazado 642780" d="M165.911,166.407a17.7,17.7,0,0,0-1.67,1.7,41.934,41.934,0,0,0,1.3,6.384l3.846,8.519,15.653,1.577.922-8.269c.273-.457,3.128-7.528,3.205-9.908s-1.616-6.735-1.616-6.735Z" transform="translate(44.083 42.857)" fill="#fcaf97"/>
            <path id="Trazado_642781" data-name="Trazado 642781" d="M184.417,172.237a.535.535,0,0,1-.186-.033.552.552,0,0,1-.334-.705c1.709-4.765,3.407-10.142,3.292-10.892-.122-.363-1.414-.835-2.589-1.048l-3.867,3.713-3.595,1a.552.552,0,0,1-.3-1.064l3.327-.923,4.061-3.9.268.039c.772.115,3.326.59,3.746,1.863.365,1.109-2.191,8.47-3.307,11.584a.555.555,0,0,1-.52.365" transform="translate(47.358 42.512)" fill="#f58f77"/>
            <path id="Trazado_642782" data-name="Trazado 642782" d="M178.1,163.184v-4.338h2.141l2.191,1.483-2.421,2.325Z" transform="translate(47.802 42.636)" fill="#f58f77"/>
            <path id="Trazado_642783" data-name="Trazado 642783" d="M237.252,233.2a.66.66,0,0,1-.391-.128c-5.632-4.15-19.022-32.362-20.84-42.268a.659.659,0,0,1,1.3-.238c1.74,9.484,15,37.521,20.326,41.447a.659.659,0,0,1-.392,1.188" transform="translate(57.979 51.005)" fill="#ffb13b"/>
            <path id="Trazado_642784" data-name="Trazado 642784" d="M229.778,223.623a.659.659,0,0,1-.237-1.273c.254-.1,25.456-9.889,28.995-16.2a.659.659,0,0,1,1.15.644c-3.771,6.726-28.614,16.382-29.671,16.789a.655.655,0,0,1-.237.044" transform="translate(61.498 55.241)" fill="#ffb13b"/>
            <path id="Trazado_642785" data-name="Trazado 642785" d="M337.857,207.147c-.339-.682-4.319-3.908-10.656-8.171,1.275,8.284,2.137,16.374,2.716,23.222l10.19,12.467s.823-6.366,1.208-11.6-3.076-15.152-3.458-15.921" transform="translate(87.823 53.407)" fill="#fcaf97"/>
            <path id="Trazado_642786" data-name="Trazado 642786" d="M315.009,232.28l10.4-6.634-1.109,1.015,5.906-10.755a4.037,4.037,0,1,1,6.728,4.418l-7.52,9.694-.619.8-.49.218-11.269,5.009a2.145,2.145,0,0,1-2.023-3.763" transform="translate(84.286 57.389)" fill="#fcaf97"/>
            <path id="Trazado_642787" data-name="Trazado 642787" d="M315.7,236.636l11.154-8.081-.988.987,2.288-5.433c2.212-4.9,9.488-1.847,7.523,3.168a4.171,4.171,0,0,1-.686,1.1c-.55.638-4.177,4.784-4.628,5.3l-.235.126-12.168,6.456a2.144,2.144,0,0,1-2.26-3.626" transform="translate(84.499 59.487)" fill="#fcaf97"/>
            <path id="Trazado_642788" data-name="Trazado 642788" d="M319.943,239.506l8.418-6.058-.52.455,5.486-6.933a2.992,2.992,0,1,1,4.5,3.93l-6.128,6.374-.323.335-.2.119-8.886,5.346a2.14,2.14,0,0,1-2.352-3.568" transform="translate(85.637 60.616)" fill="#fcaf97"/>
            <path id="Trazado_642789" data-name="Trazado 642789" d="M326.321,240.086l5.477-6.721a2.53,2.53,0,1,1,3.771,3.366l-6.06,6.2a2.14,2.14,0,0,1-3.188-2.846" transform="translate(87.455 62.387)" fill="#fcaf97"/>
            <path id="Trazado_642790" data-name="Trazado 642790" d="M330.8,209.955l5.015-1.4c3.437-.616,6.411,5.264,4.612,8.257-1.815,3.021-1.89,3.565-3.241,2.936-2.922-1.362-7.99-1.111-7.99-1.111s-7.916,1.031-11.286-1.234c-1.574-1.058-2.235-1.569-2.312-2.705-.082-1.213,2.65-1.563,3.829-1.271Z" transform="translate(84.709 55.967)" fill="#fcaf97"/>
            <path id="Trazado_642791" data-name="Trazado 642791" d="M337.635,211.542c2.076,3.847,2.615,16.307,2.615,18.922,0,1.744-3.071,7.9-4.461,10.691-.663,1.332-.581.542-1.943-.06l-2.61-1.149s-3.978-8.4-4.061-9.1.027-6.846,1.091-8.077,9.37-11.23,9.37-11.23" transform="translate(87.81 56.78)" fill="#fcaf97"/>
          </g>
        </g>
      </g>
    </g>
    <path id="Trazado_643399" data-name="Trazado 643399" d="M42.765,13.186H38.083L37.1,16H34.921L39.486,3.914H41.37L45.944,16H43.753Zm-4.092-1.693h3.5L40.424,6.479Zm13.8,3.627a3.128,3.128,0,0,1-2.523,1.046,2.788,2.788,0,0,1-2.212-.855,3.637,3.637,0,0,1-.751-2.474V7.019H49v5.794q0,1.71,1.419,1.71A1.993,1.993,0,0,0,52.4,13.468V7.019h2.017V16h-1.9ZM59,4.835V7.019h1.585V8.513H59v5.014a1.1,1.1,0,0,0,.2.743.943.943,0,0,0,.726.228,3.107,3.107,0,0,0,.706-.083v1.561a4.968,4.968,0,0,1-1.328.191q-2.324,0-2.324-2.565V8.513H55.507V7.019h1.478V4.835Zm2.5,6.591a5.3,5.3,0,0,1,.523-2.378,3.819,3.819,0,0,1,1.469-1.627,4.14,4.14,0,0,1,2.175-.569,3.923,3.923,0,0,1,2.951,1.17,4.6,4.6,0,0,1,1.224,3.1l.008.473a5.343,5.343,0,0,1-.51,2.374,3.773,3.773,0,0,1-1.461,1.619,4.17,4.17,0,0,1-2.2.573A3.9,3.9,0,0,1,62.641,14.9,4.848,4.848,0,0,1,61.5,11.526Zm2.017.174a3.619,3.619,0,0,0,.573,2.171,1.862,1.862,0,0,0,1.594.784,1.842,1.842,0,0,0,1.59-.8,4,4,0,0,0,.569-2.333,3.572,3.572,0,0,0-.585-2.158A1.973,1.973,0,0,0,64.1,9.256,3.922,3.922,0,0,0,63.517,11.6Zm11.729,2.955a1.824,1.824,0,0,0,1.253-.44,1.5,1.5,0,0,0,.531-1.087h1.9a2.963,2.963,0,0,1-.523,1.565,3.43,3.43,0,0,1-1.328,1.15,3.958,3.958,0,0,1-1.81.423,3.829,3.829,0,0,1-2.988-1.22,4.84,4.84,0,0,1-1.1-3.37v-.208a4.759,4.759,0,0,1,1.1-3.283,3.8,3.8,0,0,1,2.988-1.233,3.69,3.69,0,0,1,2.611.934,3.345,3.345,0,0,1,1.058,2.453h-1.9a1.847,1.847,0,0,0-.527-1.27,1.7,1.7,0,0,0-1.258-.5,1.775,1.775,0,0,0-1.511.71,3.621,3.621,0,0,0-.54,2.154v.324a3.681,3.681,0,0,0,.527,2.179A1.773,1.773,0,0,0,75.246,14.556Zm4.831-3.129A5.3,5.3,0,0,1,80.6,9.048a3.819,3.819,0,0,1,1.469-1.627,4.14,4.14,0,0,1,2.175-.569,3.923,3.923,0,0,1,2.951,1.17,4.6,4.6,0,0,1,1.224,3.1l.008.473a5.343,5.343,0,0,1-.51,2.374,3.773,3.773,0,0,1-1.461,1.619,4.17,4.17,0,0,1-2.2.573A3.9,3.9,0,0,1,81.218,14.9a4.848,4.848,0,0,1-1.141-3.374Zm2.017.174a3.619,3.619,0,0,0,.573,2.171,1.862,1.862,0,0,0,1.594.784,1.842,1.842,0,0,0,1.59-.8,4,4,0,0,0,.569-2.333,3.572,3.572,0,0,0-.585-2.158,1.973,1.973,0,0,0-3.158-.012A3.922,3.922,0,0,0,82.094,11.6Zm9.911-4.582.058,1.038a3.229,3.229,0,0,1,2.615-1.2q2.806,0,2.855,3.212V16H95.516V10.181a1.85,1.85,0,0,0-.369-1.266A1.554,1.554,0,0,0,93.939,8.5a1.944,1.944,0,0,0-1.818,1.1V16H90.1V7.019Zm11.272,7.537a1.824,1.824,0,0,0,1.253-.44,1.5,1.5,0,0,0,.531-1.087h1.9a2.963,2.963,0,0,1-.523,1.565,3.43,3.43,0,0,1-1.328,1.15,3.958,3.958,0,0,1-1.81.423,3.829,3.829,0,0,1-2.988-1.22,4.84,4.84,0,0,1-1.1-3.37v-.208a4.759,4.759,0,0,1,1.1-3.283,3.8,3.8,0,0,1,2.988-1.233,3.69,3.69,0,0,1,2.611.934,3.345,3.345,0,0,1,1.058,2.453h-1.9a1.847,1.847,0,0,0-.527-1.27,1.7,1.7,0,0,0-1.258-.5,1.775,1.775,0,0,0-1.511.71,3.621,3.621,0,0,0-.54,2.154v.324a3.681,3.681,0,0,0,.527,2.179A1.773,1.773,0,0,0,103.278,14.556Zm9.164,1.61a4.173,4.173,0,0,1-3.109-1.208,4.381,4.381,0,0,1-1.191-3.217v-.249a5.389,5.389,0,0,1,.519-2.4,3.949,3.949,0,0,1,1.457-1.648,3.851,3.851,0,0,1,2.092-.589,3.525,3.525,0,0,1,2.835,1.17,4.949,4.949,0,0,1,1,3.312v.813h-5.869a2.7,2.7,0,0,0,.743,1.76,2.23,2.23,0,0,0,1.639.647,2.731,2.731,0,0,0,2.258-1.121l1.087,1.038a3.631,3.631,0,0,1-1.44,1.249A4.509,4.509,0,0,1,112.442,16.166ZM112.2,8.471a1.7,1.7,0,0,0-1.341.581,3.012,3.012,0,0,0-.652,1.619h3.843v-.149a2.452,2.452,0,0,0-.54-1.531A1.686,1.686,0,0,0,112.2,8.471ZM125.474,11.6a5.348,5.348,0,0,1-.946,3.324,3.287,3.287,0,0,1-4.906.27v4.258H117.6V7.019h1.859l.083.913a2.963,2.963,0,0,1,2.416-1.079,3.062,3.062,0,0,1,2.577,1.224,5.49,5.49,0,0,1,.934,3.4Zm-2.009-.174a3.746,3.746,0,0,0-.535-2.133A1.741,1.741,0,0,0,121.4,8.5a1.856,1.856,0,0,0-1.776,1.021V13.51a1.873,1.873,0,0,0,1.793,1.046,1.739,1.739,0,0,0,1.507-.776A4.124,4.124,0,0,0,123.465,11.426Zm6.242-6.591V7.019h1.585V8.513h-1.585v5.014a1.1,1.1,0,0,0,.2.743.943.943,0,0,0,.726.228,3.107,3.107,0,0,0,.706-.083v1.561a4.968,4.968,0,0,1-1.328.191q-2.324,0-2.324-2.565V8.513h-1.478V7.019h1.478V4.835Zm2.5,6.591a5.3,5.3,0,0,1,.523-2.378A3.819,3.819,0,0,1,134.2,7.421a4.14,4.14,0,0,1,2.175-.569,3.923,3.923,0,0,1,2.951,1.17,4.6,4.6,0,0,1,1.224,3.1l.008.473a5.343,5.343,0,0,1-.51,2.374,3.773,3.773,0,0,1-1.461,1.619,4.17,4.17,0,0,1-2.2.573,3.9,3.9,0,0,1-3.042-1.266,4.848,4.848,0,0,1-1.141-3.374Zm2.017.174a3.619,3.619,0,0,0,.573,2.171,1.862,1.862,0,0,0,1.594.784,1.842,1.842,0,0,0,1.59-.8,4,4,0,0,0,.569-2.333,3.572,3.572,0,0,0-.585-2.158,1.973,1.973,0,0,0-3.158-.012A3.922,3.922,0,0,0,134.223,11.6Z" transform="translate(810 3144.542)" fill="#12263f"/>
    <path id="Trazado_643400" data-name="Trazado 643400" d="M49.845,13.186H45.164L44.184,16H42L46.567,3.914h1.884L53.025,16H50.833Zm-4.092-1.693h3.5L47.5,6.479Zm13.8,3.627a3.128,3.128,0,0,1-2.523,1.046,2.788,2.788,0,0,1-2.212-.855,3.637,3.637,0,0,1-.751-2.474V7.019h2.017v5.794q0,1.71,1.419,1.71a1.993,1.993,0,0,0,1.984-1.054V7.019H61.5V16H59.6ZM66.082,4.835V7.019h1.585V8.513H66.082v5.014a1.1,1.1,0,0,0,.2.743.943.943,0,0,0,.726.228,3.107,3.107,0,0,0,.706-.083v1.561a4.968,4.968,0,0,1-1.328.191q-2.324,0-2.324-2.565V8.513H62.587V7.019h1.478V4.835Zm2.5,6.591A5.3,5.3,0,0,1,69.1,9.048a3.819,3.819,0,0,1,1.469-1.627,4.14,4.14,0,0,1,2.175-.569A3.923,3.923,0,0,1,75.7,8.023a4.6,4.6,0,0,1,1.224,3.1l.008.473a5.343,5.343,0,0,1-.51,2.374,3.773,3.773,0,0,1-1.461,1.619,4.17,4.17,0,0,1-2.2.573A3.9,3.9,0,0,1,69.722,14.9a4.848,4.848,0,0,1-1.141-3.374ZM70.6,11.6a3.619,3.619,0,0,0,.573,2.171,1.862,1.862,0,0,0,1.594.784,1.842,1.842,0,0,0,1.59-.8,4,4,0,0,0,.569-2.333,3.572,3.572,0,0,0-.585-2.158,1.973,1.973,0,0,0-3.158-.012A3.922,3.922,0,0,0,70.6,11.6ZM80.782,16H78.765V7.019h2.017ZM78.641,4.686a1.071,1.071,0,0,1,.295-.772,1.113,1.113,0,0,1,.843-.307,1.127,1.127,0,0,1,.847.307,1.062,1.062,0,0,1,.3.772,1.038,1.038,0,0,1-.3.76,1.136,1.136,0,0,1-.847.3,1.122,1.122,0,0,1-.843-.3A1.046,1.046,0,0,1,78.641,4.686Zm6.234,2.333.058.938a3.232,3.232,0,0,1,2.59-1.1A2.483,2.483,0,0,1,89.988,8.23a3.186,3.186,0,0,1,2.756-1.378,2.8,2.8,0,0,1,2.212.822A3.618,3.618,0,0,1,95.7,10.1V16H93.682V10.156A1.786,1.786,0,0,0,93.308,8.9a1.635,1.635,0,0,0-1.237-.4,1.679,1.679,0,0,0-1.125.369,1.948,1.948,0,0,0-.61.967L90.345,16H88.328V10.09A1.439,1.439,0,0,0,86.709,8.5a1.776,1.776,0,0,0-1.718.988V16H82.974V7.019ZM103.136,16a3.113,3.113,0,0,1-.232-.838,3.393,3.393,0,0,1-4.565.232,2.47,2.47,0,0,1-.855-1.909,2.55,2.55,0,0,1,1.067-2.2,5.169,5.169,0,0,1,3.051-.768h1.237V9.924a1.573,1.573,0,0,0-.39-1.116,1.547,1.547,0,0,0-1.187-.419,1.777,1.777,0,0,0-1.129.344,1.066,1.066,0,0,0-.44.876H97.675a2.239,2.239,0,0,1,.49-1.382A3.263,3.263,0,0,1,99.5,7.218a4.68,4.68,0,0,1,1.88-.365,3.769,3.769,0,0,1,2.515.793,2.827,2.827,0,0,1,.963,2.229v4.051a4.591,4.591,0,0,0,.34,1.934V16Zm-2.216-1.453a2.294,2.294,0,0,0,1.125-.291,1.941,1.941,0,0,0,.793-.78V11.783H101.75a2.973,2.973,0,0,0-1.685.39,1.264,1.264,0,0,0-.564,1.1,1.179,1.179,0,0,0,.386.926A1.5,1.5,0,0,0,100.92,14.547Zm5.694-3.1A5.253,5.253,0,0,1,107.6,8.1a3.157,3.157,0,0,1,2.611-1.249,2.958,2.958,0,0,1,2.416,1.071l.091-.9h1.818v8.708a3.619,3.619,0,0,1-1.1,2.789,4.189,4.189,0,0,1-2.968,1.021,4.783,4.783,0,0,1-1.93-.411A3.429,3.429,0,0,1,107.1,18.05l.955-1.212a2.883,2.883,0,0,0,2.291,1.1,2.228,2.228,0,0,0,1.585-.544,2.084,2.084,0,0,0,.581-1.6v-.606a2.97,2.97,0,0,1-2.324.971,3.15,3.15,0,0,1-2.577-1.253A5.423,5.423,0,0,1,106.615,11.443Zm2.009.174a3.616,3.616,0,0,0,.552,2.129,1.775,1.775,0,0,0,1.531.776,1.941,1.941,0,0,0,1.81-1.046V9.525A1.913,1.913,0,0,0,110.723,8.5a1.782,1.782,0,0,0-1.548.789A4.049,4.049,0,0,0,108.623,11.617Zm11.937,4.549a4.173,4.173,0,0,1-3.109-1.208,4.381,4.381,0,0,1-1.191-3.217v-.249a5.389,5.389,0,0,1,.519-2.4,3.949,3.949,0,0,1,1.457-1.648,3.851,3.851,0,0,1,2.092-.589,3.525,3.525,0,0,1,2.835,1.17,4.949,4.949,0,0,1,1,3.312v.813h-5.869a2.7,2.7,0,0,0,.743,1.76,2.23,2.23,0,0,0,1.639.647,2.731,2.731,0,0,0,2.258-1.121l1.087,1.038a3.631,3.631,0,0,1-1.44,1.249A4.509,4.509,0,0,1,120.56,16.166Zm-.241-7.695a1.7,1.7,0,0,0-1.341.581,3.012,3.012,0,0,0-.652,1.619h3.843v-.149a2.452,2.452,0,0,0-.54-1.531A1.686,1.686,0,0,0,120.319,8.471Zm7.28-1.453.058,1.038a3.229,3.229,0,0,1,2.615-1.2q2.806,0,2.855,3.212V16H131.11V10.181a1.85,1.85,0,0,0-.369-1.266,1.554,1.554,0,0,0-1.208-.411,1.944,1.944,0,0,0-1.818,1.1V16H125.7V7.019Z" transform="translate(824 3226.542)" fill="#12263f"/>
    <path id="Trazado_643401" data-name="Trazado 643401" d="M40.955,13.186H36.274L35.294,16H33.111L37.677,3.914h1.884L44.135,16H41.943Zm-4.092-1.693h3.5L38.615,6.479Zm13.8,3.627a3.128,3.128,0,0,1-2.523,1.046,2.788,2.788,0,0,1-2.212-.855,3.637,3.637,0,0,1-.751-2.474V7.019h2.017v5.794q0,1.71,1.419,1.71a1.993,1.993,0,0,0,1.984-1.054V7.019H52.61V16h-1.9ZM57.192,4.835V7.019h1.585V8.513H57.192v5.014a1.1,1.1,0,0,0,.2.743.943.943,0,0,0,.726.228,3.107,3.107,0,0,0,.706-.083v1.561a4.968,4.968,0,0,1-1.328.191q-2.324,0-2.324-2.565V8.513H53.7V7.019h1.478V4.835Zm2.5,6.591a5.3,5.3,0,0,1,.523-2.378,3.819,3.819,0,0,1,1.469-1.627,4.14,4.14,0,0,1,2.175-.569,3.923,3.923,0,0,1,2.951,1.17,4.6,4.6,0,0,1,1.224,3.1l.008.473a5.343,5.343,0,0,1-.51,2.374,3.773,3.773,0,0,1-1.461,1.619,4.17,4.17,0,0,1-2.2.573A3.9,3.9,0,0,1,60.832,14.9a4.848,4.848,0,0,1-1.141-3.374Zm2.017.174a3.619,3.619,0,0,0,.573,2.171,1.862,1.862,0,0,0,1.594.784,1.842,1.842,0,0,0,1.59-.8,4,4,0,0,0,.569-2.333,3.572,3.572,0,0,0-.585-2.158,1.973,1.973,0,0,0-3.158-.012A3.922,3.922,0,0,0,61.707,11.6Zm11.729,2.955a1.824,1.824,0,0,0,1.253-.44,1.5,1.5,0,0,0,.531-1.087h1.9a2.963,2.963,0,0,1-.523,1.565,3.43,3.43,0,0,1-1.328,1.15,3.958,3.958,0,0,1-1.81.423,3.829,3.829,0,0,1-2.988-1.22,4.84,4.84,0,0,1-1.1-3.37v-.208a4.759,4.759,0,0,1,1.1-3.283,3.8,3.8,0,0,1,2.988-1.233,3.69,3.69,0,0,1,2.611.934,3.345,3.345,0,0,1,1.058,2.453h-1.9a1.847,1.847,0,0,0-.527-1.27,1.7,1.7,0,0,0-1.258-.5,1.775,1.775,0,0,0-1.511.71,3.621,3.621,0,0,0-.54,2.154v.324a3.681,3.681,0,0,0,.527,2.179A1.773,1.773,0,0,0,73.436,14.556Zm4.831-3.129a5.3,5.3,0,0,1,.523-2.378A3.819,3.819,0,0,1,80.26,7.421a4.14,4.14,0,0,1,2.175-.569,3.923,3.923,0,0,1,2.951,1.17,4.6,4.6,0,0,1,1.224,3.1l.008.473a5.343,5.343,0,0,1-.51,2.374,3.773,3.773,0,0,1-1.461,1.619,4.17,4.17,0,0,1-2.2.573A3.9,3.9,0,0,1,79.409,14.9a4.848,4.848,0,0,1-1.141-3.374Zm2.017.174a3.619,3.619,0,0,0,.573,2.171,1.862,1.862,0,0,0,1.594.784,1.842,1.842,0,0,0,1.59-.8,4,4,0,0,0,.569-2.333,3.572,3.572,0,0,0-.585-2.158,1.973,1.973,0,0,0-3.158-.012A3.922,3.922,0,0,0,80.284,11.6ZM90.2,7.019l.058,1.038a3.229,3.229,0,0,1,2.615-1.2q2.806,0,2.855,3.212V16H93.707V10.181a1.85,1.85,0,0,0-.369-1.266A1.554,1.554,0,0,0,92.13,8.5a1.944,1.944,0,0,0-1.818,1.1V16H88.295V7.019ZM98.314,16V8.513h-1.37V7.019h1.37V6.4a3.593,3.593,0,0,1,.448-1.81,2.788,2.788,0,0,1,1.245-1.137,4.482,4.482,0,0,1,1.934-.382,5.638,5.638,0,0,1,1.274.141q.61.141,1.266.357l-.307,1.668a6.421,6.421,0,0,0-2.092-.4,1.869,1.869,0,0,0-1.336.4,1.61,1.61,0,0,0-.415,1.208v.564H102.1V8.513h-1.768V16Zm7.122,0h-2.017V7.019h2.017Zm7.6,0a3.113,3.113,0,0,1-.232-.838,3.393,3.393,0,0,1-4.565.232,2.47,2.47,0,0,1-.855-1.909,2.55,2.55,0,0,1,1.067-2.2,5.169,5.169,0,0,1,3.051-.768h1.237V9.924a1.573,1.573,0,0,0-.39-1.116,1.547,1.547,0,0,0-1.187-.419,1.777,1.777,0,0,0-1.129.344,1.066,1.066,0,0,0-.44.876h-2.017a2.239,2.239,0,0,1,.49-1.382A3.263,3.263,0,0,1,109.4,7.218a4.68,4.68,0,0,1,1.88-.365,3.769,3.769,0,0,1,2.515.793,2.827,2.827,0,0,1,.963,2.229v4.051a4.591,4.591,0,0,0,.34,1.934V16Zm-2.216-1.453a2.294,2.294,0,0,0,1.125-.291,1.941,1.941,0,0,0,.793-.78V11.783h-1.087a2.973,2.973,0,0,0-1.685.39,1.264,1.264,0,0,0-.564,1.1,1.179,1.179,0,0,0,.386.926A1.5,1.5,0,0,0,110.823,14.547Zm7.919-7.529.058,1.038a3.229,3.229,0,0,1,2.615-1.2q2.806,0,2.855,3.212V16h-2.017V10.181a1.85,1.85,0,0,0-.369-1.266,1.554,1.554,0,0,0-1.208-.411,1.944,1.944,0,0,0-1.818,1.1V16h-2.017V7.019Zm9.737,7.371h4.781V16h-7.288V14.68l4.557-6.035h-4.474V7.019h7.031V8.3ZM140.241,16a3.113,3.113,0,0,1-.232-.838,3.393,3.393,0,0,1-4.565.232,2.47,2.47,0,0,1-.855-1.909,2.55,2.55,0,0,1,1.067-2.2,5.169,5.169,0,0,1,3.051-.768h1.237V9.924a1.573,1.573,0,0,0-.39-1.116,1.547,1.547,0,0,0-1.187-.419,1.777,1.777,0,0,0-1.129.344,1.066,1.066,0,0,0-.44.876h-2.017a2.239,2.239,0,0,1,.49-1.382A3.263,3.263,0,0,1,136.6,7.218a4.68,4.68,0,0,1,1.88-.365A3.769,3.769,0,0,1,141,7.645a2.827,2.827,0,0,1,.963,2.229v4.051a4.591,4.591,0,0,0,.34,1.934V16Zm-2.216-1.453a2.294,2.294,0,0,0,1.125-.291,1.941,1.941,0,0,0,.793-.78V11.783h-1.087a2.973,2.973,0,0,0-1.685.39,1.264,1.264,0,0,0-.564,1.1,1.179,1.179,0,0,0,.386.926A1.5,1.5,0,0,0,138.025,14.547Z" transform="translate(844 3305.5)" fill="#12263f"/>
    <path id="Trazado_643402" data-name="Trazado 643402" d="M38.781,13.186H34.1L33.119,16H30.936L35.5,3.914h1.884L41.96,16H39.768Zm-4.092-1.693h3.5L36.44,6.479Zm13.8,3.627a3.128,3.128,0,0,1-2.523,1.046,2.788,2.788,0,0,1-2.212-.855A3.637,3.637,0,0,1,43,12.837V7.019h2.017v5.794q0,1.71,1.419,1.71a1.993,1.993,0,0,0,1.984-1.054V7.019h2.017V16h-1.9ZM55.017,4.835V7.019H56.6V8.513H55.017v5.014a1.1,1.1,0,0,0,.2.743.943.943,0,0,0,.726.228,3.107,3.107,0,0,0,.706-.083v1.561a4.968,4.968,0,0,1-1.328.191Q53,16.166,53,13.6V8.513H51.522V7.019H53V4.835Zm2.5,6.591a5.3,5.3,0,0,1,.523-2.378,3.819,3.819,0,0,1,1.469-1.627,4.14,4.14,0,0,1,2.175-.569,3.923,3.923,0,0,1,2.951,1.17,4.6,4.6,0,0,1,1.224,3.1l.008.473a5.343,5.343,0,0,1-.51,2.374,3.773,3.773,0,0,1-1.461,1.619,4.17,4.17,0,0,1-2.2.573A3.9,3.9,0,0,1,58.657,14.9a4.848,4.848,0,0,1-1.141-3.374Zm2.017.174a3.619,3.619,0,0,0,.573,2.171,1.862,1.862,0,0,0,1.594.784,1.842,1.842,0,0,0,1.59-.8,4,4,0,0,0,.569-2.333,3.572,3.572,0,0,0-.585-2.158,1.973,1.973,0,0,0-3.158-.012A3.922,3.922,0,0,0,59.532,11.6Zm11.082,1.843,1.9-6.425H74.6L71.486,16H69.734L66.6,7.019h2.092ZM81.1,16a3.113,3.113,0,0,1-.232-.838,3.393,3.393,0,0,1-4.565.232,2.47,2.47,0,0,1-.855-1.909,2.55,2.55,0,0,1,1.067-2.2,5.169,5.169,0,0,1,3.051-.768H80.8V9.924a1.573,1.573,0,0,0-.39-1.116,1.547,1.547,0,0,0-1.187-.419,1.777,1.777,0,0,0-1.129.344,1.066,1.066,0,0,0-.44.876H75.636a2.239,2.239,0,0,1,.49-1.382,3.263,3.263,0,0,1,1.332-1.009,4.68,4.68,0,0,1,1.88-.365,3.769,3.769,0,0,1,2.515.793,2.827,2.827,0,0,1,.963,2.229v4.051a4.591,4.591,0,0,0,.34,1.934V16Zm-2.216-1.453a2.294,2.294,0,0,0,1.125-.291,1.941,1.941,0,0,0,.793-.78V11.783H79.712a2.973,2.973,0,0,0-1.685.39,1.264,1.264,0,0,0-.564,1.1,1.179,1.179,0,0,0,.386.926A1.5,1.5,0,0,0,78.882,14.547ZM87.074,16H85.057V3.25h2.017Zm1.818-4.574a5.3,5.3,0,0,1,.523-2.378,3.819,3.819,0,0,1,1.469-1.627,4.14,4.14,0,0,1,2.175-.569,3.923,3.923,0,0,1,2.951,1.17,4.6,4.6,0,0,1,1.224,3.1l.008.473a5.343,5.343,0,0,1-.51,2.374,3.773,3.773,0,0,1-1.461,1.619,4.17,4.17,0,0,1-2.2.573A3.9,3.9,0,0,1,90.034,14.9a4.848,4.848,0,0,1-1.141-3.374Zm2.017.174a3.619,3.619,0,0,0,.573,2.171,1.862,1.862,0,0,0,1.594.784,1.842,1.842,0,0,0,1.59-.8,4,4,0,0,0,.569-2.333,3.572,3.572,0,0,0-.585-2.158,1.973,1.973,0,0,0-3.158-.012A3.922,3.922,0,0,0,90.909,11.6Zm12.742-2.739a4.991,4.991,0,0,0-.822-.066,1.85,1.85,0,0,0-1.868,1.063V16H98.945V7.019h1.926l.05,1a2.273,2.273,0,0,1,2.025-1.17,1.888,1.888,0,0,1,.714.116ZM110.043,16a3.113,3.113,0,0,1-.232-.838,3.393,3.393,0,0,1-4.565.232,2.47,2.47,0,0,1-.855-1.909,2.55,2.55,0,0,1,1.067-2.2,5.169,5.169,0,0,1,3.051-.768h1.237V9.924a1.573,1.573,0,0,0-.39-1.116,1.547,1.547,0,0,0-1.187-.419,1.777,1.777,0,0,0-1.129.344,1.066,1.066,0,0,0-.44.876h-2.017a2.239,2.239,0,0,1,.49-1.382A3.263,3.263,0,0,1,106.4,7.218a4.68,4.68,0,0,1,1.88-.365,3.769,3.769,0,0,1,2.515.793,2.827,2.827,0,0,1,.963,2.229v4.051a4.591,4.591,0,0,0,.34,1.934V16Zm-2.216-1.453a2.294,2.294,0,0,0,1.125-.291,1.941,1.941,0,0,0,.793-.78V11.783h-1.087a2.973,2.973,0,0,0-1.685.39,1.264,1.264,0,0,0-.564,1.1,1.179,1.179,0,0,0,.386.926A1.5,1.5,0,0,0,107.826,14.547Zm9.737.008a1.824,1.824,0,0,0,1.253-.44,1.5,1.5,0,0,0,.531-1.087h1.9a2.963,2.963,0,0,1-.523,1.565,3.43,3.43,0,0,1-1.328,1.15,3.958,3.958,0,0,1-1.81.423,3.829,3.829,0,0,1-2.988-1.22,4.84,4.84,0,0,1-1.1-3.37v-.208a4.759,4.759,0,0,1,1.1-3.283,3.8,3.8,0,0,1,2.988-1.233,3.69,3.69,0,0,1,2.611.934,3.345,3.345,0,0,1,1.058,2.453h-1.9a1.847,1.847,0,0,0-.527-1.27,1.7,1.7,0,0,0-1.258-.5,1.775,1.775,0,0,0-1.511.71,3.621,3.621,0,0,0-.54,2.154v.324a3.681,3.681,0,0,0,.527,2.179A1.773,1.773,0,0,0,117.563,14.556ZM124.918,16H122.9V7.019h2.017ZM122.776,4.686a1.071,1.071,0,0,1,.295-.772,1.113,1.113,0,0,1,.843-.307,1.127,1.127,0,0,1,.847.307,1.062,1.062,0,0,1,.3.772,1.038,1.038,0,0,1-.3.76,1.136,1.136,0,0,1-.847.3,1.122,1.122,0,0,1-.843-.3A1.046,1.046,0,0,1,122.776,4.686Zm3.959,6.74a5.3,5.3,0,0,1,.523-2.378,3.819,3.819,0,0,1,1.469-1.627,4.14,4.14,0,0,1,2.175-.569,3.923,3.923,0,0,1,2.951,1.17,4.6,4.6,0,0,1,1.224,3.1l.008.473a5.343,5.343,0,0,1-.51,2.374,3.773,3.773,0,0,1-1.461,1.619,4.17,4.17,0,0,1-2.2.573,3.9,3.9,0,0,1-3.042-1.266,4.848,4.848,0,0,1-1.141-3.374Zm2.017.174a3.619,3.619,0,0,0,.573,2.171,1.862,1.862,0,0,0,1.594.784,1.842,1.842,0,0,0,1.59-.8,4,4,0,0,0,.569-2.333,3.572,3.572,0,0,0-.585-2.158,1.973,1.973,0,0,0-3.158-.012A3.922,3.922,0,0,0,128.753,11.6Zm2.706-8.351h2.3l-2.3,2.515-1.619,0Zm7.205,3.769.058,1.038a3.229,3.229,0,0,1,2.615-1.2q2.806,0,2.855,3.212V16h-2.017V10.181a1.85,1.85,0,0,0-.369-1.266A1.554,1.554,0,0,0,140.6,8.5a1.944,1.944,0,0,0-1.818,1.1V16h-2.017V7.019Z" transform="translate(875 3387.499)" fill="#12263f"/>
  </g>
</svg>
